<?xml version="1.0" encoding="utf-8"?>
<!-- Generator: Adobe Illustrator 17.1.0, SVG Export Plug-In . SVG Version: 6.00 Build 0)  -->
<!DOCTYPE svg PUBLIC "-//W3C//DTD SVG 1.1//EN" "http://www.w3.org/Graphics/SVG/1.1/DTD/svg11.dtd">
<svg version="1.1" id="Réteg_1" xmlns="http://www.w3.org/2000/svg" xmlns:xlink="http://www.w3.org/1999/xlink" x="0px" y="0px"
	 viewBox="0 0 202.8 79.3" enable-background="new 0 0 202.8 79.3" xml:space="preserve">
<g>
	<path fill="#FDFDFD" d="M101.4,79.2c-33.4,0-66.7,0-100.1,0C0.2,79.3,0,79,0,77.9c0-25.5,0-51,0-76.5C0,0.3,0.2,0,1.3,0
		c66.7,0,133.3,0,200,0c1.2,0,1.4,0.3,1.4,1.4c0,25.5,0,51,0,76.5c0,1-0.2,1.3-1.3,1.3C168.1,79.2,134.8,79.2,101.4,79.2z M47.4,1.9
		c-5.3,0-10.6,0-15.9,0c-2.9,0-4.2,1.5-3.9,4.4c0.3,2.5,0.1,5.1,0.1,7.6c0,1.2-0.5,2.1-1.8,2.3c-5.4,0.9-9.9,3.5-13.4,7.7
		c-1.7,2-3,4.3-3.8,6.8c-1.3,3.9-1.8,7.9-1.2,12.1c0.6,4.8,2.3,9,5.8,12.4c3.2,3.2,7.2,5,11.6,6c0.8,0.2,1.8,0.3,1.7,1.4
		c-0.1,1.5,0.8,2.3,2,2.8c0.9,0.5,1.9,0.8,2.8,1.3c4.4,2.4,9.1,4,13.6,6.3c0.9,0.4,1.8,0.8,2.7,1.2c1.4,0.6,3,0.7,4.4,0.1
		c3.1-1.4,5.9-3.1,8.3-5.6c1.8-1.8,3.2-3.9,4.3-6.2c0.9-2,1.1-2,3.2-1.4c1.8,0.5,3.6,0.7,5.5,0.8c5.9,0.3,11.9-0.6,17.8-0.4
		c7.9,0.3,15.9,0.1,23.9,0.1c2,0,2,0,2,2c0,2.1,0,4.2,0,6.2c0,1.7,0.7,3.1,2.3,3.9c2.6,1.3,5.4,2.1,8.2,2.7
		c6.6,1.4,13.2,1.1,19.5-1.5c6.3-2.6,10.2-7.6,12.1-14.1c0.3-1.1,0.8-1.2,1.7-0.8c4.2,1.9,8.5,2.5,13.1,2.3
		c8.8-0.4,16.2-5.4,19.6-13.4c1.8-4.1,1.5-8.4,1.6-12.7c0.1-4.2-2-7.8-4.2-11.2c-2.7-4.2-6.9-6.6-11.4-8.3
		c-3.7-1.4-7.6-1.1-11.5-0.6c-0.3,0-0.5,0-0.8,0.1c-2.8,1.3-5.6,1.9-8.8,1.1c-5.6-1.5-11.4-1.9-17.2-1.3c-5.6,0.6-10.9,2-15.5,5.2
		c-0.5,0.4-1.1,0.6-1.7,0c-0.9-1-2.2-1.5-3.4-2.1c-3.8-2.3-7.9-3.4-12.3-3.4c-5.6,0-11.1,1-16.5,2.3c-1.4,0.3-2.6,0.3-3.9-0.3
		c-1.6-0.9-3.4-1.3-5.2-1.6c-4.5-0.7-9-0.5-13.4,0.8c-1.3,0.4-1.8,0-1.8-1.4c0-3.3,0-6.5,0-9.8c0-2.6-1-3.6-3.6-3.6
		C58.4,1.9,52.9,1.9,47.4,1.9z"/>
	<g>
		<path fill="#FAFBFA" stroke="#0E100A" stroke-width="0.2" stroke-miterlimit="10" d="M47.4,1.9c5.5,0,10.9,0,16.4,0
			c2.5,0,3.6,1,3.6,3.6c0,3.3,0,6.5,0,9.8c0,1.4,0.5,1.8,1.8,1.4c4.4-1.3,8.9-1.5,13.4-0.8c1.8,0.3,3.6,0.7,5.2,1.6
			c1.3,0.7,2.5,0.7,3.9,0.3c5.4-1.3,10.9-2.3,16.5-2.3c4.4,0,8.5,1.1,12.3,3.4c1.1,0.7,2.5,1.1,3.4,2.1c0.6,0.6,1.1,0.4,1.7,0
			c4.7-3.3,9.9-4.6,15.5-5.2c5.8-0.7,11.6-0.2,17.2,1.3c3.2,0.8,6,0.2,8.8-1.1c0.2-0.1,0.5-0.1,0.8-0.1c3.9-0.5,7.8-0.8,11.5,0.6
			c4.6,1.7,8.7,4.1,11.4,8.3c2.2,3.4,4.4,7.1,4.2,11.2c-0.1,4.2,0.2,8.5-1.6,12.7c-3.4,8-10.8,13-19.6,13.4
			c-4.6,0.2-8.9-0.4-13.1-2.3c-0.9-0.4-1.4-0.3-1.7,0.8c-1.8,6.6-5.7,11.5-12.1,14.1c-6.3,2.6-12.8,2.9-19.5,1.5
			c-2.9-0.6-5.6-1.4-8.2-2.7c-1.7-0.8-2.3-2.2-2.3-3.9c0-2.1,0-4.2,0-6.2c0-2,0-2-2-2c-8,0-15.9,0.2-23.9-0.1
			c-6-0.2-11.9,0.7-17.8,0.4c-1.9-0.1-3.7-0.3-5.5-0.8c-2.1-0.6-2.2-0.6-3.2,1.4c-1.1,2.3-2.5,4.4-4.3,6.2c-2.4,2.4-5.3,4.2-8.3,5.6
			c-1.4,0.6-2.9,0.5-4.4-0.1c-0.9-0.4-1.8-0.8-2.7-1.2c-4.5-2.2-9.2-3.9-13.6-6.3c-0.9-0.5-1.9-0.8-2.8-1.3c-1.2-0.6-2.1-1.3-2-2.8
			c0.1-1.1-0.9-1.2-1.7-1.4c-4.4-1-8.4-2.8-11.6-6c-3.4-3.4-5.1-7.6-5.8-12.4c-0.6-4.2-0.1-8.1,1.2-12.1c0.8-2.5,2.1-4.8,3.8-6.8
			c3.5-4.2,8-6.7,13.4-7.7c1.3-0.2,1.8-1.1,1.8-2.3c0-2.5,0.2-5.1-0.1-7.6c-0.3-2.9,1-4.4,3.9-4.4C36.8,1.9,42.1,1.9,47.4,1.9z
			 M143.4,53.1c0.3,5.3-2.3,8.1-7.4,8.4c-3.7,0.2-7.1-0.5-10.4-2c-0.8-0.4-1.1-0.3-1,0.7c0,2.1,0.1,4.3,0,6.4c0,0.9,0.3,1.4,1.2,1.7
			c3,1,6.2,1.4,9.4,1.4c4.1,0,8-0.7,11.4-3.1c4.4-3.1,5.8-7.6,6.1-12.7c0.5-7.1-0.1-14.2-0.1-21.3c0-1,0.2-1.4,1.2-1.1
			c0.6,0.2,1,0.1,1.2-0.5c0.9-2,1.9-4,2.9-6.2c-7.5-1.4-14.8-2.2-22-0.1c-9.2,2.7-13.5,10-11.6,19.3c1.1,5.3,4.6,8.9,9.9,10
			C137.2,54.5,140.4,54.3,143.4,53.1z M44.7,31.2c0-6.9,0-13.7,0-20.6c0-1-0.3-1.3-1.3-1.3c-2.3,0.1-4.7,0.1-7,0
			c-1,0-1.2,0.3-1.2,1.2c0.1,3.3,0,6.5,0,9.8c0,1,0.4,2.4-0.2,3c-0.5,0.4-1.8,0-2.8-0.1c-9.7-0.6-16.8,5.3-17.3,14.5
			c-0.5,9,3.5,14.4,12,16c5.7,1.1,11.3,0.3,16.9-0.6c1-0.2,0.9-0.7,0.9-1.4C44.7,44.9,44.7,38.1,44.7,31.2z M156.7,39.1
			c0,3.9,0.8,7.5,3.2,10.5c2.9,3.6,6.9,4.9,11.4,5.2c7.6,0.5,13.8-3.8,15.7-10.9c0.5-2,0.7-4.1,0.6-6.2c-0.3-6-2.6-10.8-8.4-13.2
			c-4.6-1.9-9.4-1.9-13.9,0.1C159,27.3,156.9,32.7,156.7,39.1z M93,39.6c0,4.3,0,8.6,0,12.9c0,1.2,0.4,1.5,1.5,1.4
			c2.1-0.1,4.3-0.1,6.4,0c1.3,0.1,1.7-0.3,1.7-1.6c-0.1-6.4,0-12.8-0.1-19.2c0-1.4,0.4-2,1.8-2.1c0.3,0,0.6-0.1,0.9-0.2
			c4.6-0.7,6.3,0.8,6.3,5.4c0,5.4,0,10.8,0,16.2c0,1.1,0.2,1.5,1.4,1.4c2.4-0.1,4.8-0.1,7.2,0c0.8,0,1.1-0.3,1.1-1.1
			c-0.1-6.6,0-13.2-0.2-19.8c-0.2-5.5-2.9-8.5-8.3-9.4c-6.3-1.1-12.5,0-18.6,1.5c-1,0.2-0.9,0.8-0.9,1.5C93,31,93,35.3,93,39.6z
			 M88.4,41.5c0-3.1,0-6.1,0-9.2c0-0.5,0-0.9-0.1-1.4c-0.2-4.2-2-6.4-6.2-7.2c-5.5-1.1-10.8-0.2-16,2c-0.6,0.3-0.8,0.7-0.8,1.3
			c0,1.7,0.1,3.3,0,5c-0.1,1.4,0.4,1.3,1.4,0.8c1.6-0.8,3.4-1.3,5.2-1.7c1.9-0.4,3.9-0.7,5.9-0.4c1.6,0.2,1.9,1,2,3.1
			c0,1.6-1.1,1.1-1.9,1.3c-0.7,0.1-1.3,0.2-2,0.3c-3.3,0.6-6.7,1.2-9.4,3.4c-3,2.5-3.4,5.8-2.8,9.3c0.6,3.2,2.7,5,5.8,5.8
			c0.9,0.2,1.8,0.4,2.8,0.5c5.1,0.4,10.1-0.2,15.1-0.7c1-0.1,1.1-0.6,1.1-1.5C88.4,48.6,88.4,45.1,88.4,41.5z M41,62.9
			c2.8,1.3,5.3,2.5,7.7,3.7c0.8,0.4,1.4,0.3,2.1-0.1c6-3,8.3-8.1,8.7-14.5c0.5-9,0.1-18,0.3-27c0-0.9-0.3-1.2-1.1-1.2
			c-2.4,0.1-4.8,0.1-7.2,0c-1,0-1.3,0.3-1.3,1.3c0,5.8,0,11.6,0,17.5c0,2.9,0,5.7-0.3,8.6c-0.5,4.6-2.4,8.2-6.6,10.4
			C42.6,62,41.9,62.4,41,62.9z M59.8,14.2c0-1.3,0-2.6,0-3.9c0-0.6-0.2-0.9-0.9-0.9c-2.6,0-5.2,0-7.8,0c-0.8,0-1,0.3-1,1
			c0,2.6,0,5.2,0,7.8c0,0.9,0.3,1,1.1,1c2.5,0,5,0,7.5,0c0.8,0,1.1-0.3,1-1.1C59.8,16.8,59.8,15.5,59.8,14.2z"/>
	</g>
	<path fill="#0D2F21" d="M143.4,53.1c-3,1.3-6.2,1.4-9.3,0.8c-5.3-1-8.8-4.7-9.9-10c-1.9-9.4,2.4-16.7,11.6-19.3
		c7.3-2.1,14.6-1.3,22,0.1c-1,2.2-2,4.2-2.9,6.2c-0.3,0.6-0.7,0.7-1.2,0.5c-1-0.3-1.2,0.1-1.2,1.1c0.1,7.1,0.6,14.2,0.1,21.3
		c-0.3,5.1-1.7,9.6-6.1,12.7c-3.4,2.4-7.3,3-11.4,3.1c-3.2,0-6.3-0.4-9.4-1.4c-0.9-0.3-1.2-0.7-1.2-1.7c0.1-2.1,0.1-4.3,0-6.4
		c0-0.9,0.2-1.1,1-0.7c3.3,1.6,6.8,2.2,10.4,2C141.1,61.2,143.7,58.3,143.4,53.1z M143.5,38.7c-0.1,0-0.1,0-0.2,0c0-2.2,0-4.5,0-6.7
		c0-0.5,0.1-1-0.7-1.1c-4-0.5-8.1,2.2-8.9,6.1c-1.3,6.5,2.7,10.7,8.7,9.2c0.9-0.2,1.1-0.6,1.1-1.5C143.4,42.8,143.5,40.7,143.5,38.7
		z"/>
	<path fill="#0D2F21" d="M44.7,31.2c0,6.9,0,13.7,0,20.6c0,0.7,0,1.3-0.9,1.4c-5.6,0.9-11.2,1.6-16.9,0.6c-8.4-1.6-12.4-7-12-16
		c0.5-9.2,7.6-15.1,17.3-14.5c1,0.1,2.3,0.6,2.8,0.1c0.7-0.6,0.2-2,0.2-3c0-3.3,0-6.5,0-9.8c0-0.9,0.2-1.3,1.2-1.2
		c2.3,0.1,4.7,0.1,7,0c1,0,1.3,0.3,1.3,1.3C44.7,17.5,44.7,24.4,44.7,31.2z M35.2,39c0-2.2,0-4.4,0-6.5c0-0.5,0.1-1-0.6-1.3
		c-3-1.3-7.7,0.3-9.1,3.2c-1.5,3.1-1.6,6.3,0.2,9.2c1.7,2.9,4.6,3.1,7.5,2.9c0.3,0,0.6-0.1,0.9-0.1c0.8,0,1-0.4,1-1.2
		C35.2,43.3,35.2,41.1,35.2,39z"/>
	<path fill="#0D2F21" d="M156.7,39.1c0.2-6.4,2.3-11.7,8.5-14.5c4.6-2,9.3-2,13.9-0.1c5.8,2.4,8.1,7.3,8.4,13.2
		c0.1,2.1-0.1,4.1-0.6,6.2c-1.9,7.2-8.1,11.4-15.7,10.9c-4.5-0.3-8.5-1.5-11.4-5.2C157.5,46.5,156.7,42.9,156.7,39.1z M177.9,38.9
		c0-1.6-0.2-3.2-0.8-4.7c-0.9-2-2.3-3.3-4.6-3.3c-2.4-0.1-4.2,1-5.1,3.1c-1.4,3.3-1.4,6.7,0,10c0.9,2.1,2.6,3.2,4.9,3.2
		c2.3,0,3.9-1.3,4.8-3.4C177.7,42.2,177.9,40.5,177.9,38.9z"/>
	<path fill="#0D2F21" d="M93,39.6c0-4.3,0-8.6,0-12.9c0-0.7-0.1-1.3,0.9-1.5c6.1-1.5,12.3-2.6,18.6-1.5c5.4,0.9,8.1,3.9,8.3,9.4
		c0.2,6.6,0.1,13.2,0.2,19.8c0,0.8-0.2,1.1-1.1,1.1c-2.4,0-4.8-0.1-7.2,0c-1.1,0-1.4-0.4-1.4-1.4c0-5.4,0-10.8,0-16.2
		c0-4.6-1.7-6.1-6.3-5.4c-0.3,0-0.6,0.2-0.9,0.2c-1.3,0.1-1.8,0.7-1.8,2.1c0.1,6.4,0,12.8,0.1,19.2c0,1.3-0.4,1.7-1.7,1.6
		c-2.1-0.1-4.3-0.1-6.4,0c-1.1,0-1.5-0.2-1.5-1.4C93,48.3,93,43.9,93,39.6z"/>
	<path fill="#0D2F21" d="M88.4,41.5c0,3.5,0,7.1,0,10.6c0,0.8-0.1,1.3-1.1,1.5c-5,0.5-10,1.1-15.1,0.7c-0.9-0.1-1.9-0.3-2.8-0.5
		c-3.1-0.8-5.2-2.6-5.8-5.8c-0.7-3.6-0.3-6.9,2.8-9.3c2.7-2.2,6.1-2.8,9.4-3.4c0.7-0.1,1.3-0.1,2-0.3c0.8-0.2,2,0.3,1.9-1.3
		c-0.1-2.1-0.4-2.9-2-3.1c-2-0.3-3.9,0-5.9,0.4c-1.8,0.4-3.5,0.9-5.2,1.7c-1,0.5-1.5,0.5-1.4-0.8c0.1-1.7,0-3.3,0-5
		c0-0.7,0.2-1,0.8-1.3c5.1-2.2,10.5-3.1,16-2c4.1,0.8,5.9,3,6.2,7.2c0,0.5,0.1,0.9,0.1,1.4C88.4,35.4,88.4,38.5,88.4,41.5z
		 M80.2,44.3c0-0.8,0-1.6,0-2.3c0-0.5-0.1-0.8-0.7-0.7c-2.1,0.3-4.2,0.4-6.1,1.5c-1.2,0.7-1.5,1.8-1.3,3.1c0.2,1.2,1.1,1.7,2.2,1.9
		c0.8,0.1,1.7,0.1,2.5,0.1C80.2,47.7,80.2,47.7,80.2,44.3z"/>
	<path fill="#0D2F21" d="M41,62.9c0.9-0.5,1.6-0.9,2.3-1.2c4.2-2.2,6.2-5.8,6.6-10.4c0.3-2.8,0.3-5.7,0.3-8.6c0-5.8,0-11.6,0-17.5
		c0-1,0.3-1.3,1.3-1.3c2.4,0.1,4.8,0.1,7.2,0c0.9,0,1.2,0.3,1.1,1.2c-0.1,9,0.2,18-0.3,27c-0.4,6.3-2.7,11.5-8.7,14.5
		c-0.8,0.4-1.3,0.5-2.1,0.1C46.3,65.3,43.8,64.2,41,62.9z"/>
	<path fill="#0D2F21" d="M59.8,14.2c0,1.3,0,2.6,0,3.9c0,0.8-0.2,1.1-1,1.1c-2.5,0-5,0-7.5,0c-0.8,0-1.1-0.2-1.1-1
		c0-2.6,0-5.2,0-7.8c0-0.7,0.2-1,1-1c2.6,0,5.2,0,7.8,0c0.7,0,0.9,0.3,0.9,0.9C59.8,11.6,59.8,12.9,59.8,14.2z"/>
	<path fill="#FAFBFA" d="M143.5,38.7c0,2,0,4,0,6.1c0,0.9-0.2,1.2-1.1,1.5c-6.1,1.5-10.1-2.7-8.7-9.2c0.8-3.9,4.8-6.7,8.9-6.1
		c0.8,0.1,0.7,0.5,0.7,1.1c0,2.2,0,4.5,0,6.7C143.3,38.7,143.4,38.7,143.5,38.7z"/>
	<path fill="#FAFBFA" d="M35.2,39c0,2.1,0,4.3,0,6.4c0,0.8-0.2,1.2-1,1.2c-0.3,0-0.6,0.1-0.9,0.1c-2.9,0.1-5.8-0.1-7.5-2.9
		c-1.8-3-1.7-6.2-0.2-9.2c1.4-3,6-4.5,9.1-3.2c0.7,0.3,0.6,0.8,0.6,1.3C35.3,34.7,35.2,36.8,35.2,39z"/>
	<path fill="#FAFBFA" d="M177.9,38.9c0,1.7-0.1,3.3-0.8,4.9c-0.9,2.1-2.4,3.3-4.8,3.4c-2.3,0-4-1-4.9-3.2c-1.4-3.3-1.4-6.7,0-10
		c0.9-2.2,2.7-3.2,5.1-3.1c2.3,0.1,3.7,1.3,4.6,3.3C177.7,35.7,177.9,37.3,177.9,38.9z"/>
	<path fill="#FAFBFA" d="M80.2,44.3c0,3.4,0,3.4-3.5,3.5c-0.8,0-1.7,0-2.5-0.1c-1.1-0.2-2-0.7-2.2-1.9c-0.2-1.3,0.1-2.4,1.3-3.1
		c1.9-1.1,4-1.2,6.1-1.5c0.6-0.1,0.7,0.3,0.7,0.7C80.2,42.7,80.2,43.5,80.2,44.3z"/>
</g>
</svg>
