<?xml version="1.0" encoding="utf-8"?>
<!-- Generator: Adobe Illustrator 17.1.0, SVG Export Plug-In . SVG Version: 6.00 Build 0)  -->
<!DOCTYPE svg PUBLIC "-//W3C//DTD SVG 1.1//EN" "http://www.w3.org/Graphics/SVG/1.1/DTD/svg11.dtd">
<svg version="1.1" id="Layer_1" xmlns="http://www.w3.org/2000/svg" xmlns:xlink="http://www.w3.org/1999/xlink" x="0px" y="0px"
	 viewBox="0 0 170.1 145.5" enable-background="new 0 0 170.1 145.5" xml:space="preserve">
<g id="Réteg_2">
</g>
<path fill="none" stroke="#000000" stroke-width="0.4" stroke-miterlimit="10" d="M238.4,229.5"/>
<path fill="none" stroke="#000000" stroke-miterlimit="10" d="M-110.7-68"/>
<path fill="none" stroke="#000000" stroke-miterlimit="10" d="M-116.5-69.3"/>
<path fill="none" stroke="#000000" stroke-width="0.4" stroke-miterlimit="10" d="M-40.1,224"/>
<path fill="none" stroke="#000000" stroke-miterlimit="10" d="M239.4,229.5"/>
<g>
	<path fill="none" stroke="#000000" stroke-width="0.2" stroke-miterlimit="10" d="M169.2,37.6C169,52.7,159,62.8,144.7,62.6"/>
	<g>
		<path fill="none" stroke="#000000" stroke-width="0.2" stroke-miterlimit="10" d="M30.3,126.1c0,11.9,6.1,18.3,18.7,18.3"/>
		<path fill="none" stroke="#000000" stroke-width="0.2" stroke-miterlimit="10" d="M48.6,144.4c14.9-0.6,24.8-9.5,25.1-23.2"/>
		<g>
			<g>
				<g>
					<path fill="#C9325E" d="M27.1,12.1h8.3v38.4c-4.3,0.8-7.4,1.1-10.8,1.1C14.5,51.6,9.2,47,9.2,38.2c0-8.5,5.6-13.9,14.3-13.9
						c1.3,0,2.4,0.1,3.6,0.4L27.1,12.1L27.1,12.1z M27.1,31.4c-1-0.3-1.8-0.4-2.8-0.4c-4.2,0-6.6,2.6-6.6,7.1c0,4.4,2.3,6.8,6.6,6.8
						c0.9,0,1.7-0.1,2.9-0.2L27.1,31.4z"/>
					<path fill="#C9325E" d="M48.6,24.9v19.2c0,6.6-0.5,9.8-1.9,12.5c-1.3,2.6-3.1,4.3-6.8,6.1l-7.7-3.7c3.7-1.7,5.4-3.2,6.6-5.5
						c1.2-2.4,1.6-5.1,1.6-12.3V24.9H48.6z M40.3,12.1h8.3v8.5h-8.3V12.1z"/>
					<path fill="#C9325E" d="M53.6,26.7c3.7-1.7,7.2-2.5,11-2.5c4.3,0,7.1,1.1,8.3,3.3c0.7,1.2,0.9,2.9,0.9,6.3v16.9
						c-3.7,0.5-8.4,0.9-11.8,0.9c-6.9,0-10.1-2.4-10.1-7.8c0-5.8,4.1-8.5,14.3-9.4v-1.8c0-1.5-0.8-2-2.9-2c-3.1,0-6.5,0.9-9.7,2.5
						L53.6,26.7L53.6,26.7z M66.6,39.9c-5.5,0.5-7.3,1.4-7.3,3.6c0,1.6,1,2.4,3.3,2.4c1.2,0,2.4-0.1,4-0.4L66.6,39.9L66.6,39.9z"/>
					<path fill="#C9325E" d="M77.8,26.2c4.9-1.3,8.9-1.9,13-1.9c4.3,0,7.3,1,9.2,2.9c1.7,1.8,2.3,3.7,2.3,7.9v16.3H94V35.3
						c0-3.2-1.1-4.4-4-4.4c-1.1,0-2.2,0.1-3.8,0.6v19.7h-8.3L77.8,26.2L77.8,26.2z"/>
					<path fill="#C9325E" d="M105.5,55.8c2.9,1.5,5.8,2.2,8.9,2.2c5.4,0,7.8-2.2,7.8-7.5c0-0.1,0-0.1,0-0.2
						c-1.6,0.8-3.2,1.1-5.4,1.1c-7.3,0-11.9-4.8-11.9-12.4c0-9.4,6.8-14.8,19-14.8c3.6,0,6.8,0.4,10.8,1.2l-2.8,6
						c-2.2-0.4-0.2-0.1-1.8-0.2v0.9l0.1,3.5l0.1,4.5c0.1,1.1,0.1,2.3,0.1,3.4c0,1,0,1.5,0,2.3c0,7.1-0.6,10.4-2.4,13.2
						c-2.6,4-7.1,6-13.4,6c-3.2,0-6-0.5-8.9-1.6L105.5,55.8L105.5,55.8z M122,31c-0.1,0-0.2,0-0.3,0h-0.6c-1.6-0.1-3.5,0.4-4.8,1.2
						c-2,1.1-3,3.2-3,6.1c0,4.1,2,6.5,5.7,6.5c1.1,0,2-0.2,3.1-0.5v-0.6v-2.3c0-1-0.1-2-0.1-3.2l-0.1-3.8l-0.1-2.7L122,31L122,31z"
						/>
					<path fill="#C9325E" d="M147.5,24.2c8.3,0,13.4,5.2,13.4,13.7c0,8.7-5.3,14.1-13.7,14.1c-8.3,0-13.4-5.2-13.4-13.6
						C133.8,29.6,139,24.2,147.5,24.2z M147.3,45.3c3.2,0,5.1-2.6,5.1-7.2c0-4.5-1.8-7.2-5-7.2c-3.3,0-5.2,2.6-5.2,7.2
						C142.2,42.6,144.1,45.3,147.3,45.3z"/>
				</g>
			</g>
			<g>
				<path fill="#C9325E" d="M48.4,134.6c-1,0.1-2.1,0-3.1-0.2c-1-0.3-2-0.7-2.8-1.2s-1.4-1.2-1.9-1.9c-0.5-0.7-0.6-1.5-0.5-2.4
					c0.8,0,1.5,0.2,2,0.5c0.6,0.3,1.2,0.7,1.8,1c0.6,0.4,1.2,0.7,1.9,1c0.7,0.3,1.4,0.5,2.4,0.5c2.2,0,4.1-0.5,5.6-1.4
					c1.5-1,2.7-2.2,3.7-3.8c0.9-1.6,1.6-3.4,2-5.3c0.4-2,0.6-4,0.6-6.1c0-0.5,0-1.4-0.1-2.5s-0.1-2.5-0.2-3.9
					c-0.1-1.4-0.2-3-0.3-4.6c-0.1-1.6-0.2-3.1-0.3-4.6c-0.1-1.4-0.2-2.7-0.3-3.9c-0.1-1.2-0.2-2-0.3-2.5c-0.3,0.8-0.7,1.7-1.2,2.8
					c-0.5,1.1-1,2.3-1.6,3.5c-0.6,1.2-1.3,2.5-2,3.7c-0.7,1.2-1.6,2.3-2.5,3.3c-0.9,1-1.9,1.7-3,2.3c-1.1,0.6-2.3,0.9-3.5,0.9
					c-0.7,0-1.2-0.3-1.5-1c-0.4-0.7-0.6-1.4-0.8-2.2c-0.2-0.8-0.3-1.7-0.4-2.5c-0.1-0.8-0.1-1.4-0.1-1.8c-0.2-2.5-0.2-4.9,0-7.3
					c0.2-2.4,0.6-4.7,1.2-6.7c0.6-2.1,1.4-4,2.4-5.6c1-1.7,2.2-2.9,3.6-3.9c1.4-0.9,3-1.5,4.9-1.6c1.8-0.1,3.9,0.3,6.1,1.2
					c0.6-0.1,1,0.3,1.2,1c0.2,0.8,0.3,1.7,0.3,2.8c0,1.1-0.1,2.3-0.2,3.5c-0.1,1.2-0.2,2.3-0.2,3.1c0,2,0.1,4,0.2,6
					c0.2,2,0.3,4,0.5,6c0.2,2,0.4,4,0.5,5.9c0.2,2,0.2,4,0.2,6c0,2.3-0.2,4.7-0.7,7.3c-0.5,2.6-1.3,4.9-2.4,7.1
					c-1.1,2.2-2.6,4-4.5,5.4C53.4,133.9,51.1,134.6,48.4,134.6z M44.8,100.9c0,0.4,0,0.9,0,1.4c0,0.6,0.1,1.1,0.2,1.6
					c0.1,0.5,0.3,1,0.6,1.3c0.3,0.4,0.7,0.5,1.2,0.5c1.1,0,2.1-0.5,3-1.5s1.8-2.2,2.6-3.7c0.8-1.5,1.5-3.2,2.1-5s1.2-3.7,1.6-5.4
					c0.4-1.8,0.8-3.4,1-4.8s0.3-2.5,0.3-3.2c-2.3-0.8-4.3-0.8-6,0.1c-1.7,0.9-3,2.3-4,4.2c-1,1.9-1.8,4.2-2.2,6.7
					C44.9,95.7,44.8,98.3,44.8,100.9z"/>
				<path fill="#C9325E" d="M67.8,71.7c-0.3,0-0.6-0.1-0.9-0.3c-0.3-0.2-0.6-0.4-0.9-0.7c-0.3-0.3-0.4-0.6-0.5-0.9
					c-0.1-0.3,0-0.6,0.2-0.8c0.2-0.5,0.5-0.9,0.9-1.3c0.5-0.4,0.9-0.6,1.4-0.8c0.5-0.1,0.9-0.1,1.3,0.1c0.4,0.2,0.5,0.6,0.5,1.3
					c0,0.3,0,0.7-0.1,1.1c-0.1,0.4-0.2,0.8-0.3,1.1c-0.2,0.3-0.4,0.6-0.7,0.9C68.5,71.6,68.2,71.7,67.8,71.7z M70.2,108.9
					c-0.2,0-0.4,0-0.7-0.1c-0.3-0.1-0.6-0.2-0.9-0.3c-0.3-0.2-0.6-0.3-0.8-0.5c-0.2-0.2-0.3-0.5-0.3-0.7l-0.1-27.7
					c0-0.3,0.1-0.5,0.3-0.7c0.2-0.2,0.5-0.4,0.8-0.5c0.3-0.2,0.6-0.3,0.9-0.3c0.3-0.1,0.6-0.1,0.7-0.1L70.2,108.9z"/>
				<path fill="#C9325E" d="M74.3,85.2c-0.1-0.5-0.3-1.1-0.5-1.9c-0.2-0.8-0.4-1.6-0.5-2.4c-0.2-0.8-0.2-1.6-0.2-2.3
					c0-0.7,0.1-1.3,0.3-1.8c0.2-0.4,0.6-0.7,1.2-0.7s1.4,0.2,2.4,0.8c0.1,0.4,0.2,1,0.3,1.9c0.1,0.9,0.3,1.9,0.4,2.9
					c0.2,1,0.3,2,0.4,2.9c0.1,0.9,0.2,1.5,0.2,1.9c0.7-1.5,1.6-3,2.7-4.4c1.1-1.4,2.3-2.6,3.7-3.6c1.4-1,3-1.9,4.7-2.5
					c1.7-0.6,3.5-0.9,5.4-0.9l-0.6,3.3c-2.5,0.4-4.8,1.5-6.9,3.1c-2.1,1.7-3.9,3.8-5.3,6.4c-1.4,2.6-2.4,5.7-2.9,9.2
					c-0.5,3.5-0.3,7.3,0.5,11.4l-3.6,0.7c0,0-0.1-0.5-0.2-1.4c-0.1-0.9-0.2-2.1-0.3-3.5c-0.1-1.4-0.2-3-0.3-4.8
					c-0.1-1.8-0.2-3.5-0.3-5.3c-0.1-1.8-0.2-3.5-0.4-5C74.5,87.6,74.4,86.3,74.3,85.2z"/>
				<path fill="#C9325E" d="M97.5,58.8l3.2-0.5c0.2,2,0.3,4.4,0.4,7.2c0.1,2.8,0.2,5.7,0.3,8.8c0.1,3.1,0.2,6.2,0.3,9.4
					c0.1,3.2,0.1,6.2,0.2,9c0.1,2.8,0.1,5.4,0.2,7.7c0.1,2.3,0.2,4.1,0.3,5.4c0,0.5-0.1,1-0.3,1.5c-0.2,0.5-0.4,0.8-0.7,1
					c-0.3,0.2-0.6,0.2-0.9,0.1c-0.3-0.2-0.7-0.6-0.9-1.3L97.5,58.8z"/>
				<path fill="#C9325E" d="M105.2,97.6c0.3-0.7,0.7-1.1,1.1-1.2c0.4-0.2,1-0.2,1.7-0.1c1.4,1.3,2.8,2.5,4.2,3.6
					c1.4,1.1,3,2.1,4.5,2.9c1.6,0.8,3.2,1.5,5,1.9c1.7,0.5,3.6,0.7,5.5,0.7c0.4,0,0.8,0,1.3,0c0.5,0,1-0.1,1.4-0.2
					c0.4-0.1,0.7-0.4,1-0.7c0.3-0.3,0.4-0.7,0.4-1.3c-0.2-1.2-0.8-2.2-1.8-3c-1.1-0.9-2.3-1.7-3.8-2.5c-1.5-0.8-3.1-1.6-4.8-2.4
					c-1.7-0.8-3.2-1.8-4.6-2.8c-1.4-1.1-2.5-2.3-3.3-3.6c-0.8-1.4-1.2-3-1-4.9c0-1.1,0.3-2,1-2.9c0.7-0.8,1.5-1.6,2.5-2.2
					c1-0.6,2-1.1,3.1-1.4c1.1-0.3,2.1-0.5,2.9-0.5c1.7,0,3.3,0.2,5,0.7c1.7,0.5,3.2,1.2,4.6,2.1l-1.6,2.2c-0.7-0.6-1.5-1-2.6-1.3
					c-1-0.3-2.1-0.4-3.1-0.5c-1.1,0-2.1,0.1-3.2,0.3c-1,0.2-2,0.5-2.7,0.9c-0.8,0.4-1.4,0.9-1.8,1.4c-0.4,0.6-0.5,1.2-0.3,1.8
					c0,1.8,0.5,3.3,1.4,4.4c1,1.1,2.2,2.1,3.6,2.9c1.5,0.8,3,1.6,4.7,2.2c1.7,0.7,3.3,1.4,4.7,2.2c1.5,0.8,2.7,1.8,3.6,2.9
					c1,1.1,1.4,2.6,1.4,4.4c0,1.1-0.2,2-0.5,2.7c-0.4,0.7-0.8,1.2-1.4,1.5c-0.6,0.3-1.3,0.6-2.1,0.7c-0.8,0.1-1.7,0.2-2.6,0.2
					c-2.1,0-4.2-0.3-6.5-0.8c-2.2-0.5-4.4-1.3-6.5-2.2c-2.1-1-4.1-2.1-5.9-3.5C108,100.7,106.5,99.2,105.2,97.6z"/>
			</g>
		</g>
		<path fill="none" stroke="#000000" stroke-width="0.2" stroke-miterlimit="10" d="M144.8,62.8c-0.2,15.6,0.2,28.4-0.1,38"/>
		<path fill="none" stroke="#000000" stroke-width="0.2" stroke-miterlimit="10" d="M169.2,37.6c0-14.2-8.8-23.8-21.9-23.8"/>
		<path fill="none" stroke="#000000" stroke-width="0.2" stroke-miterlimit="10" d="M147.3,13.7c0,0-36,0-89.4,0"/>
		<path fill="none" stroke="#000000" stroke-width="0.2" stroke-miterlimit="10" d="M17.5,17.7c-0.6-9.1,9.1-14.1,9.1-14.1
			c12-4.5,30.7-1.9,31.3,10.2"/>
		<path fill="none" stroke="#000000" stroke-width="0.2" stroke-miterlimit="10" d="M17.5,17.7C8,20,0.9,28.6,0.9,38.8
			c0,12,9.7,21.8,21.7,21.8"/>
		<path fill="none" stroke="#000000" stroke-width="0.2" stroke-miterlimit="10" d="M22.6,60.6c0,7.3,5.9,12.2,14.7,12.2"/>
		<path fill="none" stroke="#000000" stroke-width="0.2" stroke-miterlimit="10" d="M32.2,107.7c0.1-10.9,0-18.1,0.4-23.6
			c0.3-3.2,1-6.3,1.5-8c0.2-0.6,0.4-0.8,0.6-1.2c0.7-1.3,1.5-2.1,2.7-2"/>
		<path fill="none" stroke="#000000" stroke-width="0.2" stroke-miterlimit="10" d="M32.2,107.7c-0.1,3.1,1.3,6.4,4.2,8.5"/>
		<path fill="none" stroke="#000000" stroke-width="0.2" stroke-miterlimit="10" d="M30.3,126.1c0.3-4.7,1.7-8.4,6.2-9.8"/>
		<path fill="none" stroke="#000000" stroke-width="0.2" stroke-miterlimit="10" d="M87.8,113.1c-0.1,5-5.5,8.3-14.1,8.1"/>
		<path fill="none" stroke="#000000" stroke-width="0.2" stroke-miterlimit="10" d="M87.8,113.1c-0.3,2.7,9.7,10.2,21.3,4.9l1-0.9
			c3.6,2.8,8.1,4.4,13,4.4c11.9,0,21.5-9,21.5-20.8"/>
	</g>
</g>
<path fill="none" stroke="#000000" stroke-width="0.4" stroke-miterlimit="10" d="M87.8,113.8"/>
</svg>
