<?xml version="1.0" encoding="utf-8"?>
<!-- Generator: Adobe Illustrator 18.1.0, SVG Export Plug-In . SVG Version: 6.00 Build 0)  -->
<!DOCTYPE svg PUBLIC "-//W3C//DTD SVG 1.1//EN" "http://www.w3.org/Graphics/SVG/1.1/DTD/svg11.dtd">
<svg version="1.1" xmlns="http://www.w3.org/2000/svg" xmlns:xlink="http://www.w3.org/1999/xlink" x="0px" y="0px"
	 viewBox="0 0 227.7 71" enable-background="new 0 0 227.7 71" xml:space="preserve">
<g id="Layer_1">
	<g>
		<g>
			<path fill="#FFFFFF" d="M153.9,66c-0.8,0.1-1.6,0-2.5-0.2c-0.8-0.2-1.5-0.5-2.2-0.9c-0.6-0.4-1.1-0.9-1.5-1.5s-0.5-1.2-0.4-1.9
				c0.6,0,1.1,0.1,1.6,0.4c0.5,0.2,0.9,0.5,1.4,0.8c0.5,0.3,1,0.6,1.5,0.8c0.5,0.2,1.1,0.4,1.9,0.4c1.8,0,3.2-0.4,4.4-1.1
				c1.2-0.8,2.2-1.8,2.9-3c0.7-1.2,1.3-2.6,1.6-4.2c0.3-1.6,0.5-3.2,0.5-4.8c0-0.4,0-1.1-0.1-2s-0.1-1.9-0.2-3.1
				c-0.1-1.1-0.1-2.3-0.2-3.6c-0.1-1.3-0.2-2.5-0.2-3.6c-0.1-1.1-0.2-2.2-0.2-3.1c-0.1-0.9-0.1-1.6-0.2-2c-0.2,0.6-0.5,1.3-0.9,2.2
				c-0.4,0.9-0.8,1.8-1.3,2.8c-0.5,1-1,1.9-1.6,2.9c-0.6,1-1.3,1.8-2,2.6c-0.7,0.8-1.5,1.4-2.4,1.8c-0.9,0.5-1.8,0.7-2.8,0.7
				c-0.5,0-0.9-0.3-1.2-0.8c-0.3-0.5-0.5-1.1-0.7-1.8c-0.2-0.7-0.3-1.3-0.3-2c0-0.7-0.1-1.1-0.1-1.4c-0.2-1.9-0.2-3.9,0-5.8
				c0.2-1.9,0.5-3.7,0.9-5.3c0.5-1.7,1.1-3.1,1.9-4.4c0.8-1.3,1.7-2.3,2.8-3.1c1.1-0.7,2.4-1.2,3.8-1.3c1.4-0.1,3.1,0.2,4.8,1
				c0.5-0.1,0.8,0.2,1,0.8c0.2,0.6,0.2,1.3,0.2,2.2c0,0.9-0.1,1.8-0.2,2.8c-0.1,1-0.2,1.8-0.2,2.5c0,1.6,0.1,3.2,0.2,4.7
				c0.1,1.6,0.3,3.1,0.4,4.7c0.2,1.6,0.3,3.1,0.4,4.7c0.1,1.6,0.2,3.1,0.2,4.7c0,1.8-0.2,3.7-0.5,5.8c-0.4,2-1,3.9-1.9,5.6
				c-0.9,1.7-2.1,3.1-3.5,4.3C157.9,65.4,156.1,66,153.9,66z M151.2,39.4c0,0.3,0,0.7,0,1.1c0,0.4,0.1,0.9,0.2,1.3
				c0.1,0.4,0.3,0.8,0.5,1c0.2,0.3,0.6,0.4,1,0.4c0.8,0,1.6-0.4,2.4-1.2c0.7-0.8,1.4-1.8,2-3c0.6-1.2,1.2-2.5,1.7-4
				c0.5-1.5,0.9-2.9,1.3-4.3c0.3-1.4,0.6-2.7,0.8-3.8s0.3-2,0.3-2.5c-1.9-0.7-3.4-0.7-4.7,0c-1.3,0.7-2.4,1.8-3.2,3.3
				c-0.8,1.5-1.4,3.3-1.8,5.3C151.2,35.3,151.1,37.3,151.2,39.4z"/>
			<g>
				<path fill="#FFFFFF" d="M153.9,61.2c-1.8,0-1.7-0.8-1.7,0.3c-2,1.5-4,3.1-6,4.6c2.1,0.5,3.8,2,6,2.4c2,0.3,4.1,0.1,6.1-0.5
					c3.9-1.3,6.7-4.5,8.2-8.3c3.1-7.8,1.4-18.2,0.5-26.3c-0.6-5.4-7.3-6.4-9.4-1.3c-0.9,2.3-1.9,4.7-3.3,6.8
					c-1.3,0.8-1.6,1.6-0.8,2.7c0.5,1.3,0.6,1.4,0.4,0.3c0.5-1-0.2-3.2-0.2-4.3c0-3.1,0.3-6.5,1.8-9.4c1.9-3.5,3.8-2.7,7.2-1.9
					c-0.9-0.7-1.9-1.5-2.8-2.2c0.8,1.4-0.4,7.1-0.3,8.9c0.2,3.4,0.6,6.8,0.9,10.2C160.8,48.5,161.6,60.7,153.9,61.2
					c-6.1,0.4-6.1,9.9,0,9.5c14.2-0.9,16.9-15.9,16-27.5c-0.5-6.3-0.5-12.3-0.6-18.6c-0.1-6.3-4.7-9-10.8-8.8
					c-13.3,0.5-16.3,19.1-13.7,29.3c1.5,5.6,6.6,7.5,11.6,4.7c5.6-3.1,8.1-9.6,10.3-15.2c-3.1-0.4-6.2-0.8-9.4-1.3
					c0.6,5.4,1,11,1.1,16.5c0,2.2,0.1,5.6-1.4,7.4c-2.6,3.3-5.2,0.3-8.3-0.4c-3-0.7-6,1.4-6,4.6c0,6.1,5.7,9.4,11.3,9.3
					C160.1,70.7,160.1,61.1,153.9,61.2z"/>
				<path fill="#FFFFFF" d="M146.4,39.4c0.1,3.4,1,7.2,4.6,8.4c3.4,1.1,6.7-1,8.6-3.6c4-5.2,6.1-13.1,6.4-19.6
					c0.1-2.1-1.6-4.1-3.5-4.6C150.4,16.6,146.3,29.9,146.4,39.4c0.1,6.1,9.6,6.1,9.5,0c0-2.5,0.1-11.3,4.1-10.2
					c-1.2-1.5-2.3-3.1-3.5-4.6c-0.1,2.6-0.9,5.2-1.6,7.7c-0.4,1.2-0.8,2.4-1.3,3.5c-0.3,0.7-0.7,1.4-1.1,2c-1.6,1.6-0.5,2.1,3.4,1.5
					C155.8,33.3,146.3,33.3,146.4,39.4z"/>
			</g>
		</g>
		<g>
			<path fill="#FFFFFF" d="M169.3,16.4c-0.2,0-0.5-0.1-0.7-0.2c-0.3-0.2-0.5-0.3-0.7-0.6c-0.2-0.2-0.3-0.5-0.4-0.7
				c-0.1-0.3,0-0.5,0.2-0.7c0.1-0.4,0.4-0.7,0.7-1c0.4-0.3,0.7-0.5,1.1-0.6c0.4-0.1,0.7-0.1,1,0c0.3,0.1,0.4,0.5,0.4,1
				c0,0.3,0,0.6-0.1,0.9s-0.1,0.6-0.3,0.9c-0.1,0.3-0.3,0.5-0.5,0.7C169.8,16.3,169.6,16.4,169.3,16.4z M171.2,45.7
				c-0.2,0-0.3,0-0.6-0.1c-0.2-0.1-0.5-0.2-0.7-0.3c-0.2-0.1-0.4-0.3-0.6-0.4c-0.2-0.2-0.3-0.4-0.3-0.6l0-21.9
				c0-0.2,0.1-0.4,0.3-0.6c0.2-0.2,0.4-0.3,0.6-0.4c0.2-0.1,0.5-0.2,0.7-0.3c0.2-0.1,0.4-0.1,0.6-0.1L171.2,45.7z"/>
			<g>
				<path fill="#FFFFFF" d="M169.3,11.6c-0.1,0-0.1,0-0.2,0c0.4,0.1,0.8,0.1,1.3,0.2c-0.1,0-0.2-0.1-0.4-0.1
					c0.4,0.2,0.8,0.3,1.1,0.5c-0.2-0.1-0.4-0.2-0.6-0.4c0.3,0.2,0.6,0.5,1,0.7c-0.2-0.2-0.3-0.3-0.5-0.5c0.2,0.3,0.5,0.6,0.7,1
					c-0.1-0.1-0.1-0.2-0.2-0.4c0.2,0.4,0.3,0.8,0.5,1.1c-0.1-0.1-0.1-0.2-0.1-0.4c0.1,0.4,0.1,0.8,0.2,1.3c0-0.1,0-0.1,0-0.2
					c-0.1,0.4-0.1,0.8-0.2,1.3c0-0.1,0-0.1,0.1-0.2c-0.4,0.7-0.8,1.4-1.2,2.1c0.7-0.9,1-1.4,1.4-2.4c-0.2,0.4-0.3,0.8-0.5,1.1
					c0.1-0.1,0.1-0.2,0.2-0.3c-0.2,0.3-0.5,0.6-0.7,1c0.1-0.2,0.3-0.3,0.5-0.5c-0.3,0.2-0.6,0.5-1,0.7c0.3-0.2,0.6-0.4,0.9-0.5
					c-0.4,0.2-0.8,0.3-1.1,0.5c0.2-0.1,0.3-0.1,0.5-0.1c-0.4,0.1-0.8,0.1-1.3,0.2c0.1,0,0.3,0,0.4,0c-0.4-0.1-0.8-0.1-1.3-0.2
					c0.1,0,0.3,0.1,0.4,0.1c-0.4-0.2-0.8-0.3-1.1-0.5c0,0,0.1,0,0.1,0.1c-0.3-0.2-0.6-0.5-1-0.7c0,0,0.1,0.1,0.1,0.1
					c-0.2-0.3-0.5-0.6-0.7-1c0.1,0.1,0.1,0.2,0.1,0.3c-0.2-0.4-0.3-0.8-0.5-1.1c0,0.1,0.1,0.2,0.1,0.4c-0.1-0.4-0.1-0.8-0.2-1.3
					c0,0.4,0,0.7-0.1,1.1c0.1-0.4,0.1-0.8,0.2-1.3c0,0.2-0.1,0.4-0.2,0.7c0.2-0.4,0.3-0.8,0.5-1.1c-0.1,0.2-0.2,0.4-0.3,0.6
					c0.2-0.3,0.5-0.6,0.7-1c-0.1,0.1-0.2,0.2-0.3,0.3c0.3-0.2,0.6-0.5,1-0.7c-0.1,0.1-0.2,0.2-0.4,0.2c0.4-0.2,0.8-0.3,1.1-0.5
					c-0.1,0-0.1,0-0.2,0.1c0.4-0.1,0.8-0.1,1.3-0.2C169.4,11.6,169.3,11.6,169.3,11.6c-1.3,0.1-2.4,0.5-3.4,1.4
					c-0.8,0.8-1.4,2.2-1.4,3.4c0.1,2.4,2.1,5,4.8,4.8c1.6-0.1,3-0.5,4.1-1.7c0.9-0.9,1.5-1.8,1.8-3c0.6-1.9,0.6-4.3-0.4-6
					c-1.4-2.4-4.4-3.2-6.9-2.4c-1.1,0.3-2.4,1.1-3.2,1.9c-0.9,0.9-1.3,1.8-1.8,2.9c0.4-0.7,0.8-1.4,1.2-2.1
					c-0.9,1.2-1.6,2.3-1.6,3.8c0,1.3,0.5,2.6,1.3,3.6c1.4,1.8,3.1,2.7,5.3,2.8c1.2,0.1,2.6-0.6,3.4-1.4c0.8-0.8,1.4-2.2,1.4-3.4
					c-0.1-1.2-0.5-2.5-1.4-3.4C171.6,12.1,170.6,11.7,169.3,11.6z"/>
				<path fill="#FFFFFF" d="M172.4,41.1c-1-0.2,0.7,3.8,1.3,2.6c0.3-0.5,0-1.8,0-2.4c0-2.6,0-5.3,0-7.9c0-2.5,0-5,0-7.5
					c0-0.6,0.2-2,0-2.6c0-0.1,0.1-0.7,0-0.7c1,0.3-3.8,3.5-1.3,3.1c-2-1.5-4-3.1-6-4.6c0,8.2,0,16.4,0,24.6c0,6.1,9.5,6.1,9.5,0
					c0-8.2,0-16.4,0-24.6c0-3.4-3-5.1-6-4.6c-7.7,1.2-5.7,11.4-5.7,16.9c0,5.5-2,15.7,5.7,16.9C175.9,51.2,178.5,42,172.4,41.1z"/>
			</g>
		</g>
		<g>
			<path fill="#FFFFFF" d="M174.4,27c-0.1-0.4-0.2-0.9-0.4-1.5c-0.2-0.6-0.3-1.2-0.4-1.9c-0.1-0.6-0.2-1.2-0.2-1.8
				c0-0.6,0.1-1,0.3-1.4c0.2-0.3,0.5-0.5,1-0.6c0.5,0,1.1,0.2,1.9,0.6c0.1,0.3,0.1,0.8,0.3,1.5c0.1,0.7,0.2,1.5,0.3,2.3
				c0.1,0.8,0.2,1.6,0.3,2.3c0.1,0.7,0.1,1.2,0.1,1.5c0.5-1.2,1.2-2.4,2.1-3.5c0.8-1.1,1.8-2,3-2.9c1.1-0.8,2.3-1.5,3.7-2
				c1.3-0.5,2.8-0.7,4.3-0.7l-0.5,2.6c-1.9,0.3-3.8,1.2-5.4,2.5c-1.7,1.3-3.1,3-4.2,5c-1.1,2.1-1.9,4.5-2.3,7.2
				c-0.4,2.8-0.2,5.8,0.4,9l-2.9,0.6c0,0-0.1-0.4-0.1-1.1c-0.1-0.7-0.1-1.6-0.2-2.8c-0.1-1.1-0.2-2.4-0.3-3.8
				c-0.1-1.4-0.2-2.8-0.3-4.2c-0.1-1.4-0.2-2.7-0.3-4C174.5,28.9,174.5,27.9,174.4,27z"/>
			<g>
				<path fill="#FFFFFF" d="M179,25.8c-0.4-1.3-0.6-2.7-0.7-4c-0.7,0.9-1.5,1.9-2.2,2.8c0.3-0.2,0.6-0.4,1-0.6
					c-1.2,0.2-2.4,0.3-3.7,0.5c0.3,0,0.5,0.1,0.8,0.1c-0.7-0.9-1.5-1.9-2.2-2.8c0.4,2.1,0.8,4.2,0.9,6.3c0.2,4.4,6.6,6.9,8.9,2.4
					c1.8-3.7,4.6-6.4,8.9-6.6c-1.5-2-3.1-4-4.6-6c-0.2,0.9-0.3,1.7-0.5,2.6c1.1-1.1,2.2-2.2,3.3-3.3c-13.4,3.2-16.9,17.7-14.8,29.6
					c1.1-2,2.2-3.9,3.3-5.9c-1,0.2-1.9,0.4-2.9,0.6c2,1.1,3.9,2.2,5.9,3.3c-1-5.1-0.9-12-1.3-17.7c-0.5-6.1-10-6.1-9.5,0
					c0.5,6.7,0.4,13.7,1.6,20.2c0.5,2.6,3.5,3.8,5.9,3.3c1-0.2,1.9-0.4,2.9-0.6c2.7-0.6,3.8-3.5,3.3-5.9c-1.2-6.9,0.2-16,8.1-17.9
					c1.5-0.4,3.1-1.8,3.3-3.3c0.2-0.9,0.3-1.7,0.5-2.6c0.5-2.9-1.2-6.2-4.6-6c-7.6,0.4-13.7,4.6-17.1,11.4c3,0.8,5.9,1.6,8.9,2.4
					c-0.3-4.6-0.2-11.2-5.6-12.7c-8.6-2.4-8.2,7.7-7,12.9C171.2,34.3,180.4,31.7,179,25.8z"/>
			</g>
		</g>
		<g>
			<path fill="#FFFFFF" d="M192.7,6.1l2.5-0.4c0.1,1.6,0.2,3.5,0.3,5.7c0.1,2.2,0.2,4.5,0.3,6.9c0.1,2.4,0.1,4.9,0.2,7.4
				c0.1,2.5,0.1,4.9,0.2,7.1c0,2.2,0.1,4.3,0.2,6.1c0.1,1.8,0.1,3.2,0.2,4.3c0,0.4-0.1,0.8-0.2,1.2c-0.2,0.4-0.3,0.7-0.5,0.8
				c-0.2,0.2-0.5,0.2-0.7,0.1c-0.3-0.1-0.5-0.5-0.7-1L192.7,6.1z"/>
			<g>
				<path fill="#FFFFFF" d="M193.9,10.7c0.8-0.1,1.7-0.2,2.5-0.4c-2-1.5-4-3.1-6-4.6c0.4,6.3,0.6,12.7,0.8,19.1
					c0.1,3.2,0.1,6.5,0.2,9.7c0,1.6,1.1,7,0.2,8.3c1.4-0.8,2.7-1.6,4.1-2.4c-0.2,0-0.5,0-0.7,0.1c1.4,0.8,2.7,1.6,4.1,2.4
					c0.5,0.7,0,1.9-0.2-0.4c-0.1-1.5-0.1-3.1-0.2-4.6c-0.2-4.2-0.4-8.5-0.6-12.7c-0.3-6.4-0.6-12.7-0.8-19.1c-0.3-6.1-9.8-6.1-9.5,0
					c0.5,11.8,1,23.6,1.6,35.4c0.1,2.1,0,3.8,1.1,5.6c3,4.9,9.2,2.9,10.5-2.1c0.7-2.6,0.1-5.6,0-8.3c-0.1-3.4-0.2-6.8-0.2-10.1
					c-0.2-7-0.3-14-0.8-20.9c-0.2-3.4-2.8-5.1-6-4.6c-0.8,0.1-1.7,0.2-2.5,0.4C185.4,2.4,187.9,11.6,193.9,10.7z"/>
			</g>
		</g>
		<g>
			<path fill="#FFFFFF" d="M198.7,36.8c0.2-0.5,0.5-0.8,0.9-1c0.3-0.1,0.8-0.2,1.3-0.1c1.1,1,2.2,1.9,3.3,2.8
				c1.1,0.9,2.3,1.6,3.6,2.3c1.2,0.6,2.5,1.1,3.9,1.5c1.4,0.4,2.8,0.6,4.4,0.6c0.3,0,0.7,0,1,0c0.4,0,0.8-0.1,1.1-0.2
				c0.3-0.1,0.6-0.3,0.8-0.5c0.2-0.2,0.3-0.6,0.3-1c-0.1-0.9-0.6-1.7-1.4-2.4c-0.8-0.7-1.8-1.3-3-2c-1.2-0.6-2.4-1.3-3.8-1.9
				c-1.3-0.7-2.5-1.4-3.6-2.2c-1.1-0.8-2-1.8-2.6-2.9c-0.7-1.1-0.9-2.4-0.8-3.9c0-0.8,0.3-1.6,0.8-2.3c0.5-0.7,1.2-1.2,2-1.7
				c0.8-0.5,1.6-0.8,2.5-1.1c0.9-0.3,1.6-0.4,2.3-0.4c1.3,0,2.6,0.2,4,0.6c1.3,0.4,2.6,0.9,3.6,1.7l-1.2,1.7c-0.5-0.5-1.2-0.8-2-1
				c-0.8-0.2-1.6-0.3-2.5-0.4c-0.8,0-1.7,0.1-2.5,0.2c-0.8,0.2-1.5,0.4-2.2,0.7c-0.6,0.3-1.1,0.7-1.4,1.1c-0.3,0.4-0.4,0.9-0.3,1.4
				c0,1.4,0.4,2.6,1.1,3.5c0.8,0.9,1.7,1.7,2.9,2.3c1.2,0.7,2.4,1.2,3.7,1.8c1.3,0.5,2.6,1.1,3.7,1.8c1.2,0.7,2.1,1.4,2.9,2.3
				c0.8,0.9,1.1,2,1.1,3.4c0,0.9-0.1,1.6-0.4,2.1c-0.3,0.5-0.7,0.9-1.1,1.2c-0.5,0.3-1,0.5-1.7,0.5c-0.7,0.1-1.3,0.1-2.1,0.1
				c-1.6,0-3.3-0.2-5.1-0.6c-1.8-0.4-3.5-1-5.1-1.8c-1.7-0.8-3.2-1.7-4.7-2.8C201,39.3,199.8,38.1,198.7,36.8z"/>
			<g>
				<path fill="#FFFFFF" d="M202.1,40.1c0.3-0.3,0.6-0.7,0.9-1c-1.1,0.5-2.2,0.9-3.4,1.4c0.4,0,0.9-0.1,1.3-0.1
					c-1.1-0.5-2.2-0.9-3.4-1.4c4.2,3.7,8.7,7.1,14.3,8.2c4.5,0.9,11,0.9,12.1-4.8c1.1-5.7-4.9-8.8-9.1-11c-1.6-0.8-6.2-2.5-5.7-4.7
					c0.7-3.1,6.3-0.8,7.7,0.1c-0.6-2.2-1.1-4.3-1.7-6.5c-0.4,0.6-0.8,1.2-1.2,1.7c2.2-0.6,4.3-1.1,6.5-1.7
					c-8.3-5.4-23.6,1.2-16.2,12.1c1.4,2.1,3.6,3.5,5.8,4.7c2.2,1.1,5,2.8,7.4,3.6c0.2,0.3,0.4,0.6,0.6,0.9c0.8-0.9,0.7-1.1-0.6-0.8
					c-1.2-0.6-3.4-0.3-4.7-0.7c-4.2-1.1-7.7-3.3-10.6-6.6c-4-4.6-10.7,2.1-6.7,6.7c4.7,5.4,11.5,8.9,18.7,9.8
					c4.6,0.6,10.4,0.4,12.6-4.5c2.3-4.9-0.2-10.2-4.4-13.1c-2.3-1.6-4.9-2.3-7.4-3.6c-1.5-0.8-2.1-1.7-3.7-0.7
					c1.3-0.8,3.4-0.3,4.5,0.4c2.3,1.5,5.1,0.3,6.5-1.7c0.4-0.6,0.8-1.2,1.2-1.7c1.5-2.1,0.3-5.3-1.7-6.5c-6.9-4.2-19.6-4.2-22.1,5.5
					c-1.1,4.4,0.8,8.6,4,11.6c1.7,1.6,3.7,2.7,5.8,3.7c1,0.5,2.1,1,3.1,1.6c0.4,0.2,0.7,0.4,1.1,0.6c1.1,1.1,1.4,0.9,0.8-0.6
					c0.7-0.9,1.5-1.9,2.2-2.8c-2.9,1.9-9.2-3.1-11.3-4.8c-3.2-2.7-6.9-3.4-10,0.1C191.3,38,198,44.7,202.1,40.1z"/>
			</g>
		</g>
	</g>
	<g>
		<g>
			<g>
				<path fill="#FFFFFF" d="M21.3,9.6h7.6v35.3c-3.9,0.7-6.8,1-9.9,1c-9.3,0-14.1-4.2-14.1-12.3c0-7.8,5.1-12.8,13.1-12.8
					c1.2,0,2.2,0.1,3.3,0.4L21.3,9.6L21.3,9.6z M21.3,27.4c-0.9-0.3-1.6-0.4-2.6-0.4c-3.9,0-6.1,2.4-6.1,6.5c0,4.1,2.1,6.3,6,6.3
					c0.8,0,1.5,0,2.6-0.2L21.3,27.4z"/>
				<g>
					<path fill="#FFFFFF" d="M21.3,14.4c2.5,0,5.1,0,7.6,0c-1.6-1.6-3.2-3.2-4.8-4.8c0,11.8,0,23.5,0,35.3c1.2-1.5,2.3-3.1,3.5-4.6
						c-4.9,0.9-15.1,3-17.5-3.3c-2.6-6.9,3.1-12.4,9.9-11.1c3,0.6,6-1.3,6-4.6c0-3.9,0-7.7,0-11.6c0-2.6-2.2-4.8-4.8-4.8
						c0,0,0,0,0,0C15.1,4.9,15.1,14.4,21.3,14.4C21.3,14.4,21.3,14.4,21.3,14.4c-1.6-1.6-3.2-3.2-4.8-4.8c0,3.9,0,7.7,0,11.6
						c2-1.5,4-3.1,6-4.6C9.3,14.1-2,23.6,0.4,37.3c2.5,14.4,18.4,14.2,29.7,12.1c2-0.4,3.5-2.6,3.5-4.6c0-11.8,0-23.5,0-35.3
						c0-2.6-2.2-4.8-4.8-4.8c-2.5,0-5.1,0-7.6,0C15.1,4.9,15.1,14.4,21.3,14.4z"/>
					<path fill="#FFFFFF" d="M22.5,22.8c-7.6-2.1-14.7,2.6-14.7,10.7c0,7.8,6.1,11.8,13.4,10.8c2.6-0.3,4.8-1.9,4.8-4.8
						c0-4.1,0-8.1,0-12.2c0-6.1-9.5-6.1-9.5,0c0,4.1,0,8.1,0,12.2c1.6-1.6,3.2-3.2,4.8-4.8c-1.2,0.2-2.7,0.4-3.8,0
						c0.6,0.2,0.1,0.1-0.1-0.6c-0.1-0.3,0-1.2,0-1.5c0.1-0.4,0.4-0.9,0.4-0.9c-0.2,0.2-0.8,0.1,0.3-0.1c0.6-0.1,1.2,0,1.9,0.2
						C25.9,33.6,28.4,24.4,22.5,22.8z"/>
				</g>
			</g>
			<g>
				<path fill="#FFFFFF" d="M41,21.4v17.7c0,6.1-0.4,9-1.8,11.5c-1.2,2.4-2.9,4-6.2,5.6l-7.1-3.4c3.4-1.6,5-3,6-5.1
					c1.1-2.2,1.4-4.7,1.4-11.3v-15H41z M33.4,9.7H41v7.8h-7.6V9.7z"/>
				<g>
					<path fill="#FFFFFF" d="M36.2,21.4c0,4.9,0,9.8,0,14.7c0,6.5,0.8,12.6-5.7,16c1.6,0,3.2,0,4.8,0c-2.4-1.1-4.7-2.2-7.1-3.4
						c0,2.7,0,5.5,0,8.2c8.8-4.4,9.8-11.6,9.8-20.6c0-5,0-10,0-15c-1.6,1.6-3.2,3.2-4.8,4.8c2.5,0,5.1,0,7.6,0c6.1,0,6.1-9.5,0-9.5
						c-2.5,0-5.1,0-7.6,0c-2.6,0-4.8,2.2-4.8,4.8c0,4.4,0,8.8,0,13.2c0,2.3,0.1,4.7-0.1,7c-0.3,3.8-1.4,5.3-5,7.1
						c-3.1,1.5-3.2,6.7,0,8.2c3.6,1.7,7.9,5,11.9,3.4c5.9-2.4,9.2-8.2,10-14.2c1.1-8.1,0.4-16.6,0.4-24.8
						C45.8,15.3,36.2,15.3,36.2,21.4z"/>
					<path fill="#FFFFFF" d="M33.4,14.4c2.5,0,5.1,0,7.6,0c-1.6-1.6-3.2-3.2-4.8-4.8c0,2.6,0,5.2,0,7.8c1.6-1.6,3.2-3.2,4.8-4.8
						c-2.5,0-5.1,0-7.6,0c1.6,1.6,3.2,3.2,4.8,4.8c0-2.6,0-5.2,0-7.8c0-2.5-2.2-4.9-4.8-4.8C30.8,5,28.6,7,28.6,9.7
						c0,2.6,0,5.2,0,7.8c0,2.6,2.2,4.8,4.8,4.8c2.5,0,5.1,0,7.6,0c2.6,0,4.8-2.2,4.8-4.8c0-2.6,0-5.2,0-7.8c0-2.6-2.2-4.8-4.8-4.8
						c-2.5,0-5.1,0-7.6,0c-2.5,0-4.9,2.2-4.8,4.8C28.7,12.3,30.7,14.4,33.4,14.4z"/>
				</g>
			</g>
			<g>
				<path fill="#FFFFFF" d="M45.6,23.1c3.4-1.6,6.6-2.3,10.1-2.3c3.9,0,6.5,1,7.6,3.1c0.6,1.1,0.8,2.6,0.8,5.8v15.5
					c-3.4,0.5-7.7,0.8-10.9,0.8c-6.4,0-9.2-2.2-9.2-7.2c0-5.3,3.8-7.8,13.2-8.6v-1.7c0-1.4-0.7-1.9-2.6-1.9c-2.8,0-6,0.8-9,2.3
					L45.6,23.1L45.6,23.1z M57.5,35.2c-5,0.5-6.7,1.3-6.7,3.3c0,1.5,0.9,2.2,3,2.2c1.1,0,2.2-0.1,3.7-0.3L57.5,35.2L57.5,35.2z"/>
				<g>
					<path fill="#FFFFFF" d="M48,27.2c2.8-1.2,10.1-3.5,11.3,0.2c0.5,1.4,0.1,4,0.1,5.5c0,4.1,0,8.2,0,12.3c1.6-1.6,3.2-3.2,4.8-4.8
						c-2.9,0.4-13.6,2.8-15.3-0.5c-2.1-4.2,6.4-4.8,8.3-5c2.6-0.3,4.8-2,4.8-4.8c0-11.1-11.6-8.7-18.7-5.4c2.4,1.4,4.8,2.7,7.2,4.1
						c0-2,0-3.9,0-5.9c-1.6,1.6-3.2,3.2-4.8,4.8c0,0,0,0,0,0c6.1,0,6.1-9.5,0-9.5c0,0,0,0,0,0c-2.6,0-4.8,2.2-4.8,4.8
						c0,2,0,3.9,0,5.9c0,3.9,4,5.6,7.2,4.1c1.5-0.7,4.6-0.8,5.8-1.6c1.7,0.1,1.2-0.7-1.4-2.5c0,0.4,0,0.8,0,1.2
						c1.6-1.6,3.2-3.2,4.8-4.8c-8.9,0.9-19.1,4.1-17.8,15.1c1.4,12.2,15.9,10.6,24.8,9.4c2.6-0.3,4.8-1.9,4.8-4.8
						c0-5.7,0.3-11.5,0-17.2c-0.7-14-15.8-13.3-25.7-9C37.6,21.4,42.4,29.6,48,27.2z"/>
					<path fill="#FFFFFF" d="M57.5,30.5c-4.3,0.4-10.2,1.2-11.3,6.4c-0.6,3.2,0.7,6.5,3.8,7.8c2.8,1.2,5.8,0.7,8.7,0.2
						c2-0.3,3.5-2.7,3.5-4.6c0-1.7,0-3.4,0-5.1c-1.6,1.6-3.2,3.2-4.8,4.8c0,0,0,0,0,0c2.5,0,4.9-2.2,4.8-4.8
						C62.2,32.7,60.2,30.5,57.5,30.5C57.5,30.5,57.5,30.5,57.5,30.5c-2.6,0-4.8,2.2-4.8,4.8c0,1.7,0,3.4,0,5.1
						c1.2-1.5,2.3-3.1,3.5-4.6c-1.5,0.2,0.9-0.1-0.5,0.1c-0.3,0-0.5,0-0.8,0.1c-0.4,0-0.7,0-1.1,0c-0.9,0,0.5,0.2,0,0.1
						c-0.8-0.2-0.2-0.1,0.2,0.1c0.5,0.3,0.8,0.6,1,1.2c0.4,0.8,0.5,1,0.4,0.6c-0.2-0.5,0.1,1.1,0.1,0.4c0,1.3-0.2,1.1,0,0.6
						c-0.1,0.3-0.2,0.6-0.3,0.8c0.2-0.3,0.1-0.2-0.2,0.2c-0.3,0.4-0.4,0.5-0.1,0.2c-0.2,0.2-0.4,0.3-0.7,0.5c0.1,0,0.4-0.2,0.5-0.3
						c0.5-0.2-1.1,0.4-0.3,0.2c0.6-0.1,1.1-0.3,1.7-0.4c0.2,0,1.1-0.2,0.1,0c0.5-0.1,0.9-0.1,1.4-0.2c2.5-0.3,4.9-2,4.8-4.8
						C62.2,32.9,60.2,30.2,57.5,30.5z"/>
				</g>
			</g>
			<g>
				<path fill="#FFFFFF" d="M67.8,22.6c4.5-1.2,8.2-1.7,12-1.7c3.9,0,6.7,0.9,8.4,2.6c1.6,1.6,2.1,3.4,2.1,7.2v14.9h-7.6V31
					c0-2.9-1-4-3.7-4c-1,0-2,0.1-3.5,0.5v18.1h-7.6L67.8,22.6L67.8,22.6z"/>
				<g>
					<path fill="#FFFFFF" d="M69.1,27.2C73.6,26.1,78.4,25,83,26c3,0.6,2.6,3.5,2.6,5.9c0,4.6,0,9.2,0,13.7c1.6-1.6,3.2-3.2,4.8-4.8
						c-2.5,0-5.1,0-7.6,0c1.6,1.6,3.2,3.2,4.8,4.8c0-4.7,0-9.3,0-14c0-8.1-6.1-10.5-13.3-8.8c-2.1,0.5-3.5,2.5-3.5,4.6
						c0,6,0,12.1,0,18.1c1.6-1.6,3.2-3.2,4.8-4.8c-2.5,0-5.1,0-7.6,0c1.6,1.6,3.2,3.2,4.8,4.8c0-7.7,0-15.4,0-23
						c0-2.6-2.2-4.8-4.8-4.8c0,0,0,0,0,0c-6.2,0-6.2,9.6,0,9.6c0,0,0,0,0,0c-1.6-1.6-3.2-3.2-4.8-4.8c0,7.7,0,15.4,0,23
						c0,2.6,2.2,4.8,4.8,4.8c2.5,0,5.1,0,7.6,0c2.6,0,4.8-2.2,4.8-4.8c0-6,0-12.1,0-18.1c-1.2,1.5-2.3,3.1-3.5,4.6
						c3-0.8,1.2,0.3,1.2-1.2c0,0.2,0,0.5,0,0.7c0,1.7,0,3.5,0,5.2c0,2.9,0,5.8,0,8.7c0,2.6,2.2,4.8,4.8,4.8c2.5,0,5.1,0,7.6,0
						c2.6,0,4.8-2.2,4.8-4.8c0-6.2,0.7-12.9-0.3-19c-2.2-13.2-18.7-11-28.2-8.6C60.6,19.5,63.1,28.7,69.1,27.2z"/>
				</g>
			</g>
			<g>
				<path fill="#FFFFFF" d="M93.3,49.8c2.7,1.4,5.3,2,8.2,2c5,0,7.1-2,7.1-6.9c0,0,0-0.1,0-0.1c-1.5,0.7-3,1-4.9,1
					c-6.7,0-10.9-4.4-10.9-11.4c0-8.7,6.3-13.6,17.4-13.6c3.3,0,6.3,0.3,9.9,1.1l-2.6,5.5c-2-0.4-0.2-0.1-1.7-0.2v0.8l0.1,3.2l0,4.2
					c0,1,0,2.1,0.1,3.1c0,0.9,0,1.4,0,2.1c0,6.5-0.5,9.6-2.2,12.1c-2.4,3.7-6.5,5.5-12.3,5.5c-3,0-5.5-0.4-8.2-1.5L93.3,49.8
					L93.3,49.8z M108.4,27c-0.1,0-0.2,0-0.2,0h-0.5c-1.5,0-3.2,0.3-4.4,1.1c-1.8,1-2.8,2.9-2.8,5.6c0,3.8,1.9,6,5.2,6
					c1,0,1.9-0.2,2.9-0.5v-0.5v-2.1c0-0.9,0-1.9,0-2.9l0-3.5l0-2.5L108.4,27L108.4,27z"/>
				<g>
					<path fill="#FFFFFF" d="M90.9,53.9c9.2,4.3,22.5,3.8,22.5-9.1c0-4-4-5.5-7.2-4.1c-6.9,2.9-11-5.7-7.5-10.9
						c3.9-5.9,14.4-4.3,20.1-3.2c-0.9-2.3-1.9-4.7-2.8-7c-0.9,1.8-1.7,3.7-2.6,5.5c1.8-0.7,3.6-1.5,5.4-2.2
						c-2.2-0.4-3.8-0.5-5.7,1.1c1.1-0.5,2.2-0.9,3.4-1.4c-0.2,0-0.4,0-0.6,0c-2.6-0.2-4.8,2.3-4.8,4.8c0,5,0.3,10,0.2,15
						c-0.1,3,0,6.6-2.2,8.9c-3.6,3.6-10.2,2.4-14.4,1c1.2,1.5,2.3,3.1,3.5,4.6c0-2.3,0-4.7,0-7c-1.6,1.6-3.2,3.2-4.8,4.8
						c0,0,0,0,0,0c6.1,0,6.1-9.5,0-9.5c0,0,0,0,0,0c-2.6,0-4.8,2.2-4.8,4.8c0,2.3,0,4.7,0,7c0,2.2,1.5,3.9,3.5,4.6
						c10.3,3.6,24.4,1.5,27.8-10.5c2.1-7.5,0.7-15.9,0.7-23.6c-1.6,1.6-3.2,3.2-4.8,4.8c1.6,0.1,2.8-0.4,4-1.4
						c-1.1,0.5-2.2,0.9-3.4,1.4c-0.1,0-0.2,0-0.2,0c1.9,0.4,4.4-0.2,5.4-2.2c0.9-1.8,1.7-3.7,2.6-5.5c1.2-2.5,0.4-6.4-2.8-7
						c-11.8-2.2-29.4-2.2-32.9,12.5c-3.3,14,9.3,24.7,22.5,19c-2.4-1.4-4.8-2.7-7.2-4.1c0,4.1-5.7,2-8.1,0.9
						C90.1,43.1,85.3,51.3,90.9,53.9z"/>
					<path fill="#FFFFFF" d="M108.4,22.3c-7.2,0-13.2,4.4-12.7,12.1c0.5,7.7,7,11.4,14.1,9.4c2-0.6,3.5-2.5,3.5-4.6
						c0-4.1-0.1-8.1-0.1-12.2C113.2,24.5,111,22.3,108.4,22.3C108.4,22.3,108.4,22.3,108.4,22.3c-6.1,0-6.1,9.5,0,9.5c0,0,0,0,0,0
						c-1.6-1.6-3.2-3.2-4.8-4.8c0,4.1,0.1,8.1,0.1,12.2c1.2-1.5,2.3-3.1,3.5-4.6c-0.7,0.2-1.2,0.3-1.9,0.3c-0.5,0-0.2,0,0.1,0.1
						c-0.1,0-0.2-0.6-0.1-0.1c-0.1-0.5-0.2-0.7-0.2-1.3c-0.1-2,1.4-1.9,3.2-1.9C114.5,31.8,114.5,22.3,108.4,22.3z"/>
				</g>
			</g>
			<g>
				<path fill="#FFFFFF" d="M131.8,20.8c7.6,0,12.3,4.8,12.3,12.6c0,8-4.8,13-12.6,13c-7.6,0-12.3-4.8-12.3-12.5
					C119.2,25.8,124.1,20.8,131.8,20.8z M131.7,40.1c2.9,0,4.6-2.4,4.6-6.6c0-4.2-1.7-6.6-4.6-6.6c-3,0-4.7,2.4-4.7,6.6
					C127,37.7,128.7,40.1,131.7,40.1z"/>
				<g>
					<path fill="#FFFFFF" d="M131.8,25.5c10.2,0.4,9.9,16-0.3,16C121.2,41.5,121.7,25.9,131.8,25.5c6.1-0.2,6.1-9.8,0-9.5
						c-10.2,0.4-17.4,7.4-17.4,17.8c0,9.9,7.1,17.3,17.1,17.3c10.1,0,17.3-7.7,17.3-17.7c0-10.2-7.1-17-17-17.3
						C125.7,15.8,125.7,25.3,131.8,25.5z"/>
					<path fill="#FFFFFF" d="M131.7,44.9c6.2-0.4,9.4-5.5,9.4-11.4c0-5.7-3.1-11.3-9.4-11.4c-6.1-0.1-9.3,5.5-9.5,11
						C122.1,39.2,125.3,44.6,131.7,44.9c6.1,0.3,6.1-9.2,0-9.5c0.4,0,0.6,0.7,0.4,0.1c-0.2-0.6-0.3-1.3-0.3-2c0-0.4,0.4-1.7,0.3-2
						c-0.2-0.7,0.3,0.3-0.3,0.1c0,0-0.7-0.3-0.6-0.4c0.1-0.1,0.4,1.5,0.4,1.8c0,0.7-0.2,1.5-0.1,2.1c0.1,0.8-0.5,0.2,0.3,0.1
						C125.6,35.7,125.6,45.3,131.7,44.9z"/>
				</g>
			</g>
		</g>
	</g>
	<g>
		<g>
			<path fill="#F79420" d="M21.3,9.8h7.6v35.3c-3.9,0.7-6.8,1-9.9,1c-9.3,0-14.1-4.2-14.1-12.3C4.8,26.1,10,21,17.9,21
				c1.2,0,2.2,0.1,3.3,0.4L21.3,9.8L21.3,9.8z M21.3,27.6c-0.9-0.3-1.6-0.4-2.6-0.4c-3.9,0-6.1,2.4-6.1,6.5c0,4.1,2.1,6.3,6,6.3
				c0.8,0,1.5,0,2.6-0.2L21.3,27.6z"/>
			<path fill="#F79420" d="M41,21.6v17.7c0,6.1-0.4,9-1.8,11.5c-1.2,2.4-2.9,4-6.2,5.6L25.9,53c3.4-1.6,5-3,6-5.1
				c1.1-2.2,1.4-4.7,1.4-11.3v-15H41z M33.4,9.9H41v7.8h-7.6V9.9z"/>
			<path fill="#F79420" d="M45.6,23.3C49,21.7,52.2,21,55.7,21c3.9,0,6.5,1,7.6,3.1c0.6,1.1,0.8,2.6,0.8,5.8v15.5
				c-3.4,0.5-7.7,0.8-10.9,0.8C46.9,46.2,44,44,44,39c0-5.3,3.8-7.8,13.2-8.6v-1.7c0-1.4-0.7-1.9-2.6-1.9c-2.8,0-6,0.8-9,2.3
				L45.6,23.3L45.6,23.3z M57.5,35.4c-5,0.5-6.7,1.3-6.7,3.3c0,1.5,0.9,2.2,3,2.2c1.1,0,2.2-0.1,3.7-0.3L57.5,35.4L57.5,35.4z"/>
			<path fill="#F79420" d="M67.8,22.8c4.5-1.2,8.2-1.7,12-1.7c3.9,0,6.7,0.9,8.4,2.6c1.6,1.6,2.1,3.4,2.1,7.2v14.9h-7.6V31.2
				c0-2.9-1-4-3.7-4c-1,0-2,0.1-3.5,0.5v18.1h-7.6L67.8,22.8L67.8,22.8z"/>
			<path fill="#F79420" d="M93.3,50c2.7,1.4,5.3,2,8.2,2c5,0,7.1-2,7.1-6.9c0,0,0-0.1,0-0.1c-1.5,0.7-3,1-4.9,1
				c-6.7,0-10.9-4.4-10.9-11.4c0-8.7,6.3-13.6,17.4-13.6c3.3,0,6.3,0.3,9.9,1.1l-2.6,5.5c-2-0.4-0.2-0.1-1.7-0.2v0.8l0.1,3.2l0,4.2
				c0,1,0,2.1,0.1,3.1c0,0.9,0,1.4,0,2.1c0,6.5-0.5,9.6-2.2,12.1c-2.4,3.7-6.5,5.5-12.3,5.5c-3,0-5.5-0.4-8.2-1.5L93.3,50L93.3,50z
				 M108.4,27.2c-0.1,0-0.2,0-0.2,0h-0.5c-1.5,0-3.2,0.3-4.4,1.1c-1.8,1-2.8,2.9-2.8,5.6c0,3.8,1.9,6,5.2,6c1,0,1.9-0.2,2.9-0.5
				v-0.5v-2.1c0-0.9,0-1.9,0-2.9l0-3.5l0-2.5L108.4,27.2L108.4,27.2z"/>
			<path fill="#F79420" d="M131.8,20.9c7.6,0,12.3,4.8,12.3,12.6c0,8-4.8,13-12.6,13c-7.6,0-12.3-4.8-12.3-12.5
				C119.2,25.9,124.1,20.9,131.8,20.9z M131.7,40.3c2.9,0,4.6-2.4,4.6-6.6c0-4.2-1.7-6.6-4.6-6.6c-3,0-4.7,2.4-4.7,6.6
				C127,37.9,128.7,40.3,131.7,40.3z"/>
		</g>
	</g>
	<g>
		<path fill="#F79420" d="M153.9,66.2c-0.8,0.1-1.6,0-2.5-0.2c-0.8-0.2-1.5-0.5-2.2-0.9s-1.1-0.9-1.5-1.5c-0.4-0.6-0.5-1.2-0.4-1.9
			c0.6,0,1.1,0.1,1.6,0.4c0.5,0.2,0.9,0.5,1.4,0.8c0.5,0.3,1,0.6,1.5,0.8c0.5,0.2,1.1,0.4,1.9,0.4c1.8,0,3.2-0.4,4.4-1.1
			c1.2-0.8,2.2-1.8,2.9-3c0.7-1.2,1.3-2.6,1.6-4.2c0.3-1.6,0.5-3.2,0.5-4.8c0-0.4,0-1.1-0.1-2c0-0.9-0.1-1.9-0.2-3.1
			c-0.1-1.1-0.1-2.3-0.2-3.6c-0.1-1.3-0.2-2.5-0.2-3.6c-0.1-1.1-0.2-2.2-0.2-3.1c-0.1-0.9-0.1-1.6-0.2-2c-0.2,0.6-0.5,1.4-0.9,2.2
			c-0.4,0.9-0.8,1.8-1.3,2.8c-0.5,1-1,1.9-1.6,2.9c-0.6,1-1.3,1.8-2,2.6c-0.7,0.8-1.5,1.4-2.4,1.8c-0.9,0.5-1.8,0.7-2.8,0.7
			c-0.5,0-0.9-0.3-1.2-0.8c-0.3-0.5-0.5-1.1-0.7-1.8c-0.2-0.7-0.2-1.3-0.3-2c0-0.7-0.1-1.1-0.1-1.4c-0.2-1.9-0.2-3.9,0-5.8
			c0.2-1.9,0.5-3.7,0.9-5.3c0.5-1.7,1.1-3.1,1.9-4.4c0.8-1.3,1.7-2.3,2.8-3.1c1.1-0.7,2.4-1.2,3.8-1.3c1.4-0.1,3.1,0.2,4.8,1
			c0.5-0.1,0.8,0.2,1,0.8c0.2,0.6,0.2,1.4,0.2,2.2c0,0.9-0.1,1.8-0.2,2.8c-0.1,1-0.2,1.8-0.2,2.5c0,1.6,0.1,3.2,0.2,4.7
			c0.1,1.6,0.3,3.1,0.4,4.7c0.2,1.6,0.3,3.1,0.4,4.7c0.1,1.6,0.2,3.1,0.2,4.7c0,1.8-0.2,3.7-0.5,5.8c-0.4,2-1,3.9-1.9,5.6
			c-0.9,1.7-2.1,3.1-3.5,4.3C157.9,65.6,156.1,66.2,153.9,66.2z M151.2,39.6c0,0.3,0,0.7,0,1.1c0,0.4,0.1,0.9,0.2,1.3
			c0.1,0.4,0.3,0.8,0.5,1c0.2,0.3,0.6,0.4,1,0.4c0.8,0,1.6-0.4,2.4-1.2c0.7-0.8,1.4-1.8,2-3c0.6-1.2,1.2-2.5,1.7-4
			c0.5-1.5,0.9-2.9,1.3-4.3c0.3-1.4,0.6-2.7,0.8-3.8s0.3-2,0.3-2.5c-1.9-0.7-3.4-0.7-4.7,0c-1.3,0.7-2.4,1.8-3.2,3.3
			s-1.4,3.3-1.8,5.3C151.2,35.5,151.1,37.5,151.2,39.6z"/>
		<path fill="#F79420" d="M169.3,16.6c-0.2,0-0.5-0.1-0.7-0.2c-0.3-0.2-0.5-0.3-0.7-0.6c-0.2-0.2-0.3-0.5-0.4-0.7
			c-0.1-0.3,0-0.5,0.2-0.7c0.1-0.4,0.4-0.7,0.7-1c0.4-0.3,0.7-0.5,1.1-0.6c0.4-0.1,0.7-0.1,1,0c0.3,0.1,0.4,0.5,0.4,1
			c0,0.3,0,0.6-0.1,0.9c0,0.3-0.1,0.6-0.3,0.9s-0.3,0.5-0.5,0.7C169.8,16.5,169.6,16.6,169.3,16.6z M171.2,45.9
			c-0.2,0-0.3,0-0.6-0.1c-0.2-0.1-0.5-0.2-0.7-0.3c-0.2-0.1-0.4-0.3-0.6-0.4c-0.2-0.2-0.2-0.4-0.2-0.6l0-21.9c0-0.2,0.1-0.4,0.2-0.6
			c0.2-0.2,0.4-0.3,0.6-0.4c0.2-0.1,0.5-0.2,0.7-0.3c0.2-0.1,0.4-0.1,0.6-0.1L171.2,45.9z"/>
		<path fill="#F79420" d="M174.4,27.2c-0.1-0.4-0.2-0.9-0.4-1.5c-0.2-0.6-0.3-1.2-0.4-1.9s-0.2-1.2-0.2-1.8c0-0.6,0.1-1,0.3-1.4
			c0.2-0.3,0.5-0.5,1-0.6c0.5,0,1.1,0.2,1.9,0.6c0.1,0.3,0.1,0.8,0.2,1.5c0.1,0.7,0.2,1.5,0.3,2.3c0.1,0.8,0.2,1.6,0.3,2.3
			c0.1,0.7,0.1,1.2,0.1,1.5c0.5-1.2,1.2-2.4,2.1-3.5c0.8-1.1,1.8-2,3-2.9s2.3-1.5,3.7-2c1.3-0.5,2.8-0.7,4.3-0.7l-0.5,2.6
			c-1.9,0.3-3.8,1.2-5.4,2.5c-1.7,1.3-3.1,3-4.2,5c-1.1,2.1-1.9,4.5-2.3,7.2c-0.4,2.8-0.2,5.8,0.4,9l-2.9,0.6c0,0-0.1-0.4-0.1-1.1
			c-0.1-0.7-0.1-1.6-0.2-2.8c-0.1-1.1-0.2-2.4-0.3-3.8c-0.1-1.4-0.2-2.8-0.3-4.2c-0.1-1.4-0.2-2.7-0.3-4
			C174.5,29.1,174.5,28.1,174.4,27.2z"/>
		<path fill="#F79420" d="M192.7,6.3l2.5-0.4c0.1,1.6,0.2,3.5,0.3,5.7c0.1,2.2,0.2,4.5,0.3,6.9c0.1,2.4,0.1,4.9,0.2,7.4
			c0.1,2.5,0.1,4.9,0.2,7.1c0,2.2,0.1,4.3,0.2,6.1c0.1,1.8,0.1,3.2,0.2,4.3c0,0.4-0.1,0.8-0.2,1.2c-0.2,0.4-0.3,0.7-0.5,0.8
			c-0.2,0.2-0.5,0.2-0.7,0.1c-0.3-0.1-0.5-0.5-0.7-1L192.7,6.3z"/>
		<path fill="#F79420" d="M198.7,36.9c0.2-0.5,0.5-0.8,0.9-1c0.3-0.1,0.8-0.2,1.3-0.1c1.1,1,2.2,1.9,3.3,2.8
			c1.1,0.9,2.3,1.6,3.6,2.3c1.2,0.6,2.5,1.1,3.9,1.5c1.4,0.4,2.8,0.6,4.4,0.6c0.3,0,0.7,0,1,0c0.4,0,0.8-0.1,1.1-0.2
			c0.3-0.1,0.6-0.3,0.8-0.5c0.2-0.2,0.3-0.6,0.3-1c-0.1-0.9-0.6-1.7-1.4-2.4c-0.8-0.7-1.8-1.3-3-2s-2.4-1.3-3.8-1.9
			c-1.3-0.7-2.5-1.4-3.6-2.2c-1.1-0.8-2-1.8-2.6-2.9c-0.7-1.1-0.9-2.4-0.8-3.9c0-0.8,0.3-1.6,0.8-2.3s1.2-1.2,2-1.7
			c0.8-0.5,1.6-0.8,2.5-1.1c0.9-0.3,1.6-0.4,2.3-0.4c1.3,0,2.6,0.2,4,0.6c1.3,0.4,2.6,0.9,3.6,1.7l-1.2,1.7c-0.5-0.5-1.2-0.8-2-1
			c-0.8-0.2-1.6-0.3-2.5-0.4c-0.8,0-1.7,0.1-2.5,0.2c-0.8,0.2-1.5,0.4-2.2,0.7c-0.6,0.3-1.1,0.7-1.4,1.1c-0.3,0.4-0.4,0.9-0.2,1.4
			c0,1.4,0.4,2.6,1.1,3.5c0.8,0.9,1.7,1.7,2.9,2.3c1.2,0.7,2.4,1.2,3.7,1.8c1.3,0.5,2.6,1.1,3.7,1.8c1.2,0.7,2.1,1.4,2.9,2.3
			c0.8,0.9,1.1,2,1.1,3.4c0,0.9-0.1,1.6-0.4,2.1c-0.3,0.5-0.7,0.9-1.1,1.2c-0.5,0.3-1,0.5-1.7,0.5s-1.3,0.1-2.1,0.1
			c-1.6,0-3.3-0.2-5.1-0.6c-1.8-0.4-3.5-1-5.1-1.8c-1.7-0.8-3.2-1.7-4.7-2.8C201,39.4,199.8,38.2,198.7,36.9z"/>
	</g>
</g>
<g id="Layer_2">
	<path fill="none" stroke="#00A14B" stroke-width="0.3177" stroke-miterlimit="10" d="M227.2,38.9c-0.6-3-3.1-5.3-5.6-6.9
		c-2.3-1.5-5.1-2.3-7.4-3.5c-0.4-0.2-0.7-0.4-1.1-0.6c0.2,0,0.3,0,0.5,0c0.2,0,0.3,0,0.4,0c0.1,0,0.2,0,0.4,0.1
		c0.3,0.1,0.6,0.2,1,0.3c-0.8-0.3,0.3,0.3,0.4,0.4c2.2,1.7,5.2,0.2,6.5-1.7c0.4-0.6,0.8-1.2,1.2-1.7c1.6-2.2,0.3-5.2-1.7-6.5
		c-6.1-4-13.9-3.8-19.5,1c-0.6,0.5-1.1,1.1-1.5,1.8c-0.1-5.2-0.3-10.3-0.7-15.5c-0.2-3.4-2.8-5.1-6.1-4.6c-0.5,0.1-0.9,0.1-1.4,0.2
		c-0.3,0-0.7,0.1-1,0.1c0,0-0.1,0-0.1,0c-1.2,0.2-2.1,1-2.7,2c-0.5,0.8-0.8,1.7-0.8,2.6c0.1,2.8,0.2,5.6,0.4,8.3
		c-2.9,0.4-5.5,1.5-7.9,3.1c-1-1.2-2.7-2.1-4.1-2.3c-0.2,0-0.5-0.1-0.7-0.1c0.1-0.4,0.1-0.9,0.1-1.3c0.1-1.3-0.3-2.2-0.8-3.4
		c-0.6-1.3-2.1-2.1-3.3-2.6c-1.1-0.4-2.6-0.2-3.6,0.1c-1.2,0.4-2.2,1.1-3.2,1.9c-0.7,0.6-1.1,1.3-1.4,2.1c-0.2,0.3-0.3,0.6-0.5,1
		c-0.2,0.5-0.2,1.1-0.3,1.6c0,0.5,0.1,1.1,0.3,1.7c-0.4-0.1-0.9-0.2-1.3-0.3c-3-0.5-5.7-0.1-8.5,1.2c-2.9,1.3-4.9,4-6.3,6.9
		c-0.3-0.6-0.7-1.2-1.1-1.7c-3.4-4.4-8.3-6.5-13.8-6.5c-3.2,0-6.2,0.8-8.8,2.2c-0.5-0.4-1.1-0.7-1.8-0.8c-9.3-1.8-21.3-2.2-28.2,4.4
		c-1.4-2.3-3.9-3.7-6.3-4.7c-2.9-1.2-6.4-1.1-9.5-0.9c-3.5,0.2-6.9,0.9-10.3,1.7c-0.8,0.1-1.4,0.4-1.9,0.8c-0.5-0.4-1-0.7-1.5-1
		c-5.3-2.8-12.1-1.9-17.7,0.2c0-0.1,0-0.3,0-0.4c0-2.6,0-5.2,0-7.8c0-2.6-2.2-4.8-4.8-4.8c-2.5,0-5.1,0-7.6,0
		c-0.8,0-1.5,0.2-2.2,0.6c-0.7-0.4-1.5-0.6-2.3-0.6c-2.5,0-5.1,0-7.6,0h0c-3.2,0-4.7,2.5-4.6,4.9c-0.1-0.1-0.1-0.1-0.2-0.2
		c0,2.2,0,4.3,0,6.5c-4.3,0.3-8.5,1.9-11.6,5c-4.5,4.4-5.4,11-4.4,17c1,5.6,5.1,9.5,10.2,11.4c3.4,1.3,7.2,1.5,10.9,1.2
		c-1,2.2-0.4,5.2,1.9,6.3c1.5,0.7,3,1.4,4.5,2.2c0.8,0.4,1.5,0.7,2.3,1.1c2.4,1.2,4.2,0.6,6.5-0.6c3-1.7,5.5-4.2,6.9-7.4
		c0.5-1.1,0.8-2.1,1.1-3.2c1.1,0.6,2.3,1.1,3.6,1.3c5.5,1.2,11.5,0.2,17-0.5c0,0,0.1,0,0.1,0c0.7,0.4,1.5,0.6,2.3,0.6
		c2.5,0,5.1,0,7.6,0c1.4,0,2.7-0.7,3.6-1.7c0.9,1,2.2,1.7,3.6,1.7c1.9,0,3.9,0,5.8,0c0,2.1,0,4.3,0,6.4c0,2.3,1.5,3.9,3.5,4.6
		c6,2.3,13.3,2.4,19.2-0.3c4.5-2,7.7-6.2,8.8-11c0.2-0.9,0.4-1.8,0.5-2.7c0.9,0.7,1.9,1.4,3.1,1.9c7.2,3.2,16,1.9,21.2-4
		c0.5,2.1,1.4,4.2,3.3,5c3,1.3,5.9,0.8,8.7-0.8c0.6-0.3,1.1-0.7,1.6-1.1c0.1,1.6,0.1,3.2-0.1,4.6c-0.1,0.7-0.3,1.5-0.5,2.2
		c-0.1,0.3-0.2,0.7-0.3,1c0,0.1-0.1,0.2-0.1,0.2c0,0.1-0.1,0.2-0.2,0.4c-0.1,0.3-0.3,0.6-0.5,0.8c0.4-0.7-0.4,0.4-0.4,0.5
		c-0.2,0.2-0.3,0.3-0.3,0.3c-0.2,0.1-0.4,0.2-0.6,0.3c0,0-0.1,0-0.4,0.1c-0.1,0-0.2,0.1-0.3,0.1c-0.1,0-0.2,0-0.4,0
		c-0.6,0-0.7,0-0.3,0.1c-0.1,0-0.2,0-0.3,0c0,0-0.1-0.1-0.4-0.3c-2-1.1-3.6-2-5.9-2.1c-2.8-0.1-4.6,2.3-4.8,4.8
		c-0.5,5.9,6.1,9.6,11.3,9.3c11.1-0.2,15.7-10.8,16.2-20.5c0.3,0.1,0.7,0.1,1,0.1c0.8,0.1,1.5-0.1,2.1-0.5c1.1,0.7,2.4,0.9,3.8,0.6
		c1-0.2,1.9-0.4,2.9-0.6c2.7-0.6,3.8-3.5,3.3-5.9c-0.8-4-0.6-7.5,0.7-11.3c-0.1,0.2,0.4-0.8,0.4-0.8c0.2-0.5,0.5-0.9,0.8-1.3
		c0.5-0.9,0.6-1,1.4-1.8c0.7-0.7,1.4-1.3,2.2-1.7c0,0.4,0,0.8,0.1,1.3c0.2,4.4,0.4,8.7,0.6,13.1c0,0.9,0.1,1.8,0.1,2.7
		c0.1,2.3,1.3,3.9,3.1,5.2c1.5,1.1,4,0.8,5.6-0.1c1.5-0.9,2.3-2.5,2.9-4.1c0,0,0-0.1,0-0.1c2.3,1.5,4.7,2.6,7.3,3.5
		c5.1,1.8,12.4,2.9,16.7-1C227.7,45.5,227.8,41.9,227.2,38.9z"/>
</g>
</svg>
