<?xml version="1.0" encoding="utf-8"?>
<!-- Generator: Adobe Illustrator 18.0.0, SVG Export Plug-In . SVG Version: 6.00 Build 0)  -->
<!DOCTYPE svg PUBLIC "-//W3C//DTD SVG 1.1//EN" "http://www.w3.org/Graphics/SVG/1.1/DTD/svg11.dtd">
<svg version="1.1" id="Layer_1" xmlns="http://www.w3.org/2000/svg" xmlns:xlink="http://www.w3.org/1999/xlink" x="0px" y="0px"
	 viewBox="0 0 841.9 1190.6" enable-background="new 0 0 841.9 1190.6" xml:space="preserve">
<rect x="-236" y="-2670.7" fill="#F69420" stroke="#000000" stroke-miterlimit="10" width="4458" height="3943.8"/>
<text transform="matrix(1 0 0 1 60.6418 305.0161)"><tspan x="0" y="0" fill="#FFFFFF" font-family="'Lato-Bold'" font-size="120">Bugs</tspan><tspan x="0" y="155" fill="#FFFFFF" font-family="'Lato-Light'" font-size="120">Come and go</tspan></text>
<text transform="matrix(1 0 0 1 66.3811 705.2696)"><tspan x="0" y="0" fill="#FFFFFF" font-family="'Lato-Bold'" font-size="120">Skills</tspan><tspan x="0" y="155" fill="#FFFFFF" font-family="'Lato-Light'" font-size="120">Stay forever</tspan></text>
<g>
	<rect x="-16.7" y="1091.2" opacity="0.14" fill="#FFFFFF" width="875.4" height="109"/>
	<g>
		<g>
			<g>
				<path fill="#FFFFFF" d="M48.8,1112.7h8.5v39.5c-4.4,0.8-7.6,1.2-11.1,1.2c-10.4,0-15.8-4.7-15.8-13.7c0-8.7,5.8-14.4,14.7-14.4
					c1.4,0,2.4,0.1,3.7,0.4L48.8,1112.7L48.8,1112.7z M48.8,1132.5c-1-0.3-1.8-0.4-2.9-0.4c-4.3,0-6.8,2.7-6.8,7.3
					c0,4.5,2.4,7,6.8,7c0.9,0,1.7-0.1,2.9-0.2L48.8,1132.5z"/>
				<path fill="#FFFFFF" d="M70.9,1125.8v19.8c0,6.8-0.5,10.1-2,12.9c-1.4,2.7-3.2,4.4-7,6.3l-7.9-3.8c3.8-1.8,5.6-3.3,6.8-5.7
					c1.2-2.4,1.6-5.3,1.6-12.7v-16.8H70.9z M62.4,1112.7h8.5v8.8h-8.5V1112.7z"/>
				<path fill="#FFFFFF" d="M76.1,1127.8c3.8-1.8,7.4-2.5,11.3-2.5c4.4,0,7.3,1.2,8.5,3.4c0.7,1.3,0.9,2.9,0.9,6.5v17.3
					c-3.8,0.6-8.6,0.9-12.2,0.9c-7.1,0-10.4-2.5-10.4-8c0-6,4.3-8.8,14.7-9.6v-1.9c0-1.6-0.8-2.1-2.9-2.1c-3.2,0-6.7,0.9-10,2.6
					L76.1,1127.8L76.1,1127.8z M89.5,1141.4c-5.7,0.6-7.5,1.4-7.5,3.7c0,1.7,1.1,2.4,3.4,2.4c1.3,0,2.4-0.1,4.1-0.4V1141.4
					L89.5,1141.4z"/>
				<path fill="#FFFFFF" d="M101,1127.2c5-1.3,9.2-1.9,13.4-1.9c4.4,0,7.5,1,9.4,2.9c1.8,1.8,2.3,3.8,2.3,8.1v16.7h-8.5v-16.4
					c0-3.3-1.1-4.5-4.2-4.5c-1.2,0-2.2,0.1-3.9,0.6v20.3H101L101,1127.2L101,1127.2z"/>
				<path fill="#FFFFFF" d="M129.5,1157.6c3,1.6,6,2.3,9.1,2.3c5.6,0,8-2.3,8-7.7c0-0.1,0-0.1,0-0.2c-1.7,0.8-3.3,1.2-5.5,1.2
					c-7.5,0-12.2-4.9-12.2-12.7c0-9.7,7-15.2,19.5-15.2c3.7,0,7,0.4,11.1,1.2l-2.9,6.2c-2.3-0.4-0.2-0.1-1.9-0.2v0.9l0.1,3.6
					l0.1,4.7c0.1,1.2,0.1,2.3,0.1,3.5c0,1.1,0,1.6,0,2.3c0,7.3-0.6,10.8-2.4,13.6c-2.7,4.2-7.3,6.2-13.8,6.2c-3.3,0-6.2-0.5-9.2-1.7
					L129.5,1157.6L129.5,1157.6z M146.5,1132.2c-0.1,0-0.2,0-0.3,0h-0.6c-1.7-0.1-3.6,0.4-4.9,1.2c-2,1.2-3.1,3.3-3.1,6.3
					c0,4.3,2.1,6.7,5.9,6.7c1.2,0,2.1-0.2,3.2-0.6v-0.6v-2.3c0-1-0.1-2.1-0.1-3.3l-0.1-3.9l-0.1-2.8L146.5,1132.2L146.5,1132.2z"/>
				<path fill="#FFFFFF" d="M172.7,1125.1c8.5,0,13.7,5.4,13.7,14.1c0,8.9-5.4,14.5-14.1,14.5c-8.5,0-13.8-5.4-13.8-14
					C158.6,1130.7,164,1125.1,172.7,1125.1z M172.6,1146.8c3.3,0,5.2-2.7,5.2-7.4c0-4.7-1.9-7.4-5.2-7.4c-3.4,0-5.3,2.7-5.3,7.4
					C167.3,1144.1,169.2,1146.8,172.6,1146.8z"/>
			</g>
		</g>
		<text transform="matrix(1 0 0 1 196.3303 1152.4237)" fill="#FFFFFF" font-family="'JustTheWayYouAre'" font-size="52.1911">girls</text>
	</g>
	<text transform="matrix(1 0 0 1 540.3718 1150.0228)" fill="#FFFFFF" font-family="'Lato-Regular'" font-size="28">Berlin, 21st July 2014</text>
</g>
</svg>
