<?xml version="1.0" encoding="utf-8"?>
<!-- Generator: Adobe Illustrator 18.0.0, SVG Export Plug-In . SVG Version: 6.00 Build 0)  -->
<!DOCTYPE svg PUBLIC "-//W3C//DTD SVG 1.1//EN" "http://www.w3.org/Graphics/SVG/1.1/DTD/svg11.dtd">
<svg version="1.1" id="Layer_1" xmlns="http://www.w3.org/2000/svg" xmlns:xlink="http://www.w3.org/1999/xlink" x="0px" y="0px"
	 viewBox="0 0 841.9 1190.6" enable-background="new 0 0 841.9 1190.6" xml:space="preserve">
<rect x="-1993.8" y="-1443.2" fill="#F69420" stroke="#000000" stroke-miterlimit="10" width="4458" height="3943.8"/>
<g>
	<rect x="-878.9" y="1090.8" opacity="0.14" fill="#FFFFFF" width="875.4" height="109"/>
	<g>
		<g>
			<g>
				<path fill="#FFFFFF" d="M-813.3,1112.3h8.5v39.5c-4.4,0.8-7.6,1.2-11.1,1.2c-10.4,0-15.8-4.7-15.8-13.7
					c0-8.7,5.8-14.4,14.7-14.4c1.4,0,2.4,0.1,3.7,0.4L-813.3,1112.3L-813.3,1112.3z M-813.3,1132.2c-1-0.3-1.8-0.4-2.9-0.4
					c-4.3,0-6.8,2.7-6.8,7.3c0,4.5,2.4,7,6.8,7c0.9,0,1.7-0.1,2.9-0.2V1132.2z"/>
				<path fill="#FFFFFF" d="M-791.2,1125.5v19.8c0,6.8-0.5,10.1-2,12.9c-1.4,2.7-3.2,4.4-7,6.3l-7.9-3.8c3.8-1.8,5.6-3.3,6.8-5.7
					c1.2-2.4,1.6-5.3,1.6-12.7v-16.8H-791.2z M-799.7,1112.4h8.5v8.8h-8.5V1112.4z"/>
				<path fill="#FFFFFF" d="M-786.1,1127.4c3.8-1.8,7.4-2.5,11.3-2.5c4.4,0,7.3,1.2,8.5,3.4c0.7,1.3,0.9,2.9,0.9,6.5v17.3
					c-3.8,0.6-8.6,0.9-12.2,0.9c-7.1,0-10.4-2.5-10.4-8c0-6,4.3-8.8,14.7-9.6v-1.9c0-1.6-0.8-2.1-2.9-2.1c-3.2,0-6.7,0.9-10,2.6
					L-786.1,1127.4L-786.1,1127.4z M-772.7,1141c-5.7,0.6-7.5,1.4-7.5,3.7c0,1.7,1.1,2.4,3.4,2.4c1.3,0,2.4-0.1,4.1-0.4V1141
					L-772.7,1141z"/>
				<path fill="#FFFFFF" d="M-761.1,1126.8c5-1.3,9.2-1.9,13.4-1.9c4.4,0,7.5,1,9.4,2.9c1.8,1.8,2.3,3.8,2.3,8.1v16.7h-8.5v-16.4
					c0-3.3-1.1-4.5-4.2-4.5c-1.2,0-2.2,0.1-3.9,0.6v20.3h-8.5L-761.1,1126.8L-761.1,1126.8z"/>
				<path fill="#FFFFFF" d="M-732.7,1157.3c3,1.6,6,2.3,9.1,2.3c5.6,0,8-2.3,8-7.7c0-0.1,0-0.1,0-0.2c-1.7,0.8-3.3,1.2-5.5,1.2
					c-7.5,0-12.2-4.9-12.2-12.7c0-9.7,7-15.2,19.5-15.2c3.7,0,7,0.4,11.1,1.2l-2.9,6.2c-2.3-0.4-0.2-0.1-1.9-0.2v0.9l0.1,3.6
					l0.1,4.7c0.1,1.2,0.1,2.3,0.1,3.5c0,1.1,0,1.6,0,2.3c0,7.3-0.6,10.8-2.4,13.6c-2.7,4.2-7.3,6.2-13.8,6.2c-3.3,0-6.2-0.5-9.2-1.7
					L-732.7,1157.3L-732.7,1157.3z M-715.7,1131.8c-0.1,0-0.2,0-0.3,0h-0.6c-1.7-0.1-3.6,0.4-4.9,1.2c-2,1.2-3.1,3.3-3.1,6.3
					c0,4.3,2.1,6.7,5.9,6.7c1.2,0,2.1-0.2,3.2-0.6v-0.6v-2.3c0-1-0.1-2.1-0.1-3.3l-0.1-3.9l-0.1-2.8L-715.7,1131.8L-715.7,1131.8z"
					/>
				<path fill="#FFFFFF" d="M-689.4,1124.8c8.5,0,13.7,5.4,13.7,14.1c0,8.9-5.4,14.5-14.1,14.5c-8.5,0-13.8-5.4-13.8-14
					C-703.6,1130.4-698.1,1124.8-689.4,1124.8z M-689.6,1146.5c3.3,0,5.2-2.7,5.2-7.4c0-4.7-1.9-7.4-5.2-7.4c-3.4,0-5.3,2.7-5.3,7.4
					C-694.9,1143.8-692.9,1146.5-689.6,1146.5z"/>
			</g>
		</g>
		<text transform="matrix(1 0 0 1 -665.8315 1152.095)" fill="#FFFFFF" font-family="'JustTheWayYouAre'" font-size="52.1911">girls</text>
	</g>
	<text transform="matrix(1 0 0 1 -321.7899 1149.6941)" fill="#FFFFFF" font-family="'Lato-Regular'" font-size="28">Berlin, 21st July 2014</text>
</g>
<text transform="matrix(1 0 0 1 73.1119 432.012)"><tspan x="0" y="0" fill="#FFFFFF" font-family="'Lato-Regular'" font-size="120">CODE:</tspan><tspan x="0" y="171" fill="#FFFFFF" font-family="'Lato-Regular'" font-size="120">Turning </tspan><tspan x="434.5" y="171" fill="#FFFFFF" font-family="'Lato-Bold'" font-size="120">ideas</tspan><tspan x="0" y="342" fill="#FFFFFF" font-family="'Lato-Regular'" font-size="120">into </tspan><tspan x="232.1" y="342" fill="#FFFFFF" font-family="'Lato-Bold'" font-size="120">things</tspan></text>
<g>
	<rect x="-8.5" y="1090.8" opacity="0.14" fill="#FFFFFF" width="875.4" height="109"/>
	<g>
		<g>
			<g>
				<path fill="#FFFFFF" d="M57.1,1112.3h8.5v39.5c-4.4,0.8-7.6,1.2-11.1,1.2c-10.4,0-15.8-4.7-15.8-13.7c0-8.7,5.8-14.4,14.7-14.4
					c1.4,0,2.4,0.1,3.7,0.4L57.1,1112.3L57.1,1112.3z M57.1,1132.2c-1-0.3-1.8-0.4-2.9-0.4c-4.3,0-6.8,2.7-6.8,7.3
					c0,4.5,2.4,7,6.8,7c0.9,0,1.7-0.1,2.9-0.2L57.1,1132.2z"/>
				<path fill="#FFFFFF" d="M79.2,1125.5v19.8c0,6.8-0.5,10.1-2,12.9c-1.4,2.7-3.2,4.4-7,6.3l-7.9-3.8c3.8-1.8,5.6-3.3,6.8-5.7
					c1.2-2.4,1.6-5.3,1.6-12.7v-16.8H79.2z M70.6,1112.4h8.5v8.8h-8.5V1112.4z"/>
				<path fill="#FFFFFF" d="M84.3,1127.4c3.8-1.8,7.4-2.5,11.3-2.5c4.4,0,7.3,1.2,8.5,3.4c0.7,1.3,0.9,2.9,0.9,6.5v17.3
					c-3.8,0.6-8.6,0.9-12.2,0.9c-7.1,0-10.4-2.5-10.4-8c0-6,4.3-8.8,14.7-9.6v-1.9c0-1.6-0.8-2.1-2.9-2.1c-3.2,0-6.7,0.9-10,2.6
					L84.3,1127.4L84.3,1127.4z M97.7,1141c-5.7,0.6-7.5,1.4-7.5,3.7c0,1.7,1.1,2.4,3.4,2.4c1.3,0,2.4-0.1,4.1-0.4V1141L97.7,1141z"
					/>
				<path fill="#FFFFFF" d="M109.3,1126.8c5-1.3,9.2-1.9,13.4-1.9c4.4,0,7.5,1,9.4,2.9c1.8,1.8,2.3,3.8,2.3,8.1v16.7h-8.5v-16.4
					c0-3.3-1.1-4.5-4.2-4.5c-1.2,0-2.2,0.1-3.9,0.6v20.3h-8.5L109.3,1126.8L109.3,1126.8z"/>
				<path fill="#FFFFFF" d="M137.7,1157.3c3,1.6,6,2.3,9.1,2.3c5.6,0,8-2.3,8-7.7c0-0.1,0-0.1,0-0.2c-1.7,0.8-3.3,1.2-5.5,1.2
					c-7.5,0-12.2-4.9-12.2-12.7c0-9.7,7-15.2,19.5-15.2c3.7,0,7,0.4,11.1,1.2l-2.9,6.2c-2.3-0.4-0.2-0.1-1.9-0.2v0.9l0.1,3.6
					l0.1,4.7c0.1,1.2,0.1,2.3,0.1,3.5c0,1.1,0,1.6,0,2.3c0,7.3-0.6,10.8-2.4,13.6c-2.7,4.2-7.3,6.2-13.8,6.2c-3.3,0-6.2-0.5-9.2-1.7
					L137.7,1157.3L137.7,1157.3z M154.7,1131.8c-0.1,0-0.2,0-0.3,0h-0.6c-1.7-0.1-3.6,0.4-4.9,1.2c-2,1.2-3.1,3.3-3.1,6.3
					c0,4.3,2.1,6.7,5.9,6.7c1.2,0,2.1-0.2,3.2-0.6v-0.6v-2.3c0-1-0.1-2.1-0.1-3.3l-0.1-3.9l-0.1-2.8L154.7,1131.8L154.7,1131.8z"/>
				<path fill="#FFFFFF" d="M181,1124.8c8.5,0,13.7,5.4,13.7,14.1c0,8.9-5.4,14.5-14.1,14.5c-8.5,0-13.8-5.4-13.8-14
					C166.8,1130.4,172.3,1124.8,181,1124.8z M180.8,1146.5c3.3,0,5.2-2.7,5.2-7.4c0-4.7-1.9-7.4-5.2-7.4c-3.4,0-5.3,2.7-5.3,7.4
					C175.5,1143.8,177.5,1146.5,180.8,1146.5z"/>
			</g>
		</g>
		<text transform="matrix(1 0 0 1 204.5624 1152.095)" fill="#FFFFFF" font-family="'JustTheWayYouAre'" font-size="52.1911">girls</text>
	</g>
	<text transform="matrix(1 0 0 1 548.6039 1149.6941)" fill="#FFFFFF" font-family="'Lato-Regular'" font-size="28">Berlin, 21st July 2014</text>
</g>
</svg>
