<?xml version="1.0" encoding="utf-8"?>
<!-- Generator: Adobe Illustrator 18.0.0, SVG Export Plug-In . SVG Version: 6.00 Build 0)  -->
<!DOCTYPE svg PUBLIC "-//W3C//DTD SVG 1.1//EN" "http://www.w3.org/Graphics/SVG/1.1/DTD/svg11.dtd">
<svg version="1.1" id="Layer_1" xmlns="http://www.w3.org/2000/svg" xmlns:xlink="http://www.w3.org/1999/xlink" x="0px" y="0px"
	 viewBox="0 0 841.9 1190.6" enable-background="new 0 0 841.9 1190.6" xml:space="preserve">
<rect x="-1114.9" y="-2670.7" fill="#F69420" stroke="#000000" stroke-miterlimit="10" width="4458" height="3943.8"/>
<g>
	<g>
		<g>
			<path fill="#FFFFFF" d="M297.7,253.9h16.7v77.2c-8.6,1.6-14.8,2.3-21.7,2.3c-20.4,0-31-9.2-31-26.9c0-17,11.3-28.1,28.7-28.1
				c2.7,0,4.8,0.2,7.3,0.9L297.7,253.9L297.7,253.9z M297.7,292.8c-2-0.6-3.6-0.9-5.6-0.9c-8.5,0-13.3,5.2-13.3,14.3
				c0,8.9,4.7,13.8,13.2,13.8c1.8,0,3.4-0.1,5.7-0.4L297.7,292.8z"/>
			<path fill="#FFFFFF" d="M340.9,279.7v38.7c0,13.3-1,19.7-3.9,25.2c-2.7,5.3-6.3,8.7-13.7,12.4l-15.5-7.4
				c7.4-3.5,10.9-6.5,13.2-11.2c2.4-4.8,3.1-10.3,3.1-24.8v-32.9H340.9z M324.2,254h16.7v17.1h-16.7V254z"/>
			<path fill="#FFFFFF" d="M351,283.5c7.4-3.5,14.4-5,22.1-5c8.6,0,14.2,2.3,16.7,6.7c1.4,2.5,1.8,5.7,1.8,12.7v33.9
				c-7.5,1.1-16.9,1.8-23.8,1.8c-14,0-20.3-4.9-20.3-15.7c0-11.7,8.3-17.1,28.8-18.9v-3.7c0-3-1.5-4.1-5.7-4.1
				c-6.2,0-13.1,1.7-19.6,5.1L351,283.5L351,283.5z M377.1,310c-11.1,1.1-14.6,2.8-14.6,7.2c0,3.3,2.1,4.8,6.6,4.8
				c2.5,0,4.8-0.2,8-0.8V310L377.1,310z"/>
			<path fill="#FFFFFF" d="M399.7,282.3c9.9-2.6,18-3.8,26.2-3.8c8.6,0,14.7,1.9,18.4,5.7c3.5,3.6,4.5,7.5,4.5,15.8v32.7h-16.7
				v-32.1c0-6.4-2.2-8.8-8.1-8.8c-2.3,0-4.3,0.2-7.7,1.2v39.7h-16.7L399.7,282.3L399.7,282.3z"/>
			<path fill="#FFFFFF" d="M455.4,341.9c5.9,3,11.7,4.4,17.9,4.4c10.9,0,15.6-4.4,15.6-15.1c0-0.1,0-0.2,0-0.3
				c-3.3,1.6-6.5,2.3-10.8,2.3c-14.6,0-23.9-9.6-23.9-24.9c0-19,13.8-29.7,38.1-29.7c7.2,0,13.8,0.8,21.8,2.4l-5.7,12
				c-4.4-0.9-0.4-0.1-3.7-0.4v1.7l0.2,7l0.1,9.1c0.1,2.3,0.1,4.6,0.2,6.8c0,2.1,0,3,0,4.6c0,14.3-1.2,21-4.8,26.5
				c-5.2,8.1-14.2,12.1-27,12.1c-6.5,0-12.1-1-18-3.3L455.4,341.9L455.4,341.9z M488.5,292.1c-0.2,0-0.4,0-0.5,0h-1.2
				c-3.2-0.1-7,0.8-9.6,2.4c-4,2.3-6.1,6.4-6.1,12.2c0,8.3,4.1,13.1,11.5,13.1c2.3,0,4.1-0.4,6.3-1.1v-1.2V313c0-2-0.1-4.1-0.1-6.4
				l-0.1-7.7l-0.1-5.5L488.5,292.1L488.5,292.1z"/>
			<path fill="#FFFFFF" d="M539.9,278.3c16.7,0,26.9,10.5,26.9,27.5c0,17.4-10.6,28.4-27.5,28.4c-16.7,0-27-10.5-27-27.4
				C512.3,289.2,522.9,278.3,539.9,278.3z M539.6,320.8c6.4,0,10.2-5.3,10.2-14.5c0-9.1-3.7-14.5-10.1-14.5
				c-6.6,0-10.4,5.3-10.4,14.5C529.3,315.5,533.1,320.8,539.6,320.8z"/>
		</g>
	</g>
	<path id="package" fill="#FFFFFF" d="M428.4,869.3l-15.8-37.2l-18.1,42.8l-67.7-29.6l1.6,35.1l84.9,39.4l98.2-48.3l-1.3-44.9
		L428.4,869.3z M539.8,730.9l-98.4-29.1l-27.1,24l-27.8-21.2l-97.9,40.5l34.2,27.4l-30.9,47.7l97.9,42.8l22.8-54l20.3,47.8
		l102.5-53.5L507.5,761L539.8,730.9z M412.2,802.5L330.7,768l83.5-36.9l86.5,29.3L412.2,802.5z"/>
	<g>
		<path id="path1948_2_" fill="#FFFFFF" d="M301.8,665.2c-2,0.6-3.8,1.4-5.3,2.2c-4.6,2.4-4.9,4.5-3.8,7.8l1.4,4.4l11.5-3.6l0.5,1.5
			l-11.5,3.6l-4.3,1.4c-3.3,1.1-5.6,4-5.3,8.1c0.3,4.7,1.1,7.4,3.7,11.7c1.9,3.1,4.6,4.9,7.9,3.9l3.9-1.2l-1.7-5.2
			c-1.2-3.8,1-8.2,4.9-9.4l11.5-3.6c3.2-1,4.9-4.4,3.9-7.6l-3.5-10.9c-1-3.1-4.3-4.6-7.6-4.1C305.8,664,303.8,664.5,301.8,665.2z
			 M296.7,670.6c1.2-0.4,2.5,0.3,2.8,1.5c0.4,1.2-0.3,2.5-1.5,2.9c-1.2,0.4-2.5-0.3-2.8-1.5C294.9,672.3,295.5,671,296.7,670.6z"/>
		<path id="path1950_2_" fill="#FFFFFF" d="M318.8,673.3l1.6,5.1c1.3,3.9-1,8.3-4.9,9.5l-11.5,3.6c-3.1,1-4.9,4.5-3.9,7.6l3.5,10.9
			c1,3.1,4.3,4.1,7.6,4c4-0.1,7.5-1,11.5-3.6c2.6-1.8,4.9-4.3,3.9-7.6l-1.4-4.4l-11.5,3.6l-0.5-1.5l11.5-3.6l5.7-1.8
			c3.3-1.1,3.8-3.8,3.9-7.6c0.1-4-1.1-7.4-3.7-11.7c-1.9-3.1-4.2-5.1-7.6-4L318.8,673.3z M321.1,703c1.2-0.4,2.5,0.3,2.8,1.5
			c0.4,1.2-0.3,2.5-1.5,2.9c-1.2,0.4-2.5-0.3-2.8-1.5C319.3,704.6,320,703.3,321.1,703z"/>
	</g>
	<g id="Your_Icon_3_">
		<path fill="#FFFFFF" d="M529.9,667.8l-3.8-2.5l2.8-4.2l-12.9-8.6l-2.8,4.2l-4.2-2.8l2.8-4.2l-12.9-8.6l-2.8,4.2l-3.8-2.5
			l-8.3,12.5l3.8,2.5l-3.1,4.6l4.2,2.8l-2.5,3.8l4.2,2.8l-3.1,4.6l4.2,2.8l-2.5,3.8l5,3.3l2.5-3.8l4.2,2.8l3.1-4.6l4.2,2.8l2.5-3.8
			l4.2,2.8l3.1-4.6l3.8,2.5L529.9,667.8z M506.3,676.2l-2.8,4.2l-4.6-3.1l-2.8,4.2l-3.3-2.2l2.8-4.2L491,672l2.8-4.2l-3.8-2.5
			l3.1-4.6l-4.6-3.1l7.8-11.7l12.1,8l-2.5,3.8l5,3.3l2.5-3.8l12.1,8l-7.8,11.7l-4.6-3.1l-3.1,4.6L506.3,676.2z"/>
	</g>
	<path fill="#FFFFFF" d="M393.3,641.9l-7.2,43l-0.1,0.6h7.5l7.2-43l0.1-0.6H393.3z M382.5,648.4l-1.9,1.2l-14.5,9.1l-1.7,1v7.7
		l1.7,1l14.5,9.1l1.9,1.2v-8.6l-10.6-6.6l10.6-6.6V648.4z M404.3,648.4v8.6l10.6,6.6l-10.6,6.6v8.6l1.9-1.2l14.5-9.1l1.7-1v-7.7
		l-1.7-1l-14.5-9.1L404.3,648.4z"/>
	<g>
		<path fill="#FFFFFF" d="M447.8,616.5c11.2,0,20.3-9.1,20.3-20.3c0-11.2-9.1-20.3-20.3-20.3c-11.2,0-20.3,9.1-20.3,20.3
			C427.4,607.4,436.6,616.5,447.8,616.5z M454.7,586.4c1.8,0,3.3,1.5,3.3,3.3c0,1.8-1.5,3.3-3.3,3.3c-1.8,0-3.3-1.5-3.3-3.3
			C451.4,587.9,452.8,586.4,454.7,586.4z M459.4,600c0,4.8-5.2,8.7-11.7,8.7c-6.4,0-11.7-3.9-11.7-8.7L459.4,600z M440.8,586.4
			c1.8,0,3.3,1.5,3.3,3.3c0,1.8-1.5,3.3-3.3,3.3c-1.8,0-3.3-1.5-3.3-3.3C437.5,587.9,439,586.4,440.8,586.4z"/>
	</g>
	<text transform="matrix(1 0 0 1 501.6835 621.1119)" fill="#FFFFFF" font-family="'Lato-Regular'" font-size="49.9278">&gt;&gt;&gt;</text>
	<path fill="#FFFFFF" d="M128.6,359.1l22.1,67.3l85.7-28.1L214.3,331L128.6,359.1L128.6,359.1z M163.8,404.2l-8.1-4.1l8.2-16.2
		l-16.2-8.2l4.1-8.1l24.4,12.3L163.8,404.2z M215.7,386l-27.8,9.1l-2.7-8.2l27.8-9.1L215.7,386z"/>
	<g id="Layer_2_1_">
		<path fill="#FFFFFF" d="M270.3,606c-1.8,3.7,0.8,7.7,0.4,11.2c-0.1,1.1-0.3,1.7-0.9,2.5c-3.8-0.4-10,2.7-14.4,2.6
			c-3.9-0.1-3.8-3-5.9-5.4c-0.4-1.8,4.5-8.3,6.3-11.6c5-9.3,2.1-9.1,3.4-10.7c0.9-1.1,4.8-2.3,9.7-2.5c2.7-0.1,4.8,3.6,4.8,3.6
			s6.6-2.6,12.5,0.4c3.8,2,4.2,5.6,6.6,10c2.2,4.4-0.5,10.5-0.5,10.5s-0.1,2,2.5,1.3c1.4-0.3,2.2-1.2,2.6-2.5c0.7-2.3-0.5-3-0.6-3.5
			c-0.3-1.5,2.3-0.7,2.7-1.6c0.4-0.9,0.7-1.8,1.7,1.2c2.2,6.8-0.5,11.9-3.7,13.3c-3.8,1.7-7.2,0.7-11.6-1.2c-1-0.4-3-2.3-3-1.1
			c0.1,3-0.1,3.2,1.1,4.7c0.2,0.3-0.2,0.7-1.7,0.7c-1.8-0.1-3.9-2.3-3.9-2.3c-3.1,4.5-0.6,11.5-0.8,13.3c-0.4,3.4-2.7,5.4-3.3,6.1
			c-0.9,1-0.3,1.3-0.4,1.9c-0.3,0.9-1.1,1.8-2.3,2.1c-1.2,0.4-10.1-6.6-10-7.2c0.1-0.6,1.6-2.1,2.6-2.6c0.7-0.3,0.5-0.9,0.4-1.4
			c-0.1-1.1-7.2-2.3-8.3-1.9c-1.2,1.2-1.1,5-1.1,5s0.2,0.6,0.7,1.1c0.4,0.8,0.6,2.8-0.1,3.1c-2.7,1.2-14.5,0.2-15.3-0.5
			c-0.4-0.4,0-2.5,0.8-3.2c2.1-1.7,0.3-8.4,0.3-8.4C230,622,235.4,612,235.4,612s-0.8,1.2-2,0.9c-1.5-0.3-2.1-1.9-2.7-3.5
			c-0.9-0.5-1.1-1.4-0.8-2.2c0.3-0.9,2.3-2.2,3.2-3.3c0,1.2-0.7,2.5-0.3,3.4c0.4,0.9-0.3,1.8-0.8,2c0.1,1.3,0.9,1.8,1.8,1.8
			c1.1,0,1-1.6,2.6-3.4c0.6-1.9,2.5-4,7.2-6.3c4.7-2.2,13.2-1.6,13.2-1.6c-0.5,1.2-0.6,2.1-1.6,3.7c-2.3,4-8.1,11.4-7.6,13.5
			c2.4,2.8,2.7,7,7.2,7.1c5.1,0.1,10.9-3.2,15.3-2.8c0.9-1.5,1.9-2.2,1.8-3.4C271.7,612.1,269.6,608.2,270.3,606L270.3,606z
			 M283.9,610.3c-0.3-0.6-0.4-0.6-0.7-0.7c-0.5-0.2-1.1-0.1-1.7,0.2c-0.7,0.3-0.8,0.6-1.1,0.9c-0.1,0.6,0,0.8,0.1,1.1
			c0.2,0.4,0.6,0.7,0.9,0.8c0.5-0.3,0.7-0.5,1.3-0.7c0.4-0.2,0.9-0.2,1.2-0.2C283.9,611.4,284.1,610.8,283.9,610.3z"/>
	</g>
	<g id="Your_Icon_4_">
		<polygon fill="#FFFFFF" points="227.8,554.8 189.5,510.9 189.4,569.1 202.6,559.9 211,582.7 220.3,579.2 211.8,556.5 		"/>
	</g>
	
		<text transform="matrix(0.9679 0.2513 -0.2513 0.9679 538.7344 549.6241)" fill="#FFFFFF" font-family="'Lato-Regular'" font-size="50">{% %}</text>
	<path fill="#FFFFFF" d="M255.7,486.9l13.4-2.8l7.1,33.5l-13.4,2.8L255.7,486.9z M275.8,482.6l13.4-2.8l-1.4-6.7l6.7-1.4l-1.4-6.7
		l6.7-1.4l-4.2-20.1l6.7-1.4l4.2,20.1l1.4,6.7l20.1-4.2l8.5,40.2l-33.5,7.1l-1.4-6.7l-20.1,4.2L275.8,482.6z M294.1,436.8l1.4,6.7
		l-6.7,1.4l2.8,13.4l-6.7,1.4l2.8,13.4l-40.2,8.5l9.9,46.9l26.8-5.7l-1.4-6.7l20.1-4.2l1.4,6.7l33.5-7.1l-1.4-6.7l6.7-1.4l-9.9-46.9
		l-20.1,4.2l-5.7-26.8L294.1,436.8z"/>
	<path fill="#FFFFFF" d="M475.3,469.5c-0.1,0-0.2,0-0.2,0c-2.1,0-3.6,1.7-3.6,3.9c0,2.1,0.8,3.8,4,3.9v0
		c15.3,0.2,28.7,13.3,28.7,29.3c0,16.2-13.3,29.5-29.5,29.5c-15.4,0-28.3-11.7-29.4-27h6.8l-10.5-17.5l-10.5,17.5h6.4
		c1.1,19.3,17.3,34.7,37,34.7c20.5,0,37.1-16.7,37.1-37.2C511.7,486.4,495.4,469.8,475.3,469.5z"/>
	<path fill="#FFFFFF" d="M478.7,487.5c0-1.8-1.5-3.4-3.3-3.4h-0.7c-1.8,0-3.3,1.6-3.3,3.4V507l-9.6,9.5c-1.4,1.4-1.3,3.7,0,5.1
		c1.3,1.4,3.7,1.4,5.1,0l10.6-10.6c0.1-0.1,0.1-0.2,0.2-0.3c0.6-0.6,0.9-1.4,0.9-2.3L478.7,487.5L478.7,487.5z"/>
	
		<ellipse transform="matrix(0.2714 -0.9625 0.9625 0.2714 80.9849 988.4954)" fill="#FFFFFF" cx="693.4" cy="440.8" rx="11.6" ry="31"/>
	<path fill="#FFFFFF" d="M636.8,449.1l4.2-15c0,0-3,11.1,26.7,19.5c29.8,8.4,33-2.7,33-2.7l-4.3,15.2c0,0-3.5,11.8-33.3,3.4
		C633.4,461.1,636.8,449.1,636.8,449.1z"/>
	<path fill="#FFFFFF" d="M631.1,469.2l4.2-15c0,0-3,11.1,26.7,19.5c29.8,8.4,33-2.7,33-2.7l-4.3,15.2c0,0-3.5,11.8-33.3,3.4
		C627.7,481.2,631.1,469.2,631.1,469.2z"/>
	<path fill="#FFFFFF" d="M625.6,488.8l4.2-15c0,0-3,11.1,26.7,19.5c29.8,8.4,33-2.7,33-2.7l-4.3,15.2c0,0-3.5,11.8-33.3,3.4
		C622.2,500.8,625.6,488.8,625.6,488.8z"/>
	<path fill="#FFFFFF" d="M600.6,428.5c-0.1,2.5-0.3,5.2-0.7,7.9c0.7-0.7,1.4-1.5,2-2.5c2-3.2,3.1-7.4,3.1-11.9
		c0-4.5-1.1-8.7-3.1-11.9c-1.6-2.5-3.6-4.1-5.7-4.6C600.4,411.9,600.9,421.5,600.6,428.5z"/>
	<g>
		<path fill="#FFFFFF" d="M599.6,427.7c-0.1-0.2-0.2-0.4-0.3-0.6c-0.1-0.3-0.3-0.6-0.4-0.8c-0.1-0.3-0.3-0.5-0.4-0.8
			c-1.6-2.7-4-4.5-7.2-5.3l-0.1,0l0,0l-0.1,0l-0.1,0c-0.9-0.2-1.8-0.3-2.7-0.4l-0.1,0l-0.1,0c-3.8-0.9-14.6-2.1-24.2-3
			c0.2,0.4,0.3,0.8,0.5,1.1c0,0,0,0,0,0c2.4,1.2,4.3,3.6,5.4,7c0.4,1.2,0.6,2.5,0.8,3.8c1.6,0.3,2.7,0.5,3.2,0.6l1,0.2l-0.5,0.9
			c-2.6,5.2-4.6,12.2-5.7,20.2c-1,7.4-1.3,15.4-0.8,22.9c0.2,3,0.5,5.7,0.9,7.8c0.5,2.8,1,3.3,1.1,3.4c0.1,0,0.2,0.1,0.2,0.1l0.1,0
			l0,0l0.4,0.1c0,0,0.1,0,0.2,0c0.4-0.2,1.1-1.2,2-5.1c0.6-2.7,1.1-6,1.6-9c0.5-3.4,0.9-6.1,1.4-7.2c1.1-2.4,3.2-3,4.9-2.7l0.1,0
			l0.1,0c1.6,0.5,3.2,2.1,3,4.8c-0.1,1.2-1,3.8-2.2,7c-1,2.8-2.2,5.9-2.9,8.6c-1.1,3.8-0.9,5-0.7,5.4c0.1,0.1,0.1,0.1,0.1,0.1
			l0.5,0.1l0,0c0,0,0.1,0,0.2,0c0.1,0,0.7-0.2,2.6-2.4c1.3-1.6,2.9-3.8,4.5-6.4c3.2-5,6.1-10.4,8.4-15.9c0.1-0.3,0.2-0.6,0.4-0.8
			c0.1-0.3,0.2-0.6,0.4-0.9c1.3-3.1,2.4-6.1,3.3-9.1C601.2,441.4,601.7,433.3,599.6,427.7z"/>
		<path fill="#FFFFFF" d="M569.1,430c0-0.3,0-0.5-0.1-0.8c0-0.3-0.1-0.5-0.1-0.8c-0.1-1.1-0.4-2.1-0.7-3c-0.7-2.3-1.8-4-3.2-5.2
			c0.6,2.3,0.7,4.9,0.7,7.5c0,0.3,0,0.5,0,0.8c0,0.3,0,0.5-0.1,0.8c-0.3,4.7-1.4,9.4-2.6,13.3c-0.8,2.7-1.8,5.5-2.9,8.3
			c0.7-0.4,1.4-1,2-1.6c2.8-2.7,5-6.6,6.1-11.1C569,435.3,569.3,432.5,569.1,430z"/>
		<circle fill="#FFFFFF" cx="557.1" cy="396.2" r="12"/>
		<circle fill="#FFFFFF" cx="594.4" cy="406" r="12"/>
		<path fill="#FFFFFF" d="M564.2,428.8c0-0.3,0-0.5,0-0.8c0-0.3,0-0.5,0-0.8c0.1-3.1-0.3-5.9-1.1-8.2c-0.1-0.2-0.1-0.4-0.2-0.6
			c0-0.1-0.1-0.2-0.1-0.3c-0.1-0.3-0.3-0.6-0.4-0.9c-0.1-0.2-0.2-0.5-0.4-0.7c-0.2-0.3-0.3-0.6-0.5-0.8c-0.2-0.3-0.4-0.6-0.6-0.8
			c-1.6-2-3.7-3.4-6.4-4.1l-0.1,0l0,0l-0.1,0l-0.1,0c-3.2-0.7-6.1-0.3-8.7,1.1c0.1,0.4,0.2,0.9,0.2,1.3c0,0.3,0,0.6,0,0.9
			c0,0.3,0,0.6-0.1,0.9c-0.2,1.1-0.5,2.2-1.1,3.2c-1.7,3-4.8,4.8-7.5,4.3c-1.6,3.5-2.9,7.6-3.9,12.4c-0.7,3.2-1.2,6.7-1.6,10.3
			c0,0.3-0.1,0.7-0.1,1c0,0.3-0.1,0.7-0.1,1c-0.5,5.7-0.6,11.5-0.2,17.1c0.2,3,0.5,5.7,0.9,7.8c0.5,2.8,1,3.3,1.1,3.4
			c0.1,0,0.2,0.1,0.2,0.1l0,0l0,0l0.4,0.1c0,0,0.1,0,0.2,0c0.4-0.2,1.1-1.2,2-5.1c0.6-2.7,1.1-6,1.6-9c0.5-3.4,0.9-6.1,1.4-7.2
			c1.1-2.4,3.2-3,4.9-2.7l0.1,0l0.1,0c1.6,0.5,3.2,2.1,3,4.8c-0.1,1.2-1,3.8-2.2,7c-1,2.8-2.2,5.9-2.9,8.6c-1.1,3.8-0.9,5-0.7,5.4
			c0.1,0.1,0.1,0.1,0.1,0.1l0.5,0.1l0,0c0,0,0.1,0,0.2,0c0.1,0,0.7-0.2,2.6-2.4c1.3-1.6,2.9-3.8,4.5-6.4c3-4.7,5.8-9.9,8.1-15.1
			c0.1-0.3,0.3-0.6,0.4-0.9c0.1-0.3,0.3-0.6,0.4-0.9c1.4-3.3,2.6-6.7,3.6-9.8C563.1,437.1,564,432.7,564.2,428.8z"/>
		<path fill="#FFFFFF" d="M544.2,414.1c0-0.3,0-0.5,0-0.8c0-0.2,0-0.4-0.1-0.6c0-0.1,0-0.1,0-0.2c0-0.2-0.1-0.4-0.2-0.6
			c-0.1-0.3-0.2-0.5-0.3-0.7c-0.3-0.6-0.8-1.1-1.4-1.4c-0.2-0.1-0.4-0.2-0.6-0.3l-0.2-0.1l-0.1-0.1c-0.1-0.1-0.2-0.2-0.3-0.3
			c-0.1-0.1-0.2-0.1-0.3-0.1c-1.3-0.3-3.6,1.1-5.3,4c-0.5,0.9-0.9,1.9-1.1,2.9c-0.1,0.4-0.2,0.9-0.2,1.3c0,0.4,0,0.8,0,1.1
			c0.1,0.7,0.4,1.3,0.9,1.5c0.1,0.1,0.2,0.1,0.4,0.1l0.2,0l0.1,0.1c0.2,0.1,0.3,0.3,0.5,0.4c0,0,0,0,0.1,0c0.2,0.1,0.4,0.2,0.6,0.3
			c0,0,0.1,0,0.1,0l0,0c0.2,0.1,0.4,0.1,0.6,0.1c2,0.1,4.2-1.3,5.5-3.6C543.8,416.3,544.2,415.2,544.2,414.1z"/>
	</g>
	<g id="Your_Icon_5_">
		<path fill="#FFFFFF" d="M447.8,407.8h-9v-10h-31v10h-10v-10h-31v10h-9v30h9v11h10v9h10v11h10v9h12v-9h10v-11h10v-9h10v-11h9V407.8
			z M417.8,447.8v10h-11v10h-8v-10h-11v-10h-9v-11h-11v-28h29v9h12v-9h29v28h-11v11H417.8z"/>
	</g>
	
		<text transform="matrix(0.9274 -0.3741 0.3741 0.9274 160.5727 497.2844)" fill="#FFFFFF" font-family="'Lato-Regular'" font-size="62.0327">&gt;&gt;&gt;</text>
	<path fill="#FFFFFF" d="M593.2,663.1c1.6-5.2,2.8-5.6,5.9-7.9c3.1-2.2,3.1-4.1,3.3-6.7c0.2-2.6-3.9-7.2-3.9-7.2
		s18.7-20.9,19.3-21.7c0.7-0.8,3-0.6,3-0.6s0.3-0.8,1-2.1l0.2,0.2c-0.1,0.2,0,0.5,0.2,0.7c0.3,0.3,0.7,0.3,0.9,0
		c0.2-0.2,0.2-0.6-0.1-0.9c-0.2-0.2-0.5-0.3-0.8-0.1l-0.2-0.2c0.3-0.5,0.7-1,1.1-1.5c0.1-0.1,0.2-0.3,0.3-0.4l0.4,0.4
		c-0.1,0.2,0,0.5,0.2,0.7c0.3,0.3,0.7,0.3,0.9,0c0.2-0.2,0.2-0.6-0.1-0.9c-0.2-0.2-0.5-0.3-0.8-0.1l-0.4-0.4
		c0.6-0.6,1.2-1.1,1.8-1.5l0.3,0.3c-0.1,0.2,0,0.5,0.2,0.7c0.3,0.3,0.7,0.3,0.9,0c0.2-0.2,0.2-0.6-0.1-0.9c-0.2-0.2-0.5-0.3-0.8-0.1
		l-0.3-0.2c0.8-0.5,1.4-0.8,1.4-0.8l0-3.1l-1.3-0.6l-0.7-1.2l-3.1,0.3c0,0-0.2,0.6-0.6,1.5l-0.4-0.4c0.1-0.2,0-0.5-0.2-0.7
		c-0.3-0.3-0.7-0.3-0.9,0c-0.2,0.2-0.2,0.6,0.1,0.9c0.2,0.2,0.5,0.3,0.8,0.1l0.5,0.4c-0.3,0.6-0.8,1.3-1.3,1.9l-0.4-0.4
		c0.1-0.2,0-0.5-0.2-0.7c-0.3-0.3-0.7-0.3-0.9,0c-0.2,0.2-0.2,0.6,0.1,0.9c0.2,0.2,0.5,0.3,0.8,0.1l0.4,0.4
		c-0.1,0.1-0.2,0.2-0.3,0.4c-0.5,0.5-1,0.9-1.4,1.2l-0.2-0.2c0.1-0.2,0-0.5-0.2-0.7c-0.3-0.3-0.7-0.3-0.9,0
		c-0.2,0.2-0.2,0.6,0.1,0.9c0.2,0.2,0.5,0.3,0.8,0.1l0.2,0.2c-1.1,0.8-2,1.2-2,1.2s0.3,2.3-0.4,3c-0.7,0.7-19.9,21.2-19.9,21.2
		s-5-3.6-7.6-3.2c-2.6,0.4-4.4,0.6-6.3,3.9c-2,3.3-2.3,4.5-7.3,6.6c-5,2.1-10,4.1-11.3,7c-1.3,3-4,8.3,6.2,17.6
		c10.2,9.3,15.2,6.2,18.1,4.6C590,673.3,591.5,668.3,593.2,663.1z M591.8,645.5c1.4,1.3,1.5,3.5,0.2,4.9c-1.3,1.4-3.5,1.5-4.9,0.2
		c-1.4-1.3-1.5-3.5-0.2-4.9C588.2,644.3,590.4,644.2,591.8,645.5z M583.1,662.6l-3.3-3l-1-0.9l-3.3-3l1.4-1.5l2.1,1.6l0.5-0.2
		l1.2,1.1l1,0.9l1.2,1.1l-0.2,0.5l1.8,1.9L583.1,662.6z"/>
	<g>
		<path fill="#FFFFFF" d="M752.9,355.9l-5.2-7.8c-0.5-0.8-1.6-0.9-2.4-0.3l-27.7,18.7l-17-3.3l-18.5-27.8c-0.5-0.7-1.6-1-2.3-0.5
			l-7.8,5.2c-0.8,0.5-1.2,1.5-0.7,2.3l18.1,27.2l-6.1,30.7c-0.2,0.9,0.8,1.7,1.8,1.9l31.7,6.3c0.9,0.2,2.1-0.2,2.3-1.1l6-30.3
			l27.5-18.6c0.4-0.3,0.5-0.7,0.6-1.1C753.3,356.7,753.1,356.3,752.9,355.9z"/>
		<path fill="#FFFFFF" d="M709.9,360.2c7.1,1.4,14-3.2,15.4-10.3s-3.2-14-10.3-15.4c-7.1-1.4-14,3.2-15.4,10.3
			C698.2,351.9,702.8,358.8,709.9,360.2z"/>
	</g>
	<path fill="#FFFFFF" d="M364.5,549.9c0.7-1.9,1-4,0.5-6.1c-1.2-6-7-9.9-13-8.7c-6,1.2-9.9,7-8.7,13c0.4,2.1,1.4,4,2.8,5.4
		c-3,3.5-4.5,8.2-3.5,13.1c0.7,3.6,2.7,6.7,5.4,8.9l23,54.9l0.1-59.6c1.6-3,2.3-6.6,1.6-10.3C371.8,555.8,368.6,551.9,364.5,549.9z
		 M352.6,537.8c4.5-0.9,8.9,2,9.8,6.5c0.3,1.6,0.1,3.2-0.4,4.6c-2.3-0.7-4.7-0.8-7.2-0.3c-2.5,0.5-4.7,1.6-6.5,3.1
		c-1-1.1-1.8-2.5-2.1-4.1C345.2,543.1,348.1,538.7,352.6,537.8z M368.8,569.6l-11.4,2.3c0,0.1,0,0.1,0.1,0.2l-2.7,0.5
		c0-0.1,0-0.1,0-0.2l-4.8,1c-2.2-1.8-3.9-4.3-4.5-7.3c-1.4-6.8,3.1-13.4,9.9-14.8c6.8-1.4,13.4,3.1,14.8,9.9
		C370.7,564.1,370.1,567.1,368.8,569.6z"/>
	<g>
		<path id="path1948_3_" fill="#FFFFFF" d="M648.8,230.6c-3-1.4-6-2.4-8.7-3.1c-8-2.1-10.6,0-12.9,5.1l-3.1,6.7l17.5,8l-1,2.2
			l-17.5-8l-6.6-3c-5.1-2.3-11-1.3-15,3.9c-4.7,5.9-6.7,10.1-8.2,17.8c-1.1,5.8,0.1,10.8,5.2,13.2l6,2.8l3.7-8
			c2.7-5.8,10-8.6,15.9-5.9l17.5,8c4.9,2.2,10.6,0,12.9-4.9l7.7-16.7c2.2-4.8-0.2-10.2-4.6-13.1C654.8,233.6,651.8,232,648.8,230.6z
			 M636.8,231.6c1.8,0.8,2.6,3,1.8,4.9c-0.8,1.8-3,2.7-4.8,1.8c-1.8-0.8-2.6-3-1.8-4.8C632.9,231.6,635,230.8,636.8,231.6z"/>
		<path id="path1950_3_" fill="#FFFFFF" d="M660.3,258.6l-3.6,7.8c-2.8,6-10.2,8.8-16.1,6.1l-17.5-8c-4.8-2.2-10.7,0.1-12.9,4.9
			l-7.7,16.7c-2.2,4.8,0.7,9.4,4.7,12.9c4.8,4.2,10,6.9,17.5,8c5,0.7,10.5,0.2,12.9-4.9l3.1-6.7l-17.5-8l1-2.2l17.5,8l8.8,4
			c5.1,2.3,8.6-0.3,12.8-4.9c4.3-4.7,6.7-10,8.2-17.8c1.1-5.7,0.4-10.6-4.7-12.9L660.3,258.6z M631.1,296.3c1.8,0.8,2.6,3,1.8,4.8
			c-0.8,1.8-3,2.7-4.8,1.8c-1.8-0.8-2.6-3-1.8-4.9C627.1,296.3,629.2,295.5,631.1,296.3z"/>
	</g>
	<g>
		<path fill="#FFFFFF" d="M216.9,232.3l7.4,43.3l-67.8,11.5l-7.4-43.3L216.9,232.3 M216.5,230.1l-67.8,11.5
			c-1.3,0.2-2.1,1.4-1.9,2.6l7.4,43.3c0.2,1.3,1.4,2,2.7,1.8l67.8-11.5c1.3-0.2,2.1-1.4,1.9-2.6l-7.4-43.3
			C219,230.6,217.8,229.9,216.5,230.1L216.5,230.1z"/>
		<path fill="#FFFFFF" d="M232.6,298.3l-76.5,13c-0.3,0.1-0.7,0-1-0.3c-0.3-0.2-0.3-0.5-0.4-0.9l1.6-18.3c0-0.5,0.4-0.9,1-1
			l67.5-11.5c0.5-0.1,1,0.2,1.3,0.6l7.6,16.8c0.2,0.3,0.1,0.7-0.1,1C233.3,298.1,233.1,298.2,232.6,298.3z M157.1,308.9l73.7-12.5
			l-6.5-14.7l-65.7,11.2L157.1,308.9z"/>
		<path fill="#FFFFFF" d="M192.4,266.8c-0.3,0.1-0.7,0-1-0.3c-0.4-0.4-0.4-1.1,0-1.5l6.6-7l-8.5-4.4c-0.5-0.3-0.7-0.9-0.5-1.5
			c0.3-0.5,0.9-0.7,1.5-0.5l9.8,5.1c0.3,0.2,0.6,0.5,0.6,0.8c0.1,0.3,0,0.7-0.3,1l-7.6,8C192.9,266.7,192.7,266.7,192.4,266.8z"/>
		<path fill="#FFFFFF" d="M184,267.5c-0.2,0-0.5-0.1-0.7-0.2l-8.8-6.6c-0.2-0.2-0.5-0.6-0.5-0.9s0.1-0.7,0.5-0.9l8.8-6.6
			c0.5-0.3,1.2-0.2,1.5,0.2c0.3,0.5,0.2,1.2-0.2,1.5l-7.7,5.8l7.7,5.8c0.5,0.3,0.6,1,0.2,1.5C184.7,267.4,184.4,267.5,184,267.5z"/>
	</g>
</g>
<g>
	<rect x="-13.4" y="1091.6" opacity="0.14" fill="#FFFFFF" width="875.4" height="109"/>
	<g>
		<g>
			<g>
				<path fill="#FFFFFF" d="M52.2,1113h8.5v39.5c-4.4,0.8-7.6,1.2-11.1,1.2c-10.4,0-15.8-4.7-15.8-13.7c0-8.7,5.8-14.4,14.7-14.4
					c1.4,0,2.4,0.1,3.7,0.4L52.2,1113L52.2,1113z M52.2,1132.9c-1-0.3-1.8-0.4-2.9-0.4c-4.3,0-6.8,2.7-6.8,7.3c0,4.5,2.4,7,6.8,7
					c0.9,0,1.7-0.1,2.9-0.2L52.2,1132.9z"/>
				<path fill="#FFFFFF" d="M74.3,1126.2v19.8c0,6.8-0.5,10.1-2,12.9c-1.4,2.7-3.2,4.4-7,6.3l-7.9-3.8c3.8-1.8,5.6-3.3,6.8-5.7
					c1.2-2.4,1.6-5.3,1.6-12.7v-16.8H74.3z M65.8,1113.1h8.5v8.8h-8.5V1113.1z"/>
				<path fill="#FFFFFF" d="M79.5,1128.2c3.8-1.8,7.4-2.5,11.3-2.5c4.4,0,7.3,1.2,8.5,3.4c0.7,1.3,0.9,2.9,0.9,6.5v17.3
					c-3.8,0.6-8.6,0.9-12.2,0.9c-7.1,0-10.4-2.5-10.4-8c0-6,4.3-8.8,14.7-9.6v-1.9c0-1.6-0.8-2.1-2.9-2.1c-3.2,0-6.7,0.9-10,2.6
					L79.5,1128.2L79.5,1128.2z M92.8,1141.7c-5.7,0.6-7.5,1.4-7.5,3.7c0,1.7,1.1,2.4,3.4,2.4c1.3,0,2.4-0.1,4.1-0.4L92.8,1141.7
					L92.8,1141.7z"/>
				<path fill="#FFFFFF" d="M104.4,1127.5c5-1.3,9.2-1.9,13.4-1.9c4.4,0,7.5,1,9.4,2.9c1.8,1.8,2.3,3.8,2.3,8.1v16.7H121V1137
					c0-3.3-1.1-4.5-4.2-4.5c-1.2,0-2.2,0.1-3.9,0.6v20.3h-8.5L104.4,1127.5L104.4,1127.5z"/>
				<path fill="#FFFFFF" d="M132.9,1158c3,1.6,6,2.3,9.1,2.3c5.6,0,8-2.3,8-7.7c0-0.1,0-0.1,0-0.2c-1.7,0.8-3.3,1.2-5.5,1.2
					c-7.5,0-12.2-4.9-12.2-12.7c0-9.7,7-15.2,19.5-15.2c3.7,0,7,0.4,11.1,1.2l-2.9,6.2c-2.3-0.4-0.2-0.1-1.9-0.2v0.9l0.1,3.6
					l0.1,4.7c0.1,1.2,0.1,2.3,0.1,3.5c0,1.1,0,1.6,0,2.3c0,7.3-0.6,10.8-2.4,13.6c-2.7,4.2-7.3,6.2-13.8,6.2c-3.3,0-6.2-0.5-9.2-1.7
					L132.9,1158L132.9,1158z M149.8,1132.5c-0.1,0-0.2,0-0.3,0H149c-1.7-0.1-3.6,0.4-4.9,1.2c-2,1.2-3.1,3.3-3.1,6.3
					c0,4.3,2.1,6.7,5.9,6.7c1.2,0,2.1-0.2,3.2-0.6v-0.6v-2.3c0-1-0.1-2.1-0.1-3.3l-0.1-3.9l-0.1-2.8L149.8,1132.5L149.8,1132.5z"/>
				<path fill="#FFFFFF" d="M176.1,1125.5c8.5,0,13.7,5.4,13.7,14.1c0,8.9-5.4,14.5-14.1,14.5c-8.5,0-13.8-5.4-13.8-14
					C162,1131.1,167.4,1125.5,176.1,1125.5z M175.9,1147.2c3.3,0,5.2-2.7,5.2-7.4c0-4.7-1.9-7.4-5.2-7.4c-3.4,0-5.3,2.7-5.3,7.4
					C170.7,1144.5,172.6,1147.2,175.9,1147.2z"/>
			</g>
		</g>
		<text transform="matrix(1 0 0 1 199.7009 1152.7987)" fill="#FFFFFF" font-family="'JustTheWayYouAre'" font-size="52.1911">girls</text>
	</g>
	<text transform="matrix(1 0 0 1 543.7424 1150.3981)" fill="#FFFFFF" font-family="'Lato-Regular'" font-size="28">Berlin, 21st July 2014</text>
</g>
</svg>
