<?xml version="1.0" encoding="utf-8"?>
<!-- Generator: Adobe Illustrator 18.0.0, SVG Export Plug-In . SVG Version: 6.00 Build 0)  -->
<!DOCTYPE svg PUBLIC "-//W3C//DTD SVG 1.1//EN" "http://www.w3.org/Graphics/SVG/1.1/DTD/svg11.dtd">
<svg version="1.1" id="Layer_1" xmlns="http://www.w3.org/2000/svg" xmlns:xlink="http://www.w3.org/1999/xlink" x="0px" y="0px"
	 viewBox="0 0 841.9 1190.6" enable-background="new 0 0 841.9 1190.6" xml:space="preserve">
<rect x="-1114.9" y="-215.6" fill="#F69420" stroke="#000000" stroke-miterlimit="10" width="4458" height="3943.8"/>
<g>
	<g>
		<g>
			<path fill="#FFFFFF" d="M184.5,338.9h33.8v156.6c-17.4,3.3-30.1,4.6-43.9,4.6c-41.3,0-62.8-18.7-62.8-54.5
				c0-34.5,22.9-56.9,58.2-56.9c5.5,0,9.7,0.4,14.7,1.8L184.5,338.9L184.5,338.9z M184.5,417.7c-4-1.3-7.3-1.8-11.4-1.8
				c-17.1,0-27,10.5-27,29c0,18,9.4,27.9,26.8,27.9c3.7,0,6.8-0.2,11.6-0.9L184.5,417.7z"/>
			<path fill="#FFFFFF" d="M272.2,391.1v78.4c0,27-2,40-7.9,51.2c-5.5,10.8-12.7,17.6-27.7,25l-31.4-14.9
				c14.9-7,22.2-13.2,26.8-22.6c4.8-9.7,6.4-20.9,6.4-50.3v-66.8H272.2z M238.4,339.1h33.8v34.7h-33.8V339.1z"/>
			<path fill="#FFFFFF" d="M292.6,398.8c14.9-7,29.2-10.1,44.8-10.1c17.4,0,28.8,4.6,33.8,13.6c2.9,5.1,3.7,11.6,3.7,25.7v68.8
				c-15.2,2.2-34.3,3.7-48.3,3.7c-28.3,0-41.1-9.9-41.1-31.9c0-23.7,16.9-34.7,58.5-38.2V423c0-6.2-3.1-8.3-11.6-8.3
				c-12.5,0-26.6,3.5-39.8,10.3L292.6,398.8L292.6,398.8z M345.6,452.7c-22.4,2.2-29.7,5.7-29.7,14.5c0,6.6,4.2,9.7,13.4,9.7
				c5.1,0,9.7-0.4,16.3-1.5L345.6,452.7L345.6,452.7z"/>
			<path fill="#FFFFFF" d="M391.5,396.4c20-5.3,36.5-7.7,53.2-7.7c17.4,0,29.9,4,37.4,11.6c7,7.2,9.2,15.2,9.2,32.1v66.4h-33.8v-65
				c0-13-4.4-17.8-16.5-17.8c-4.6,0-8.8,0.4-15.6,2.4v80.4h-33.8L391.5,396.4L391.5,396.4z"/>
			<path fill="#FFFFFF" d="M504.4,517.3c11.9,6.2,23.7,9,36.3,9c22.2,0,31.6-9,31.6-30.5c0-0.2,0-0.4,0-0.7
				c-6.6,3.3-13.2,4.6-22,4.6c-29.7,0-48.6-19.6-48.6-50.5c0-38.5,27.9-60.2,77.3-60.2c14.5,0,27.9,1.5,44.2,4.8l-11.6,24.4
				c-9-1.8-0.7-0.2-7.5-0.9v3.5l0.4,14.3l0.2,18.5c0.2,4.6,0.2,9.2,0.4,13.8c0,4.2,0,6.2,0,9.2c0,29-2.4,42.6-9.7,53.8
				c-10.5,16.5-28.8,24.6-54.7,24.6c-13.2,0-24.6-2-36.5-6.6L504.4,517.3L504.4,517.3z M571.7,416.2c-0.4,0-0.9,0-1.1,0h-2.4
				c-6.6-0.2-14.3,1.5-19.6,4.8c-8.1,4.6-12.3,13-12.3,24.8c0,16.9,8.4,26.6,23.3,26.6c4.6,0,8.4-0.9,12.7-2.2v-2.4v-9.2
				c0-4-0.2-8.4-0.2-13l-0.2-15.6l-0.2-11.2L571.7,416.2L571.7,416.2z"/>
			<path fill="#FFFFFF" d="M675.8,388.3c33.8,0,54.5,21.3,54.5,55.8c0,35.4-21.5,57.6-55.8,57.6c-33.8,0-54.7-21.3-54.7-55.6
				C619.8,410.5,641.3,388.3,675.8,388.3z M675.2,474.4c13,0,20.7-10.8,20.7-29.4c0-18.5-7.5-29.4-20.4-29.4
				c-13.4,0-21.1,10.8-21.1,29.4C654.3,463.7,662,474.4,675.2,474.4z"/>
		</g>
	</g>
	<text transform="matrix(1 0 0 1 232.8766 732.5756)" fill="#FFFFFF" font-family="'JustTheWayYouAre'" font-size="240.9787">girls</text>
</g>
<g>
	<g>
		<g>
			<path fill="#FFFFFF" d="M184.5,338.9h33.8v156.6c-17.4,3.3-30.1,4.6-43.9,4.6c-41.3,0-62.8-18.7-62.8-54.5
				c0-34.5,22.9-56.9,58.2-56.9c5.5,0,9.7,0.4,14.7,1.8L184.5,338.9L184.5,338.9z M184.5,417.7c-4-1.3-7.3-1.8-11.4-1.8
				c-17.1,0-27,10.5-27,29c0,18,9.4,27.9,26.8,27.9c3.7,0,6.8-0.2,11.6-0.9L184.5,417.7z"/>
			<path fill="#FFFFFF" d="M272.2,391.1v78.4c0,27-2,40-7.9,51.2c-5.5,10.8-12.7,17.6-27.7,25l-31.4-14.9
				c14.9-7,22.2-13.2,26.8-22.6c4.8-9.7,6.4-20.9,6.4-50.3v-66.8H272.2z M238.4,339.1h33.8v34.7h-33.8V339.1z"/>
			<path fill="#FFFFFF" d="M292.6,398.8c14.9-7,29.2-10.1,44.8-10.1c17.4,0,28.8,4.6,33.8,13.6c2.9,5.1,3.7,11.6,3.7,25.7v68.8
				c-15.2,2.2-34.3,3.7-48.3,3.7c-28.3,0-41.1-9.9-41.1-31.9c0-23.7,16.9-34.7,58.5-38.2V423c0-6.2-3.1-8.3-11.6-8.3
				c-12.5,0-26.6,3.5-39.8,10.3L292.6,398.8L292.6,398.8z M345.6,452.7c-22.4,2.2-29.7,5.7-29.7,14.5c0,6.6,4.2,9.7,13.4,9.7
				c5.1,0,9.7-0.4,16.3-1.5L345.6,452.7L345.6,452.7z"/>
			<path fill="#FFFFFF" d="M391.5,396.4c20-5.3,36.5-7.7,53.2-7.7c17.4,0,29.9,4,37.4,11.6c7,7.2,9.2,15.2,9.2,32.1v66.4h-33.8v-65
				c0-13-4.4-17.8-16.5-17.8c-4.6,0-8.8,0.4-15.6,2.4v80.4h-33.8L391.5,396.4L391.5,396.4z"/>
			<path fill="#FFFFFF" d="M504.4,517.3c11.9,6.2,23.7,9,36.3,9c22.2,0,31.6-9,31.6-30.5c0-0.2,0-0.4,0-0.7
				c-6.6,3.3-13.2,4.6-22,4.6c-29.7,0-48.6-19.6-48.6-50.5c0-38.5,27.9-60.2,77.3-60.2c14.5,0,27.9,1.5,44.2,4.8l-11.6,24.4
				c-9-1.8-0.7-0.2-7.5-0.9v3.5l0.4,14.3l0.2,18.5c0.2,4.6,0.2,9.2,0.4,13.8c0,4.2,0,6.2,0,9.2c0,29-2.4,42.6-9.7,53.8
				c-10.5,16.5-28.8,24.6-54.7,24.6c-13.2,0-24.6-2-36.5-6.6L504.4,517.3L504.4,517.3z M571.7,416.2c-0.4,0-0.9,0-1.1,0h-2.4
				c-6.6-0.2-14.3,1.5-19.6,4.8c-8.1,4.6-12.3,13-12.3,24.8c0,16.9,8.4,26.6,23.3,26.6c4.6,0,8.4-0.9,12.7-2.2v-2.4v-9.2
				c0-4-0.2-8.4-0.2-13l-0.2-15.6l-0.2-11.2L571.7,416.2L571.7,416.2z"/>
			<path fill="#FFFFFF" d="M675.8,388.3c33.8,0,54.5,21.3,54.5,55.8c0,35.4-21.5,57.6-55.8,57.6c-33.8,0-54.7-21.3-54.7-55.6
				C619.8,410.5,641.3,388.3,675.8,388.3z M675.2,474.4c13,0,20.7-10.8,20.7-29.4c0-18.5-7.5-29.4-20.4-29.4
				c-13.4,0-21.1,10.8-21.1,29.4C654.3,463.7,662,474.4,675.2,474.4z"/>
		</g>
	</g>
	<text transform="matrix(1 0 0 1 232.8766 732.5756)" fill="#FFFFFF" font-family="'JustTheWayYouAre'" font-size="240.9787">girls</text>
</g>
</svg>
