<?xml version="1.0" encoding="utf-8"?>
<!-- Generator: Adobe Illustrator 18.0.0, SVG Export Plug-In . SVG Version: 6.00 Build 0)  -->
<!DOCTYPE svg PUBLIC "-//W3C//DTD SVG 1.1//EN" "http://www.w3.org/Graphics/SVG/1.1/DTD/svg11.dtd">
<svg version="1.1" id="Layer_1" xmlns="http://www.w3.org/2000/svg" xmlns:xlink="http://www.w3.org/1999/xlink" x="0px" y="0px"
	 viewBox="0 0 841.9 1190.6" enable-background="new 0 0 841.9 1190.6" xml:space="preserve">
<rect x="-2872.7" y="-1443.2" fill="#F69420" stroke="#000000" stroke-miterlimit="10" width="4458" height="3943.8"/>
<g>
	<g>
		<path fill="#FFFFFF" d="M247.4,631.5h23.5v108.9c-12.1,2.3-20.9,3.2-30.5,3.2c-28.7,0-43.7-13-43.7-37.9c0-24,15.9-39.5,40.5-39.5
			c3.8,0,6.7,0.3,10.2,1.2L247.4,631.5L247.4,631.5z M247.4,686.3c-2.7-0.9-5-1.2-7.9-1.2c-11.9,0-18.8,7.3-18.8,20.2
			c0,12.5,6.6,19.4,18.6,19.4c2.6,0,4.7-0.2,8.1-0.6V686.3z"/>
		<path fill="#FFFFFF" d="M308.3,667.9v54.5c0,18.8-1.4,27.8-5.5,35.6c-3.8,7.5-8.9,12.2-19.2,17.4L261.8,765
			c10.4-4.9,15.4-9.2,18.6-15.7c3.4-6.7,4.4-14.5,4.4-35v-46.4H308.3z M284.8,631.7h23.5v24.1h-23.5V631.7z"/>
		<path fill="#FFFFFF" d="M322.5,673.2c10.4-4.9,20.3-7,31.2-7c12.1,0,20,3.2,23.5,9.5c2,3.5,2.6,8.1,2.6,17.9v47.8
			c-10.5,1.5-23.8,2.6-33.6,2.6c-19.7,0-28.6-6.9-28.6-22.1c0-16.5,11.8-24.1,40.6-26.6V690c0-4.3-2.1-5.8-8.1-5.8
			c-8.7,0-18.5,2.4-27.6,7.2L322.5,673.2L322.5,673.2z M359.3,710.6c-15.6,1.5-20.6,4-20.6,10.1c0,4.6,2.9,6.7,9.3,6.7
			c3.5,0,6.7-0.3,11.3-1.1V710.6L359.3,710.6z"/>
		<path fill="#FFFFFF" d="M391.3,671.5c13.9-3.7,25.3-5.3,37-5.3c12.1,0,20.8,2.7,26,8.1c4.9,5,6.4,10.5,6.4,22.3v46.1h-23.5v-45.2
			c0-9-3.1-12.4-11.5-12.4c-3.2,0-6.1,0.3-10.8,1.7v55.9h-23.5L391.3,671.5L391.3,671.5z"/>
		<path fill="#FFFFFF" d="M469.7,755.5c8.2,4.3,16.5,6.3,25.2,6.3c15.4,0,22-6.3,22-21.2c0-0.2,0-0.3,0-0.5
			c-4.6,2.3-9.2,3.2-15.3,3.2c-20.6,0-33.7-13.6-33.7-35.1c0-26.7,19.4-41.8,53.8-41.8c10.1,0,19.4,1.1,30.7,3.4l-8.1,17
			c-6.3-1.2-0.5-0.2-5.2-0.6v2.4l0.3,9.9l0.2,12.8c0.2,3.2,0.2,6.4,0.3,9.6c0,2.9,0,4.3,0,6.4c0,20.2-1.7,29.6-6.7,37.4
			c-7.3,11.5-20,17.1-38,17.1c-9.2,0-17.1-1.4-25.3-4.6L469.7,755.5L469.7,755.5z M516.5,685.3c-0.3,0-0.6,0-0.8,0H514
			c-4.6-0.2-9.9,1.1-13.6,3.4c-5.6,3.2-8.6,9-8.6,17.3c0,11.8,5.8,18.5,16.2,18.5c3.2,0,5.8-0.6,8.9-1.5v-1.7v-6.4
			c0-2.7-0.2-5.8-0.2-9l-0.2-10.8l-0.2-7.8L516.5,685.3L516.5,685.3z"/>
		<path fill="#FFFFFF" d="M588.9,665.9c23.5,0,37.9,14.8,37.9,38.8c0,24.6-15,40-38.8,40c-23.5,0-38-14.8-38-38.6
			C549.9,681.3,564.9,665.9,588.9,665.9z M588.4,725.7c9,0,14.4-7.5,14.4-20.5c0-12.8-5.2-20.5-14.2-20.5c-9.3,0-14.7,7.5-14.7,20.5
			C573.9,718.2,579.2,725.7,588.4,725.7z"/>
	</g>
</g>
<g id="Your_Icon">
	<path fill="#FFFFFF" d="M547.6,361.3h-27.7v-30.7h-95.3v30.7h-30.7v-30.7h-95.3v30.7h-27.7v92.2h27.7v33.8h30.7V515h30.7v33.8h30.7
		v27.7h36.9v-27.7h30.7V515h30.7v-27.7h30.7v-33.8h27.7V361.3z M455.4,484.3V515h-33.8v30.7H397V515h-33.8v-30.7h-27.7v-33.8h-33.8
		v-86.1h89.1v27.7h36.9v-27.7h89.1v86.1H483v33.8H455.4z"/>
</g>
<g>
	<rect x="-16.7" y="1091.4" opacity="0.14" fill="#FFFFFF" width="875.4" height="109"/>
	<g>
		<g>
			<g>
				<path fill="#FFFFFF" d="M48.8,1112.9h8.5v39.5c-4.4,0.8-7.6,1.2-11.1,1.2c-10.4,0-15.8-4.7-15.8-13.7c0-8.7,5.8-14.4,14.7-14.4
					c1.4,0,2.4,0.1,3.7,0.4L48.8,1112.9L48.8,1112.9z M48.8,1132.7c-1-0.3-1.8-0.4-2.9-0.4c-4.3,0-6.8,2.7-6.8,7.3
					c0,4.5,2.4,7,6.8,7c0.9,0,1.7-0.1,2.9-0.2V1132.7z"/>
				<path fill="#FFFFFF" d="M70.9,1126v19.8c0,6.8-0.5,10.1-2,12.9c-1.4,2.7-3.2,4.4-7,6.3l-7.9-3.8c3.8-1.8,5.6-3.3,6.8-5.7
					c1.2-2.4,1.6-5.3,1.6-12.7V1126H70.9z M62.4,1112.9h8.5v8.8h-8.5V1112.9z"/>
				<path fill="#FFFFFF" d="M76.1,1128c3.8-1.8,7.4-2.5,11.3-2.5c4.4,0,7.3,1.2,8.5,3.4c0.7,1.3,0.9,2.9,0.9,6.5v17.3
					c-3.8,0.6-8.6,0.9-12.2,0.9c-7.1,0-10.4-2.5-10.4-8c0-6,4.3-8.8,14.7-9.6v-1.9c0-1.6-0.8-2.1-2.9-2.1c-3.2,0-6.7,0.9-10,2.6
					L76.1,1128L76.1,1128z M89.5,1141.6c-5.7,0.6-7.5,1.4-7.5,3.7c0,1.7,1.1,2.4,3.4,2.4c1.3,0,2.4-0.1,4.1-0.4L89.5,1141.6
					L89.5,1141.6z"/>
				<path fill="#FFFFFF" d="M101,1127.4c5-1.3,9.2-1.9,13.4-1.9c4.4,0,7.5,1,9.4,2.9c1.8,1.8,2.3,3.8,2.3,8.1v16.7h-8.5v-16.4
					c0-3.3-1.1-4.5-4.2-4.5c-1.2,0-2.2,0.1-3.9,0.6v20.3H101L101,1127.4L101,1127.4z"/>
				<path fill="#FFFFFF" d="M129.5,1157.8c3,1.6,6,2.3,9.1,2.3c5.6,0,8-2.3,8-7.7c0-0.1,0-0.1,0-0.2c-1.7,0.8-3.3,1.2-5.5,1.2
					c-7.5,0-12.2-4.9-12.2-12.7c0-9.7,7-15.2,19.5-15.2c3.7,0,7,0.4,11.1,1.2l-2.9,6.2c-2.3-0.4-0.2-0.1-1.9-0.2v0.9l0.1,3.6
					l0.1,4.7c0.1,1.2,0.1,2.3,0.1,3.5c0,1.1,0,1.6,0,2.3c0,7.3-0.6,10.8-2.4,13.6c-2.7,4.2-7.3,6.2-13.8,6.2c-3.3,0-6.2-0.5-9.2-1.7
					L129.5,1157.8L129.5,1157.8z M146.5,1132.4c-0.1,0-0.2,0-0.3,0h-0.6c-1.7-0.1-3.6,0.4-4.9,1.2c-2,1.2-3.1,3.3-3.1,6.3
					c0,4.3,2.1,6.7,5.9,6.7c1.2,0,2.1-0.2,3.2-0.6v-0.6v-2.3c0-1-0.1-2.1-0.1-3.3l-0.1-3.9l-0.1-2.8L146.5,1132.4L146.5,1132.4z"/>
				<path fill="#FFFFFF" d="M172.7,1125.3c8.5,0,13.7,5.4,13.7,14.1c0,8.9-5.4,14.5-14.1,14.5c-8.5,0-13.8-5.4-13.8-14
					C158.6,1130.9,164,1125.3,172.7,1125.3z M172.6,1147c3.3,0,5.2-2.7,5.2-7.4c0-4.7-1.9-7.4-5.2-7.4c-3.4,0-5.3,2.7-5.3,7.4
					C167.3,1144.3,169.2,1147,172.6,1147z"/>
			</g>
		</g>
		<text transform="matrix(1 0 0 1 196.3303 1152.6287)" fill="#FFFFFF" font-family="'JustTheWayYouAre'" font-size="52.1911">girls</text>
	</g>
	<text transform="matrix(1 0 0 1 540.3718 1150.2278)" fill="#FFFFFF" font-family="'Lato-Regular'" font-size="28">Berlin, 21st July 2014</text>
</g>
</svg>
