<?xml version="1.0" encoding="utf-8"?>
<!-- Generator: Adobe Illustrator 18.0.0, SVG Export Plug-In . SVG Version: 6.00 Build 0)  -->
<!DOCTYPE svg PUBLIC "-//W3C//DTD SVG 1.1//EN" "http://www.w3.org/Graphics/SVG/1.1/DTD/svg11.dtd">
<svg version="1.1" id="Layer_1" xmlns="http://www.w3.org/2000/svg" xmlns:xlink="http://www.w3.org/1999/xlink" x="0px" y="0px"
	 viewBox="0 0 841.9 1190.6" enable-background="new 0 0 841.9 1190.6" xml:space="preserve">
<rect x="-1993.8" y="-215.6" fill="#F69420" stroke="#000000" stroke-miterlimit="10" width="4458" height="3943.8"/>
<g>
	<rect x="-16.7" y="1091" opacity="0.14" fill="#FFFFFF" width="875.4" height="109"/>
	<g>
		<g>
			<g>
				<path fill="#FFFFFF" d="M48.8,1112.5h8.5v39.5c-4.4,0.8-7.6,1.2-11.1,1.2c-10.4,0-15.8-4.7-15.8-13.7c0-8.7,5.8-14.4,14.7-14.4
					c1.4,0,2.4,0.1,3.7,0.4L48.8,1112.5L48.8,1112.5z M48.8,1132.4c-1-0.3-1.8-0.4-2.9-0.4c-4.3,0-6.8,2.7-6.8,7.3
					c0,4.5,2.4,7,6.8,7c0.9,0,1.7-0.1,2.9-0.2L48.8,1132.4z"/>
				<path fill="#FFFFFF" d="M70.9,1125.7v19.8c0,6.8-0.5,10.1-2,12.9c-1.4,2.7-3.2,4.4-7,6.3l-7.9-3.8c3.8-1.8,5.6-3.3,6.8-5.7
					c1.2-2.4,1.6-5.3,1.6-12.7v-16.8H70.9z M62.4,1112.5h8.5v8.8h-8.5V1112.5z"/>
				<path fill="#FFFFFF" d="M76.1,1127.6c3.8-1.8,7.4-2.5,11.3-2.5c4.4,0,7.3,1.2,8.5,3.4c0.7,1.3,0.9,2.9,0.9,6.5v17.3
					c-3.8,0.6-8.6,0.9-12.2,0.9c-7.1,0-10.4-2.5-10.4-8c0-6,4.3-8.8,14.7-9.6v-1.9c0-1.6-0.8-2.1-2.9-2.1c-3.2,0-6.7,0.9-10,2.6
					L76.1,1127.6L76.1,1127.6z M89.5,1141.2c-5.7,0.6-7.5,1.4-7.5,3.7c0,1.7,1.1,2.4,3.4,2.4c1.3,0,2.4-0.1,4.1-0.4V1141.2
					L89.5,1141.2z"/>
				<path fill="#FFFFFF" d="M101,1127c5-1.3,9.2-1.9,13.4-1.9c4.4,0,7.5,1,9.4,2.9c1.8,1.8,2.3,3.8,2.3,8.1v16.7h-8.5v-16.4
					c0-3.3-1.1-4.5-4.2-4.5c-1.2,0-2.2,0.1-3.9,0.6v20.3H101L101,1127L101,1127z"/>
				<path fill="#FFFFFF" d="M129.5,1157.5c3,1.6,6,2.3,9.1,2.3c5.6,0,8-2.3,8-7.7c0-0.1,0-0.1,0-0.2c-1.7,0.8-3.3,1.2-5.5,1.2
					c-7.5,0-12.2-4.9-12.2-12.7c0-9.7,7-15.2,19.5-15.2c3.7,0,7,0.4,11.1,1.2l-2.9,6.2c-2.3-0.4-0.2-0.1-1.9-0.2v0.9l0.1,3.6
					l0.1,4.7c0.1,1.2,0.1,2.3,0.1,3.5c0,1.1,0,1.6,0,2.3c0,7.3-0.6,10.8-2.4,13.6c-2.7,4.2-7.3,6.2-13.8,6.2c-3.3,0-6.2-0.5-9.2-1.7
					L129.5,1157.5L129.5,1157.5z M146.5,1132c-0.1,0-0.2,0-0.3,0h-0.6c-1.7-0.1-3.6,0.4-4.9,1.2c-2,1.2-3.1,3.3-3.1,6.3
					c0,4.3,2.1,6.7,5.9,6.7c1.2,0,2.1-0.2,3.2-0.6v-0.6v-2.3c0-1-0.1-2.1-0.1-3.3l-0.1-3.9l-0.1-2.8L146.5,1132L146.5,1132z"/>
				<path fill="#FFFFFF" d="M172.7,1125c8.5,0,13.7,5.4,13.7,14.1c0,8.9-5.4,14.5-14.1,14.5c-8.5,0-13.8-5.4-13.8-14
					C158.6,1130.6,164,1125,172.7,1125z M172.6,1146.7c3.3,0,5.2-2.7,5.2-7.4c0-4.7-1.9-7.4-5.2-7.4c-3.4,0-5.3,2.7-5.3,7.4
					C167.3,1144,169.2,1146.7,172.6,1146.7z"/>
			</g>
		</g>
		<text transform="matrix(1 0 0 1 196.3301 1152.2651)" fill="#FFFFFF" font-family="'JustTheWayYouAre'" font-size="52.1911">girls</text>
	</g>
	<text transform="matrix(1 0 0 1 540.3718 1149.8645)" fill="#FFFFFF" font-family="'Lato-Regular'" font-size="28">Berlin, 21st July 2014</text>
</g>
<g>
	<path id="path1948" fill="#FFFFFF" d="M395.9,353.4c-16.7,0.1-32.6,1.5-46.6,4c-41.2,7.3-48.7,22.5-48.7,50.6v37.1H398v12.4h-97.4
		h-36.6c-28.3,0-53.1,17-60.9,49.4c-8.9,37.1-9.3,60.3,0,99c6.9,28.8,23.5,49.4,51.8,49.4h33.5v-44.5c0-32.2,27.8-60.5,60.9-60.5
		h97.3c27.1,0,48.7-22.3,48.7-49.5V408c0-26.4-22.3-46.2-48.7-50.6C429.9,354.6,412.5,353.3,395.9,353.4z M343.2,383.2
		c10.1,0,18.3,8.4,18.3,18.6c0,10.2-8.2,18.5-18.3,18.5c-10.1,0-18.3-8.3-18.3-18.5C324.9,391.6,333.1,383.2,343.2,383.2z"/>
	<path id="path1950" fill="#FFFFFF" d="M507.5,457.5v43.3c0,33.5-28.4,61.8-60.9,61.8h-97.3c-26.7,0-48.7,22.8-48.7,49.5v92.8
		c0,26.4,23,41.9,48.7,49.5c30.8,9.1,60.4,10.7,97.3,0c24.5-7.1,48.7-21.4,48.7-49.5v-37.1H398v-12.4h97.3h48.7
		c28.3,0,38.9-19.8,48.7-49.4c10.2-30.5,9.7-59.9,0-99c-7-28.2-20.4-49.4-48.7-49.4H507.5z M452.8,692.4c10.1,0,18.3,8.3,18.3,18.5
		c0,10.3-8.2,18.6-18.3,18.6c-10.1,0-18.3-8.4-18.3-18.6C434.5,700.7,442.7,692.4,452.8,692.4z"/>
</g>
</svg>
