<?xml version="1.0" encoding="utf-8"?>
<!-- Generator: Adobe Illustrator 18.0.0, SVG Export Plug-In . SVG Version: 6.00 Build 0)  -->
<!DOCTYPE svg PUBLIC "-//W3C//DTD SVG 1.1//EN" "http://www.w3.org/Graphics/SVG/1.1/DTD/svg11.dtd">
<svg version="1.1" id="Layer_1" xmlns="http://www.w3.org/2000/svg" xmlns:xlink="http://www.w3.org/1999/xlink" x="0px" y="0px"
	 viewBox="0 0 841.9 1190.6" enable-background="new 0 0 841.9 1190.6" xml:space="preserve">
<rect x="-1993.8" y="-2670.7" fill="#F69420" stroke="#000000" stroke-miterlimit="10" width="4458" height="3943.8"/>
<g>
	<rect x="-8.5" y="1092.1" opacity="0.14" fill="#FFFFFF" width="875.4" height="109"/>
	<g>
		<g>
			<g>
				<path fill="#FFFFFF" d="M57.1,1113.6h8.5v39.5c-4.4,0.8-7.6,1.2-11.1,1.2c-10.4,0-15.8-4.7-15.8-13.7c0-8.7,5.8-14.4,14.7-14.4
					c1.4,0,2.4,0.1,3.7,0.4L57.1,1113.6L57.1,1113.6z M57.1,1133.4c-1-0.3-1.8-0.4-2.9-0.4c-4.3,0-6.8,2.7-6.8,7.3
					c0,4.5,2.4,7,6.8,7c0.9,0,1.7-0.1,2.9-0.2L57.1,1133.4z"/>
				<path fill="#FFFFFF" d="M79.2,1126.7v19.8c0,6.8-0.5,10.1-2,12.9c-1.4,2.7-3.2,4.4-7,6.3l-7.9-3.8c3.8-1.8,5.6-3.3,6.8-5.7
					c1.2-2.4,1.6-5.3,1.6-12.7v-16.8H79.2z M70.6,1113.6h8.5v8.8h-8.5V1113.6z"/>
				<path fill="#FFFFFF" d="M84.3,1128.7c3.8-1.8,7.4-2.5,11.3-2.5c4.4,0,7.3,1.2,8.5,3.4c0.7,1.3,0.9,2.9,0.9,6.5v17.3
					c-3.8,0.6-8.6,0.9-12.2,0.9c-7.1,0-10.4-2.5-10.4-8c0-6,4.3-8.8,14.7-9.6v-1.9c0-1.6-0.8-2.1-2.9-2.1c-3.2,0-6.7,0.9-10,2.6
					L84.3,1128.7L84.3,1128.7z M97.7,1142.3c-5.7,0.6-7.5,1.4-7.5,3.7c0,1.7,1.1,2.4,3.4,2.4c1.3,0,2.4-0.1,4.1-0.4V1142.3
					L97.7,1142.3z"/>
				<path fill="#FFFFFF" d="M109.3,1128.1c5-1.3,9.2-1.9,13.4-1.9c4.4,0,7.5,1,9.4,2.9c1.8,1.8,2.3,3.8,2.3,8.1v16.7h-8.5v-16.4
					c0-3.3-1.1-4.5-4.2-4.5c-1.2,0-2.2,0.1-3.9,0.6v20.3h-8.5L109.3,1128.1L109.3,1128.1z"/>
				<path fill="#FFFFFF" d="M137.7,1158.6c3,1.6,6,2.3,9.1,2.3c5.6,0,8-2.3,8-7.7c0-0.1,0-0.1,0-0.2c-1.7,0.8-3.3,1.2-5.5,1.2
					c-7.5,0-12.2-4.9-12.2-12.7c0-9.7,7-15.2,19.5-15.2c3.7,0,7,0.4,11.1,1.2l-2.9,6.2c-2.3-0.4-0.2-0.1-1.9-0.2v0.9l0.1,3.6
					l0.1,4.7c0.1,1.2,0.1,2.3,0.1,3.5c0,1.1,0,1.6,0,2.3c0,7.3-0.6,10.8-2.4,13.6c-2.7,4.2-7.3,6.2-13.8,6.2c-3.3,0-6.2-0.5-9.2-1.7
					L137.7,1158.6L137.7,1158.6z M154.7,1133.1c-0.1,0-0.2,0-0.3,0h-0.6c-1.7-0.1-3.6,0.4-4.9,1.2c-2,1.2-3.1,3.3-3.1,6.3
					c0,4.3,2.1,6.7,5.9,6.7c1.2,0,2.1-0.2,3.2-0.6v-0.6v-2.3c0-1-0.1-2.1-0.1-3.3l-0.1-3.9l-0.1-2.8L154.7,1133.1L154.7,1133.1z"/>
				<path fill="#FFFFFF" d="M181,1126c8.5,0,13.7,5.4,13.7,14.1c0,8.9-5.4,14.5-14.1,14.5c-8.5,0-13.8-5.4-13.8-14
					C166.8,1131.6,172.3,1126,181,1126z M180.8,1147.7c3.3,0,5.2-2.7,5.2-7.4c0-4.7-1.9-7.4-5.2-7.4c-3.4,0-5.3,2.7-5.3,7.4
					C175.5,1145,177.5,1147.7,180.8,1147.7z"/>
			</g>
		</g>
		<text transform="matrix(1 0 0 1 204.5623 1153.3325)" fill="#FFFFFF" font-family="'JustTheWayYouAre'" font-size="52.1911">girls</text>
	</g>
	<text transform="matrix(1 0 0 1 548.6038 1150.9319)" fill="#FFFFFF" font-family="'Lato-Regular'" font-size="28">Berlin, 21st July 2014</text>
</g>
<text transform="matrix(1 0 0 1 238.2783 418.0303)"><tspan x="0" y="0" fill="#FFFFFF" font-family="'OpenSans-Semibold'" font-size="180">YOU </tspan><tspan x="52.6" y="200" fill="#FFFFFF" font-family="'OpenSans-Extrabold'" font-size="180">GO</tspan><tspan x="-33" y="400" fill="#FFFFFF" font-family="'OpenSans-Semibold'" font-size="180">GIRL!</tspan></text>
</svg>
