<?xml version="1.0" encoding="utf-8"?>
<!-- Generator: Adobe Illustrator 17.1.0, SVG Export Plug-In . SVG Version: 6.00 Build 0)  -->
<!DOCTYPE svg PUBLIC "-//W3C//DTD SVG 1.1//EN" "http://www.w3.org/Graphics/SVG/1.1/DTD/svg11.dtd">
<svg version="1.1" id="Layer_1" xmlns="http://www.w3.org/2000/svg" xmlns:xlink="http://www.w3.org/1999/xlink" x="0px" y="0px"
	 viewBox="0 0 170.1 113.4" enable-background="new 0 0 170.1 113.4" xml:space="preserve">
<rect x="0" y="0" fill="#C9325E" stroke="#000000" stroke-width="0.1042" stroke-miterlimit="10" width="170.1" height="113.4"/>
<g>
	<g>
		<g>
			<g>
				<path fill="#FFFFFF" d="M14.2,90.5h2.5v11.8c-1.3,0.2-2.3,0.3-3.3,0.3c-3.1,0-4.7-1.4-4.7-4.1c0-2.6,1.7-4.3,4.4-4.3
					c0.4,0,0.7,0,1.1,0.1L14.2,90.5L14.2,90.5z M14.2,96.4c-0.3-0.1-0.5-0.1-0.9-0.1c-1.3,0-2,0.8-2,2.2c0,1.4,0.7,2.1,2,2.1
					c0.3,0,0.5,0,0.9-0.1L14.2,96.4z"/>
				<path fill="#FFFFFF" d="M20.9,94.4v5.9c0,2-0.1,3-0.6,3.9c-0.4,0.8-1,1.3-2.1,1.9l-2.4-1.1c1.1-0.5,1.7-1,2-1.7
					c0.4-0.7,0.5-1.6,0.5-3.8v-5H20.9z M18.3,90.5h2.5v2.6h-2.5V90.5z"/>
				<path fill="#FFFFFF" d="M22.4,95c1.1-0.5,2.2-0.8,3.4-0.8c1.3,0,2.2,0.3,2.5,1c0.2,0.4,0.3,0.9,0.3,1.9v5.2
					c-1.1,0.2-2.6,0.3-3.6,0.3c-2.1,0-3.1-0.7-3.1-2.4c0-1.8,1.3-2.6,4.4-2.9v-0.6c0-0.5-0.2-0.6-0.9-0.6c-0.9,0-2,0.3-3,0.8
					L22.4,95L22.4,95z M26.4,99c-1.7,0.2-2.2,0.4-2.2,1.1c0,0.5,0.3,0.7,1,0.7c0.4,0,0.7,0,1.2-0.1L26.4,99L26.4,99z"/>
				<path fill="#FFFFFF" d="M29.8,94.8c1.5-0.4,2.7-0.6,4-0.6c1.3,0,2.3,0.3,2.8,0.9c0.5,0.5,0.7,1.1,0.7,2.4v5h-2.5v-4.9
					c0-1-0.3-1.3-1.2-1.3c-0.3,0-0.7,0-1.2,0.2v6.1h-2.5L29.8,94.8L29.8,94.8z"/>
				<path fill="#FFFFFF" d="M38.3,103.9c0.9,0.5,1.8,0.7,2.7,0.7c1.7,0,2.4-0.7,2.4-2.3c0,0,0,0,0,0c-0.5,0.2-1,0.3-1.7,0.3
					c-2.2,0-3.7-1.5-3.7-3.8c0-2.9,2.1-4.5,5.8-4.5c1.1,0,2.1,0.1,3.3,0.4l-0.9,1.8c-0.7-0.1-0.1,0-0.6-0.1v0.3l0,1.1l0,1.4
					c0,0.3,0,0.7,0,1c0,0.3,0,0.5,0,0.7c0,2.2-0.2,3.2-0.7,4.1c-0.8,1.2-2.2,1.9-4.1,1.9c-1,0-1.9-0.1-2.7-0.5L38.3,103.9
					L38.3,103.9z M43.4,96.3C43.4,96.3,43.4,96.3,43.4,96.3h-0.3c-0.5,0-1.1,0.1-1.5,0.4c-0.6,0.3-0.9,1-0.9,1.9c0,1.3,0.6,2,1.8,2
					c0.3,0,0.6-0.1,1-0.2v-0.2v-0.7c0-0.3,0-0.6,0-1l0-1.2l0-0.8L43.4,96.3L43.4,96.3z"/>
				<path fill="#FFFFFF" d="M51.3,94.2c2.5,0,4.1,1.6,4.1,4.2c0,2.7-1.6,4.3-4.2,4.3c-2.5,0-4.1-1.6-4.1-4.2
					C47,95.9,48.7,94.2,51.3,94.2z M51.2,100.7c1,0,1.6-0.8,1.6-2.2c0-1.4-0.6-2.2-1.5-2.2c-1,0-1.6,0.8-1.6,2.2
					C49.6,99.9,50.2,100.7,51.2,100.7z"/>
			</g>
		</g>
	</g>
	<g>
		<path fill="#FFFFFF" d="M61.4,110.4c-0.3,0-0.6,0-0.9-0.1c-0.3-0.1-0.6-0.2-0.8-0.3c-0.2-0.1-0.4-0.3-0.5-0.5s-0.2-0.4-0.1-0.7
			c0.2,0,0.4,0,0.6,0.1c0.2,0.1,0.3,0.2,0.5,0.3c0.2,0.1,0.3,0.2,0.5,0.3c0.2,0.1,0.4,0.1,0.7,0.1c0.6,0,1.2-0.1,1.6-0.4
			c0.4-0.3,0.8-0.6,1-1.1c0.3-0.4,0.4-0.9,0.6-1.5c0.1-0.6,0.2-1.1,0.2-1.7c0-0.2,0-0.4,0-0.7s0-0.7-0.1-1.1c0-0.4,0-0.8-0.1-1.3
			c0-0.5-0.1-0.9-0.1-1.3c0-0.4-0.1-0.8-0.1-1.1c0-0.3-0.1-0.6-0.1-0.7c-0.1,0.2-0.2,0.5-0.3,0.8c-0.1,0.3-0.3,0.6-0.4,1
			c-0.2,0.3-0.4,0.7-0.6,1c-0.2,0.3-0.4,0.6-0.7,0.9c-0.3,0.3-0.5,0.5-0.9,0.7s-0.6,0.3-1,0.3c-0.2,0-0.3-0.1-0.4-0.3
			c-0.1-0.2-0.2-0.4-0.2-0.6c-0.1-0.2-0.1-0.5-0.1-0.7c0-0.2,0-0.4,0-0.5c-0.1-0.7-0.1-1.4,0-2.1c0.1-0.7,0.2-1.3,0.3-1.9
			c0.2-0.6,0.4-1.1,0.7-1.6c0.3-0.5,0.6-0.8,1-1.1c0.4-0.3,0.9-0.4,1.4-0.5c0.5,0,1.1,0.1,1.7,0.4c0.2,0,0.3,0.1,0.4,0.3
			c0.1,0.2,0.1,0.5,0.1,0.8c0,0.3,0,0.6-0.1,1c0,0.3-0.1,0.6-0.1,0.9c0,0.6,0,1.1,0.1,1.7c0,0.6,0.1,1.1,0.2,1.7
			c0.1,0.6,0.1,1.1,0.2,1.7c0,0.6,0.1,1.1,0.1,1.7c0,0.7-0.1,1.3-0.2,2.1c-0.1,0.7-0.4,1.4-0.7,2c-0.3,0.6-0.7,1.1-1.3,1.5
			C62.8,110.2,62.2,110.4,61.4,110.4z M60.4,100.8c0,0.1,0,0.2,0,0.4c0,0.2,0,0.3,0.1,0.5c0,0.1,0.1,0.3,0.2,0.4
			c0.1,0.1,0.2,0.2,0.4,0.2c0.3,0,0.6-0.1,0.8-0.4c0.3-0.3,0.5-0.6,0.7-1.1c0.2-0.4,0.4-0.9,0.6-1.4c0.2-0.5,0.3-1,0.5-1.5
			c0.1-0.5,0.2-1,0.3-1.4C64,96,64,95.7,64,95.5c-0.7-0.2-1.2-0.2-1.7,0c-0.5,0.3-0.8,0.6-1.1,1.2c-0.3,0.5-0.5,1.2-0.6,1.9
			C60.4,99.4,60.4,100.1,60.4,100.8z"/>
		<path fill="#FFFFFF" d="M66.9,92.6c-0.1,0-0.2,0-0.3-0.1c-0.1-0.1-0.2-0.1-0.3-0.2c-0.1-0.1-0.1-0.2-0.1-0.3c0-0.1,0-0.2,0.1-0.2
			c0-0.1,0.1-0.2,0.3-0.4c0.1-0.1,0.3-0.2,0.4-0.2c0.1,0,0.3,0,0.4,0c0.1,0,0.2,0.2,0.2,0.4c0,0.1,0,0.2,0,0.3c0,0.1,0,0.2-0.1,0.3
			c0,0.1-0.1,0.2-0.2,0.2C67.1,92.6,67,92.6,66.9,92.6z M67.6,103.1c-0.1,0-0.1,0-0.2,0c-0.1,0-0.2-0.1-0.3-0.1
			c-0.1,0-0.2-0.1-0.2-0.2c-0.1-0.1-0.1-0.1-0.1-0.2l0-7.8c0-0.1,0-0.1,0.1-0.2c0.1-0.1,0.1-0.1,0.2-0.2c0.1,0,0.2-0.1,0.3-0.1
			c0.1,0,0.2,0,0.2,0L67.6,103.1z"/>
		<path fill="#FFFFFF" d="M68.7,96.4c0-0.1-0.1-0.3-0.1-0.5c-0.1-0.2-0.1-0.4-0.1-0.7c0-0.2-0.1-0.4-0.1-0.7c0-0.2,0-0.4,0.1-0.5
			c0.1-0.1,0.2-0.2,0.3-0.2c0.2,0,0.4,0.1,0.7,0.2c0,0.1,0.1,0.3,0.1,0.5c0,0.3,0.1,0.5,0.1,0.8c0,0.3,0.1,0.6,0.1,0.8
			c0,0.3,0,0.4,0,0.5c0.2-0.4,0.4-0.8,0.7-1.2c0.3-0.4,0.7-0.7,1.1-1c0.4-0.3,0.8-0.5,1.3-0.7c0.5-0.2,1-0.3,1.5-0.3l-0.2,0.9
			c-0.7,0.1-1.3,0.4-1.9,0.9c-0.6,0.5-1.1,1.1-1.5,1.8c-0.4,0.7-0.7,1.6-0.8,2.6c-0.1,1-0.1,2.1,0.2,3.2l-1,0.2c0,0,0-0.1,0-0.4
			c0-0.3,0-0.6-0.1-1c0-0.4-0.1-0.9-0.1-1.4c0-0.5-0.1-1-0.1-1.5c0-0.5-0.1-1-0.1-1.4C68.8,97.1,68.8,96.7,68.7,96.4z"/>
		<path fill="#FFFFFF" d="M75.3,88.9l0.9-0.1c0,0.6,0.1,1.3,0.1,2c0,0.8,0.1,1.6,0.1,2.5c0,0.9,0.1,1.8,0.1,2.6c0,0.9,0,1.7,0.1,2.5
			c0,0.8,0,1.5,0.1,2.2c0,0.6,0,1.2,0.1,1.5c0,0.2,0,0.3-0.1,0.4c-0.1,0.1-0.1,0.2-0.2,0.3c-0.1,0.1-0.2,0.1-0.3,0
			c-0.1,0-0.2-0.2-0.3-0.4L75.3,88.9z"/>
		<path fill="#FFFFFF" d="M77.4,99.9c0.1-0.2,0.2-0.3,0.3-0.4c0.1,0,0.3-0.1,0.5,0c0.4,0.4,0.8,0.7,1.2,1c0.4,0.3,0.8,0.6,1.3,0.8
			c0.4,0.2,0.9,0.4,1.4,0.5c0.5,0.1,1,0.2,1.6,0.2c0.1,0,0.2,0,0.4,0c0.1,0,0.3,0,0.4-0.1c0.1,0,0.2-0.1,0.3-0.2
			c0.1-0.1,0.1-0.2,0.1-0.4c0-0.3-0.2-0.6-0.5-0.9c-0.3-0.2-0.7-0.5-1.1-0.7c-0.4-0.2-0.9-0.5-1.4-0.7c-0.5-0.2-0.9-0.5-1.3-0.8
			c-0.4-0.3-0.7-0.6-0.9-1c-0.2-0.4-0.3-0.8-0.3-1.4c0-0.3,0.1-0.6,0.3-0.8c0.2-0.2,0.4-0.4,0.7-0.6c0.3-0.2,0.6-0.3,0.9-0.4
			c0.3-0.1,0.6-0.1,0.8-0.1c0.5,0,0.9,0.1,1.4,0.2c0.5,0.1,0.9,0.3,1.3,0.6l-0.4,0.6c-0.2-0.2-0.4-0.3-0.7-0.4
			C83.4,95,83.1,95,82.8,95c-0.3,0-0.6,0-0.9,0.1c-0.3,0.1-0.6,0.1-0.8,0.3c-0.2,0.1-0.4,0.3-0.5,0.4c-0.1,0.2-0.1,0.3-0.1,0.5
			c0,0.5,0.1,0.9,0.4,1.2c0.3,0.3,0.6,0.6,1,0.8c0.4,0.2,0.9,0.4,1.3,0.6c0.5,0.2,0.9,0.4,1.3,0.6c0.4,0.2,0.8,0.5,1,0.8
			c0.3,0.3,0.4,0.7,0.4,1.2c0,0.3-0.1,0.6-0.2,0.7c-0.1,0.2-0.2,0.3-0.4,0.4c-0.2,0.1-0.4,0.2-0.6,0.2c-0.2,0-0.5,0-0.7,0
			c-0.6,0-1.2-0.1-1.8-0.2c-0.6-0.2-1.2-0.4-1.8-0.6c-0.6-0.3-1.2-0.6-1.7-1C78.3,100.8,77.8,100.4,77.4,99.9z"/>
	</g>
</g>
<g>
	<path fill="#FFFFFF" d="M34.8,8.3c0.1-0.1,0.1-0.1,0.2-0.2c0.1,0,0.2-0.1,0.3-0.1c0.1,0,0.2,0,0.3,0v5.2c0.2-0.2,0.3-0.4,0.5-0.6
		c0.2-0.2,0.3-0.4,0.5-0.6c0.2-0.2,0.4-0.4,0.6-0.5c0.2-0.1,0.5-0.2,0.8-0.2c0.4,0,0.8,0.2,1.1,0.5c0.3,0.3,0.5,0.7,0.7,1.2
		c0.2,0.5,0.3,1,0.4,1.6c0.1,0.6,0.2,1.2,0.2,1.7c0,0.6,0.1,1.1,0.1,1.5c0,0.5,0,0.8,0,1c0,0.1,0,0.2-0.1,0.3
		c-0.1,0.1-0.2,0.1-0.3,0.1c-0.1,0-0.2,0-0.3-0.1s-0.1-0.1-0.2-0.3c0-0.1,0-0.2,0-0.5c0-0.2,0-0.5,0-0.8s0-0.6,0-0.9
		c0-0.3,0-0.6,0-0.9c0-0.3,0-0.6,0-0.8c0-0.2,0-0.4,0-0.5c0-0.2-0.1-0.4-0.1-0.7c-0.1-0.3-0.1-0.5-0.3-0.8c-0.1-0.3-0.3-0.5-0.4-0.7
		c-0.2-0.2-0.4-0.3-0.6-0.3c-0.4,0-0.7,0.1-1,0.4c-0.3,0.3-0.5,0.6-0.7,1.1S36.1,14.5,36,15c-0.1,0.5-0.2,1-0.2,1.5
		c-0.1,0.5-0.1,0.9-0.1,1.3s0,0.7,0,0.8l-1,0c0-1.3,0-2.6,0-3.9c0-0.5,0-1.1,0-1.6s0-1.1,0-1.6s0-1,0-1.5c0-0.5,0-0.9,0-1.3V8.6
		C34.7,8.5,34.7,8.4,34.8,8.3z"/>
	<path fill="#FFFFFF" d="M41.8,18c-0.3-1-0.5-1.8-0.6-2.5c-0.1-0.7-0.1-1.3,0-1.8s0.2-0.9,0.4-1.2c0.2-0.3,0.4-0.6,0.7-0.7
		s0.6-0.3,0.9-0.3c0.3,0,0.7,0,1,0c0.2,0,0.3,0,0.5,0.1c0.2,0.1,0.3,0.2,0.5,0.3c0.1,0.1,0.3,0.3,0.3,0.5c0.1,0.2,0.1,0.3,0.1,0.5
		c0,0.5-0.1,0.9-0.3,1.2c-0.2,0.3-0.5,0.6-0.9,0.8c-0.3,0.2-0.7,0.4-1.1,0.5c-0.4,0.1-0.8,0.2-1.2,0.2c0,0,0,0.1,0,0.1
		c0,0.1,0,0.1,0,0.2c0,0.1,0,0.1,0,0.2c0,0.1,0,0.1,0,0.1c0,0.2,0,0.5,0.1,0.7s0.2,0.5,0.4,0.7c0.2,0.2,0.3,0.4,0.6,0.6
		c0.2,0.1,0.5,0.2,0.7,0.2c0.3,0,0.5-0.1,0.7-0.2c0.2-0.1,0.4-0.3,0.6-0.5c0.2-0.2,0.4-0.3,0.6-0.5c0.2-0.1,0.4-0.2,0.7-0.2
		c0,0.3-0.1,0.5-0.3,0.8c-0.2,0.2-0.4,0.5-0.7,0.7s-0.6,0.3-0.9,0.5C44.2,19,44,19,43.7,19c-0.4,0-0.7-0.1-1.1-0.2
		C42.3,18.6,42,18.4,41.8,18z M44,11.9c-0.4,0-0.7,0.1-0.9,0.3c-0.3,0.2-0.5,0.4-0.6,0.7s-0.3,0.6-0.3,0.9c-0.1,0.3-0.1,0.6-0.1,0.9
		c0.2,0,0.5,0,0.8-0.1s0.7-0.1,1-0.3s0.6-0.3,0.8-0.5c0.2-0.2,0.3-0.5,0.3-0.9c0-0.1,0-0.2-0.1-0.4c-0.1-0.1-0.1-0.2-0.2-0.3
		c-0.1-0.1-0.2-0.2-0.3-0.2C44.3,12,44.2,11.9,44,11.9z"/>
	<path fill="#FFFFFF" d="M46.9,7.4l0.8-0.1c0,0.5,0.1,1,0.1,1.7c0,0.6,0.1,1.3,0.1,2c0,0.7,0,1.4,0.1,2.2c0,0.7,0,1.4,0,2.1
		c0,0.7,0,1.3,0,1.8s0,1,0.1,1.3c0,0.1,0,0.2-0.1,0.4s-0.1,0.2-0.2,0.2c-0.1,0-0.1,0.1-0.2,0s-0.2-0.1-0.2-0.3L46.9,7.4z"/>
	<path fill="#FFFFFF" d="M48.7,7.4l0.8-0.1c0,0.5,0.1,1,0.1,1.7c0,0.6,0.1,1.3,0.1,2c0,0.7,0,1.4,0.1,2.2c0,0.7,0,1.4,0,2.1
		c0,0.7,0,1.3,0,1.8s0,1,0.1,1.3c0,0.1,0,0.2-0.1,0.4s-0.1,0.2-0.2,0.2c-0.1,0-0.1,0.1-0.2,0s-0.2-0.1-0.2-0.3L48.7,7.4z"/>
	<path fill="#FFFFFF" d="M50.7,15.3c0-0.6,0.1-1.2,0.2-1.7c0.1-0.5,0.3-0.9,0.6-1.3c0.3-0.3,0.6-0.6,1.1-0.8s1-0.3,1.6-0.3
		c0.5,0.2,1,0.4,1.3,0.7c0.3,0.3,0.6,0.6,0.8,1c0.2,0.3,0.3,0.7,0.3,1s0.1,0.7,0.1,0.9c0,0.6-0.1,1.1-0.2,1.6s-0.4,0.9-0.7,1.3
		c-0.3,0.4-0.7,0.6-1.1,0.9c-0.5,0.2-1,0.3-1.6,0.3c-0.5,0-1-0.1-1.3-0.3c-0.3-0.2-0.6-0.5-0.7-0.9c-0.2-0.3-0.3-0.7-0.3-1.2
		C50.7,16.2,50.7,15.8,50.7,15.3z M51.3,15.4c0,0.4,0,0.8,0.1,1.2c0,0.4,0.1,0.7,0.3,1s0.3,0.5,0.6,0.7c0.3,0.2,0.6,0.2,1.1,0.2
		c0.5,0,1-0.1,1.3-0.3c0.4-0.2,0.6-0.4,0.9-0.7s0.4-0.7,0.5-1.1c0.1-0.4,0.1-0.9,0.1-1.4c-0.1-0.3-0.2-0.7-0.3-1
		c-0.1-0.3-0.2-0.6-0.4-0.8s-0.4-0.4-0.7-0.6s-0.7-0.3-1.1-0.5c-0.5,0-0.9,0.1-1.2,0.3c-0.3,0.2-0.5,0.5-0.7,0.8
		c-0.2,0.3-0.3,0.7-0.3,1.1C51.3,14.6,51.3,15,51.3,15.4z"/>
	<path fill="#FFFFFF" d="M58.7,8.2c0,0.2,0,0.5,0,0.9c0,0.4,0,0.9,0.1,1.4c0,0.5,0,1,0.1,1.6c0,0.6,0,1.1,0.1,1.6s0,1,0.1,1.4
		s0,0.7,0,0.9c0,0.1,0,0.2,0,0.4c0,0.1,0,0.2-0.1,0.3c0,0.1-0.1,0.2-0.2,0.2c-0.1,0.1-0.2,0.1-0.4,0.1L58,8.4L58.7,8.2z M59.2,18.7
		c-0.2,0.2-0.3,0.3-0.4,0.3c-0.1,0-0.3,0-0.3,0c-0.1-0.1-0.1-0.2-0.1-0.3s0.1-0.3,0.2-0.5c0.1-0.1,0.3-0.1,0.4-0.1
		C59.1,18.2,59.2,18.4,59.2,18.7z"/>
	<path fill="#FFFFFF" d="M67.8,13.7c0.2-0.3,0.3-0.6,0.5-0.8c0.2-0.3,0.4-0.5,0.6-0.7c0.2-0.2,0.4-0.3,0.6-0.3c0.1,0,0.3,0,0.4,0.1
		c0.1,0.1,0.2,0.2,0.3,0.3s0.2,0.3,0.3,0.4c0.1,0.1,0.1,0.3,0.2,0.4c0,0.1,0.1,0.2,0.1,0.4s0.1,0.4,0.2,0.7s0.1,0.5,0.2,0.7
		c0.1,0.2,0.1,0.4,0.1,0.4c0.1-0.2,0.1-0.4,0.2-0.7c0.1-0.3,0.2-0.6,0.3-0.9c0.1-0.3,0.3-0.7,0.4-1s0.3-0.6,0.5-0.9
		c0.2-0.3,0.4-0.5,0.6-0.7c0.2-0.2,0.5-0.3,0.8-0.3c0.2,0,0.3,0.1,0.5,0.2s0.4,0.3,0.5,0.4c0.2,0.2,0.3,0.3,0.4,0.5s0.2,0.4,0.2,0.5
		l0,6.1h-0.6l0-5.8c0-0.4-0.1-0.7-0.2-0.9c-0.2-0.2-0.4-0.4-0.7-0.4c-0.2,0-0.3,0.1-0.5,0.2c-0.2,0.1-0.3,0.3-0.5,0.4
		c-0.1,0.2-0.3,0.4-0.4,0.5c-0.1,0.2-0.2,0.3-0.2,0.5c-0.2,0.5-0.3,1-0.5,1.5c-0.1,0.5-0.2,0.9-0.3,1.4c-0.1,0.4-0.1,0.9-0.2,1.4
		c0,0.5-0.1,1-0.1,1.6L70.9,19c0-0.1,0-0.3-0.1-0.6s-0.1-0.5-0.1-0.8c0-0.3-0.1-0.6-0.1-0.9c0-0.3-0.1-0.6-0.1-0.9
		c0-0.3-0.1-0.6-0.1-0.8c0-0.2-0.1-0.4-0.1-0.6c-0.1-0.6-0.3-1-0.4-1.3c-0.2-0.2-0.3-0.4-0.5-0.3c-0.2,0-0.3,0.2-0.5,0.4
		c-0.1,0.3-0.3,0.6-0.4,0.9s-0.3,0.8-0.4,1.3c-0.1,0.5-0.2,0.9-0.3,1.4c-0.1,0.4-0.1,0.9-0.1,1.2c0,0.4,0,0.7,0,0.9
		c-0.1,0.1-0.2,0.1-0.3,0.1c-0.1,0-0.2,0-0.3-0.1c-0.1,0-0.2-0.1-0.3-0.1c-0.1,0-0.1-0.1-0.1-0.1l0-6c0-0.1,0-0.1,0.1-0.2
		c0.1,0,0.1-0.1,0.2-0.1c0.1,0,0.2-0.1,0.3-0.1c0.1,0,0.2,0,0.2,0l-0.1,2C67.5,14.3,67.6,14,67.8,13.7z"/>
	<path fill="#FFFFFF" d="M77.6,23.7C77.6,23.7,77.6,23.6,77.6,23.7c0-0.1,0-0.1,0-0.1c0.1,0.1,0.3,0.2,0.4,0.3
		c0.1,0.1,0.3,0.2,0.5,0.3c0.2,0.1,0.3,0.2,0.5,0.3c0.2,0.1,0.3,0.1,0.5,0.1c0.3,0,0.5-0.1,0.7-0.2c0.2-0.1,0.4-0.3,0.6-0.5
		c0.2-0.2,0.3-0.4,0.4-0.7c0.1-0.3,0.2-0.5,0.3-0.8c0.1-0.3,0.1-0.5,0.2-0.8c0-0.2,0.1-0.5,0.1-0.6l-0.2-5.1c-0.1,0.3-0.2,0.6-0.2,1
		c-0.1,0.4-0.2,0.7-0.4,1c-0.2,0.3-0.4,0.6-0.6,0.8c-0.2,0.2-0.5,0.3-0.9,0.3c-0.3,0-0.5-0.1-0.7-0.4c-0.2-0.3-0.5-0.6-0.7-1
		c-0.2-0.4-0.4-0.8-0.5-1.3c-0.2-0.5-0.3-1-0.4-1.4c-0.1-0.5-0.2-0.9-0.3-1.3c-0.1-0.4-0.1-0.7-0.1-0.8h0.7c0,0.1,0,0.4,0.1,0.7
		c0.1,0.3,0.1,0.7,0.2,1.1c0.1,0.4,0.2,0.8,0.3,1.3c0.1,0.4,0.3,0.8,0.4,1.2c0.1,0.4,0.3,0.7,0.5,0.9c0.2,0.2,0.4,0.3,0.5,0.3
		c0.2,0,0.3-0.1,0.5-0.2c0.1-0.1,0.3-0.3,0.4-0.5c0.1-0.2,0.2-0.5,0.3-0.7s0.2-0.5,0.3-0.8c0.1-0.2,0.1-0.4,0.2-0.6
		c0-0.2,0.1-0.3,0.1-0.3c0-0.1,0-0.2,0-0.4c0-0.2,0-0.4,0-0.6c0-0.2,0-0.4,0-0.7c0-0.2,0-0.5,0-0.7c0-0.2,0-0.4,0-0.6s0-0.3,0-0.4
		l1,0l0.2,9.3c0,0.3,0,0.6-0.1,0.9c-0.1,0.3-0.1,0.6-0.2,1c-0.1,0.3-0.2,0.6-0.4,0.9c-0.2,0.3-0.3,0.6-0.6,0.8s-0.4,0.4-0.7,0.6
		c-0.3,0.1-0.6,0.2-0.9,0.2c-0.2,0-0.4,0-0.6-0.1c-0.2-0.1-0.4-0.2-0.6-0.3c-0.2-0.1-0.4-0.3-0.5-0.5C77.7,24.1,77.6,23.9,77.6,23.7
		z"/>
	<path fill="#FFFFFF" d="M95.3,13.8c0-0.2,0-0.4-0.1-0.7s-0.2-0.5-0.3-0.7s-0.3-0.4-0.5-0.6s-0.4-0.2-0.7-0.2
		c-0.5,0.3-0.9,0.7-1.2,1c-0.3,0.4-0.5,0.8-0.7,1.2c-0.2,0.4-0.3,0.8-0.3,1.3c-0.1,0.4-0.1,0.9-0.1,1.3c0,0.4,0,0.9-0.1,1.3
		s-0.1,0.9-0.2,1.3c0,0,0,0-0.1,0c-0.1,0-0.1,0-0.2,0c-0.1,0-0.2,0-0.3,0c0-0.8,0-1.4-0.1-2c0-0.6,0-1.1,0-1.5s0-0.8,0-1.1
		c0-0.3,0-0.6,0-0.9c0-0.3,0-0.6,0-0.9c0-0.3,0-0.6,0-1l0.7,0l-0.2,2.8c0.1-0.3,0.3-0.7,0.4-1.1s0.3-0.8,0.5-1.1
		c0.2-0.3,0.5-0.6,0.8-0.9c0.3-0.2,0.8-0.3,1.3-0.3c0.3,0,0.7,0.1,0.9,0.3c0.3,0.2,0.5,0.4,0.7,0.7c0.2,0.3,0.3,0.6,0.4,0.9
		s0.1,0.7,0.1,1l0.1,4.9L95.7,19l-0.3-0.3L95.3,13.8z"/>
	<path fill="#FFFFFF" d="M101.8,14.8c-0.2,0.3-0.3,0.7-0.5,1.2c-0.2,0.5-0.5,0.9-0.7,1.3c-0.3,0.4-0.6,0.8-1,1.1
		c-0.4,0.3-0.8,0.5-1.3,0.5c-0.2,0-0.4-0.1-0.6-0.2c-0.1-0.2-0.3-0.4-0.3-0.6c-0.1-0.2-0.1-0.5-0.2-0.7c0-0.2,0-0.4,0-0.6
		c0-0.2,0-0.5,0-0.9c0.1-0.3,0.1-0.7,0.3-1.1s0.3-0.8,0.5-1.2c0.2-0.4,0.4-0.8,0.6-1.1s0.5-0.6,0.8-0.8c0.3-0.2,0.6-0.3,1-0.3
		c0.2,0,0.3,0,0.5-0.1c0.1,0,0.3,0,0.5,0c0.2,0,0.3,0,0.5,0.1c0.2,0.1,0.4,0.2,0.7,0.3c0,0.1,0,0.3,0,0.7s0,0.7,0,1.1
		c0,0.4,0,0.8,0,1.3c0,0.4,0,0.9,0,1.3c0,0.4,0,0.7,0,1.1s0,0.5,0,0.7c0,0,0,0.1,0,0.3c0,0.1,0,0.3,0,0.4c0,0.1,0,0.3,0,0.4
		c0,0.1,0,0.2,0,0.3c0,0-0.1,0-0.2,0c-0.1,0-0.2,0-0.3-0.1c-0.1,0-0.2-0.1-0.2-0.1c-0.1,0-0.1-0.1-0.1-0.2L101.8,14.8z M97.7,16.8
		c0,0.3,0,0.5,0.1,0.8c0.1,0.3,0.3,0.5,0.5,0.6c0.2,0,0.4-0.2,0.6-0.4c0.2-0.2,0.4-0.5,0.7-0.8c0.2-0.3,0.5-0.7,0.7-1.1
		c0.2-0.4,0.4-0.8,0.6-1.2c0.2-0.4,0.3-0.8,0.4-1.1c0.1-0.4,0.2-0.6,0.2-0.9c0-0.1,0-0.2-0.1-0.3s-0.1-0.1-0.2-0.2s-0.2-0.1-0.3-0.1
		c-0.1,0-0.2,0-0.3,0c-0.3,0-0.6,0.1-0.9,0.3c-0.3,0.2-0.5,0.5-0.7,0.8c-0.2,0.3-0.4,0.6-0.5,1c-0.1,0.4-0.3,0.7-0.4,1.1
		c-0.1,0.3-0.2,0.7-0.2,1C97.7,16.5,97.7,16.7,97.7,16.8z"/>
	<path fill="#FFFFFF" d="M104.5,13.7c0.2-0.3,0.3-0.6,0.5-0.8c0.2-0.3,0.4-0.5,0.6-0.7c0.2-0.2,0.4-0.3,0.6-0.3c0.1,0,0.3,0,0.4,0.1
		c0.1,0.1,0.2,0.2,0.3,0.3s0.2,0.3,0.3,0.4c0.1,0.1,0.1,0.3,0.2,0.4c0,0.1,0.1,0.2,0.1,0.4s0.1,0.4,0.2,0.7c0.1,0.2,0.1,0.5,0.2,0.7
		s0.1,0.4,0.1,0.4c0.1-0.2,0.1-0.4,0.2-0.7s0.2-0.6,0.3-0.9c0.1-0.3,0.3-0.7,0.4-1c0.2-0.3,0.3-0.6,0.5-0.9c0.2-0.3,0.4-0.5,0.6-0.7
		c0.2-0.2,0.5-0.3,0.8-0.3c0.2,0,0.3,0.1,0.5,0.2s0.4,0.3,0.5,0.4c0.2,0.2,0.3,0.3,0.4,0.5c0.1,0.2,0.2,0.4,0.2,0.5l0,6.1h-0.6
		l0-5.8c0-0.4-0.1-0.7-0.2-0.9c-0.2-0.2-0.4-0.4-0.7-0.4c-0.2,0-0.3,0.1-0.5,0.2c-0.2,0.1-0.3,0.3-0.5,0.4c-0.1,0.2-0.3,0.4-0.4,0.5
		s-0.2,0.3-0.2,0.5c-0.2,0.5-0.3,1-0.5,1.5c-0.1,0.5-0.2,0.9-0.3,1.4c-0.1,0.4-0.1,0.9-0.2,1.4c0,0.5-0.1,1-0.1,1.6l-0.6,0.1
		c0-0.1,0-0.3-0.1-0.6s-0.1-0.5-0.1-0.8s-0.1-0.6-0.1-0.9c0-0.3-0.1-0.6-0.1-0.9c0-0.3-0.1-0.6-0.1-0.8c0-0.2-0.1-0.4-0.1-0.6
		c-0.1-0.6-0.3-1-0.5-1.3c-0.2-0.2-0.3-0.4-0.5-0.3c-0.2,0-0.3,0.2-0.5,0.4c-0.1,0.3-0.3,0.6-0.4,0.9s-0.3,0.8-0.4,1.3
		c-0.1,0.5-0.2,0.9-0.3,1.4c-0.1,0.4-0.1,0.9-0.1,1.2c0,0.4,0,0.7,0,0.9c-0.1,0.1-0.2,0.1-0.3,0.1c-0.1,0-0.2,0-0.3-0.1
		c-0.1,0-0.2-0.1-0.3-0.1c-0.1,0-0.1-0.1-0.1-0.1l0-6c0-0.1,0-0.1,0.1-0.2s0.1-0.1,0.2-0.1c0.1,0,0.2-0.1,0.3-0.1c0.1,0,0.2,0,0.2,0
		l-0.1,2C104.2,14.3,104.3,14,104.5,13.7z"/>
	<path fill="#FFFFFF" d="M114.2,18c-0.3-1-0.5-1.8-0.6-2.5c-0.1-0.7-0.1-1.3,0-1.8s0.2-0.9,0.4-1.2c0.2-0.3,0.4-0.6,0.7-0.7
		c0.3-0.2,0.6-0.3,0.9-0.3s0.7,0,1,0c0.2,0,0.3,0,0.5,0.1c0.2,0.1,0.3,0.2,0.5,0.3c0.1,0.1,0.3,0.3,0.3,0.5c0.1,0.2,0.1,0.3,0.1,0.5
		c0,0.5-0.1,0.9-0.3,1.2s-0.5,0.6-0.9,0.8c-0.3,0.2-0.7,0.4-1.1,0.5c-0.4,0.1-0.8,0.2-1.2,0.2c0,0,0,0.1,0,0.1c0,0.1,0,0.1,0,0.2
		c0,0.1,0,0.1,0,0.2c0,0.1,0,0.1,0,0.1c0,0.2,0,0.5,0.1,0.7c0.1,0.3,0.2,0.5,0.4,0.7c0.2,0.2,0.3,0.4,0.6,0.6
		c0.2,0.1,0.5,0.2,0.7,0.2c0.3,0,0.5-0.1,0.7-0.2c0.2-0.1,0.4-0.3,0.6-0.5c0.2-0.2,0.4-0.3,0.6-0.5c0.2-0.1,0.4-0.2,0.7-0.2
		c0,0.3-0.1,0.5-0.3,0.8c-0.2,0.2-0.4,0.5-0.7,0.7s-0.6,0.3-0.9,0.5s-0.6,0.2-0.8,0.2c-0.4,0-0.7-0.1-1.1-0.2
		C114.7,18.6,114.5,18.4,114.2,18z M116.5,11.9c-0.4,0-0.7,0.1-0.9,0.3c-0.3,0.2-0.5,0.4-0.6,0.7s-0.3,0.6-0.3,0.9
		c-0.1,0.3-0.1,0.6-0.1,0.9c0.2,0,0.5,0,0.8-0.1s0.7-0.1,1-0.3s0.6-0.3,0.8-0.5c0.2-0.2,0.3-0.5,0.3-0.9c0-0.1,0-0.2-0.1-0.4
		c-0.1-0.1-0.1-0.2-0.2-0.3c-0.1-0.1-0.2-0.2-0.3-0.2C116.7,12,116.6,11.9,116.5,11.9z"/>
	<path fill="#FFFFFF" d="M126.5,10.4c-0.1,0-0.1,0-0.2-0.1c-0.1,0-0.2-0.1-0.2-0.2c-0.1-0.1-0.1-0.1-0.1-0.2c0-0.1,0-0.1,0-0.2
		c0-0.1,0.1-0.2,0.2-0.3c0.1-0.1,0.2-0.1,0.3-0.2c0.1,0,0.2,0,0.3,0c0.1,0,0.1,0.1,0.1,0.3c0,0.1,0,0.2,0,0.3c0,0.1,0,0.2-0.1,0.3
		c0,0.1-0.1,0.1-0.2,0.2S126.6,10.4,126.5,10.4z M127,19.1c0,0-0.1,0-0.2,0c-0.1,0-0.1,0-0.2-0.1c-0.1,0-0.1-0.1-0.2-0.1
		c0,0-0.1-0.1-0.1-0.2l0-6.5c0-0.1,0-0.1,0.1-0.2c0,0,0.1-0.1,0.2-0.1c0.1,0,0.1-0.1,0.2-0.1c0.1,0,0.1,0,0.2,0L127,19.1z"/>
	<path fill="#FFFFFF" d="M128,16.4c0.1-0.2,0.2-0.2,0.3-0.3c0.1,0,0.2-0.1,0.4,0c0.3,0.3,0.7,0.6,1,0.8s0.7,0.5,1.1,0.7
		s0.8,0.3,1.2,0.5c0.4,0.1,0.8,0.2,1.3,0.2c0.1,0,0.2,0,0.3,0s0.2,0,0.3,0c0.1,0,0.2-0.1,0.2-0.2s0.1-0.2,0.1-0.3
		c0-0.3-0.2-0.5-0.4-0.7c-0.2-0.2-0.5-0.4-0.9-0.6c-0.3-0.2-0.7-0.4-1.1-0.6c-0.4-0.2-0.8-0.4-1.1-0.7c-0.3-0.2-0.6-0.5-0.8-0.8
		c-0.2-0.3-0.3-0.7-0.2-1.1c0-0.3,0.1-0.5,0.2-0.7c0.2-0.2,0.4-0.4,0.6-0.5c0.2-0.1,0.5-0.2,0.7-0.3c0.3-0.1,0.5-0.1,0.7-0.1
		c0.4,0,0.8,0.1,1.2,0.2s0.8,0.3,1.1,0.5l-0.4,0.5c-0.2-0.1-0.4-0.2-0.6-0.3c-0.2-0.1-0.5-0.1-0.7-0.1c-0.3,0-0.5,0-0.7,0.1
		c-0.2,0-0.5,0.1-0.6,0.2s-0.3,0.2-0.4,0.3c-0.1,0.1-0.1,0.3-0.1,0.4c0,0.4,0.1,0.8,0.3,1c0.2,0.3,0.5,0.5,0.8,0.7
		c0.3,0.2,0.7,0.4,1.1,0.5c0.4,0.2,0.8,0.3,1.1,0.5c0.3,0.2,0.6,0.4,0.8,0.7s0.3,0.6,0.3,1c0,0.3,0,0.5-0.1,0.6
		c-0.1,0.2-0.2,0.3-0.3,0.3c-0.1,0.1-0.3,0.1-0.5,0.2c-0.2,0-0.4,0-0.6,0c-0.5,0-1-0.1-1.5-0.2c-0.5-0.1-1-0.3-1.5-0.5
		c-0.5-0.2-1-0.5-1.4-0.8S128.3,16.8,128,16.4z"/>
</g>
<rect x="0" y="28.2" fill="#FFFFFF" width="170.1" height="56.3"/>
<g id="Your_Icon">
	<path fill="#FFFFFF" d="M163.3,92.8h-1.8v-2h-6.2v2h-2v-2h-6.2v2h-1.8v6h1.8v2.2h2v1.8h2v2.2h2v1.8h2.4v-1.8h2v-2.2h2v-1.8h2v-2.2
		h1.8V92.8z M157.3,100.9v2h-2.2v2h-1.6v-2h-2.2v-2h-1.8v-2.2h-2.2V93h5.8v1.8h2.4V93h5.8v5.6h-2.2v2.2H157.3z"/>
</g>
</svg>
