<?xml version="1.0" encoding="utf-8"?>
<!-- Generator: Adobe Illustrator 17.1.0, SVG Export Plug-In . SVG Version: 6.00 Build 0)  -->
<!DOCTYPE svg PUBLIC "-//W3C//DTD SVG 1.1//EN" "http://www.w3.org/Graphics/SVG/1.1/DTD/svg11.dtd">
<svg version="1.1" xmlns="http://www.w3.org/2000/svg" xmlns:xlink="http://www.w3.org/1999/xlink" x="0px" y="0px"
	 viewBox="0 0 170.1 113.4" enable-background="new 0 0 170.1 113.4" xml:space="preserve">
<g id="Réteg_1">
	
		<rect x="7.1" y="8" display="none" fill="#FFFFFF" stroke="#000000" stroke-width="0.2" stroke-miterlimit="10" width="155.9" height="97.3"/>
	<g>
		<g>
			<g>
				<g>
					<path fill="#CA325F" d="M13.3,88.2h2.6V100c-1.3,0.2-2.3,0.3-3.3,0.3c-3.1,0-4.7-1.4-4.7-4.1c0-2.6,1.7-4.3,4.4-4.3
						c0.4,0,0.7,0,1.1,0.1L13.3,88.2L13.3,88.2z M13.3,94.2C13,94.1,12.7,94,12.4,94c-1.3,0-2,0.8-2,2.2c0,1.4,0.7,2.1,2,2.1
						c0.3,0,0.5,0,0.9-0.1L13.3,94.2z"/>
					<path fill="#CA325F" d="M19.9,92.1v5.9c0,2-0.1,3-0.6,3.9c-0.4,0.8-1,1.3-2.1,1.9l-2.4-1.1c1.1-0.5,1.7-1,2-1.7
						c0.4-0.7,0.5-1.6,0.5-3.8v-5H19.9z M17.3,88.2h2.6v2.6h-2.6V88.2z"/>
					<path fill="#CA325F" d="M21.4,92.7c1.1-0.5,2.2-0.8,3.4-0.8c1.3,0,2.2,0.3,2.6,1c0.2,0.4,0.3,0.9,0.3,1.9v5.2
						c-1.1,0.2-2.6,0.3-3.6,0.3c-2.1,0-3.1-0.7-3.1-2.4c0-1.8,1.3-2.6,4.4-2.9v-0.6c0-0.5-0.2-0.6-0.9-0.6c-0.9,0-2,0.3-3,0.8
						L21.4,92.7L21.4,92.7z M25.4,96.8c-1.7,0.2-2.2,0.4-2.2,1.1c0,0.5,0.3,0.7,1,0.7c0.4,0,0.7,0,1.2-0.1L25.4,96.8L25.4,96.8z"/>
					<path fill="#CA325F" d="M28.9,92.5c1.5-0.4,2.7-0.6,4-0.6c1.3,0,2.3,0.3,2.8,0.9c0.5,0.5,0.7,1.1,0.7,2.4v5h-2.6v-4.9
						c0-1-0.3-1.3-1.2-1.3c-0.3,0-0.7,0-1.2,0.2v6.1h-2.6L28.9,92.5L28.9,92.5z"/>
					<path fill="#CA325F" d="M37.4,101.7c0.9,0.5,1.8,0.7,2.7,0.7c1.7,0,2.4-0.7,2.4-2.3c0,0,0,0,0,0c-0.5,0.2-1,0.3-1.7,0.3
						c-2.2,0-3.7-1.5-3.7-3.8c0-2.9,2.1-4.5,5.8-4.5c1.1,0,2.1,0.1,3.3,0.4l-0.9,1.8c-0.7-0.1-0.1,0-0.6-0.1v0.3l0,1.1l0,1.4
						c0,0.3,0,0.7,0,1c0,0.3,0,0.5,0,0.7c0,2.2-0.2,3.2-0.7,4.1c-0.8,1.2-2.2,1.9-4.1,1.9c-1,0-1.9-0.1-2.7-0.5L37.4,101.7
						L37.4,101.7z M42.5,94C42.4,94,42.4,94,42.5,94h-0.3c-0.5,0-1.1,0.1-1.5,0.4c-0.6,0.3-0.9,1-0.9,1.9c0,1.3,0.6,2,1.8,2
						c0.3,0,0.6-0.1,1-0.2v-0.2v-0.7c0-0.3,0-0.6,0-1l0-1.2l0-0.8L42.5,94L42.5,94z"/>
					<path fill="#CA325F" d="M50.3,91.9c2.6,0,4.1,1.6,4.1,4.2c0,2.7-1.6,4.3-4.2,4.3c-2.6,0-4.1-1.6-4.1-4.2
						C46.1,93.6,47.7,91.9,50.3,91.9z M50.3,98.4c1,0,1.6-0.8,1.6-2.2c0-1.4-0.6-2.2-1.5-2.2c-1,0-1.6,0.8-1.6,2.2
						C48.7,97.6,49.3,98.4,50.3,98.4z"/>
				</g>
			</g>
		</g>
		<g>
			<path fill="#CA325F" d="M60.5,108.1c-0.3,0-0.6,0-0.9-0.1c-0.3-0.1-0.6-0.2-0.8-0.3c-0.2-0.1-0.4-0.3-0.5-0.5s-0.2-0.4-0.1-0.7
				c0.2,0,0.4,0,0.6,0.1c0.2,0.1,0.3,0.2,0.5,0.3c0.2,0.1,0.3,0.2,0.5,0.3c0.2,0.1,0.4,0.1,0.7,0.1c0.6,0,1.2-0.1,1.6-0.4
				c0.4-0.3,0.8-0.6,1-1.1c0.3-0.4,0.4-0.9,0.6-1.5c0.1-0.6,0.2-1.1,0.2-1.7c0-0.2,0-0.4,0-0.7s0-0.7-0.1-1.1c0-0.4,0-0.8-0.1-1.3
				c0-0.5-0.1-0.9-0.1-1.3c0-0.4-0.1-0.8-0.1-1.1c0-0.3-0.1-0.6-0.1-0.7c-0.1,0.2-0.2,0.5-0.3,0.8c-0.1,0.3-0.3,0.6-0.4,1
				c-0.2,0.3-0.4,0.7-0.6,1s-0.4,0.6-0.7,0.9c-0.3,0.3-0.5,0.5-0.9,0.7s-0.6,0.3-1,0.3c-0.2,0-0.3-0.1-0.4-0.3
				c-0.1-0.2-0.2-0.4-0.2-0.6c-0.1-0.2-0.1-0.5-0.1-0.7c0-0.2,0-0.4,0-0.5c-0.1-0.7-0.1-1.4,0-2.1c0.1-0.7,0.2-1.3,0.3-1.9
				c0.2-0.6,0.4-1.1,0.7-1.6c0.3-0.5,0.6-0.8,1-1.1c0.4-0.3,0.9-0.4,1.4-0.5c0.5,0,1.1,0.1,1.7,0.4c0.2,0,0.3,0.1,0.4,0.3
				c0.1,0.2,0.1,0.5,0.1,0.8c0,0.3,0,0.6-0.1,1c0,0.3-0.1,0.6-0.1,0.9c0,0.6,0,1.1,0.1,1.7c0,0.6,0.1,1.1,0.2,1.7
				c0.1,0.6,0.1,1.1,0.2,1.7c0,0.6,0.1,1.1,0.1,1.7c0,0.7-0.1,1.3-0.2,2.1c-0.1,0.7-0.4,1.4-0.7,2c-0.3,0.6-0.7,1.1-1.3,1.5
				C61.9,107.9,61.2,108.1,60.5,108.1z M59.5,98.6c0,0.1,0,0.2,0,0.4c0,0.2,0,0.3,0.1,0.5c0,0.1,0.1,0.3,0.2,0.4
				c0.1,0.1,0.2,0.2,0.4,0.2c0.3,0,0.6-0.1,0.8-0.4s0.5-0.6,0.7-1.1c0.2-0.4,0.4-0.9,0.6-1.4s0.3-1,0.5-1.5c0.1-0.5,0.2-1,0.3-1.4
				s0.1-0.7,0.1-0.9c-0.7-0.2-1.2-0.2-1.7,0c-0.5,0.3-0.8,0.6-1.1,1.2c-0.3,0.5-0.5,1.2-0.6,1.9S59.4,97.8,59.5,98.6z"/>
			<path fill="#CA325F" d="M65.9,90.3c-0.1,0-0.2,0-0.3-0.1c-0.1-0.1-0.2-0.1-0.3-0.2c-0.1-0.1-0.1-0.2-0.1-0.3c0-0.1,0-0.2,0.1-0.2
				c0-0.1,0.1-0.2,0.3-0.4c0.1-0.1,0.3-0.2,0.4-0.2c0.1,0,0.3,0,0.4,0c0.1,0,0.2,0.2,0.2,0.4c0,0.1,0,0.2,0,0.3s0,0.2-0.1,0.3
				c0,0.1-0.1,0.2-0.2,0.2C66.1,90.3,66.1,90.3,65.9,90.3z M66.6,100.8c-0.1,0-0.1,0-0.2,0c-0.1,0-0.2-0.1-0.3-0.1
				c-0.1,0-0.2-0.1-0.2-0.2c-0.1-0.1-0.1-0.1-0.1-0.2l0-7.8c0-0.1,0-0.1,0.1-0.2c0.1-0.1,0.1-0.1,0.2-0.2c0.1,0,0.2-0.1,0.3-0.1
				c0.1,0,0.2,0,0.2,0L66.6,100.8z"/>
			<path fill="#CA325F" d="M67.8,94.1c0-0.1-0.1-0.3-0.1-0.5c-0.1-0.2-0.1-0.4-0.1-0.7c0-0.2-0.1-0.4-0.1-0.7c0-0.2,0-0.4,0.1-0.5
				c0.1-0.1,0.2-0.2,0.3-0.2s0.4,0.1,0.7,0.2c0,0.1,0.1,0.3,0.1,0.5c0,0.3,0.1,0.5,0.1,0.8c0,0.3,0.1,0.6,0.1,0.8c0,0.3,0,0.4,0,0.5
				c0.2-0.4,0.4-0.8,0.7-1.2c0.3-0.4,0.7-0.7,1.1-1c0.4-0.3,0.8-0.5,1.3-0.7c0.5-0.2,1-0.3,1.5-0.3l-0.2,0.9
				c-0.7,0.1-1.3,0.4-1.9,0.9c-0.6,0.5-1.1,1.1-1.5,1.8c-0.4,0.7-0.7,1.6-0.8,2.6c-0.1,1-0.1,2.1,0.2,3.2l-1,0.2c0,0,0-0.1,0-0.4
				c0-0.3,0-0.6-0.1-1c0-0.4-0.1-0.9-0.1-1.4c0-0.5-0.1-1-0.1-1.5c0-0.5-0.1-1-0.1-1.4C67.8,94.8,67.8,94.4,67.8,94.1z"/>
			<path fill="#CA325F" d="M74.3,86.7l0.9-0.1c0,0.6,0.1,1.3,0.1,2c0,0.8,0.1,1.6,0.1,2.5c0,0.9,0.1,1.8,0.1,2.6
				c0,0.9,0,1.7,0.1,2.6c0,0.8,0,1.5,0.1,2.2c0,0.6,0,1.2,0.1,1.5c0,0.2,0,0.3-0.1,0.4c-0.1,0.1-0.1,0.2-0.2,0.3
				c-0.1,0.1-0.2,0.1-0.3,0s-0.2-0.2-0.3-0.4L74.3,86.7z"/>
			<path fill="#CA325F" d="M76.5,97.6c0.1-0.2,0.2-0.3,0.3-0.4c0.1,0,0.3-0.1,0.5,0c0.4,0.4,0.8,0.7,1.2,1c0.4,0.3,0.8,0.6,1.3,0.8
				c0.4,0.2,0.9,0.4,1.4,0.5c0.5,0.1,1,0.2,1.6,0.2c0.1,0,0.2,0,0.4,0c0.1,0,0.3,0,0.4-0.1c0.1,0,0.2-0.1,0.3-0.2
				c0.1-0.1,0.1-0.2,0.1-0.4c0-0.3-0.2-0.6-0.5-0.9c-0.3-0.2-0.7-0.5-1.1-0.7c-0.4-0.2-0.9-0.5-1.4-0.7c-0.5-0.2-0.9-0.5-1.3-0.8
				c-0.4-0.3-0.7-0.6-0.9-1c-0.2-0.4-0.3-0.8-0.3-1.4c0-0.3,0.1-0.6,0.3-0.8c0.2-0.2,0.4-0.4,0.7-0.6c0.3-0.2,0.6-0.3,0.9-0.4
				c0.3-0.1,0.6-0.1,0.8-0.1c0.5,0,0.9,0.1,1.4,0.2c0.5,0.1,0.9,0.3,1.3,0.6l-0.4,0.6c-0.2-0.2-0.4-0.3-0.7-0.4
				c-0.3-0.1-0.6-0.1-0.9-0.1c-0.3,0-0.6,0-0.9,0.1c-0.3,0.1-0.6,0.1-0.8,0.3c-0.2,0.1-0.4,0.3-0.5,0.4c-0.1,0.2-0.1,0.3-0.1,0.5
				c0,0.5,0.1,0.9,0.4,1.2c0.3,0.3,0.6,0.6,1,0.8c0.4,0.2,0.9,0.4,1.3,0.6c0.5,0.2,0.9,0.4,1.3,0.6c0.4,0.2,0.8,0.5,1,0.8
				c0.3,0.3,0.4,0.7,0.4,1.2c0,0.3-0.1,0.6-0.2,0.7c-0.1,0.2-0.2,0.3-0.4,0.4c-0.2,0.1-0.4,0.2-0.6,0.2c-0.2,0-0.5,0-0.7,0
				c-0.6,0-1.2-0.1-1.8-0.2c-0.6-0.2-1.2-0.4-1.8-0.6c-0.6-0.3-1.2-0.6-1.7-1C77.3,98.5,76.9,98.1,76.5,97.6z"/>
		</g>
	</g>
	<g>
		<path fill="#CA325F" d="M24.7,4.6c0.1-0.1,0.1-0.2,0.2-0.2c0.1-0.1,0.2-0.1,0.3-0.1c0.1,0,0.2,0,0.3,0v6.4
			c0.2-0.2,0.4-0.5,0.6-0.8c0.2-0.3,0.4-0.6,0.7-0.8c0.2-0.2,0.5-0.4,0.8-0.6c0.3-0.2,0.6-0.2,0.9-0.2c0.5,0,1,0.2,1.3,0.6
			c0.4,0.4,0.7,0.9,0.9,1.5c0.2,0.6,0.4,1.3,0.5,2c0.1,0.7,0.2,1.4,0.2,2.1c0,0.7,0.1,1.3,0.1,1.9c0,0.6,0,1,0,1.2
			c0,0.2-0.1,0.3-0.2,0.4C31.3,18,31.1,18,31,18c-0.1,0-0.3,0-0.3-0.1c-0.1-0.1-0.2-0.2-0.2-0.3c0-0.1,0-0.3,0-0.6c0-0.3,0-0.6,0-1
			c0-0.4,0-0.7,0-1.1c0-0.4,0-0.8,0-1.1c0-0.4,0-0.7,0-1c0-0.3,0-0.5,0-0.6c0-0.2-0.1-0.5-0.1-0.9c-0.1-0.3-0.2-0.7-0.3-1
			c-0.1-0.3-0.3-0.6-0.5-0.8c-0.2-0.2-0.5-0.3-0.8-0.3c-0.4,0-0.8,0.2-1.2,0.5c-0.3,0.3-0.6,0.8-0.8,1.3c-0.2,0.5-0.4,1.1-0.5,1.8
			c-0.1,0.6-0.2,1.3-0.3,1.9c-0.1,0.6-0.1,1.1-0.1,1.6c0,0.5,0,0.8,0,1l-1.2,0c0-1.6,0-3.2,0-4.7c0-0.6,0-1.3,0-2c0-0.7,0-1.4,0-2
			c0-0.7,0-1.3,0-1.9c0-0.6,0-1.1,0-1.6V4.9C24.6,4.8,24.6,4.7,24.7,4.6z"/>
		<path fill="#CA325F" d="M33.3,16.5c-0.4-1.2-0.6-2.2-0.7-3.1c-0.1-0.9-0.1-1.6,0-2.3S32.8,10,33,9.6c0.2-0.4,0.5-0.7,0.9-0.9
			c0.3-0.2,0.7-0.3,1.1-0.4c0.4-0.1,0.8-0.1,1.2,0c0.2,0,0.4,0.1,0.6,0.2c0.2,0.1,0.4,0.3,0.6,0.4c0.2,0.2,0.3,0.4,0.4,0.6
			c0.1,0.2,0.2,0.4,0.2,0.6c0,0.6-0.1,1.1-0.4,1.5c-0.3,0.4-0.6,0.7-1.1,1c-0.4,0.3-0.9,0.5-1.4,0.6c-0.5,0.1-1,0.2-1.5,0.3
			c0,0,0,0.1,0,0.2c0,0.1,0,0.2,0,0.2c0,0.1,0,0.2,0,0.2c0,0.1,0,0.1,0,0.2c0,0.3,0,0.6,0.1,0.9c0.1,0.3,0.2,0.6,0.4,0.9
			c0.2,0.3,0.4,0.5,0.7,0.7c0.3,0.2,0.6,0.3,0.9,0.3c0.3,0,0.6-0.1,0.8-0.3c0.2-0.2,0.5-0.4,0.7-0.6c0.2-0.2,0.5-0.4,0.7-0.6
			c0.2-0.2,0.5-0.3,0.8-0.3c0,0.3-0.1,0.6-0.4,0.9c-0.2,0.3-0.5,0.6-0.9,0.8c-0.3,0.2-0.7,0.4-1.1,0.6c-0.4,0.1-0.7,0.2-1,0.2
			c-0.5,0-0.9-0.1-1.3-0.3C33.9,17.3,33.5,17,33.3,16.5z M36,9c-0.4,0-0.8,0.1-1.1,0.3c-0.3,0.2-0.6,0.5-0.7,0.8
			c-0.2,0.3-0.3,0.7-0.4,1.1c-0.1,0.4-0.1,0.8-0.1,1.1c0.3,0,0.6,0,1-0.1c0.4-0.1,0.8-0.2,1.2-0.3c0.4-0.2,0.7-0.4,1-0.6
			c0.3-0.3,0.4-0.6,0.4-1c0-0.1,0-0.3-0.1-0.4c-0.1-0.1-0.2-0.3-0.3-0.4c-0.1-0.1-0.2-0.2-0.4-0.3C36.3,9.1,36.1,9,36,9z"/>
		<path fill="#CA325F" d="M39.5,3.5l0.9-0.1c0,0.6,0.1,1.3,0.1,2.1c0,0.8,0.1,1.6,0.1,2.5c0,0.9,0.1,1.8,0.1,2.7
			c0,0.9,0,1.8,0.1,2.6c0,0.8,0,1.5,0.1,2.2c0,0.7,0,1.2,0.1,1.5c0,0.2,0,0.3-0.1,0.4c-0.1,0.1-0.1,0.2-0.2,0.3
			c-0.1,0.1-0.2,0.1-0.3,0c-0.1,0-0.2-0.2-0.3-0.4L39.5,3.5z"/>
		<path fill="#CA325F" d="M41.6,3.5l0.9-0.1c0,0.6,0.1,1.3,0.1,2.1c0,0.8,0.1,1.6,0.1,2.5c0,0.9,0.1,1.8,0.1,2.7
			c0,0.9,0,1.8,0.1,2.6c0,0.8,0,1.5,0.1,2.2c0,0.7,0,1.2,0.1,1.5c0,0.2,0,0.3-0.1,0.4c-0.1,0.1-0.1,0.2-0.2,0.3
			c-0.1,0.1-0.2,0.1-0.3,0c-0.1,0-0.2-0.2-0.3-0.4L41.6,3.5z"/>
		<path fill="#CA325F" d="M44.1,13.2c0-0.8,0.1-1.4,0.2-2.1c0.2-0.6,0.4-1.1,0.8-1.6c0.3-0.4,0.8-0.8,1.3-1c0.6-0.2,1.2-0.3,2-0.3
			c0.7,0.2,1.2,0.5,1.6,0.9c0.4,0.4,0.7,0.8,0.9,1.2c0.2,0.4,0.4,0.9,0.4,1.3c0.1,0.4,0.1,0.8,0.1,1.1c0,0.7-0.1,1.4-0.3,2
			c-0.2,0.6-0.5,1.1-0.9,1.6c-0.4,0.4-0.8,0.8-1.4,1c-0.6,0.3-1.2,0.4-1.9,0.4c-0.7,0-1.2-0.1-1.6-0.4c-0.4-0.3-0.7-0.6-0.9-1
			c-0.2-0.4-0.3-0.9-0.4-1.5C44.1,14.3,44.1,13.8,44.1,13.2z M44.8,13.3c0,0.5,0,1,0.1,1.4c0.1,0.5,0.2,0.8,0.4,1.2
			c0.2,0.3,0.4,0.6,0.8,0.8c0.3,0.2,0.8,0.3,1.3,0.3c0.7,0,1.2-0.1,1.6-0.3c0.4-0.2,0.8-0.5,1.1-0.9s0.5-0.9,0.6-1.4
			c0.1-0.5,0.2-1.1,0.2-1.7c-0.1-0.4-0.2-0.8-0.3-1.2c-0.1-0.4-0.3-0.7-0.5-1c-0.2-0.3-0.5-0.5-0.9-0.8s-0.8-0.4-1.4-0.6
			c-0.6,0-1.1,0.1-1.5,0.4c-0.4,0.2-0.7,0.6-0.9,0.9c-0.2,0.4-0.3,0.8-0.4,1.3C44.8,12.3,44.8,12.8,44.8,13.3z"/>
		<path fill="#CA325F" d="M53.9,4.4c0,0.2,0,0.6,0,1.1C54,6,54,6.5,54,7.2c0,0.6,0.1,1.3,0.1,2c0,0.7,0.1,1.3,0.1,2
			c0,0.6,0.1,1.2,0.1,1.7c0,0.5,0,0.9,0,1.1c0,0.2,0,0.3,0,0.4c0,0.1,0,0.3-0.1,0.4c-0.1,0.1-0.1,0.2-0.2,0.3
			c-0.1,0.1-0.3,0.1-0.5,0.1L53,4.7L53.9,4.4z M54.5,17.3c-0.2,0.2-0.4,0.3-0.5,0.4c-0.2,0-0.3,0-0.4,0c-0.1-0.1-0.2-0.2-0.1-0.4
			c0-0.2,0.1-0.4,0.3-0.6c0.2-0.2,0.3-0.2,0.5-0.1C54.3,16.8,54.5,17,54.5,17.3z"/>
		<path fill="#CA325F" d="M64.9,11.2c0.2-0.4,0.4-0.7,0.6-1c0.2-0.3,0.5-0.6,0.7-0.9C66.5,9.1,66.7,9,66.9,9c0.2,0,0.3,0.1,0.5,0.2
			c0.1,0.1,0.3,0.3,0.4,0.4s0.2,0.3,0.3,0.5c0.1,0.2,0.2,0.3,0.2,0.5c0,0.1,0.1,0.3,0.2,0.5c0.1,0.3,0.2,0.5,0.2,0.8
			s0.2,0.6,0.2,0.8c0.1,0.3,0.1,0.4,0.1,0.5c0.1-0.2,0.2-0.5,0.3-0.9c0.1-0.4,0.2-0.8,0.4-1.2c0.1-0.4,0.3-0.8,0.5-1.2
			c0.2-0.4,0.4-0.8,0.6-1.1c0.2-0.3,0.5-0.6,0.8-0.8c0.3-0.2,0.6-0.3,0.9-0.3c0.2,0,0.4,0.1,0.6,0.2c0.2,0.1,0.4,0.3,0.6,0.5
			c0.2,0.2,0.4,0.4,0.5,0.7c0.1,0.2,0.2,0.5,0.2,0.7l0,7.5h-0.8l0-7.2c0-0.5-0.1-0.9-0.3-1.2c-0.2-0.3-0.5-0.5-0.9-0.5
			c-0.2,0-0.4,0.1-0.6,0.2c-0.2,0.1-0.4,0.3-0.6,0.5c-0.2,0.2-0.3,0.4-0.5,0.7c-0.1,0.2-0.2,0.4-0.3,0.6c-0.2,0.7-0.4,1.3-0.6,1.8
			c-0.1,0.6-0.3,1.1-0.4,1.7c-0.1,0.5-0.2,1.1-0.2,1.7c0,0.6-0.1,1.2-0.1,1.9l-0.7,0.1c0-0.2,0-0.4-0.1-0.7s-0.1-0.6-0.1-1
			c0-0.4-0.1-0.7-0.2-1.1c-0.1-0.4-0.1-0.7-0.2-1.1c-0.1-0.4-0.1-0.7-0.2-1c0-0.3-0.1-0.5-0.1-0.7c-0.2-0.7-0.4-1.3-0.5-1.6
			c-0.2-0.3-0.4-0.4-0.6-0.4c-0.2,0-0.4,0.2-0.5,0.5c-0.2,0.3-0.4,0.7-0.5,1.2s-0.3,1-0.4,1.6c-0.1,0.6-0.2,1.1-0.3,1.7
			c-0.1,0.6-0.1,1.1-0.2,1.5c0,0.5,0,0.8,0,1.1c-0.1,0.1-0.2,0.1-0.3,0.1c-0.1,0-0.3,0-0.4-0.1c-0.1,0-0.2-0.1-0.3-0.1
			c-0.1,0-0.1-0.1-0.1-0.1l0-7.4c0-0.1,0-0.2,0.1-0.2c0.1-0.1,0.2-0.1,0.3-0.1c0.1,0,0.2-0.1,0.3-0.1c0.1,0,0.2,0,0.3,0l-0.1,2.5
			C64.6,11.9,64.7,11.6,64.9,11.2z"/>
		<path fill="#CA325F" d="M77,23.5C77,23.4,77,23.4,77,23.5c0-0.1,0-0.2,0-0.2c0.2,0.1,0.3,0.2,0.5,0.4c0.2,0.1,0.4,0.3,0.6,0.4
			c0.2,0.1,0.4,0.2,0.6,0.3c0.2,0.1,0.4,0.1,0.6,0.1c0.3,0,0.6-0.1,0.9-0.2c0.3-0.2,0.5-0.4,0.7-0.6c0.2-0.2,0.4-0.5,0.5-0.8
			c0.2-0.3,0.3-0.6,0.4-1c0.1-0.3,0.2-0.6,0.2-0.9c0-0.3,0.1-0.6,0.1-0.8l-0.2-6.3c-0.1,0.4-0.2,0.7-0.3,1.2
			c-0.1,0.4-0.3,0.8-0.5,1.2c-0.2,0.4-0.4,0.7-0.7,1c-0.3,0.3-0.7,0.4-1.1,0.4c-0.3,0-0.6-0.2-0.9-0.5c-0.3-0.3-0.5-0.7-0.8-1.2
			c-0.2-0.5-0.5-1-0.7-1.6c-0.2-0.6-0.4-1.2-0.5-1.8c-0.1-0.6-0.2-1.1-0.3-1.6c-0.1-0.5-0.1-0.8-0.1-1h0.8c0,0.2,0,0.4,0.1,0.8
			c0.1,0.4,0.2,0.8,0.3,1.3c0.1,0.5,0.2,1,0.4,1.5c0.2,0.5,0.3,1,0.5,1.5c0.2,0.4,0.4,0.8,0.6,1.1c0.2,0.3,0.4,0.4,0.7,0.4
			c0.2,0,0.4-0.1,0.6-0.3c0.2-0.2,0.3-0.4,0.5-0.7c0.2-0.3,0.3-0.6,0.4-0.9c0.1-0.3,0.2-0.6,0.3-0.9c0.1-0.3,0.2-0.5,0.2-0.8
			c0.1-0.2,0.1-0.4,0.1-0.4c0-0.1,0-0.3,0-0.5c0-0.2,0-0.4,0-0.7c0-0.3,0-0.5,0-0.8c0-0.3,0-0.6,0-0.8c0-0.3,0-0.5,0-0.7
			s0-0.4,0-0.5l1.2,0l0.2,11.4c0,0.3,0,0.7-0.1,1.1c-0.1,0.4-0.2,0.8-0.3,1.2c-0.1,0.4-0.3,0.8-0.5,1.2c-0.2,0.4-0.4,0.7-0.7,1
			c-0.3,0.3-0.5,0.5-0.9,0.7c-0.3,0.2-0.7,0.3-1.1,0.3c-0.2,0-0.5-0.1-0.8-0.2c-0.3-0.1-0.5-0.2-0.8-0.4c-0.2-0.2-0.4-0.4-0.6-0.6
			C77.1,24,77,23.8,77,23.5z"/>
		<path fill="#CA325F" d="M98.5,11.3c0-0.3,0-0.5-0.1-0.9c-0.1-0.3-0.2-0.6-0.4-0.9S97.7,9,97.4,8.8c-0.2-0.2-0.5-0.3-0.8-0.3
			c-0.6,0.4-1.1,0.8-1.5,1.3c-0.4,0.5-0.7,0.9-0.9,1.4c-0.2,0.5-0.3,1-0.4,1.5c-0.1,0.5-0.1,1.1-0.1,1.6c0,0.5-0.1,1.1-0.1,1.6
			c0,0.5-0.1,1.1-0.2,1.6c0,0-0.1,0-0.1,0c-0.1,0-0.2,0-0.3,0c-0.1,0-0.2,0-0.4,0.1c0-0.9-0.1-1.8-0.1-2.4c0-0.7,0-1.3,0-1.8
			c0-0.5,0-1,0-1.4c0-0.4,0-0.8,0-1.2c0-0.4,0-0.7,0-1.1c0-0.4,0-0.8,0-1.2l0.8,0L93,12c0.2-0.4,0.3-0.9,0.5-1.4
			c0.2-0.5,0.4-0.9,0.6-1.4c0.3-0.4,0.6-0.8,1-1c0.4-0.3,0.9-0.4,1.6-0.4c0.4,0,0.8,0.1,1.1,0.3c0.3,0.2,0.6,0.5,0.8,0.9
			c0.2,0.4,0.4,0.7,0.5,1.2c0.1,0.4,0.2,0.8,0.2,1.2l0.2,6l-0.4,0.4l-0.4-0.4L98.5,11.3z"/>
		<path fill="#CA325F" d="M106.5,12.5c-0.2,0.4-0.4,0.9-0.7,1.5c-0.3,0.6-0.6,1.1-0.9,1.7c-0.4,0.5-0.8,1-1.2,1.4
			c-0.5,0.4-1,0.6-1.6,0.6c-0.3,0-0.5-0.1-0.7-0.3c-0.2-0.2-0.3-0.4-0.4-0.7c-0.1-0.3-0.2-0.6-0.2-0.9c0-0.3-0.1-0.5-0.1-0.7
			c0-0.3,0-0.6,0-1.1c0.1-0.4,0.2-0.9,0.3-1.4c0.1-0.5,0.3-1,0.6-1.5c0.2-0.5,0.5-0.9,0.8-1.3s0.6-0.7,1-1c0.4-0.3,0.8-0.4,1.2-0.4
			c0.2,0,0.4,0,0.6-0.1c0.2,0,0.4,0,0.6,0c0.2,0,0.4,0.1,0.6,0.1c0.2,0.1,0.5,0.2,0.8,0.4c0,0.2,0,0.4,0,0.8c0,0.4,0,0.8,0,1.3
			c0,0.5,0,1,0,1.6c0,0.5,0,1.1,0,1.5c0,0.5,0,0.9,0,1.3c0,0.4,0,0.7,0,0.8c0,0.1,0,0.2,0,0.3c0,0.2,0,0.3,0,0.5c0,0.2,0,0.3,0,0.5
			c0,0.2,0,0.3,0,0.3c-0.1,0-0.1,0-0.2,0c-0.1,0-0.2-0.1-0.3-0.1c-0.1,0-0.2-0.1-0.3-0.1c-0.1-0.1-0.1-0.1-0.1-0.2L106.5,12.5z
			 M101.4,15.1c0,0.3,0.1,0.6,0.2,1c0.1,0.3,0.3,0.6,0.6,0.8c0.2,0,0.4-0.2,0.7-0.5c0.3-0.3,0.5-0.6,0.8-1c0.3-0.4,0.6-0.9,0.8-1.4
			c0.3-0.5,0.5-1,0.7-1.5c0.2-0.5,0.4-1,0.5-1.4c0.1-0.4,0.2-0.8,0.2-1.1c0-0.2,0-0.3-0.1-0.4s-0.2-0.2-0.3-0.2
			c-0.1-0.1-0.3-0.1-0.4-0.1c-0.1,0-0.3,0-0.4,0c-0.4,0-0.8,0.2-1.1,0.4c-0.3,0.2-0.6,0.6-0.9,0.9c-0.3,0.4-0.5,0.8-0.6,1.3
			c-0.2,0.5-0.3,0.9-0.5,1.3c-0.1,0.4-0.2,0.8-0.3,1.2C101.5,14.7,101.4,14.9,101.4,15.1z"/>
		<path fill="#CA325F" d="M109.7,11.2c0.2-0.4,0.4-0.7,0.6-1c0.2-0.3,0.5-0.6,0.7-0.9c0.2-0.2,0.5-0.4,0.7-0.4
			c0.2,0,0.3,0.1,0.5,0.2c0.1,0.1,0.3,0.3,0.4,0.4s0.2,0.3,0.3,0.5c0.1,0.2,0.2,0.3,0.2,0.5c0,0.1,0.1,0.3,0.2,0.5
			c0.1,0.3,0.2,0.5,0.2,0.8c0.1,0.3,0.2,0.6,0.2,0.8c0.1,0.3,0.1,0.4,0.1,0.5c0.1-0.2,0.2-0.5,0.3-0.9c0.1-0.4,0.2-0.8,0.4-1.2
			c0.1-0.4,0.3-0.8,0.5-1.2c0.2-0.4,0.4-0.8,0.6-1.1c0.2-0.3,0.5-0.6,0.8-0.8c0.3-0.2,0.6-0.3,0.9-0.3c0.2,0,0.4,0.1,0.6,0.2
			s0.4,0.3,0.6,0.5c0.2,0.2,0.4,0.4,0.5,0.7c0.1,0.2,0.2,0.5,0.2,0.7l0,7.5h-0.8l0-7.2c0-0.5-0.1-0.9-0.3-1.2
			c-0.2-0.3-0.5-0.5-0.9-0.5c-0.2,0-0.4,0.1-0.6,0.2c-0.2,0.1-0.4,0.3-0.6,0.5c-0.2,0.2-0.3,0.4-0.5,0.7c-0.1,0.2-0.2,0.4-0.3,0.6
			c-0.2,0.7-0.4,1.3-0.6,1.8c-0.1,0.6-0.3,1.1-0.4,1.7c-0.1,0.5-0.2,1.1-0.2,1.7c0,0.6-0.1,1.2-0.1,1.9l-0.7,0.1
			c0-0.2,0-0.4-0.1-0.7s-0.1-0.6-0.1-1c0-0.4-0.1-0.7-0.2-1.1c-0.1-0.4-0.1-0.7-0.2-1.1c-0.1-0.4-0.1-0.7-0.2-1
			c0-0.3-0.1-0.5-0.1-0.7c-0.2-0.7-0.4-1.3-0.5-1.6c-0.2-0.3-0.4-0.4-0.6-0.4c-0.2,0-0.4,0.2-0.5,0.5c-0.2,0.3-0.4,0.7-0.5,1.2
			s-0.3,1-0.4,1.6c-0.1,0.6-0.2,1.1-0.3,1.7c-0.1,0.6-0.1,1.1-0.2,1.5c0,0.5,0,0.8,0,1.1c-0.1,0.1-0.2,0.1-0.3,0.1
			c-0.1,0-0.3,0-0.4-0.1c-0.1,0-0.2-0.1-0.3-0.1c-0.1,0-0.1-0.1-0.1-0.1l0-7.4c0-0.1,0-0.2,0.1-0.2s0.2-0.1,0.3-0.1
			c0.1,0,0.2-0.1,0.3-0.1c0.1,0,0.2,0,0.3,0l-0.1,2.5C109.4,11.9,109.5,11.6,109.7,11.2z"/>
		<path fill="#CA325F" d="M121.7,16.5c-0.4-1.2-0.6-2.2-0.7-3.1c-0.1-0.9-0.1-1.6,0-2.3s0.2-1.1,0.5-1.5c0.2-0.4,0.5-0.7,0.9-0.9
			c0.3-0.2,0.7-0.3,1.1-0.4c0.4-0.1,0.8-0.1,1.2,0c0.2,0,0.4,0.1,0.6,0.2c0.2,0.1,0.4,0.3,0.6,0.4c0.2,0.2,0.3,0.4,0.4,0.6
			c0.1,0.2,0.2,0.4,0.2,0.6c0,0.6-0.1,1.1-0.4,1.5c-0.3,0.4-0.6,0.7-1.1,1c-0.4,0.3-0.9,0.5-1.4,0.6c-0.5,0.1-1,0.2-1.5,0.3
			c0,0,0,0.1,0,0.2c0,0.1,0,0.2,0,0.2c0,0.1,0,0.2,0,0.2c0,0.1,0,0.1,0,0.2c0,0.3,0.1,0.6,0.1,0.9c0.1,0.3,0.2,0.6,0.4,0.9
			c0.2,0.3,0.4,0.5,0.7,0.7c0.3,0.2,0.6,0.3,0.9,0.3c0.3,0,0.6-0.1,0.8-0.3c0.2-0.2,0.5-0.4,0.7-0.6c0.2-0.2,0.5-0.4,0.7-0.6
			c0.2-0.2,0.5-0.3,0.8-0.3c0,0.3-0.1,0.6-0.4,0.9c-0.2,0.3-0.5,0.6-0.9,0.8c-0.3,0.2-0.7,0.4-1.1,0.6s-0.7,0.2-0.9,0.2
			c-0.5,0-0.9-0.1-1.3-0.3C122.2,17.3,121.9,17,121.7,16.5z M124.4,9c-0.4,0-0.8,0.1-1.1,0.3c-0.3,0.2-0.6,0.5-0.7,0.8
			c-0.2,0.3-0.3,0.7-0.4,1.1c-0.1,0.4-0.1,0.8-0.1,1.1c0.3,0,0.6,0,1-0.1s0.8-0.2,1.2-0.3c0.4-0.2,0.7-0.4,1-0.6
			c0.3-0.3,0.4-0.6,0.4-1c0-0.1,0-0.3-0.1-0.4c-0.1-0.1-0.2-0.3-0.3-0.4c-0.1-0.1-0.2-0.2-0.4-0.3C124.6,9.1,124.5,9,124.4,9z"/>
		<path fill="#CA325F" d="M136.6,7.2c-0.1,0-0.2,0-0.3-0.1c-0.1-0.1-0.2-0.1-0.3-0.2c-0.1-0.1-0.1-0.2-0.1-0.3c0-0.1,0-0.2,0.1-0.2
			c0-0.1,0.1-0.3,0.3-0.4c0.1-0.1,0.3-0.2,0.4-0.2c0.1,0,0.3,0,0.4,0c0.1,0,0.2,0.2,0.2,0.4c0,0.1,0,0.2,0,0.3c0,0.1,0,0.2-0.1,0.3
			c-0.1,0.1-0.1,0.2-0.2,0.2S136.7,7.2,136.6,7.2z M137.3,17.8c-0.1,0-0.1,0-0.2,0c-0.1,0-0.2-0.1-0.3-0.1c-0.1,0-0.2-0.1-0.2-0.2
			c-0.1-0.1-0.1-0.1-0.1-0.2l0-7.9c0-0.1,0-0.1,0.1-0.2c0.1-0.1,0.1-0.1,0.2-0.2c0.1,0,0.2-0.1,0.3-0.1c0.1,0,0.2,0,0.2,0
			L137.3,17.8z"/>
		<path fill="#CA325F" d="M138.4,14.6c0.1-0.2,0.2-0.3,0.3-0.4c0.1,0,0.3-0.1,0.5,0c0.4,0.4,0.8,0.7,1.2,1c0.4,0.3,0.8,0.6,1.3,0.8
			c0.4,0.2,0.9,0.4,1.4,0.6c0.5,0.1,1,0.2,1.6,0.2c0.1,0,0.2,0,0.4,0s0.3,0,0.4-0.1c0.1,0,0.2-0.1,0.3-0.2c0.1-0.1,0.1-0.2,0.1-0.4
			c0-0.3-0.2-0.6-0.5-0.9c-0.3-0.2-0.7-0.5-1.1-0.7c-0.4-0.2-0.9-0.5-1.4-0.7c-0.5-0.2-0.9-0.5-1.3-0.8c-0.4-0.3-0.7-0.6-0.9-1
			c-0.2-0.4-0.3-0.9-0.3-1.4c0-0.3,0.1-0.6,0.3-0.8c0.2-0.2,0.4-0.4,0.7-0.6c0.3-0.2,0.6-0.3,0.9-0.4c0.3-0.1,0.6-0.1,0.8-0.1
			c0.5,0,0.9,0.1,1.4,0.2c0.5,0.1,0.9,0.3,1.3,0.6l-0.4,0.6c-0.2-0.2-0.4-0.3-0.7-0.4c-0.3-0.1-0.6-0.1-0.9-0.1
			c-0.3,0-0.6,0-0.9,0.1c-0.3,0.1-0.6,0.1-0.8,0.3c-0.2,0.1-0.4,0.3-0.5,0.4c-0.1,0.2-0.1,0.3-0.1,0.5c0,0.5,0.1,0.9,0.4,1.3
			c0.3,0.3,0.6,0.6,1,0.8c0.4,0.2,0.9,0.4,1.3,0.6c0.5,0.2,0.9,0.4,1.3,0.6c0.4,0.2,0.8,0.5,1,0.8c0.3,0.3,0.4,0.7,0.4,1.2
			c0,0.3-0.1,0.6-0.2,0.8c-0.1,0.2-0.2,0.3-0.4,0.4c-0.2,0.1-0.4,0.2-0.6,0.2c-0.2,0-0.5,0-0.7,0c-0.6,0-1.2-0.1-1.8-0.2
			c-0.6-0.2-1.3-0.4-1.9-0.6c-0.6-0.3-1.2-0.6-1.7-1S138.8,15.1,138.4,14.6z"/>
	</g>
	<g id="Your_Icon">
		<path fill="#CA325F" d="M163.7,90.2h-2.2v-2.5h-7.6v2.5h-2.4v-2.5h-7.6v2.5h-2.2v7.4h2.2v2.7h2.4v2.2h2.4v2.7h2.4v2.2h2.9v-2.2
			h2.4v-2.7h2.4v-2.2h2.4v-2.7h2.2V90.2z M156.4,100v2.5h-2.7v2.5h-2v-2.5H149V100h-2.2v-2.7h-2.7v-6.9h7.1v2.2h2.9v-2.2h7.1v6.9
			h-2.7v2.7H156.4z"/>
	</g>
</g>
<g id="Réteg_2">
	<rect x="0" y="27.1" fill="#FFFFFF" stroke="#CA325F" stroke-width="0.4" stroke-miterlimit="10" width="170" height="53.3"/>
</g>
</svg>
