<?xml version="1.0" encoding="UTF-8" standalone="no"?>
<!DOCTYPE svg PUBLIC "-//W3C//DTD SVG 1.1//EN" "http://www.w3.org/Graphics/SVG/1.1/DTD/svg11.dtd">
<svg xmlns="http://www.w3.org/2000/svg" xmlns:xlink="http://www.w3.org/1999/xlink" width="100%" height="100%" viewBox="0 0 3404 1260" version="1.1" xml:space="preserve" style="fill-rule:evenodd;clip-rule:evenodd;stroke-linejoin:round;stroke-miterlimit:1.41421;">
    <g transform="matrix(0.993643,0,0,1,0,0)">
        <rect x="0" y="0" width="3425.78" height="1260" style="fill: #ff9300;"/>
    </g>
    <g transform="matrix(0.998442,2.88833,-2.88833,0.998442,1876.24,-518.513)">
        <g>
            <g id="Réteg-1">
                <path d="M274.153,613.209L206.598,584.647L275.764,554.064L347.413,578.338L274.153,613.209ZM379.875,553.848L298.344,529.717L275.928,549.636L252.877,532.044L171.757,565.632L200.058,588.361L174.457,627.9L255.584,663.381L274.451,618.645L291.282,658.228L376.243,613.916L353.088,578.8L379.875,553.848ZM287.584,668.579L274.474,637.787L259.507,673.224L203.436,648.698L204.733,677.819L275.108,710.436L356.466,670.429L355.377,633.232L287.584,668.579Z" style="fill:white;fill-rule:nonzero;"/>
                <path d="M178.441,503.951C179.423,503.64 180.482,504.201 180.799,505.203C181.116,506.201 180.57,507.262 179.588,507.573C178.603,507.885 177.549,507.33 177.233,506.332C176.916,505.33 177.456,504.263 178.441,503.951M182.657,499.411C181.035,499.933 179.528,500.563 178.239,501.236C174.443,503.22 174.184,504.939 175.052,507.681L176.2,511.303L185.702,508.293L186.085,509.5L176.582,512.51L173.016,513.639C170.254,514.514 168.361,516.94 168.605,520.337C168.879,524.233 169.556,526.504 171.664,529.995C173.231,532.594 175.479,534.088 178.24,533.213L181.508,532.178L180.132,527.837C179.139,524.7 180.977,521.074 184.199,520.053L193.691,517.047C196.333,516.21 197.753,513.367 196.913,510.713L194.047,501.665C193.231,499.09 190.446,497.843 187.731,498.23C186.012,498.475 184.28,498.888 182.657,499.411" style="fill:white;fill-rule:nonzero;"/>
                <path d="M198.681,530.724C199.666,530.412 200.72,530.966 201.036,531.965C201.353,532.966 200.813,534.034 199.828,534.346C198.847,534.657 197.787,534.096 197.47,533.094C197.154,532.096 197.699,531.035 198.681,530.724M196.762,506.118L198.098,510.338C199.134,513.609 197.233,517.241 194.07,518.243L184.578,521.249C181.978,522.073 180.532,524.98 181.356,527.583L184.222,536.632C185.038,539.207 187.757,540.013 190.503,539.956C193.791,539.887 196.726,539.134 199.995,536.949C202.168,535.499 204.085,533.358 203.217,530.616L202.07,526.994L192.578,530L192.196,528.793L201.687,525.787L206.439,524.282C209.2,523.407 209.619,521.155 209.664,517.959C209.713,514.668 208.764,511.819 206.605,508.302C205.052,505.769 203.093,504.113 200.328,504.989L196.762,506.118Z" style="fill:white;fill-rule:nonzero;"/>
                <path d="M352.111,508.517L349.812,511.975L346.008,509.446L343.708,512.904L340.942,511.065L343.241,507.607L339.437,505.077L341.736,501.619L338.624,499.55L341.153,495.746L337.349,493.216L343.787,483.533L353.816,490.201L351.747,493.314L355.897,496.073L357.966,492.96L367.995,499.629L361.557,509.312L357.753,506.782L355.223,510.586L352.111,508.517ZM371.683,501.582L368.571,499.513L370.87,496.054L360.149,488.926L357.85,492.385L354.392,490.085L356.691,486.627L345.971,479.499L343.671,482.958L340.559,480.888L333.661,491.263L336.773,493.332L334.244,497.136L337.702,499.436L335.633,502.548L339.091,504.847L336.562,508.651L340.02,510.951L337.951,514.063L342.101,516.822L344.17,513.71L347.628,516.009L350.158,512.205L353.616,514.504L355.685,511.392L359.143,513.691L361.673,509.887L364.785,511.957L371.683,501.582Z" style="fill:white;fill-rule:nonzero;"/>
                <path d="M267.602,485.559L267.602,492.708L276.349,498.165L267.602,503.622L267.602,510.77L269.2,509.735L281.24,502.21L282.652,501.364L282.652,494.965L281.24,494.119L269.2,486.594L267.602,485.559ZM249.542,485.559L247.944,486.594L235.904,494.119L234.492,494.965L234.492,501.364L235.904,502.21L247.944,509.735L249.542,510.77L249.542,503.622L240.795,498.165L249.542,492.708L249.542,485.559ZM258.479,480.102L252.552,515.752L252.459,516.222L258.668,516.222L264.595,480.572L264.688,480.102L258.479,480.102Z" style="fill:white;fill-rule:nonzero;"/>
                <path d="M297.824,434.142C299.342,434.14 300.575,435.37 300.577,436.888C300.579,438.407 299.35,439.64 297.831,439.642C296.312,439.644 295.08,438.414 295.078,436.896C295.075,435.377 296.306,434.144 297.824,434.142M313.254,445.422C313.26,449.398 308.936,452.626 303.598,452.633C298.259,452.641 293.927,449.424 293.922,445.449L313.254,445.422ZM309.323,434.127C310.84,434.125 312.074,435.354 312.076,436.873C312.079,438.391 310.849,439.624 309.33,439.627C307.813,439.629 306.579,438.399 306.578,436.881C306.576,435.361 307.804,434.129 309.323,434.127M303.608,459.069C312.904,459.057 320.429,451.51 320.417,442.214C320.404,432.918 312.856,425.392 303.561,425.405C294.265,425.417 286.739,432.964 286.752,442.26C286.764,451.556 294.311,459.082 303.608,459.069" style="fill:white;fill-rule:nonzero;"/>
                <path d="M111.306,268.103L88.264,275.657L86.035,268.859L109.078,261.305L111.306,268.103ZM68.289,283.227L61.557,279.818L68.372,266.356L54.91,259.541L58.317,252.809L78.511,263.032L68.289,283.227ZM39.18,245.812L57.46,301.577L128.433,278.311L110.153,222.546L39.18,245.812Z" style="fill:white;fill-rule:nonzero;"/>
                <path d="M167.802,453.925C167.585,453.454 167.449,453.451 167.232,453.305C166.797,453.15 166.297,453.24 165.785,453.471C165.243,453.714 165.106,453.944 164.886,454.244C164.773,454.719 164.862,454.932 164.998,455.193C165.177,455.539 165.505,455.742 165.746,455.865C166.144,455.618 166.29,455.448 166.785,455.251C167.104,455.123 167.548,455.102 167.764,455.054C167.817,454.904 167.994,454.341 167.802,453.925M156.55,450.38C155.082,453.479 157.239,456.731 156.877,459.691C156.769,460.569 156.599,461.09 156.092,461.785C152.911,461.458 147.822,464.011 144.152,463.92C140.89,463.838 140.971,461.473 139.258,459.433C138.908,457.967 142.985,452.576 144.478,449.809C148.637,442.101 146.232,442.264 147.333,440.918C148.097,439.984 151.329,439.03 155.408,438.879C157.61,438.797 159.364,441.897 159.364,441.897C159.364,441.897 164.791,439.715 169.683,442.223C172.863,443.854 173.124,446.848 175.148,450.542C176.948,454.213 174.745,459.23 174.745,459.23C174.745,459.23 174.699,460.86 176.853,460.339C178.003,460.061 178.677,459.308 178.994,458.238C179.547,456.373 178.578,455.772 178.478,455.342C178.193,454.119 180.372,454.768 180.74,454.034C181.106,453.299 181.347,452.582 182.121,454.989C183.933,460.617 181.736,464.819 179.037,466.032C175.9,467.44 173.102,466.637 169.397,465.021C168.563,464.658 166.915,463.154 166.95,464.139C167.038,466.586 166.849,466.83 167.852,468.04C168.045,468.272 167.669,468.645 166.466,468.61C164.978,468.568 163.247,466.726 163.247,466.726C160.718,470.478 162.739,476.279 162.551,477.745C162.189,480.559 160.342,482.199 159.818,482.761C159.045,483.59 159.606,483.869 159.452,484.352C159.225,485.06 158.554,485.872 157.568,486.076C156.585,486.37 149.219,480.589 149.292,480.073C149.365,479.558 150.657,478.308 151.457,477.908C152.028,477.623 151.865,477.175 151.817,476.785C151.706,475.873 145.824,474.89 144.967,475.176C143.989,476.154 144.07,479.335 144.07,479.335C144.07,479.335 144.225,479.826 144.641,480.274C144.958,480.91 145.167,482.593 144.592,482.85C142.321,483.863 132.576,483.021 131.917,482.434C131.549,482.109 131.917,480.355 132.569,479.824C134.328,478.396 132.813,472.891 132.813,472.891C123.189,463.674 127.638,455.38 127.638,455.38C127.638,455.38 126.941,456.336 126.002,456.146C124.782,455.899 124.224,454.55 123.769,453.264C122.991,452.875 122.887,452.083 123.107,451.46C123.359,450.75 125.042,449.604 125.769,448.721C125.781,449.746 125.172,450.797 125.522,451.525C125.883,452.275 125.301,452.991 124.886,453.147C124.951,454.212 125.613,454.627 126.34,454.652C127.223,454.685 127.184,453.355 128.533,451.836C129.064,450.231 130.611,448.503 134.527,446.627C138.393,444.774 145.461,445.275 145.461,445.275C145.039,446.26 144.959,446.981 144.157,448.339C142.22,451.621 137.469,457.809 137.87,459.489C139.831,461.823 140.096,465.254 143.831,465.348C148.032,465.453 152.875,462.681 156.516,463.055C157.265,461.813 158.065,461.206 158,460.215C157.692,455.424 155.977,452.178 156.55,450.38" style="fill:white;fill-rule:nonzero;"/>
                <path d="M121.356,408.002L89.632,371.599L89.529,419.804L100.449,412.176L107.45,431.058L115.105,428.219L108.104,409.338L121.356,408.002Z" style="fill:white;fill-rule:nonzero;"/>
                <path d="M176.28,310.183L177.452,315.731L171.904,316.903L174.248,327.998L168.7,329.17L171.045,340.267L137.757,347.299L145.961,386.135L168.153,381.447L166.981,375.898L183.624,372.382L184.796,377.931L212.537,372.07L211.364,366.521L216.913,365.349L208.709,326.515L192.065,330.031L187.376,307.839L176.28,310.183ZM161.121,348.158L172.216,345.814L171.045,340.267L176.593,339.094L175.421,333.546L180.968,332.374L177.452,315.731L183.001,314.559L187.689,336.751L204.332,333.235L211.365,366.522L183.625,372.382L182.453,366.835L165.809,370.351L161.121,348.158ZM144.477,351.674L155.573,349.33L161.433,377.07L150.337,379.414L144.477,351.674Z" style="fill:white;fill-rule:nonzero;"/>
                <path d="M326.417,337.262C326.35,337.255 326.283,337.249 326.217,337.249C324.441,337.249 323.212,338.688 323.212,340.463C323.212,342.212 323.893,343.634 326.564,343.671L326.564,343.681C339.249,343.855 350.345,354.691 350.345,367.99C350.345,381.397 339.336,392.46 325.93,392.46C313.134,392.46 302.512,382.805 301.576,370.12L307.222,370.12L298.509,355.636L289.8,370.121L295.141,370.121C296.085,386.144 309.485,398.883 325.823,398.883C342.775,398.883 356.568,385.022 356.568,368.068C356.568,351.316 343.094,337.579 326.417,337.262" style="fill:white;fill-rule:nonzero;"/>
                <path d="M329.235,352.234C329.235,350.722 328.02,349.423 326.512,349.423L325.923,349.423C324.414,349.423 323.227,350.722 323.227,352.234L323.227,368.395L315.311,376.296C314.143,377.464 314.203,379.361 315.308,380.522C316.416,381.698 318.358,381.698 319.527,380.522L328.274,371.776C328.34,371.702 328.394,371.629 328.46,371.562C328.941,371.065 329.234,370.39 329.234,369.646L329.234,352.234L329.235,352.234Z" style="fill:white;fill-rule:nonzero;"/>
                <path d="M509.733,304.193C523.392,308.045 533.293,315.325 531.847,320.452C530.401,325.58 518.156,326.614 504.496,322.762C490.837,318.91 480.936,311.63 482.382,306.503C483.828,301.375 496.074,300.341 509.733,304.193" style="fill:white;fill-rule:nonzero;"/>
                <path d="M460.18,320.391L463.678,307.987C463.678,307.987 461.158,317.216 485.814,324.17C510.47,331.123 513.143,321.936 513.143,321.936L509.602,334.493C509.602,334.493 506.68,344.265 482.025,337.312C457.369,330.359 460.18,320.391 460.18,320.391" style="fill:white;fill-rule:nonzero;"/>
                <path d="M455.48,337.055L458.978,324.652C458.978,324.652 456.458,333.88 481.114,340.833C505.77,347.787 508.442,338.601 508.442,338.601L504.902,351.157C504.902,351.157 501.98,360.931 477.325,353.978C452.669,347.025 455.48,337.055 455.48,337.055" style="fill:white;fill-rule:nonzero;"/>
                <text x="348.27px" y="462.912px" style="font-family:'Lato-Regular', 'Lato', sans-serif;font-size:41.367px;fill:white;">&gt;&gt;&gt;</text>
                <g transform="matrix(0.967904,0.251321,-0.251321,0.967904,0,0)">
                    <text x="468.258px" y="295.48px" style="font-family:'Lato-Regular', 'Lato', sans-serif;font-size:41.427px;fill:white;">{% %}</text>
                </g>
                <g transform="matrix(0.927397,-0.374078,0.374078,0.927397,0,0)">
                    <text x="-73.907px" y="358.71px" style="font-family:'Lato-Regular', 'Lato', sans-serif;font-size:51.397px;fill:white;">&gt;&gt;&gt;</text>
                </g>
                <path d="M450.909,353.265L454.408,340.859C454.408,340.859 451.887,350.09 476.543,357.043C501.199,363.997 503.872,354.809 503.872,354.809L500.331,367.366C500.331,367.366 497.41,377.138 472.755,370.185C448.098,363.233 450.909,353.265 450.909,353.265" style="fill:white;fill-rule:nonzero;"/>
                <path d="M430.262,303.356C430.18,305.468 429.984,307.677 429.697,309.936C430.295,309.363 430.859,308.668 431.367,307.849C432.996,305.23 433.896,301.735 433.896,298.012C433.896,294.288 432.996,290.793 431.367,288.174C430.049,286.062 428.388,284.736 426.603,284.368C430.041,289.549 430.499,297.52 430.262,303.356" style="fill:white;fill-rule:nonzero;"/>
                <path d="M429.394,302.691C429.327,302.508 429.25,302.33 429.173,302.153C429.075,301.918 428.965,301.697 428.856,301.476C428.737,301.253 428.619,301.03 428.489,300.822C427.151,298.623 425.151,297.131 422.511,296.394L422.405,296.366L422.372,296.358L422.322,296.345L422.232,296.322C421.488,296.149 420.744,296.046 420.022,296.028L419.952,296.028L419.886,296.011C416.751,295.226 407.756,294.272 399.853,293.537C399.993,293.845 400.131,294.16 400.251,294.48C400.257,294.49 400.263,294.5 400.259,294.517C402.256,295.509 403.808,297.518 404.696,300.311C405.011,301.302 405.23,302.365 405.357,303.475C406.642,303.725 407.61,303.876 408.015,303.936L408.883,304.071L408.489,304.855C406.33,309.153 404.699,314.944 403.765,321.606C402.903,327.778 402.667,334.346 403.087,340.61C403.256,343.131 403.519,345.353 403.841,347.038C404.291,349.351 404.69,349.777 404.739,349.825C404.826,349.864 404.881,349.887 404.906,349.893L404.949,349.896L404.965,349.9L405.308,349.996C405.341,350.005 405.376,350.005 405.459,349.956C405.764,349.754 406.394,348.935 407.141,345.745C407.665,343.489 408.088,340.743 408.462,338.325C408.899,335.486 409.245,333.245 409.651,332.342C410.556,330.314 412.332,329.84 413.693,330.066L413.744,330.07L413.791,330.091C415.095,330.539 416.424,331.816 416.243,334.029C416.157,335.014 415.392,337.147 414.412,339.848C413.576,342.156 412.629,344.759 412.006,346.991C411.13,350.138 411.289,351.159 411.458,351.492C411.505,351.582 411.546,351.593 411.571,351.599L411.967,351.692L411.976,351.694C412,351.7 412.06,351.707 412.146,351.711C412.212,351.693 412.765,351.519 414.273,349.699C415.364,348.375 416.663,346.553 418.022,344.423C420.64,340.321 423.037,335.776 425.001,331.252C425.105,331.016 425.201,330.778 425.303,330.55C425.409,330.306 425.505,330.068 425.611,329.824C426.669,327.266 427.58,324.732 428.31,322.292C430.761,314.048 431.138,307.271 429.394,302.691" style="fill:white;fill-rule:nonzero;"/>
                <path d="M404.168,304.528C404.155,304.306 404.133,304.081 404.118,303.867C404.097,303.643 404.067,303.416 404.035,303.198C403.919,302.319 403.73,301.482 403.48,300.683C402.889,298.815 401.984,297.358 400.837,296.399C401.303,298.339 401.456,300.445 401.391,302.583C401.388,302.801 401.376,303.017 401.365,303.233C401.353,303.449 401.342,303.665 401.322,303.878C401.053,307.768 400.141,311.676 399.18,314.881C398.512,317.118 397.688,319.446 396.739,321.787C397.307,321.415 397.867,320.972 398.423,320.44C400.732,318.229 402.534,314.951 403.491,311.211C404.074,308.935 404.298,306.654 404.168,304.528" style="fill:white;fill-rule:nonzero;"/>
                <path d="M396.67,266.933C401.99,268.294 405.199,273.711 403.837,279.03C402.476,284.35 397.06,287.559 391.74,286.197C386.42,284.836 383.211,279.42 384.573,274.1C385.934,268.78 391.35,265.572 396.67,266.933" style="fill:white;fill-rule:nonzero;"/>
                <path d="M427.574,275.07C432.894,276.431 436.103,281.848 434.741,287.167C433.38,292.487 427.964,295.696 422.644,294.334C417.324,292.973 414.115,287.557 415.477,282.237C416.838,276.917 422.254,273.709 427.574,275.07" style="fill:white;fill-rule:nonzero;"/>
                <path d="M400.075,303.55C400.087,303.334 400.1,303.11 400.109,302.902C400.121,302.686 400.126,302.46 400.128,302.25C400.177,299.662 399.885,297.38 399.239,295.455C399.179,295.282 399.12,295.1 399.057,294.935C399.025,294.857 398.994,294.771 398.962,294.692C398.86,294.438 398.746,294.199 398.632,293.96C398.541,293.77 398.441,293.578 398.337,293.403C398.205,293.167 398.07,292.94 397.923,292.728C397.766,292.486 397.597,292.259 397.425,292.04C396.13,290.395 394.362,289.259 392.158,288.634L392.051,288.606L392.018,288.598L391.969,288.585L391.879,288.562C389.259,287.953 386.821,288.275 384.631,289.51C384.726,289.858 384.781,290.222 384.806,290.605C384.823,290.846 384.822,291.091 384.81,291.342C384.802,291.576 384.776,291.815 384.742,292.051C384.612,292.937 384.31,293.841 383.826,294.707C382.419,297.228 379.833,298.676 377.593,298.26C376.291,301.123 375.202,304.558 374.369,308.495C373.796,311.177 373.357,314.06 373.052,317.029C373.024,317.311 372.997,317.584 372.969,317.866C372.945,318.131 372.919,318.405 372.895,318.67C372.5,323.359 372.436,328.229 372.752,332.846C372.921,335.367 373.185,337.589 373.506,339.274C373.957,341.587 374.355,342.013 374.405,342.061C374.491,342.1 374.546,342.123 374.571,342.13L374.606,342.13L374.622,342.134L374.965,342.231C374.998,342.239 375.033,342.239 375.116,342.19C375.421,341.988 376.051,341.169 376.798,337.979C377.322,335.723 377.745,332.977 378.119,330.559C378.556,327.72 378.902,325.479 379.308,324.576C380.213,322.548 381.989,322.075 383.35,322.3L383.401,322.305L383.448,322.325C384.752,322.773 386.081,324.05 385.9,326.263C385.814,327.248 385.049,329.381 384.069,332.082C383.233,334.39 382.286,336.994 381.663,339.225C380.787,342.372 380.946,343.393 381.115,343.726C381.162,343.816 381.203,343.827 381.228,343.833L381.624,343.926L381.633,343.928C381.657,343.934 381.717,343.941 381.803,343.945C381.869,343.927 382.422,343.753 383.93,341.933C385.021,340.61 386.32,338.788 387.679,336.657C390.164,332.766 392.445,328.472 394.349,324.178C394.456,323.934 394.562,323.69 394.67,323.437C394.781,323.177 394.889,322.924 394.998,322.672C396.161,319.904 397.162,317.157 397.958,314.524C399.168,310.481 399.874,306.8 400.075,303.55" style="fill:white;fill-rule:nonzero;"/>
                <path d="M383.538,291.419C383.552,291.195 383.557,290.968 383.552,290.748C383.545,290.571 383.529,290.392 383.501,290.227C383.489,290.172 383.486,290.118 383.474,290.063C383.44,289.888 383.395,289.719 383.341,289.556C383.272,289.346 383.182,289.148 383.083,288.956C382.814,288.466 382.444,288.065 381.961,287.793C381.793,287.697 381.611,287.624 381.424,287.568L381.27,287.52L381.151,287.402C381.067,287.319 380.981,287.244 380.889,287.194C380.805,287.147 380.708,287.113 380.618,287.09C379.533,286.812 377.596,287.981 376.227,290.424C375.807,291.174 375.488,292.012 375.3,292.813C375.214,293.185 375.156,293.547 375.14,293.885C375.117,294.212 375.124,294.528 375.174,294.813C375.261,295.396 375.503,295.852 375.915,296.088C376.008,296.138 376.11,296.182 376.228,296.203L376.386,296.235L376.507,296.345C376.642,296.467 376.791,296.567 376.943,296.658C376.957,296.67 376.974,296.675 376.988,296.687C377.156,296.783 377.339,296.856 377.526,296.912C377.567,296.923 377.608,296.933 377.649,296.944C377.822,296.988 377.999,297.016 378.18,297.027C379.815,297.139 381.657,295.964 382.723,294.056C383.205,293.199 383.476,292.279 383.538,291.419" style="fill:white;fill-rule:nonzero;"/>
                <path d="M278.728,319.29L278.728,327.575L269.614,327.575L269.614,335.861L262.986,335.861L262.986,327.575L253.872,327.575L253.872,319.29L246.415,319.29L246.415,310.176L237.301,310.176L237.301,286.977L261.329,286.977L261.329,294.434L271.271,294.434L271.271,286.977L295.299,286.977L295.299,310.176L286.185,310.176L286.185,319.29L278.728,319.29ZM303.584,286.148L296.127,286.148L296.127,277.863L270.443,277.863L270.443,286.148L262.157,286.148L262.157,277.863L236.472,277.863L236.472,286.148L229.015,286.148L229.015,311.005L236.472,311.005L236.472,320.119L244.758,320.119L244.758,327.575L253.043,327.575L253.043,336.689L261.329,336.689L261.329,344.146L271.271,344.146L271.271,336.689L279.557,336.689L279.557,327.575L287.842,327.575L287.842,320.119L296.127,320.119L296.127,311.005L303.584,311.005L303.584,286.148Z" style="fill:white;fill-rule:nonzero;"/>
                <path d="M415.744,497.264L413.038,494.786L412.204,494.023L409.497,491.545L410.641,490.295L412.348,491.619L412.79,491.449L413.753,492.332L414.587,493.093L415.55,493.976L415.42,494.431L416.888,496.015L415.744,497.264ZM422.953,483.119C424.125,484.193 424.206,486.014 423.132,487.187C422.058,488.361 420.237,488.441 419.063,487.367C417.89,486.294 417.81,484.471 418.884,483.298C419.958,482.125 421.779,482.045 422.953,483.119M424.08,497.671C425.439,493.363 426.423,493.02 428.989,491.158C431.555,489.298 431.589,487.797 431.743,485.642C431.899,483.486 428.531,479.637 428.531,479.637C428.531,479.637 444.005,462.318 444.55,461.67C445.097,461.021 447,461.137 447,461.137C447,461.137 447.23,460.44 447.837,459.431L447.994,459.574C447.913,459.768 447.972,460.017 448.159,460.188C448.389,460.4 448.721,460.41 448.902,460.215C449.082,460.018 449.041,459.688 448.811,459.478C448.624,459.307 448.369,459.269 448.183,459.367L447.987,459.188C448.236,458.793 448.54,458.36 448.906,457.907C448.993,457.798 449.082,457.694 449.174,457.593L449.519,457.91C449.438,458.103 449.498,458.352 449.685,458.525C449.916,458.735 450.247,458.747 450.428,458.55C450.607,458.353 450.566,458.023 450.337,457.813C450.15,457.641 449.895,457.604 449.709,457.701L449.367,457.388C449.867,456.872 450.396,456.458 450.866,456.143L451.134,456.39C451.053,456.583 451.113,456.832 451.3,457.004C451.531,457.215 451.863,457.226 452.043,457.029C452.222,456.832 452.181,456.502 451.951,456.292C451.764,456.121 451.51,456.084 451.325,456.181L451.112,455.985C451.79,455.559 452.29,455.359 452.29,455.359L452.276,452.762L451.205,452.259L450.61,451.237L448.022,451.45C448.022,451.45 447.866,451.967 447.501,452.681L447.162,452.37C447.243,452.177 447.184,451.927 446.996,451.756C446.766,451.545 446.434,451.534 446.254,451.73C446.074,451.927 446.116,452.257 446.345,452.468C446.533,452.639 446.785,452.676 446.972,452.579L447.365,452.939C447.095,453.435 446.729,453.998 446.258,454.541L445.929,454.241C446.011,454.047 445.951,453.797 445.763,453.626C445.533,453.416 445.201,453.404 445.021,453.601C444.842,453.797 444.883,454.127 445.113,454.338C445.3,454.509 445.553,454.547 445.739,454.45L446.071,454.754C445.979,454.853 445.882,454.951 445.782,455.048C445.363,455.452 444.958,455.792 444.586,456.075L444.403,455.908C444.484,455.714 444.424,455.465 444.237,455.293C444.008,455.082 443.675,455.072 443.496,455.268C443.315,455.465 443.356,455.794 443.586,456.004C443.774,456.175 444.027,456.214 444.212,456.116L444.357,456.247C443.405,456.94 442.731,457.231 442.731,457.231C442.731,457.231 443.014,459.117 442.416,459.718C441.818,460.319 425.927,477.257 425.927,477.257C425.927,477.257 421.798,474.242 419.665,474.586C417.531,474.929 416.04,475.095 414.411,477.815C412.783,480.535 412.528,481.546 408.358,483.279C404.187,485.011 400.113,486.639 399.022,489.086C397.931,491.532 395.726,495.925 404.16,503.647C412.594,511.369 416.776,508.786 419.118,507.483C421.458,506.179 422.721,501.977 424.08,497.671" style="fill:white;fill-rule:nonzero;"/>
                <path d="M556.412,243.152L552.091,236.704C551.658,236.059 550.764,235.986 550.119,236.419L527.154,251.894L513.109,249.119L497.754,226.073C497.339,225.453 496.431,225.222 495.812,225.638L489.369,229.933C488.723,230.365 488.392,231.195 488.825,231.841L503.816,254.406L498.797,279.806C498.646,280.569 499.49,281.244 500.253,281.394L526.494,286.579C527.257,286.73 528.257,286.42 528.408,285.657L533.372,260.532L556.169,245.134C556.479,244.926 556.623,244.59 556.696,244.223C556.768,243.857 556.62,243.463 556.412,243.152" style="fill:white;fill-rule:nonzero;"/>
                <path d="M520.766,246.758C526.639,247.918 532.361,244.084 533.522,238.211C534.682,232.338 530.848,226.616 524.975,225.455C519.102,224.295 513.379,228.129 512.219,234.002C511.059,239.875 514.893,245.598 520.766,246.758" style="fill:white;fill-rule:nonzero;"/>
                <path d="M238.157,420.241L228.682,422.14C228.702,422.197 228.723,422.252 228.734,422.31L226.487,422.761C226.475,422.702 226.471,422.644 226.47,422.584L222.495,423.38C220.656,421.906 219.301,419.806 218.802,417.318C217.674,411.689 221.338,406.19 226.967,405.061C232.597,403.933 238.097,407.595 239.226,413.225C239.726,415.711 239.285,418.172 238.157,420.241M224.727,393.877C228.446,393.131 232.079,395.55 232.825,399.27C233.089,400.589 232.949,401.892 232.499,403.064C230.611,402.521 228.572,402.4 226.518,402.812C224.462,403.224 222.629,404.121 221.095,405.35C220.229,404.443 219.597,403.293 219.333,401.975C218.587,398.255 221.007,394.622 224.727,393.877M234.635,403.895C235.238,402.33 235.425,400.583 235.071,398.82C234.077,393.861 229.236,390.635 224.276,391.629C219.317,392.623 216.091,397.466 217.085,402.425C217.439,404.188 218.286,405.726 219.444,406.94C216.95,409.812 215.752,413.758 216.556,417.769C217.162,420.79 218.801,423.346 221.028,425.144L240.119,470.666L240.19,421.303C241.553,418.785 242.08,415.795 241.475,412.774C240.671,408.763 238.042,405.582 234.635,403.895" style="fill:white;fill-rule:nonzero;"/>
                <g transform="matrix(1,0,0,1,-52.7899,42.0407)">
                    <path d="M460.257,140.216C461.758,140.904 462.412,142.711 461.71,144.243C461.011,145.769 459.22,146.441 457.719,145.754C456.213,145.063 455.558,143.27 456.258,141.744C456.96,140.212 458.751,139.526 460.257,140.216M470.156,139.364C467.667,138.237 465.198,137.362 462.941,136.774C456.295,135.042 454.136,136.804 452.214,140.997L449.676,146.534L464.206,153.194L463.36,155.04L448.83,148.38L443.377,145.881C439.155,143.945 434.294,144.789 430.924,149.087C427.053,154.01 425.411,157.436 424.155,163.853C423.216,168.628 424.278,172.824 428.501,174.76L433.496,177.049L436.539,170.411C438.737,165.615 444.826,163.287 449.753,165.546L464.266,172.198C468.306,174.05 473.055,172.202 474.915,168.144L481.257,154.309C483.062,150.371 481.096,145.891 477.454,143.426C475.148,141.867 472.645,140.491 470.156,139.364" style="fill:white;fill-rule:nonzero;"/>
                </g>
                <g transform="matrix(1,0,0,1,-52.7899,42.0407)">
                    <path d="M455.462,193.819C456.968,194.509 457.623,196.303 456.923,197.829C456.221,199.361 454.43,200.047 452.924,199.357C451.423,198.669 450.768,196.861 451.47,195.33C452.17,193.803 453.961,193.131 455.462,193.819M479.684,162.523L476.727,168.975C474.434,173.977 468.264,176.244 463.428,174.027L448.915,167.375C444.939,165.553 440.09,167.447 438.266,171.428L431.924,185.263C430.119,189.201 432.481,193.087 435.804,195.977C439.784,199.437 444.082,201.703 450.317,202.629C454.461,203.247 459.044,202.769 460.966,198.576L463.505,193.038L448.992,186.386L449.838,184.54L464.351,191.192L471.616,194.522C475.838,196.458 478.762,194.234 482.257,190.486C485.86,186.63 487.802,182.223 489.026,175.719C489.909,171.037 489.365,166.961 485.137,165.023L479.684,162.523Z" style="fill:white;fill-rule:nonzero;"/>
                </g>
                <g transform="matrix(1,0,0,1,112.778,48.0725)">
                    <path d="M112.004,138.921L55.818,148.489C54.773,148.667 54.063,149.668 54.225,150.619L60.328,186.46C60.506,187.506 61.491,188.12 62.537,187.942L118.723,178.374C119.768,178.196 120.478,177.195 120.316,176.244L114.213,140.404C114.035,139.358 113.05,138.743 112.004,138.921M112.312,140.727L118.415,176.568L62.229,186.136L56.126,150.295L112.312,140.727" style="fill:white;fill-rule:nonzero;"/>
                </g>
                <g transform="matrix(1,0,0,1,112.778,48.0725)">
                    <path d="M62.768,204.24L123.802,193.847L118.4,181.658L63.926,190.934L62.768,204.24ZM125.346,195.442L61.935,206.241C61.65,206.289 61.348,206.243 61.109,205.99C60.887,205.832 60.838,205.547 60.79,205.262L62.116,190.069C62.146,189.672 62.478,189.322 62.953,189.241L118.853,179.722C119.234,179.657 119.662,179.878 119.917,180.226L126.197,194.123C126.341,194.392 126.294,194.694 126.136,194.916C125.9,195.25 125.726,195.378 125.346,195.442" style="fill:white;fill-rule:nonzero;"/>
                </g>
                <g transform="matrix(1,0,0,1,112.778,48.0725)">
                    <path d="M92.039,169.321C91.754,169.37 91.452,169.323 91.214,169.07C90.864,168.739 90.862,168.152 91.193,167.802L96.658,161.98L89.574,158.295C89.146,158.075 88.953,157.52 89.174,157.092C89.394,156.663 89.949,156.471 90.377,156.691L98.525,160.88C98.748,161.037 98.987,161.29 99.035,161.575C99.084,161.86 99.037,162.162 98.784,162.401L92.482,169.05C92.419,169.256 92.229,169.289 92.039,169.321" style="fill:white;fill-rule:nonzero;"/>
                </g>
                <g transform="matrix(1,0,0,1,112.778,48.0725)">
                    <path d="M85.062,169.899C84.869,169.899 84.676,169.803 84.483,169.706L77.154,164.209C76.961,164.016 76.768,163.727 76.768,163.438C76.768,163.148 76.865,162.859 77.154,162.666L84.483,157.169C84.869,156.88 85.448,156.976 85.737,157.362C86.026,157.748 85.93,158.326 85.544,158.616L79.179,163.438L85.544,168.26C85.93,168.549 86.026,169.128 85.737,169.513C85.641,169.803 85.351,169.899 85.062,169.899" style="fill:white;fill-rule:nonzero;"/>
                </g>
            </g>
        </g>
    </g>
    <g transform="matrix(1.81177,0,0,1.81177,1469.73,412.164)">
        <g id="Logo">
            <g transform="matrix(1,0,0,1,-58.8,-507.2)">
                <path d="M111.9,520.5L136.6,520.5L136.6,634.6C124,637 114.7,638 104.6,638C74.5,638 58.8,624.4 58.8,598.3C58.8,573.2 75.4,556.9 101.3,556.9C105.3,556.9 108.3,557.2 112,558.1L111.9,520.5ZM111.9,577.9C109,577 106.6,576.7 103.5,576.7C91,576.7 83.8,584.3 83.8,597.9C83.8,611 90.7,618.2 103.3,618.2C106,618.2 108.3,618 111.8,617.6L111.9,577.9Z" style="fill:white;fill-rule:nonzero;"/>
                <path d="M175.8,558.6L175.8,615.7C175.8,635.4 174.4,644.8 170,653C166,660.9 160.7,665.8 149.9,671.3L127,660.5C137.8,655.3 143.2,650.9 146.5,644C150,637 151.1,628.8 151.1,607.3L151.1,558.6L175.8,558.6ZM151.1,520.6L175.8,520.6L175.8,545.9L151.1,545.9L151.1,520.6Z" style="fill:white;fill-rule:nonzero;"/>
                <path d="M190.7,564.2C201.5,559 212,556.9 223.3,556.9C235.9,556.9 244.3,560.3 248,566.8C250.1,570.5 250.7,575.3 250.7,585.5L250.7,635.6C239.6,637.3 225.7,638.3 215.5,638.3C194.8,638.3 185.5,631.1 185.5,615.1C185.5,597.8 197.8,589.8 228.1,587.2L228.1,581.7C228.1,577.3 225.8,575.6 219.6,575.6C210.5,575.6 200.2,578.2 190.6,583.1L190.7,564.2ZM229.2,603.4C212.9,605.1 207.6,607.5 207.6,613.9C207.6,618.7 210.6,620.9 217.4,620.9C221.1,620.9 224.4,620.6 229.3,619.8L229.2,603.4Z" style="fill:white;fill-rule:nonzero;"/>
                <path d="M262.7,562.4C277.3,558.6 289.2,556.8 301.4,556.8C314,556.8 323.2,559.7 328.7,565.3C333.9,570.6 335.4,576.4 335.4,588.6L335.4,637L310.7,637L310.7,589.6C310.7,580.2 307.5,576.6 298.7,576.6C295.3,576.6 292.3,576.9 287.3,578.4L287.3,637L262.6,637L262.7,562.4Z" style="fill:white;fill-rule:nonzero;"/>
                <path d="M345,650.5C353.7,654.9 362.3,657.1 371.4,657.1C387.6,657.1 394.4,650.5 394.4,634.9C394.4,634.7 394.4,634.6 394.4,634.4C389.6,636.8 384.8,637.8 378.4,637.8C356.8,637.8 343,623.5 343,600.9C343,572.9 363.4,557 399.4,557C409.9,557 419.7,558.1 431.6,560.5L423.1,578.3C416.5,577.1 422.6,578.1 417.6,577.7L417.6,580.3L417.9,590.7L418.1,604.1C418.3,607.5 418.3,610.8 418.4,614.2C418.4,617.2 418.4,618.6 418.4,620.9C418.4,642.1 416.6,652 411.4,660.2C403.8,672.2 390.4,678.2 371.5,678.2C361.9,678.2 353.5,676.8 345,673.3L345,650.5ZM394,576.9C393.7,576.9 393.4,576.9 393.2,576.9L391.4,576.9C386.6,576.7 381,578 377.1,580.4C371.2,583.8 368.1,589.8 368.1,598.5C368.1,610.8 374.2,617.9 385,617.9C388.4,617.9 391.1,617.3 394.3,616.2L394.3,614.4L394.3,607.7C394.3,604.8 394.1,601.6 394.1,598.3L394,587L393.8,578.8L394,576.9Z" style="fill:white;fill-rule:nonzero;"/>
                <path d="M469.9,556.5C494.6,556.5 509.6,572 509.6,597.2C509.6,623 493.9,639.1 468.9,639.1C444.2,639.1 429,623.6 429,598.6C429.1,572.7 444.8,556.5 469.9,556.5ZM469.4,619.2C478.8,619.2 484.5,611.3 484.5,597.7C484.5,584.3 479,576.2 469.6,576.2C459.8,576.2 454.2,584.1 454.2,597.7C454.2,611.4 459.8,619.2 469.4,619.2Z" style="fill:white;fill-rule:nonzero;"/>
            </g>
            <g transform="matrix(1,0,0,1,-58.8,-507.2)">
                <path d="M562.1,702.1C559.4,702.4 556.8,702.2 554.1,701.5C551.4,700.8 549.1,699.8 547.1,698.5C545.1,697.2 543.4,695.5 542.2,693.6C541.1,691.7 540.7,689.7 541.1,687.5C543.1,687.5 544.8,687.9 546.4,688.6C547.9,689.4 549.4,690.3 550.9,691.3C552.4,692.2 554,693.2 555.7,694C557.4,694.8 559.4,695.1 561.7,695.1C567.4,695.1 572.1,693.9 576.1,691.4C580,688.9 583.1,685.7 585.5,681.7C587.9,677.7 589.5,673.1 590.6,668.1C591.6,663 592.1,657.9 592.1,652.6C592.1,651.3 592,649.1 591.9,646.1C591.8,643.1 591.6,639.8 591.4,636.2C591.2,632.5 591,628.7 590.8,624.5C590.6,620.5 590.3,616.5 590.1,612.8C589.9,609.1 589.6,605.8 589.4,602.9C589.2,599.9 588.9,597.8 588.8,596.4C588,598.4 587,600.7 585.8,603.6C584.7,606.5 583.3,609.5 581.8,612.6C580.3,615.7 578.6,618.9 576.6,622C574.6,625.1 572.6,627.9 570.2,630.4C567.8,632.9 565.2,634.8 562.5,636.4C559.7,637.9 556.7,638.7 553.6,638.7C551.9,638.7 550.6,637.9 549.7,636.2C548.8,634.5 548,632.6 547.5,630.4C547,628.2 546.7,626.1 546.6,624C546.5,621.9 546.4,620.4 546.4,619.6C545.9,613.3 545.9,607.1 546.4,601C546.9,594.9 547.8,589.1 549.4,583.7C550.9,578.3 552.9,573.6 555.4,569.3C557.9,565.1 561,561.8 564.6,559.4C568.2,557 572.3,555.6 577,555.3C581.6,555 586.9,556 592.7,558.5C594.2,558.3 595.3,559.2 595.9,561.2C596.4,563.2 596.7,565.5 596.6,568.4C596.6,571.3 596.4,574.3 596.1,577.4C595.8,580.5 595.6,583.2 595.5,585.4C595.5,590.5 595.7,595.6 596.1,600.7C596.5,605.8 596.9,610.9 597.5,616C598,621.1 598.5,626.1 598.9,631.2C599.3,636.3 599.5,641.3 599.5,646.5C599.5,652.4 598.9,658.6 597.7,665.1C596.6,671.6 594.5,677.7 591.6,683.2C588.7,688.8 584.9,693.3 580.1,696.9C575.1,700.3 569.2,702.1 562.1,702.1ZM553.1,615.9C553.1,616.9 553.1,618.1 553.2,619.5C553.2,620.9 553.4,622.3 553.8,623.6C554.1,624.9 554.7,626.1 555.5,627C556.3,627.9 557.3,628.4 558.7,628.4C561.5,628.4 564,627.2 566.3,624.7C568.7,622.2 570.8,619 572.8,615.1C574.8,611.2 576.6,606.9 578.3,602.2C580,597.5 581.3,592.9 582.4,588.4C583.5,583.9 584.4,579.8 585,576.1C585.6,572.4 585.9,569.7 585.9,567.9C579.9,565.7 574.8,565.8 570.6,568C566.4,570.3 563,573.8 560.4,578.6C557.8,583.5 556,589.2 554.7,595.9C553.5,602.6 553,609.3 553.1,615.9Z" style="fill:white;fill-rule:nonzero;"/>
                <path d="M611.7,541.5C611,541.5 610.3,541.3 609.3,540.8C608.4,540.3 607.6,539.7 607,538.9C606.4,538.2 606,537.4 605.7,536.5C605.5,535.7 605.6,535 606.2,534.3C606.6,533.2 607.3,532 608.6,531.1C609.7,530.2 611,529.4 612.3,529.1C613.5,528.8 614.7,528.8 615.6,529.2C616.5,529.6 617,530.7 617,532.5C617,533.4 616.9,534.4 616.8,535.4C616.7,536.4 616.4,537.4 615.9,538.3C615.4,539.2 614.9,540 614.2,540.5C613.5,541.1 612.7,541.5 611.7,541.5ZM617.9,636.3C617.4,636.3 616.8,636.2 615.9,636C615.1,635.8 614.4,635.5 613.5,635.1C612.7,634.7 612.1,634.3 611.5,633.7C611,633.2 610.7,632.6 610.7,631.8L610.6,560.9C610.6,560.2 610.9,559.6 611.4,559C611.9,558.5 612.6,558 613.4,557.6C614.2,557.2 614.9,556.9 615.8,556.7C616.6,556.5 617.2,556.4 617.8,556.4L617.9,636.3Z" style="fill:white;fill-rule:nonzero;"/>
                <path d="M628.4,576C628.1,574.8 627.7,573.1 627.3,571.1C626.8,569.1 626.4,567.2 626,565.1C625.6,563 625.4,561.1 625.4,559.2C625.4,557.3 625.7,555.8 626.3,554.8C626.9,553.7 628,553 629.4,552.8C630.8,552.6 632.9,553.3 635.6,554.8C635.8,555.8 636.1,557.4 636.4,559.8C636.7,562.1 637.1,564.6 637.5,567.1C637.9,569.7 638.2,572.2 638.5,574.4C638.8,576.6 638.9,578.3 638.9,579.4C640.7,575.5 642.9,571.8 645.7,568.2C648.5,564.7 651.7,561.6 655.3,558.9C658.9,556.2 662.9,554.1 667.2,552.6C671.5,551.1 676.1,550.2 681,550.2L679.6,558.6C673.3,559.6 667.4,562.3 662,566.6C656.5,570.8 652,576.3 648.4,582.9C644.8,589.6 642.3,597.4 641.1,606.3C639.9,615.3 640.4,625 642.5,635.4L633.2,637.4C633.1,637.3 633,636.1 632.8,633.8C632.6,631.5 632.4,628.5 632.1,624.9C631.8,621.3 631.5,617.2 631.2,612.7C630.9,608.2 630.6,603.7 630.3,599.2C630,594.7 629.7,590.4 629.4,586.3C628.9,582.1 628.6,578.6 628.4,576Z" style="fill:white;fill-rule:nonzero;"/>
                <path d="M687.6,508.3L695.9,507.2C696.3,512.4 696.6,518.6 697,525.6C697.3,532.6 697.6,540.2 697.9,548C698.1,555.9 698.4,563.8 698.5,572C698.7,580.1 698.9,587.8 699,595C699.1,602.2 699.3,608.8 699.5,614.6C699.7,620.5 699.9,625 700.2,628.3C700.2,629.6 700,631 699.5,632.2C699,633.4 698.5,634.3 697.7,634.9C697,635.4 696.3,635.5 695.3,635.1C694.4,634.7 693.6,633.7 692.9,631.9L687.6,508.3Z" style="fill:white;fill-rule:nonzero;"/>
                <path d="M707.2,607.5C708,605.8 709,604.8 710,604.3C711,603.9 712.5,603.8 714.2,603.9C717.7,607.1 721.3,610.2 725,613C728.7,615.9 732.5,618.3 736.6,620.3C740.7,622.3 744.9,624 749.3,625.3C753.7,626.5 758.4,627.2 763.5,627.2C764.4,627.2 765.6,627.2 766.9,627.2C768.1,627.2 769.4,627 770.4,626.7C771.4,626.4 772.4,625.8 773.1,625C773.8,624.2 774.2,623 774.2,621.6C773.8,618.6 772.2,616.1 769.6,613.9C766.9,611.7 763.6,609.6 759.8,607.6C756,605.6 751.8,603.6 747.6,601.4C743.3,599.3 739.3,596.9 735.8,594.2C732.3,591.5 729.4,588.4 727.2,584.9C725,581.4 724.2,577.3 724.7,572.3C724.7,569.5 725.6,567.1 727.4,565C729.2,562.8 731.3,561 733.9,559.5C736.5,558 739.2,556.8 742,556C744.8,555.2 747.3,554.8 749.4,554.8C753.6,554.8 757.9,555.4 762.3,556.7C766.6,557.9 770.6,559.7 774,562.1L770.1,567.7C768.3,566.3 766.2,565.1 763.6,564.4C761,563.7 758.3,563.3 755.5,563.3C752.7,563.3 750,563.5 747.4,563.9C744.7,564.4 742.4,565.1 740.4,566.2C738.4,567.2 736.9,568.5 735.9,569.9C734.9,571.3 734.6,572.9 735.1,574.5C735.1,579.1 736.3,582.9 738.8,585.8C741.3,588.7 744.4,591.2 748.1,593.3C751.8,595.4 755.8,597.3 760.2,599C764.6,600.7 768.6,602.5 772.3,604.7C776,606.8 779.1,609.3 781.6,612.2C784.1,615.1 785.3,618.8 785.3,623.4C785.3,626.3 784.8,628.5 783.9,630.2C783,631.9 781.7,633.2 780.2,634C778.7,634.9 776.9,635.4 774.7,635.8C772.6,636.1 770.4,636.2 768,636.2C762.7,636.2 757.2,635.5 751.5,634.1C745.8,632.7 740.2,630.8 734.9,628.3C729.5,625.8 724.5,622.8 719.7,619.4C714.5,615.5 710.5,611.7 707.2,607.5Z" style="fill:white;fill-rule:nonzero;"/>
            </g>
        </g>
    </g>
    
    <g>
        <g transform="matrix(0.94037,-0.287792,0.287792,0.94037,-68.9482,594.018)">
            <path d="M165.194,675.696L166.5,677.402L167.071,679.538L167.073,679.558L166.764,681.747L165.674,683.598L163.974,684.908L161.846,685.481L161.835,685.481L161.248,685.499L160.674,685.519L160.098,685.541L159.522,685.567L158.945,685.595L158.367,685.626L157.789,685.659L157.209,685.696L156.629,685.735L156.048,685.777L155.467,685.822L154.884,685.869L154.301,685.919L153.717,685.972L153.133,686.028L152.548,686.086L151.962,686.147L151.375,686.211L150.788,686.277L150.201,686.347L149.612,686.419L149.023,686.493L148.434,686.571L147.844,686.651L147.254,686.733L146.662,686.819L146.071,686.907L145.479,686.997L144.886,687.091L144.293,687.187L143.7,687.285L143.106,687.387L142.511,687.491L141.917,687.597L141.321,687.707L140.726,687.819L140.13,687.933L139.534,688.05L138.937,688.17L138.34,688.292L137.743,688.417L137.145,688.545L136.547,688.675L135.949,688.808L135.351,688.943L134.752,689.081L134.153,689.221L133.554,689.364L132.955,689.51L132.355,689.658L131.756,689.809L131.156,689.962L130.556,690.118L129.956,690.276L129.355,690.437L128.755,690.601L128.155,690.767L127.554,690.935L126.953,691.106L126.353,691.279L125.752,691.455L125.151,691.634L124.551,691.814L123.95,691.998L123.349,692.184L122.749,692.372L122.148,692.563L121.548,692.756L120.947,692.952L120.347,693.15L119.746,693.35L119.146,693.553L118.546,693.759L117.946,693.966L117.347,694.177L116.747,694.389L116.148,694.604L115.549,694.822L114.95,695.042L114.351,695.264L113.752,695.489L113.154,695.715L112.556,695.945L111.958,696.177L111.361,696.411L110.764,696.647L110.167,696.886L109.571,697.127L108.975,697.37L108.379,697.616L107.784,697.864L107.189,698.114L106.594,698.367L106,698.622L105.406,698.879L104.813,699.139L104.22,699.401L103.628,699.665L103.036,699.931L102.445,700.2L101.854,700.471L101.263,700.744L100.674,701.019L100.084,701.297L99.496,701.577L98.908,701.859L98.32,702.143L97.733,702.43L97.147,702.719L96.561,703.01L95.976,703.303L95.392,703.598L94.808,703.896L94.225,704.195L93.643,704.497L93.062,704.801L92.481,705.107L91.901,705.416L91.321,705.726L90.743,706.039L90.165,706.354L89.588,706.671L89.012,706.99L88.436,707.311L87.862,707.634L87.288,707.959L86.715,708.287L86.143,708.616L85.572,708.948L85.002,709.282L84.433,709.617L83.865,709.955L83.297,710.295L82.731,710.637L82.165,710.981L81.601,711.327L81.037,711.675L80.475,712.025L79.913,712.378L79.353,712.732L78.793,713.088L78.235,713.446L77.678,713.806L77.122,714.168L76.567,714.533L76.013,714.899L75.46,715.267L74.908,715.637L74.357,716.009L73.808,716.383L73.26,716.759L72.713,717.137L72.167,717.516L71.622,717.898L71.079,718.282L70.537,718.667L69.996,719.055L69.456,719.444L68.918,719.835L68.381,720.229L67.845,720.624L67.31,721.021L66.777,721.419L66.246,721.82L65.715,722.223L65.186,722.627L64.658,723.033L64.132,723.441L63.607,723.851L63.084,724.263L62.562,724.677L62.041,725.092L61.522,725.509L61.005,725.928L60.489,726.349L59.974,726.772L59.461,727.196L58.949,727.622L58.439,728.05L57.931,728.48L57.424,728.911L56.919,729.344L56.415,729.779L55.913,730.216L55.412,730.654L54.913,731.095L54.416,731.537L53.921,731.98L53.427,732.425L52.934,732.873L52.444,733.321L51.955,733.772L51.468,734.224L50.983,734.678L50.499,735.133L50.017,735.59L49.537,736.049L49.059,736.509L48.582,736.972L48.107,737.435L47.634,737.901L47.163,738.368L46.694,738.836L46.227,739.307L45.761,739.779L45.298,740.252L44.836,740.727L44.376,741.204L43.919,741.682L43.463,742.162L43.009,742.643L42.557,743.126L42.107,743.611L41.659,744.097L41.213,744.585L40.769,745.074L40.327,745.565L39.887,746.057L39.449,746.551L39.013,747.046L38.58,747.543L38.148,748.042L37.718,748.542L37.291,749.043L36.866,749.546L36.443,750.05L36.022,750.556L35.603,751.064L35.186,751.573L34.772,752.083L34.36,752.595L33.95,753.108L33.542,753.622L33.136,754.139L32.733,754.656L32.332,755.175L31.934,755.695L31.537,756.217L31.143,756.74L30.751,757.265L30.362,757.791L29.975,758.319L29.59,758.847L29.208,759.378L28.828,759.909L28.45,760.442L28.075,760.976L27.703,761.512L27.332,762.049L26.965,762.587L26.599,763.127L26.236,763.668L25.876,764.211L25.518,764.754L25.163,765.299L24.809,765.847L23.951,766.059L23.739,765.2L24.061,764.63L24.386,764.06L24.714,763.491L25.045,762.923L25.378,762.356L25.714,761.79L26.052,761.226L26.393,760.662L26.737,760.099L27.083,759.538L27.432,758.977L27.784,758.418L28.138,757.86L28.494,757.303L28.854,756.747L29.215,756.193L29.579,755.639L29.946,755.087L30.315,754.536L30.687,753.986L31.061,753.437L31.438,752.89L31.817,752.343L32.198,751.798L32.582,751.254L32.969,750.711L33.357,750.17L33.748,749.63L34.142,749.091L34.538,748.553L34.936,748.017L35.336,747.482L35.739,746.948L36.144,746.416L36.552,745.884L36.962,745.354L37.374,744.826L37.788,744.299L38.204,743.773L38.623,743.248L39.044,742.725L39.467,742.203L39.893,741.683L40.32,741.163L40.75,740.646L41.182,740.129L41.616,739.614L42.052,739.101L42.49,738.589L42.931,738.078L43.374,737.569L43.818,737.061L44.265,736.554L44.714,736.049L45.165,735.546L45.617,735.044L46.072,734.543L46.529,734.044L46.988,733.547L47.449,733.05L47.912,732.556L48.377,732.063L48.844,731.571L49.313,731.081L49.783,730.593L50.256,730.106L50.731,729.62L51.207,729.136L51.685,728.654L52.166,728.173L52.648,727.694L53.132,727.216L53.617,726.741L54.105,726.266L54.594,725.793L55.086,725.322L55.579,724.853L56.073,724.385L56.57,723.919L57.068,723.454L57.568,722.991L58.07,722.53L58.573,722.07L59.079,721.612L59.585,721.156L60.094,720.701L60.604,720.248L61.116,719.797L61.629,719.348L62.145,718.9L62.661,718.454L63.18,718.01L63.7,717.567L64.221,717.126L64.744,716.687L65.269,716.25L65.795,715.815L66.323,715.381L66.852,714.949L67.383,714.519L67.915,714.091L68.449,713.664L68.984,713.239L69.521,712.817L70.059,712.395L70.599,711.976L71.14,711.559L71.682,711.143L72.226,710.73L72.771,710.318L73.318,709.908L73.866,709.5L74.415,709.094L74.966,708.69L75.518,708.288L76.071,707.887L76.626,707.489L77.182,707.092L77.739,706.698L78.298,706.305L78.857,705.914L79.418,705.526L79.981,705.139L80.544,704.754L81.109,704.371L81.675,703.991L82.242,703.612L82.81,703.235L83.379,702.86L83.95,702.487L84.522,702.117L85.094,701.748L85.668,701.381L86.243,701.017L86.82,700.654L87.397,700.293L87.975,699.935L88.555,699.579L89.135,699.224L89.717,698.872L90.299,698.522L90.883,698.174L91.467,697.828L92.053,697.485L92.639,697.143L93.227,696.803L93.815,696.466L94.404,696.131L94.995,695.798L95.586,695.467L96.178,695.139L96.771,694.812L97.365,694.488L97.96,694.166L98.555,693.846L99.152,693.528L99.749,693.213L100.347,692.9L100.946,692.589L101.546,692.28L102.147,691.973L102.748,691.669L103.35,691.367L103.953,691.067L104.557,690.77L105.161,690.475L105.766,690.182L106.372,689.892L106.979,689.604L107.586,689.318L108.194,689.034L108.802,688.753L109.412,688.474L110.022,688.198L110.632,687.923L111.243,687.652L111.855,687.382L112.467,687.115L113.08,686.851L113.694,686.588L114.308,686.329L114.923,686.071L115.538,685.816L116.153,685.564L116.77,685.313L117.386,685.066L118.004,684.821L118.621,684.578L119.24,684.337L119.858,684.1L120.477,683.864L121.097,683.631L121.717,683.401L122.338,683.173L122.958,682.948L123.58,682.725L124.201,682.505L124.823,682.287L125.446,682.072L126.068,681.859L126.691,681.649L127.315,681.442L127.939,681.237L128.563,681.035L129.187,680.835L129.812,680.638L130.437,680.443L131.062,680.251L131.687,680.062L132.313,679.876L132.939,679.692L133.565,679.51L134.191,679.332L134.818,679.156L135.445,678.982L136.071,678.812L136.699,678.644L137.326,678.479L137.953,678.316L138.581,678.156L139.208,677.999L139.836,677.845L140.464,677.694L141.092,677.545L141.72,677.399L142.348,677.255L142.976,677.115L143.604,676.977L144.233,676.842L144.861,676.71L145.489,676.581L146.117,676.455L146.746,676.331L147.374,676.21L148.002,676.092L148.63,675.977L149.258,675.865L149.886,675.756L150.514,675.649L151.142,675.546L151.77,675.445L152.398,675.348L153.026,675.253L153.653,675.161L154.28,675.072L154.908,674.986L155.535,674.903L156.161,674.823L156.788,674.746L157.415,674.672L158.041,674.601L158.667,674.533L159.293,674.468L159.918,674.406L160.544,674.347L161.155,674.292L161.165,674.292L163.347,674.602L165.194,675.696Z" style="fill:white;"/>
        </g>
        <g transform="matrix(0.940129,-0.305328,0.305328,0.940129,-274.058,404.149)">
            <path d="M165.175,675.718L166.474,677.415L167.043,679.539L167.044,679.56L166.737,681.737L165.653,683.579L163.961,684.883L161.844,685.452L161.834,685.453L161.247,685.471L160.672,685.49L160.096,685.513L159.52,685.539L158.943,685.567L158.365,685.598L157.786,685.632L157.207,685.668L156.626,685.707L156.045,685.749L155.464,685.794L154.881,685.842L154.298,685.892L153.714,685.945L153.129,686.001L152.544,686.059L151.958,686.12L151.372,686.184L150.784,686.251L150.197,686.32L149.608,686.392L149.019,686.467L148.43,686.544L147.84,686.625L147.249,686.707L146.658,686.793L146.066,686.881L145.474,686.972L144.881,687.065L144.288,687.161L143.695,687.26L143.101,687.362L142.506,687.466L141.911,687.572L141.316,687.682L140.72,687.794L140.124,687.909L139.528,688.026L138.931,688.146L138.334,688.268L137.737,688.393L137.139,688.521L136.541,688.651L135.943,688.784L135.345,688.919L134.746,689.057L134.147,689.198L133.548,689.341L132.948,689.487L132.349,689.635L131.749,689.786L131.149,689.939L130.549,690.095L129.949,690.254L129.349,690.415L128.748,690.578L128.148,690.744L127.547,690.913L126.946,691.084L126.346,691.257L125.745,691.433L125.144,691.612L124.544,691.793L123.943,691.976L123.342,692.162L122.741,692.351L122.141,692.542L121.54,692.735L120.94,692.931L120.339,693.129L119.739,693.33L119.139,693.533L118.539,693.738L117.939,693.946L117.339,694.157L116.739,694.369L116.14,694.585L115.541,694.802L114.942,695.022L114.343,695.244L113.744,695.469L113.146,695.696L112.548,695.926L111.95,696.158L111.353,696.392L110.756,696.628L110.159,696.867L109.563,697.108L108.966,697.352L108.371,697.598L107.775,697.846L107.18,698.096L106.586,698.349L105.992,698.604L105.398,698.862L104.805,699.121L104.212,699.383L103.619,699.648L103.028,699.914L102.436,700.183L101.845,700.454L101.255,700.727L100.665,701.003L100.076,701.28L99.487,701.56L98.899,701.843L98.312,702.127L97.725,702.414L97.139,702.703L96.553,702.994L95.968,703.287L95.384,703.582L94.8,703.88L94.217,704.18L93.635,704.482L93.053,704.786L92.472,705.092L91.892,705.401L91.313,705.711L90.734,706.024L90.156,706.339L89.58,706.656L89.003,706.975L88.428,707.297L87.853,707.62L87.28,707.945L86.707,708.273L86.135,708.603L85.564,708.934L84.994,709.268L84.424,709.604L83.856,709.942L83.289,710.282L82.722,710.624L82.157,710.968L81.592,711.314L81.029,711.663L80.466,712.013L79.905,712.365L79.344,712.719L78.785,713.076L78.227,713.434L77.669,713.794L77.113,714.156L76.558,714.521L76.004,714.887L75.451,715.255L74.9,715.625L74.349,715.997L73.8,716.372L73.252,716.748L72.705,717.126L72.159,717.505L71.614,717.887L71.071,718.271L70.529,718.657L69.988,719.044L69.448,719.434L68.91,719.825L68.373,720.218L67.837,720.614L67.303,721.011L66.769,721.41L66.238,721.81L65.707,722.213L65.178,722.618L64.651,723.024L64.124,723.432L63.6,723.842L63.076,724.254L62.554,724.668L62.034,725.083L61.515,725.5L60.997,725.919L60.481,726.34L59.967,726.763L59.454,727.188L58.942,727.614L58.432,728.042L57.924,728.472L57.417,728.903L56.911,729.336L56.408,729.772L55.906,730.208L55.405,730.647L54.906,731.087L54.409,731.529L53.914,731.973L53.42,732.418L52.928,732.865L52.437,733.314L51.948,733.765L51.461,734.217L50.976,734.671L50.492,735.126L50.01,735.584L49.53,736.043L49.052,736.503L48.576,736.965L48.101,737.429L47.628,737.895L47.157,738.362L46.688,738.831L46.221,739.301L45.755,739.773L45.292,740.246L44.83,740.722L44.371,741.198L43.913,741.677L43.457,742.157L43.003,742.638L42.551,743.121L42.101,743.606L41.653,744.092L41.207,744.58L40.763,745.069L40.321,745.56L39.882,746.053L39.444,746.547L39.008,747.042L38.574,747.539L38.143,748.038L37.713,748.538L37.286,749.039L36.861,749.542L36.438,750.047L36.017,750.553L35.598,751.06L35.182,751.569L34.767,752.079L34.355,752.591L33.945,753.104L33.538,753.619L33.132,754.135L32.729,754.653L32.328,755.172L31.929,755.693L31.533,756.214L31.139,756.738L30.747,757.262L30.358,757.788L29.971,758.316L29.586,758.845L29.204,759.375L28.824,759.907L28.447,760.44L28.072,760.974L27.699,761.51L27.329,762.047L26.961,762.585L26.596,763.125L26.233,763.666L25.873,764.209L25.515,764.753L25.16,765.298L24.807,765.845L23.953,766.056L23.742,765.202L24.064,764.632L24.389,764.062L24.717,763.493L25.048,762.925L25.381,762.358L25.717,761.792L26.055,761.228L26.397,760.664L26.74,760.102L27.087,759.54L27.436,758.98L27.787,758.421L28.141,757.863L28.498,757.306L28.857,756.75L29.219,756.195L29.583,755.642L29.95,755.09L30.319,754.539L30.691,753.989L31.065,753.44L31.442,752.893L31.821,752.346L32.203,751.801L32.587,751.258L32.973,750.715L33.362,750.174L33.753,749.634L34.147,749.095L34.543,748.557L34.941,748.021L35.341,747.486L35.744,746.952L36.149,746.42L36.557,745.889L36.967,745.359L37.379,744.83L37.793,744.303L38.21,743.777L38.629,743.253L39.05,742.73L39.473,742.208L39.898,741.687L40.326,741.168L40.756,740.651L41.188,740.134L41.622,739.62L42.058,739.106L42.496,738.594L42.937,738.083L43.38,737.574L43.824,737.066L44.271,736.56L44.72,736.055L45.171,735.552L45.624,735.05L46.079,734.549L46.536,734.05L46.995,733.553L47.456,733.057L47.919,732.562L48.384,732.069L48.851,731.578L49.319,731.088L49.79,730.6L50.263,730.113L50.738,729.627L51.214,729.144L51.692,728.661L52.173,728.181L52.655,727.702L53.139,727.224L53.625,726.748L54.112,726.274L54.602,725.801L55.093,725.33L55.586,724.861L56.081,724.393L56.577,723.927L57.076,723.462L57.576,723L58.077,722.538L58.581,722.079L59.086,721.621L59.593,721.165L60.102,720.71L60.612,720.258L61.124,719.806L61.637,719.357L62.152,718.909L62.669,718.464L63.188,718.019L63.708,717.577L64.229,717.136L64.752,716.697L65.277,716.26L65.803,715.825L66.331,715.391L66.86,714.959L67.391,714.529L67.923,714.101L68.457,713.675L68.992,713.25L69.529,712.828L70.067,712.407L70.607,711.988L71.148,711.57L71.69,711.155L72.234,710.741L72.78,710.33L73.326,709.92L73.874,709.512L74.424,709.106L74.974,708.702L75.526,708.3L76.08,707.9L76.634,707.501L77.19,707.105L77.747,706.71L78.306,706.318L78.866,705.927L79.427,705.539L79.989,705.152L80.552,704.767L81.117,704.385L81.683,704.004L82.25,703.625L82.818,703.249L83.388,702.874L83.958,702.501L84.53,702.131L85.103,701.762L85.677,701.395L86.252,701.031L86.828,700.668L87.405,700.308L87.984,699.95L88.563,699.594L89.144,699.239L89.725,698.887L90.308,698.537L90.891,698.189L91.476,697.844L92.061,697.5L92.648,697.159L93.235,696.819L93.823,696.482L94.413,696.147L95.003,695.814L95.594,695.483L96.186,695.155L96.779,694.829L97.373,694.504L97.968,694.182L98.564,693.863L99.16,693.545L99.758,693.23L100.356,692.917L100.955,692.606L101.555,692.297L102.155,691.991L102.756,691.687L103.359,691.385L103.961,691.085L104.565,690.788L105.169,690.493L105.775,690.201L106.38,689.91L106.987,689.622L107.594,689.336L108.202,689.053L108.81,688.772L109.42,688.493L110.03,688.217L110.64,687.943L111.251,687.671L111.863,687.402L112.475,687.135L113.088,686.87L113.702,686.608L114.316,686.349L114.93,686.091L115.545,685.836L116.161,685.584L116.777,685.334L117.394,685.086L118.011,684.841L118.629,684.599L119.247,684.358L119.866,684.121L120.485,683.886L121.104,683.653L121.724,683.423L122.345,683.195L122.966,682.97L123.587,682.747L124.208,682.527L124.83,682.309L125.453,682.094L126.075,681.882L126.698,681.672L127.322,681.464L127.945,681.26L128.569,681.057L129.194,680.858L129.818,680.661L130.443,680.466L131.068,680.275L131.693,680.086L132.319,679.899L132.945,679.715L133.571,679.534L134.197,679.355L134.824,679.18L135.45,679.006L136.077,678.836L136.704,678.668L137.331,678.503L137.959,678.341L138.586,678.181L139.214,678.024L139.841,677.87L140.469,677.718L141.097,677.57L141.725,677.424L142.353,677.281L142.981,677.14L143.609,677.003L144.237,676.868L144.865,676.736L145.494,676.607L146.122,676.481L146.75,676.357L147.378,676.236L148.006,676.119L148.634,676.004L149.262,675.892L149.89,675.782L150.518,675.676L151.146,675.573L151.774,675.472L152.401,675.375L153.029,675.28L153.656,675.188L154.283,675.1L154.91,675.014L155.537,674.931L156.164,674.851L156.791,674.774L157.417,674.7L158.043,674.629L158.669,674.561L159.295,674.496L159.92,674.435L160.545,674.376L161.157,674.321L161.167,674.32L163.338,674.629L165.175,675.718Z" style="fill:white;"/>
        </g>
        <g transform="matrix(1.31385,-0.268264,0.268264,1.31385,-289.759,-91.0505)">
            <path d="M164.216,676.816L165.174,678.069L165.592,679.635L165.592,679.65L165.364,681.255L164.561,682.612L163.311,683.571L161.747,683.989L161.74,683.99L161.445,684.001L161.154,684.012L160.864,684.025L160.573,684.037L160.282,684.051L159.991,684.065L159.7,684.08L159.408,684.096L159.117,684.112L158.825,684.129L158.533,684.147L158.24,684.165L157.948,684.185L157.655,684.205L157.363,684.225L157.07,684.246L156.777,684.268L156.483,684.291L156.19,684.314L155.896,684.338L155.602,684.363L155.308,684.389L155.014,684.415L154.72,684.442L154.426,684.469L154.131,684.497L153.836,684.526L153.541,684.556L153.246,684.586L152.951,684.617L152.656,684.649L152.36,684.681L152.065,684.714L151.769,684.748L151.473,684.782L151.177,684.817L150.881,684.853L150.584,684.889L150.288,684.926L149.991,684.964L149.695,685.003L149.398,685.042L149.101,685.082L148.804,685.122L148.506,685.164L148.209,685.205L147.911,685.248L147.614,685.291L147.316,685.335L147.018,685.38L146.72,685.425L146.422,685.471L146.124,685.518L145.826,685.565L145.527,685.613L145.229,685.661L144.93,685.711L144.632,685.761L144.333,685.811L144.034,685.863L143.735,685.915L143.436,685.967L143.137,686.021L142.837,686.075L142.538,686.129L142.238,686.185L141.939,686.241L141.639,686.297L141.34,686.355L141.04,686.413L140.74,686.471L140.44,686.53L140.14,686.59L139.84,686.651L139.54,686.712L139.239,686.774L138.939,686.837L138.639,686.9L138.338,686.964L138.038,687.028L137.737,687.094L137.436,687.159L137.136,687.226L136.835,687.293L136.534,687.361L136.233,687.429L135.932,687.498L135.631,687.568L135.33,687.639L135.029,687.71L134.728,687.781L134.427,687.854L134.126,687.927L133.824,688L133.523,688.075L133.222,688.15L132.92,688.225L132.619,688.301L132.318,688.378L132.016,688.456L131.715,688.534L131.413,688.613L131.112,688.692L130.81,688.772L130.508,688.853L130.207,688.934L129.905,689.016L129.604,689.099L129.302,689.182L129,689.266L128.699,689.35L128.397,689.435L128.095,689.521L127.793,689.607L127.492,689.694L127.19,689.782L126.888,689.87L126.587,689.959L126.285,690.049L125.983,690.139L125.681,690.23L125.38,690.321L125.078,690.413L124.776,690.506L124.475,690.599L124.173,690.693L123.871,690.787L123.57,690.882L123.268,690.978L122.967,691.075L122.665,691.172L122.363,691.269L122.062,691.367L121.76,691.466L121.459,691.566L121.157,691.666L120.856,691.766L120.555,691.868L120.253,691.97L119.952,692.072L119.651,692.175L119.35,692.279L119.048,692.383L118.747,692.488L118.446,692.594L118.145,692.7L117.844,692.807L117.543,692.914L117.242,693.022L116.942,693.13L116.641,693.24L116.34,693.349L116.039,693.46L115.739,693.571L115.438,693.682L115.138,693.794L114.837,693.907L114.537,694.021L114.237,694.135L113.937,694.249L113.636,694.364L113.336,694.48L113.036,694.596L112.737,694.713L112.437,694.831L112.137,694.949L111.837,695.068L111.538,695.187L111.238,695.307L110.939,695.427L110.64,695.548L110.34,695.67L110.041,695.792L109.742,695.915L109.443,696.038L109.144,696.162L108.846,696.287L108.547,696.412L108.248,696.538L107.95,696.664L107.652,696.791L107.353,696.918L107.055,697.046L106.757,697.175L106.459,697.304L106.162,697.434L105.864,697.564L105.566,697.695L105.269,697.827L104.972,697.959L104.674,698.091L104.377,698.224L104.081,698.358L103.784,698.493L103.487,698.627L103.19,698.763L102.894,698.899L102.598,699.036L102.302,699.173L102.006,699.31L101.71,699.449L101.414,699.588L101.118,699.727L100.823,699.867L100.528,700.007L100.233,700.149L99.938,700.29L99.643,700.432L99.348,700.575L99.053,700.719L98.759,700.862L98.465,701.007L98.171,701.152L97.877,701.297L97.583,701.443L97.29,701.59L96.996,701.737L96.703,701.885L96.41,702.033L96.117,702.182L95.824,702.332L95.532,702.482L95.239,702.632L94.947,702.783L94.655,702.935L94.363,703.087L94.071,703.239L93.78,703.393L93.489,703.546L93.197,703.701L92.906,703.855L92.616,704.011L92.325,704.167L92.035,704.323L91.745,704.48L91.455,704.638L91.165,704.796L90.875,704.954L90.586,705.113L90.297,705.273L90.008,705.433L89.719,705.594L89.43,705.755L89.142,705.917L88.854,706.079L88.566,706.242L88.278,706.405L87.991,706.569L87.704,706.734L87.417,706.898L87.13,707.064L86.843,707.23L86.557,707.396L86.271,707.563L85.985,707.731L85.699,707.899L85.414,708.068L85.128,708.237L84.843,708.406L84.559,708.576L84.274,708.747L83.99,708.918L83.706,709.09L83.422,709.262L83.138,709.435L82.855,709.608L82.572,709.782L82.289,709.956L82.007,710.13L81.724,710.306L81.442,710.481L81.16,710.658L80.879,710.834L80.598,711.012L80.317,711.19L80.036,711.368L79.755,711.547L79.475,711.726L79.195,711.906L78.915,712.086L78.636,712.267L78.357,712.448L78.078,712.63L77.799,712.812L77.521,712.995L77.243,713.178L76.965,713.362L76.688,713.546L76.41,713.731L76.133,713.916L75.857,714.102L75.58,714.288L75.304,714.475L75.029,714.662L74.753,714.85L74.478,715.038L74.203,715.226L73.928,715.416L73.654,715.605L73.38,715.795L73.106,715.986L72.833,716.177L72.56,716.369L72.287,716.561L72.015,716.753L71.743,716.946L71.471,717.14L71.199,717.334L70.928,717.528L70.657,717.723L70.386,717.918L70.116,718.114L69.846,718.311L69.577,718.507L69.307,718.705L69.038,718.902L68.77,719.101L68.501,719.299L68.233,719.499L67.966,719.698L67.698,719.898L67.432,720.099L67.165,720.3L66.899,720.501L66.633,720.703L66.367,720.906L66.102,721.109L65.837,721.312L65.572,721.516L65.308,721.72L65.044,721.925L64.781,722.13L64.517,722.336L64.255,722.542L63.992,722.748L63.73,722.956L63.468,723.163L63.207,723.371L62.946,723.579L62.685,723.788L62.425,723.997L62.165,724.207L61.906,724.417L61.646,724.628L61.388,724.839L61.129,725.051L60.871,725.263L60.613,725.475L60.356,725.688L60.099,725.901L59.843,726.115L59.587,726.329L59.331,726.544L59.076,726.759L58.821,726.975L58.566,727.19L58.312,727.407L58.058,727.624L57.805,727.841L57.552,728.059L57.299,728.277L57.047,728.495L56.795,728.715L56.544,728.934L56.293,729.154L56.042,729.374L55.792,729.595L55.542,729.816L55.293,730.038L55.044,730.26L54.795,730.482L54.547,730.705L54.299,730.928L54.052,731.152L53.805,731.376L53.559,731.601L53.313,731.826L53.067,732.051L52.822,732.277L52.577,732.504L52.333,732.73L52.089,732.957L51.846,733.185L51.603,733.413L51.36,733.641L51.118,733.87L50.876,734.099L50.635,734.329L50.394,734.559L50.154,734.789L49.914,735.02L49.675,735.252L49.436,735.483L49.197,735.715L48.959,735.948L48.721,736.181L48.484,736.414L48.247,736.648L48.011,736.882L47.775,737.116L47.54,737.351L47.305,737.587L47.071,737.823L46.837,738.059L46.603,738.295L46.37,738.532L46.138,738.769L45.906,739.007L45.674,739.245L45.443,739.484L45.212,739.723L44.982,739.962L44.753,740.202L44.523,740.442L44.295,740.683L44.067,740.923L43.839,741.165L43.612,741.406L43.385,741.649L43.159,741.891L42.933,742.134L42.708,742.377L42.483,742.621L42.259,742.865L42.035,743.109L41.812,743.354L41.589,743.599L41.367,743.845L41.145,744.091L40.924,744.337L40.703,744.584L40.483,744.831L40.263,745.078L40.044,745.326L39.825,745.574L39.607,745.823L39.389,746.072L39.172,746.321L38.956,746.571L38.74,746.821L38.524,747.071L38.309,747.322L38.095,747.573L37.881,747.825L37.667,748.077L37.455,748.329L37.242,748.582L37.03,748.835L36.819,749.088L36.608,749.342L36.398,749.596L36.189,749.851L35.98,750.106L35.771,750.361L35.563,750.617L35.356,750.873L35.149,751.129L34.942,751.386L34.737,751.643L34.531,751.9L34.327,752.158L34.123,752.416L33.919,752.674L33.716,752.933L33.514,753.192L33.312,753.452L33.111,753.712L32.91,753.972L32.71,754.233L32.51,754.494L32.311,754.755L32.113,755.017L31.915,755.279L31.718,755.541L31.521,755.804L31.325,756.067L31.13,756.33L30.935,756.594L30.74,756.858L30.547,757.122L30.353,757.387L30.161,757.652L29.969,757.917L29.778,758.183L29.587,758.449L29.397,758.716L29.207,758.983L29.018,759.25L28.83,759.517L28.642,759.785L28.455,760.053L28.268,760.322L28.082,760.59L27.897,760.859L27.712,761.129L27.528,761.399L27.345,761.669L27.162,761.939L26.979,762.21L26.798,762.481L26.617,762.753L26.436,763.024L26.257,763.296L26.077,763.569L25.899,763.842L25.721,764.115L25.544,764.388L25.367,764.662L25.191,764.936L25.016,765.21L24.841,765.485L24.667,765.76L24.038,765.916L23.882,765.287L24.044,765.003L24.208,764.719L24.372,764.436L24.537,764.153L24.703,763.87L24.869,763.587L25.036,763.305L25.203,763.022L25.372,762.741L25.541,762.459L25.71,762.178L25.88,761.897L26.051,761.616L26.223,761.335L26.395,761.055L26.568,760.775L26.741,760.496L26.915,760.216L27.09,759.937L27.266,759.658L27.442,759.38L27.618,759.102L27.796,758.824L27.974,758.546L28.152,758.269L28.331,757.992L28.511,757.715L28.692,757.439L28.873,757.162L29.055,756.887L29.237,756.611L29.42,756.336L29.604,756.061L29.788,755.786L29.973,755.512L30.158,755.238L30.344,754.964L30.531,754.69L30.718,754.417L30.906,754.144L31.095,753.872L31.284,753.6L31.474,753.328L31.664,753.056L31.855,752.785L32.047,752.514L32.239,752.243L32.432,751.973L32.625,751.703L32.819,751.433L33.014,751.163L33.209,750.894L33.405,750.626L33.601,750.357L33.798,750.089L33.996,749.821L34.194,749.554L34.392,749.286L34.592,749.019L34.792,748.753L34.992,748.487L35.193,748.221L35.395,747.955L35.597,747.69L35.8,747.425L36.003,747.161L36.207,746.896L36.411,746.632L36.617,746.369L36.822,746.106L37.028,745.843L37.235,745.58L37.442,745.318L37.65,745.056L37.859,744.794L38.068,744.533L38.277,744.272L38.487,744.012L38.698,743.751L38.909,743.492L39.121,743.232L39.333,742.973L39.546,742.714L39.759,742.456L39.973,742.197L40.188,741.94L40.403,741.682L40.618,741.425L40.834,741.168L41.051,740.912L41.268,740.656L41.486,740.4L41.704,740.145L41.923,739.89L42.142,739.635L42.362,739.381L42.582,739.127L42.803,738.874L43.025,738.621L43.246,738.368L43.469,738.115L43.692,737.863L43.915,737.612L44.139,737.36L44.364,737.109L44.589,736.859L44.814,736.608L45.04,736.358L45.267,736.109L45.494,735.86L45.721,735.611L45.949,735.363L46.178,735.115L46.407,734.867L46.636,734.62L46.867,734.373L47.097,734.126L47.328,733.88L47.56,733.634L47.792,733.389L48.024,733.144L48.257,732.899L48.49,732.655L48.724,732.411L48.959,732.168L49.194,731.925L49.429,731.682L49.665,731.44L49.901,731.198L50.138,730.956L50.375,730.715L50.613,730.474L50.851,730.234L51.09,729.994L51.329,729.755L51.569,729.515L51.809,729.277L52.049,729.038L52.29,728.8L52.532,728.563L52.774,728.326L53.016,728.089L53.259,727.852L53.502,727.616L53.746,727.381L53.99,727.146L54.235,726.911L54.48,726.677L54.726,726.443L54.972,726.209L55.218,725.976L55.465,725.743L55.712,725.511L55.96,725.279L56.208,725.047L56.457,724.816L56.706,724.586L56.955,724.355L57.205,724.126L57.456,723.896L57.706,723.667L57.958,723.439L58.209,723.21L58.461,722.983L58.714,722.755L58.967,722.528L59.22,722.302L59.474,722.076L59.728,721.85L59.982,721.625L60.237,721.4L60.493,721.176L60.748,720.952L61.005,720.729L61.261,720.506L61.518,720.283L61.775,720.061L62.033,719.839L62.291,719.618L62.55,719.397L62.809,719.176L63.068,718.956L63.328,718.737L63.588,718.518L63.849,718.299L64.11,718.081L64.371,717.863L64.633,717.646L64.895,717.429L65.158,717.212L65.421,716.996L65.684,716.78L65.947,716.565L66.211,716.351L66.476,716.136L66.741,715.923L67.006,715.709L67.271,715.496L67.537,715.284L67.803,715.072L68.07,714.86L68.337,714.649L68.604,714.439L68.872,714.229L69.14,714.019L69.409,713.81L69.677,713.601L69.946,713.392L70.216,713.185L70.486,712.977L70.756,712.77L71.027,712.564L71.297,712.358L71.569,712.152L71.84,711.947L72.112,711.742L72.384,711.538L72.657,711.335L72.93,711.131L73.203,710.929L73.477,710.726L73.751,710.525L74.025,710.323L74.3,710.123L74.575,709.922L74.85,709.722L75.126,709.523L75.402,709.324L75.678,709.126L75.955,708.928L76.231,708.73L76.509,708.533L76.786,708.337L77.064,708.141L77.342,707.945L77.621,707.75L77.9,707.555L78.179,707.361L78.458,707.168L78.738,706.975L79.018,706.782L79.298,706.59L79.579,706.398L79.86,706.207L80.141,706.016L80.423,705.826L80.705,705.637L80.987,705.448L81.269,705.259L81.552,705.071L81.835,704.883L82.118,704.696L82.402,704.509L82.686,704.323L82.97,704.137L83.254,703.952L83.539,703.768L83.824,703.584L84.109,703.4L84.395,703.217L84.681,703.034L84.967,702.852L85.253,702.671L85.54,702.489L85.827,702.309L86.114,702.129L86.402,701.949L86.689,701.77L86.977,701.592L87.266,701.414L87.554,701.236L87.843,701.059L88.132,700.883L88.421,700.707L88.711,700.532L89.001,700.357L89.291,700.182L89.581,700.009L89.872,699.835L90.163,699.663L90.454,699.49L90.745,699.319L91.036,699.147L91.328,698.977L91.62,698.807L91.913,698.637L92.205,698.468L92.498,698.3L92.791,698.132L93.084,697.964L93.377,697.797L93.671,697.631L93.965,697.465L94.259,697.3L94.554,697.135L94.848,696.971L95.143,696.807L95.438,696.644L95.733,696.481L96.029,696.319L96.324,696.158L96.62,695.997L96.916,695.836L97.213,695.677L97.509,695.517L97.806,695.359L98.103,695.2L98.4,695.043L98.698,694.886L98.995,694.729L99.293,694.573L99.591,694.418L99.889,694.263L100.187,694.108L100.486,693.955L100.785,693.801L101.084,693.649L101.383,693.497L101.682,693.345L101.982,693.194L102.281,693.044L102.581,692.894L102.881,692.745L103.182,692.596L103.482,692.448L103.783,692.3L104.084,692.153L104.385,692.007L104.686,691.861L104.987,691.716L105.289,691.571L105.59,691.427L105.892,691.283L106.194,691.14L106.496,690.998L106.799,690.856L107.101,690.715L107.404,690.574L107.707,690.434L108.01,690.295L108.313,690.156L108.616,690.018L108.92,689.88L109.223,689.743L109.527,689.606L109.831,689.47L110.135,689.335L110.439,689.2L110.744,689.066L111.048,688.932L111.353,688.799L111.658,688.666L111.962,688.535L112.268,688.403L112.573,688.273L112.878,688.143L113.184,688.013L113.489,687.884L113.795,687.756L114.101,687.628L114.407,687.501L114.713,687.375L115.019,687.249L115.326,687.124L115.632,686.999L115.939,686.875L116.246,686.752L116.552,686.629L116.859,686.506L117.167,686.385L117.474,686.264L117.781,686.143L118.089,686.024L118.396,685.905L118.704,685.786L119.012,685.668L119.319,685.551L119.627,685.434L119.935,685.318L120.244,685.202L120.552,685.088L120.86,684.973L121.169,684.86L121.477,684.747L121.786,684.634L122.095,684.523L122.404,684.412L122.713,684.301L123.022,684.191L123.331,684.082L123.64,683.974L123.949,683.866L124.259,683.758L124.568,683.652L124.878,683.545L125.187,683.44L125.497,683.335L125.807,683.231L126.117,683.128L126.427,683.025L126.737,682.922L127.047,682.821L127.357,682.72L127.667,682.62L127.977,682.52L128.288,682.421L128.598,682.323L128.908,682.225L129.219,682.128L129.529,682.031L129.84,681.936L130.151,681.84L130.461,681.746L130.772,681.652L131.083,681.559L131.394,681.466L131.705,681.374L132.016,681.283L132.327,681.193L132.638,681.103L132.949,681.014L133.26,680.925L133.572,680.837L133.883,680.75L134.194,680.663L134.505,680.577L134.817,680.492L135.128,680.407L135.439,680.323L135.751,680.24L136.062,680.158L136.374,680.076L136.685,679.994L136.997,679.914L137.308,679.834L137.62,679.755L137.932,679.676L138.243,679.598L138.555,679.521L138.867,679.445L139.178,679.369L139.49,679.293L139.802,679.219L140.113,679.145L140.425,679.072L140.737,679L141.049,678.928L141.36,678.857L141.672,678.786L141.984,678.717L142.296,678.648L142.607,678.579L142.919,678.512L143.231,678.445L143.542,678.379L143.854,678.313L144.166,678.248L144.478,678.184L144.789,678.121L145.101,678.058L145.413,677.996L145.724,677.934L146.036,677.874L146.348,677.814L146.659,677.755L146.971,677.696L147.282,677.638L147.594,677.581L147.905,677.525L148.217,677.469L148.528,677.414L148.84,677.36L149.151,677.306L149.462,677.253L149.774,677.201L150.085,677.15L150.396,677.099L150.707,677.049L151.019,677L151.33,676.951L151.641,676.903L151.952,676.856L152.263,676.81L152.574,676.764L152.885,676.719L153.196,676.675L153.506,676.631L153.817,676.589L154.128,676.547L154.438,676.505L154.749,676.465L155.06,676.425L155.37,676.386L155.68,676.347L155.991,676.31L156.301,676.273L156.611,676.237L156.921,676.201L157.232,676.166L157.542,676.132L157.851,676.099L158.161,676.067L158.471,676.035L158.781,676.004L159.091,675.974L159.4,675.944L159.71,675.916L160.019,675.888L160.328,675.86L160.638,675.834L160.947,675.808L161.251,675.784L161.258,675.783L162.861,676.013L164.216,676.816Z" style="fill:white;"/>
        </g>
    </g>
</svg>

