<?xml version="1.0" encoding="utf-8"?>
<!-- Generator: Adobe Illustrator 18.1.0, SVG Export Plug-In . SVG Version: 6.00 Build 0)  -->
<!DOCTYPE svg PUBLIC "-//W3C//DTD SVG 1.1//EN" "http://www.w3.org/Graphics/SVG/1.1/DTD/svg11.dtd">
<svg version="1.1" id="Layer_1" xmlns="http://www.w3.org/2000/svg" xmlns:xlink="http://www.w3.org/1999/xlink" x="0px" y="0px"
	 viewBox="0 0 707.6 217.3" enable-background="new 0 0 707.6 217.3" xml:space="preserve">
<g>
	<g>
		<path fill="#F79421" d="M51.5,31.6h23.9v110.5c-12.2,2.3-21.2,3.3-31,3.3C15.2,145.4,0,132.2,0,106.9c0-24.3,16.1-40.1,41.1-40.1
			c3.9,0,6.8,0.3,10.4,1.2L51.5,31.6L51.5,31.6z M51.5,87.2c-2.8-0.9-5.1-1.2-8.1-1.2c-12.1,0-19.1,7.4-19.1,20.5
			c0,12.7,6.7,19.7,18.9,19.7c2.6,0,4.8-0.2,8.2-0.6L51.5,87.2z"/>
		<path fill="#F79421" d="M113.3,68.5v55.3c0,19.1-1.4,28.2-5.6,36.1c-3.9,7.6-9,12.4-19.5,17.7L66,167.1c10.5-5,15.7-9.3,18.9-16
			c3.4-6.8,4.5-14.7,4.5-35.5V68.5H113.3z M89.4,31.7h23.9v24.5H89.4V31.7z"/>
		<path fill="#F79421" d="M127.7,73.9c10.5-5,20.6-7.1,31.6-7.1c12.2,0,20.3,3.3,23.9,9.6c2,3.6,2.6,8.2,2.6,18.1V143
			c-10.7,1.6-24.2,2.6-34.1,2.6c-20,0-29-7-29-22.5c0-16.7,11.9-24.5,41.2-27V91c0-4.3-2.2-5.9-8.2-5.9c-8.8,0-18.8,2.5-28.1,7.3
			L127.7,73.9L127.7,73.9z M165.1,111.9c-15.8,1.6-20.9,4-20.9,10.2c0,4.6,2.9,6.8,9.5,6.8c3.6,0,6.8-0.3,11.5-1.1L165.1,111.9
			L165.1,111.9z"/>
		<path fill="#F79421" d="M197.5,72.2c14.1-3.7,25.7-5.4,37.5-5.4c12.2,0,21.1,2.8,26.4,8.2c5,5.1,6.5,10.7,6.5,22.6v46.8H244V98.6
			c0-9.1-3.1-12.6-11.6-12.6c-3.3,0-6.2,0.3-11,1.7v56.7h-23.9L197.5,72.2L197.5,72.2z"/>
		<path fill="#F79421" d="M277.1,157.5c8.4,4.3,16.7,6.4,25.6,6.4c15.7,0,22.3-6.4,22.3-21.5c0-0.2,0-0.3,0-0.5
			c-4.6,2.3-9.3,3.3-15.5,3.3c-20.9,0-34.3-13.8-34.3-35.7c0-27.1,19.7-42.5,54.6-42.5c10.2,0,19.7,1.1,31.2,3.4l-8.2,17.2
			c-6.4-1.2-0.5-0.2-5.3-0.6v2.5l0.3,10.1l0.2,13c0.2,3.3,0.2,6.5,0.3,9.8c0,2.9,0,4.3,0,6.5c0,20.5-1.7,30.1-6.8,38
			c-7.4,11.6-20.3,17.4-38.6,17.4c-9.3,0-17.4-1.4-25.7-4.7L277.1,157.5L277.1,157.5z M324.6,86.2c-0.3,0-0.6,0-0.8,0h-1.7
			c-4.6-0.2-10.1,1.1-13.8,3.4c-5.7,3.3-8.7,9.1-8.7,17.5c0,11.9,5.9,18.8,16.4,18.8c3.3,0,5.9-0.6,9-1.6v-1.7v-6.5
			c0-2.8-0.2-5.9-0.2-9.1l-0.2-11l-0.2-7.9L324.6,86.2L324.6,86.2z"/>
		<path fill="#F79421" d="M398.1,66.5c23.9,0,38.4,15,38.4,39.4c0,25-15.2,40.6-39.4,40.6c-23.9,0-38.6-15-38.6-39.2
			C358.5,82.1,373.7,66.5,398.1,66.5z M397.6,127.2c9.1,0,14.6-7.6,14.6-20.8c0-13-5.3-20.8-14.4-20.8c-9.5,0-14.9,7.6-14.9,20.8
			C382.9,119.6,388.3,127.2,397.6,127.2z"/>
	</g>
</g>
<g>
	<path fill="#F79421" d="M487.3,207.5c-2.6,0.3-5.1,0.1-7.7-0.6c-2.6-0.7-4.8-1.6-6.8-2.9s-3.6-2.9-4.7-4.7s-1.5-3.8-1.1-5.9
		c1.9,0,3.6,0.4,5.1,1.1c1.5,0.8,2.9,1.6,4.4,2.6c1.5,0.9,3,1.8,4.6,2.6c1.6,0.8,3.6,1.1,5.8,1.1c5.5,0,10.1-1.2,13.9-3.6
		c3.8-2.4,6.8-5.5,9.1-9.4c2.3-3.9,3.9-8.3,4.9-13.2c1-4.9,1.5-9.9,1.5-15c0-1.3-0.1-3.4-0.2-6.3s-0.3-6.1-0.5-9.6
		c-0.2-3.6-0.4-7.3-0.6-11.3c-0.2-3.9-0.5-7.7-0.7-11.3c-0.2-3.6-0.5-6.8-0.7-9.6c-0.2-2.9-0.5-4.9-0.6-6.3c-0.8,1.9-1.7,4.2-2.9,7
		c-1.1,2.8-2.4,5.7-3.9,8.7c-1.5,3-3.1,6.1-5,9.1s-3.9,5.7-6.2,8.1c-2.3,2.4-4.8,4.3-7.5,5.8s-5.6,2.2-8.6,2.2
		c-1.6,0-2.9-0.8-3.8-2.4c-0.9-1.6-1.6-3.5-2.1-5.6c-0.5-2.1-0.8-4.2-0.9-6.2c-0.1-2-0.2-3.5-0.2-4.3c-0.5-6.1-0.5-12.1,0-18
		c0.5-5.9,1.4-11.5,2.9-16.7c1.5-5.2,3.4-9.8,5.8-13.9c2.4-4.1,5.4-7.3,8.9-9.6c3.5-2.3,7.5-3.7,12-4c4.5-0.3,9.6,0.7,15.2,3.1
		c1.5-0.2,2.5,0.7,3.1,2.6c0.5,1.9,0.8,4.2,0.7,7c0,2.8-0.2,5.7-0.5,8.7c-0.3,3-0.5,5.6-0.6,7.7c0,4.9,0.2,9.9,0.6,14.8
		c0.4,4.9,0.8,9.9,1.4,14.8c0.5,4.9,1,9.8,1.4,14.7c0.4,4.9,0.6,9.8,0.6,14.8c0,5.7-0.6,11.7-1.7,18c-1.1,6.3-3.1,12.2-5.9,17.5
		c-2.8,5.4-6.5,9.8-11.1,13.3C499.9,205.7,494.1,207.5,487.3,207.5z M478.6,124c0,1,0,2.1,0.1,3.5c0,1.4,0.2,2.7,0.6,4
		c0.3,1.3,0.9,2.4,1.6,3.3c0.7,0.9,1.7,1.4,3.1,1.4c2.7,0,5.1-1.2,7.4-3.6s4.4-5.5,6.3-9.3c1.9-3.8,3.7-7.9,5.3-12.5s2.9-9,4-13.4
		c1.1-4.4,1.9-8.3,2.5-11.9s0.9-6.2,0.9-7.9c-5.8-2.1-10.7-2-14.8,0.1c-4.1,2.2-7.4,5.6-9.9,10.3c-2.5,4.7-4.3,10.3-5.5,16.7
		S478.4,117.6,478.6,124z"/>
	<path fill="#F79421" d="M535.3,51.9c-0.7,0-1.4-0.2-2.3-0.7c-0.9-0.5-1.6-1.1-2.2-1.8c-0.6-0.7-1-1.5-1.3-2.3
		c-0.2-0.8-0.1-1.5,0.5-2.1c0.4-1.1,1.1-2.2,2.3-3.1c1.1-0.9,2.3-1.6,3.6-1.9c1.2-0.3,2.3-0.3,3.2,0.1c0.9,0.4,1.4,1.5,1.4,3.2
		c0,0.9-0.1,1.8-0.2,2.8s-0.4,1.9-0.9,2.8s-1,1.6-1.6,2.1C537.1,51.6,536.3,51.9,535.3,51.9z M541.3,143.7c-0.5,0-1.1-0.1-1.9-0.3
		c-0.8-0.2-1.5-0.5-2.3-0.9c-0.8-0.4-1.4-0.8-1.9-1.4c-0.5-0.5-0.8-1.1-0.8-1.8l-0.1-68.6c0-0.7,0.3-1.3,0.8-1.8
		c0.5-0.5,1.2-1,1.9-1.4c0.8-0.4,1.5-0.7,2.3-0.9c0.8-0.2,1.4-0.3,1.9-0.3L541.3,143.7z"/>
	<path fill="#F79421" d="M551.5,85.3c-0.3-1.2-0.7-2.8-1.1-4.7c-0.5-1.9-0.9-3.8-1.3-5.8c-0.4-2-0.6-3.9-0.6-5.7
		c0-1.8,0.3-3.3,0.9-4.3c0.6-1.1,1.6-1.7,3-1.9s3.4,0.5,6,1.9c0.2,1,0.5,2.5,0.8,4.8c0.3,2.2,0.7,4.6,1.1,7.1c0.4,2.5,0.7,4.9,1,7.1
		c0.3,2.2,0.4,3.8,0.4,4.8c1.7-3.8,3.9-7.4,6.6-10.8c2.7-3.4,5.8-6.4,9.3-9c3.5-2.6,7.4-4.6,11.5-6.1c4.2-1.5,8.6-2.3,13.4-2.3
		l-1.4,8.1c-6.1,1-11.8,3.6-17,7.7c-5.3,4.1-9.7,9.4-13.2,15.8c-3.5,6.5-5.9,14-7.1,22.7c-1.2,8.7-0.7,18.1,1.4,28.2l-9,1.9
		c-0.1-0.1-0.2-1.3-0.4-3.5c-0.2-2.2-0.4-5.1-0.7-8.6c-0.3-3.5-0.6-7.5-0.9-11.8c-0.3-4.4-0.6-8.7-0.9-13.1
		c-0.3-4.4-0.6-8.5-0.9-12.5C551.9,91.2,551.6,87.9,551.5,85.3z"/>
	<path fill="#F79421" d="M608.8,19.8l8-1.1c0.4,5,0.7,11,1.1,17.8c0.3,6.8,0.6,14.1,0.9,21.7c0.2,7.6,0.5,15.3,0.6,23.2
		c0.2,7.8,0.4,15.3,0.5,22.3c0.1,7,0.3,13.4,0.5,19c0.2,5.7,0.4,10.1,0.7,13.3c0,1.3-0.2,2.6-0.7,3.8c-0.5,1.2-1,2-1.7,2.6
		c-0.7,0.5-1.4,0.6-2.3,0.2s-1.6-1.4-2.3-3.1L608.8,19.8z"/>
	<path fill="#F79421" d="M627.7,115.8c0.8-1.6,1.7-2.6,2.7-3.1c1-0.4,2.4-0.5,4.1-0.4c3.4,3.1,6.9,6.1,10.5,8.8
		c3.6,2.8,7.3,5.1,11.2,7.1c3.9,2,8,3.6,12.3,4.8c4.3,1.2,8.8,1.8,13.7,1.8c0.9,0,2,0,3.3,0c1.2,0,2.4-0.2,3.4-0.5
		c1-0.3,1.9-0.9,2.6-1.6c0.7-0.8,1.1-1.9,1.1-3.3c-0.4-2.9-1.9-5.3-4.5-7.5c-2.6-2.1-5.8-4.2-9.5-6.1c-3.7-1.9-7.7-3.9-11.8-6
		c-4.2-2-8-4.4-11.4-7c-3.4-2.6-6.2-5.6-8.3-9c-2.1-3.4-2.9-7.4-2.4-12.2c0-2.7,0.9-5,2.6-7.1c1.7-2.1,3.8-3.9,6.3-5.3
		c2.5-1.5,5.1-2.6,7.8-3.4c2.7-0.8,5.1-1.2,7.2-1.2c4.1,0,8.2,0.6,12.5,1.8c4.2,1.2,8,2.9,11.3,5.2l-3.8,5.4
		c-1.7-1.4-3.8-2.5-6.3-3.2c-2.5-0.7-5.1-1.1-7.8-1.1c-2.7,0-5.3,0.2-7.8,0.6c-2.6,0.5-4.8,1.2-6.8,2.2c-1.9,1-3.4,2.2-4.4,3.6
		c-1,1.4-1.3,2.9-0.8,4.5c0,4.5,1.2,8.1,3.6,10.9c2.4,2.8,5.4,5.2,9,7.3c3.6,2,7.5,3.9,11.7,5.5c4.2,1.6,8.1,3.4,11.7,5.5
		c3.6,2,6.6,4.5,9,7.3c2.4,2.8,3.6,6.4,3.6,10.8c0,2.8-0.5,4.9-1.4,6.6c-0.9,1.6-2.1,2.9-3.6,3.7c-1.5,0.9-3.2,1.4-5.3,1.7
		c-2,0.3-4.2,0.4-6.5,0.4c-5.1,0-10.5-0.7-16-2c-5.5-1.3-10.9-3.2-16.1-5.6c-5.2-2.4-10.1-5.3-14.7-8.6
		C634.9,123.6,631,119.9,627.7,115.8z"/>
</g>
</svg>
