<?xml version="1.0" encoding="UTF-8" standalone="no"?>
<!-- Created with Inkscape (http://www.inkscape.org/) -->

<svg
   xmlns:dc="http://purl.org/dc/elements/1.1/"
   xmlns:cc="http://creativecommons.org/ns#"
   xmlns:rdf="http://www.w3.org/1999/02/22-rdf-syntax-ns#"
   xmlns:svg="http://www.w3.org/2000/svg"
   xmlns="http://www.w3.org/2000/svg"
   xmlns:sodipodi="http://sodipodi.sourceforge.net/DTD/sodipodi-0.dtd"
   xmlns:inkscape="http://www.inkscape.org/namespaces/inkscape"
   width="524.40942"
   height="372.04724"
   id="svg3125"
   version="1.1"
   inkscape:version="0.48.4 r9939"
   sodipodi:docname="flyer_front_pt_BR.svg"
   inkscape:export-filename="/home/wiliam/djangogirls/flyer_front_pt_BR.png"
   inkscape:export-xdpi="90"
   inkscape:export-ydpi="90">
  <defs
     id="defs3127" />
  <sodipodi:namedview
     id="base"
     pagecolor="#ffffff"
     bordercolor="#666666"
     borderopacity="1.0"
     inkscape:pageopacity="0.0"
     inkscape:pageshadow="2"
     inkscape:zoom="1.344599"
     inkscape:cx="229.50093"
     inkscape:cy="189.27912"
     inkscape:document-units="px"
     inkscape:current-layer="layer1"
     showgrid="false"
     units="mm"
     inkscape:window-width="1333"
     inkscape:window-height="744"
     inkscape:window-x="33"
     inkscape:window-y="24"
     inkscape:window-maximized="1" />
  <metadata
     id="metadata3130">
    <rdf:RDF>
      <cc:Work
         rdf:about="">
        <dc:format>image/svg+xml</dc:format>
        <dc:type
           rdf:resource="http://purl.org/dc/dcmitype/StillImage" />
        <dc:title />
      </cc:Work>
    </rdf:RDF>
  </metadata>
  <g
     inkscape:label="Layer 1"
     inkscape:groupmode="layer"
     id="layer1"
     transform="translate(0,-680.31489)">
    <rect
       style="fill:#c9325e;fill-opacity:1;stroke:none"
       id="rect3214"
       width="524.40942"
       height="372.04724"
       x="0"
       y="680.31494"
       ry="1.77628" />
    <text
       xml:space="preserve"
       style="font-size:24px;font-style:normal;font-variant:normal;font-weight:bold;font-stretch:normal;text-align:center;line-height:125%;letter-spacing:0px;word-spacing:0px;writing-mode:lr-tb;text-anchor:middle;fill:#ffffff;fill-opacity:1;stroke:none;font-family:'Lobster 1.4';-inkscape-font-specification:'Lobster 1.4'"
       x="262.10999"
       y="820.3385"
       id="text2984"
       sodipodi:linespacing="125%"><tspan
         sodipodi:role="line"
         x="262.10999"
         y="820.3385"
         id="tspan2988">Queremos inspirar as mulheres a se apaixonar</tspan><tspan
         sodipodi:role="line"
         x="262.10999"
         y="855.3385"
         id="tspan3077">por programação.</tspan></text>
    <text
       xml:space="preserve"
       style="font-size:20px;font-style:normal;font-variant:normal;font-weight:bold;font-stretch:normal;text-align:start;line-height:125%;letter-spacing:0px;word-spacing:0px;writing-mode:lr-tb;text-anchor:start;fill:#ffffff;fill-opacity:1;stroke:none;font-family:'Lobster 1.4';-inkscape-font-specification:'Lobster 1.4'"
       x="145.10487"
       y="1044.1421"
       id="text2990"
       sodipodi:linespacing="125%"><tspan
         sodipodi:role="line"
         id="tspan2992"
         x="145.10487"
         y="1044.1421">14 Novembro 2015 em Curitiba</tspan></text>
    <g
       id="g3249"
       transform="translate(-12,0)">
      <text
         sodipodi:linespacing="125%"
         id="text2998"
         y="944.3385"
         x="380.77631"
         style="font-size:28px;font-style:normal;font-variant:normal;font-weight:bold;font-stretch:normal;text-align:start;line-height:125%;letter-spacing:0px;word-spacing:0px;writing-mode:lr-tb;text-anchor:start;fill:#ffffff;fill-opacity:1;stroke:none;font-family:'Lobster 1.4';-inkscape-font-specification:'Lobster 1.4'"
         xml:space="preserve"><tspan
           y="944.3385"
           x="380.77631"
           id="tspan3000"
           sodipodi:role="line">Apoie!</tspan></text>
      <text
         sodipodi:linespacing="125%"
         id="text3002"
         y="960.55646"
         x="415.88065"
         style="font-size:14px;font-style:normal;font-variant:normal;font-weight:normal;font-stretch:normal;text-align:center;line-height:125%;letter-spacing:0px;word-spacing:0px;writing-mode:lr-tb;text-anchor:middle;fill:#ffffff;fill-opacity:1;stroke:none;font-family:Lato;-inkscape-font-specification:Lato"
         xml:space="preserve"><tspan
           y="960.55646"
           x="415.88065"
           id="tspan3004"
           sodipodi:role="line">Estamos à procura de almas gentis e</tspan><tspan
           id="tspan3006"
           y="978.05646"
           x="415.88065"
           sodipodi:role="line">organizações que apoiam o nosso</tspan><tspan
           id="tspan3008"
           y="995.55646"
           x="415.88065"
           sodipodi:role="line">objetivo de trazer mais mulheres</tspan><tspan
           id="tspan3010"
           y="1013.0565"
           x="415.88065"
           sodipodi:role="line">para a tecnologia.</tspan></text>
    </g>
    <g
       id="g3022">
      <g
         transform="translate(10,0)"
         id="g3241">
        <text
           xml:space="preserve"
           style="font-size:28px;font-style:normal;font-variant:normal;font-weight:bold;font-stretch:normal;text-align:start;line-height:125%;letter-spacing:0px;word-spacing:0px;writing-mode:lr-tb;text-anchor:start;fill:#ffffff;fill-opacity:1;stroke:none;font-family:'Lobster 1.4';-inkscape-font-specification:'Lobster 1.4'"
           x="45.848251"
           y="944.3385"
           id="text2994"
           sodipodi:linespacing="125%"><tspan
             sodipodi:role="line"
             id="tspan2996"
             x="45.848251"
             y="944.3385">Participe!</tspan></text>
        <text
           xml:space="preserve"
           style="font-size:14px;font-style:normal;font-variant:normal;font-weight:normal;font-stretch:normal;text-align:center;line-height:125%;letter-spacing:0px;word-spacing:0px;writing-mode:lr-tb;text-anchor:middle;fill:#ffffff;fill-opacity:1;stroke:none;font-family:Lato;-inkscape-font-specification:Lato"
           x="99.149971"
           y="965.7467"
           id="text3002-2"
           sodipodi:linespacing="125%"><tspan
             sodipodi:role="line"
             x="99.149971"
             y="965.7467"
             id="tspan3010-7">Se você é mulher</tspan><tspan
             sodipodi:role="line"
             x="99.149971"
             y="983.2467"
             id="tspan3073">e quer aprender como fazer</tspan><tspan
             sodipodi:role="line"
             x="99.149971"
             y="1000.7467"
             id="tspan3075">websites.</tspan><tspan
             sodipodi:role="line"
             x="99.149971"
             y="1018.2467"
             id="tspan3031">https://djangogirls.org/curitiba</tspan></text>
      </g>
    </g>
    <g
       id="g3225"
       transform="matrix(0.59126075,0,0,0.59126075,148.61426,290.05898)">
      <g
         transform="translate(-216.43433,613.90548)"
         id="g3159">
        <g
           id="g3161">
          <path
             id="path3163"
             d="m 108.3,65.8 h 23.9 v 110.5 c -12.2,2.3 -21.2,3.3 -31,3.3 -29.1,0 -44.3,-13.2 -44.3,-38.4 0,-24.3 16.1,-40.1 41.1,-40.1 3.9,0 6.8,0.3 10.4,1.2 l -0.1,-36.5 0,0 z m 0,55.6 c -2.8,-0.9 -5.1,-1.2 -8.1,-1.2 -12.1,0 -19.1,7.4 -19.1,20.5 0,12.7 6.7,19.7 18.9,19.7 2.6,0 4.8,-0.2 8.2,-0.6 l 0.1,-38.4 z"
             inkscape:connector-curvature="0"
             style="fill:#ffffff" />
          <path
             id="path3165"
             d="M 170.2,102.7 V 158 c 0,19.1 -1.4,28.2 -5.6,36.1 -3.9,7.6 -9,12.4 -19.5,17.7 l -22.2,-10.5 c 10.5,-5 15.7,-9.3 18.9,-16 3.4,-6.8 4.5,-14.7 4.5,-35.5 v -47.1 h 23.9 z M 146.3,65.9 h 23.9 V 90.4 H 146.3 V 65.9 z"
             inkscape:connector-curvature="0"
             style="fill:#ffffff" />
          <path
             id="path3167"
             d="m 184.6,108.1 c 10.5,-5 20.6,-7.1 31.6,-7.1 12.2,0 20.3,3.3 23.9,9.6 2,3.6 2.6,8.2 2.6,18.1 v 48.5 c -10.7,1.6 -24.2,2.6 -34.1,2.6 -20,0 -29,-7 -29,-22.5 0,-16.7 11.9,-24.5 41.2,-27 V 125 c 0,-4.3 -2.2,-5.9 -8.2,-5.9 -8.8,0 -18.8,2.5 -28.1,7.3 l 0.1,-18.3 0,0 z m 37.3,38 c -15.8,1.6 -20.9,4 -20.9,10.2 0,4.6 2.9,6.8 9.5,6.8 3.6,0 6.8,-0.3 11.5,-1.1 l -0.1,-15.9 0,0 z"
             inkscape:connector-curvature="0"
             style="fill:#ffffff" />
          <path
             id="path3169"
             d="m 254.3,106.4 c 14.1,-3.7 25.7,-5.4 37.5,-5.4 12.2,0 21.1,2.8 26.4,8.2 5,5.1 6.5,10.7 6.5,22.6 v 46.8 h -23.9 v -45.9 c 0,-9.1 -3.1,-12.6 -11.6,-12.6 -3.3,0 -6.2,0.3 -11,1.7 v 56.7 h -23.9 l 0,-72.1 0,0 z"
             inkscape:connector-curvature="0"
             style="fill:#ffffff" />
          <path
             id="path3171"
             d="m 334,191.7 c 8.4,4.3 16.7,6.4 25.6,6.4 15.7,0 22.3,-6.4 22.3,-21.5 0,-0.2 0,-0.3 0,-0.5 -4.6,2.3 -9.3,3.3 -15.5,3.3 -20.9,0 -34.3,-13.8 -34.3,-35.7 0,-27.1 19.7,-42.5 54.6,-42.5 10.2,0 19.7,1.1 31.2,3.4 l -8.2,17.2 c -6.4,-1.2 -0.5,-0.2 -5.3,-0.6 v 2.5 l 0.3,10.1 0.2,13 c 0.2,3.3 0.2,6.5 0.3,9.8 0,2.9 0,4.3 0,6.5 0,20.5 -1.7,30.1 -6.8,38 -7.4,11.6 -20.3,17.4 -38.6,17.4 -9.3,0 -17.4,-1.4 -25.7,-4.7 l -0.1,-22.1 0,0 z m 47.4,-71.3 c -0.3,0 -0.6,0 -0.8,0 h -1.7 c -4.6,-0.2 -10.1,1.1 -13.8,3.4 -5.7,3.3 -8.7,9.1 -8.7,17.5 0,11.9 5.9,18.8 16.4,18.8 3.3,0 5.9,-0.6 9,-1.6 v -1.7 -6.5 c 0,-2.8 -0.2,-5.9 -0.2,-9.1 l -0.2,-11 -0.2,-7.9 0.2,-1.9 0,0 z"
             inkscape:connector-curvature="0"
             style="fill:#ffffff" />
          <path
             id="path3173"
             d="m 454.9,100.7 c 23.9,0 38.4,15 38.4,39.4 0,25 -15.2,40.6 -39.4,40.6 -23.9,0 -38.6,-15 -38.6,-39.2 0.1,-25.2 15.3,-40.8 39.6,-40.8 z m -0.5,60.7 c 9.1,0 14.6,-7.6 14.6,-20.8 0,-13 -5.3,-20.8 -14.4,-20.8 -9.5,0 -14.9,7.6 -14.9,20.8 0,13.2 5.4,20.8 14.7,20.8 z"
             inkscape:connector-curvature="0"
             style="fill:#ffffff" />
        </g>
      </g>
      <g
         transform="translate(-216.43433,613.90548)"
         id="g3175">
        <path
           id="path3177"
           d="m 544.1,241.6 c -2.6,0.3 -5.1,0.1 -7.7,-0.6 -2.6,-0.7 -4.8,-1.6 -6.8,-2.9 -2,-1.3 -3.6,-2.9 -4.7,-4.7 -1.1,-1.8 -1.5,-3.8 -1.1,-5.9 1.9,0 3.6,0.4 5.1,1.1 1.5,0.8 2.9,1.6 4.4,2.6 1.5,0.9 3,1.8 4.6,2.6 1.6,0.8 3.6,1.1 5.8,1.1 5.5,0 10.1,-1.2 13.9,-3.6 3.8,-2.4 6.8,-5.5 9.1,-9.4 2.3,-3.9 3.9,-8.3 4.9,-13.2 1,-4.9 1.5,-9.9 1.5,-15 0,-1.3 -0.1,-3.4 -0.2,-6.3 -0.1,-2.9 -0.3,-6.1 -0.5,-9.6 -0.2,-3.6 -0.4,-7.3 -0.6,-11.3 -0.2,-3.9 -0.5,-7.7 -0.7,-11.3 -0.2,-3.6 -0.5,-6.8 -0.7,-9.6 -0.2,-2.9 -0.5,-4.9 -0.6,-6.3 -0.8,1.9 -1.7,4.2 -2.9,7 -1.1,2.8 -2.4,5.7 -3.9,8.7 -1.5,3 -3.1,6.1 -5,9.1 -1.9,3 -3.9,5.7 -6.2,8.1 -2.3,2.4 -4.8,4.3 -7.5,5.8 -2.7,1.5 -5.6,2.2 -8.6,2.2 -1.6,0 -2.9,-0.8 -3.8,-2.4 -0.9,-1.6 -1.6,-3.5 -2.1,-5.6 -0.5,-2.1 -0.8,-4.2 -0.9,-6.2 -0.1,-2 -0.2,-3.5 -0.2,-4.3 -0.5,-6.1 -0.5,-12.1 0,-18 0.5,-5.9 1.4,-11.5 2.9,-16.7 1.5,-5.2 3.4,-9.8 5.8,-13.9 2.4,-4.1 5.4,-7.3 8.9,-9.6 3.5,-2.3 7.5,-3.7 12,-4 4.5,-0.3 9.6,0.7 15.2,3.1 1.5,-0.2 2.5,0.7 3.1,2.6 0.5,1.9 0.8,4.2 0.7,7 0,2.8 -0.2,5.7 -0.5,8.7 -0.3,3 -0.5,5.6 -0.6,7.7 0,4.9 0.2,9.9 0.6,14.8 0.4,4.9 0.8,9.9 1.4,14.8 0.5,4.9 1,9.8 1.4,14.7 0.4,4.9 0.6,9.8 0.6,14.8 0,5.7 -0.6,11.7 -1.7,18 -1.1,6.3 -3.1,12.2 -5.9,17.5 -2.8,5.4 -6.5,9.8 -11.1,13.3 -4.8,3.4 -10.5,5.1 -17.4,5.1 z m -8.7,-83.4 c 0,1 0,2.1 0.1,3.5 0,1.4 0.2,2.7 0.6,4 0.3,1.3 0.9,2.4 1.6,3.3 0.7,0.9 1.7,1.4 3.1,1.4 2.7,0 5.1,-1.2 7.4,-3.6 2.3,-2.4 4.4,-5.5 6.3,-9.3 1.9,-3.8 3.7,-7.9 5.3,-12.5 1.6,-4.6 2.9,-9 4,-13.4 1.1,-4.4 1.9,-8.3 2.5,-11.9 0.6,-3.6 0.9,-6.2 0.9,-7.9 -5.8,-2.1 -10.7,-2 -14.8,0.1 -4.1,2.2 -7.4,5.6 -9.9,10.3 -2.5,4.7 -4.3,10.3 -5.5,16.7 -1.2,6.4 -1.7,12.9 -1.6,19.3 z"
           inkscape:connector-curvature="0"
           style="fill:#ffffff" />
        <path
           id="path3179"
           d="m 592.2,86.1 c -0.7,0 -1.4,-0.2 -2.3,-0.7 -0.9,-0.5 -1.6,-1.1 -2.2,-1.8 -0.6,-0.7 -1,-1.5 -1.3,-2.3 -0.2,-0.8 -0.1,-1.5 0.5,-2.1 0.4,-1.1 1.1,-2.2 2.3,-3.1 1.1,-0.9 2.3,-1.6 3.6,-1.9 1.2,-0.3 2.3,-0.3 3.2,0.1 0.9,0.4 1.4,1.5 1.4,3.2 0,0.9 -0.1,1.8 -0.2,2.8 -0.1,1 -0.4,1.9 -0.9,2.8 -0.5,0.9 -1,1.6 -1.6,2.1 -0.8,0.6 -1.6,0.9 -2.5,0.9 z m 6,91.8 c -0.5,0 -1.1,-0.1 -1.9,-0.3 -0.8,-0.2 -1.5,-0.5 -2.3,-0.9 -0.8,-0.4 -1.4,-0.8 -1.9,-1.4 -0.5,-0.5 -0.8,-1.1 -0.8,-1.8 l -0.1,-68.6 c 0,-0.7 0.3,-1.3 0.8,-1.8 0.5,-0.5 1.2,-1 1.9,-1.4 0.8,-0.4 1.5,-0.7 2.3,-0.9 0.8,-0.2 1.4,-0.3 1.9,-0.3 l 0.1,77.4 z"
           inkscape:connector-curvature="0"
           style="fill:#ffffff" />
        <path
           id="path3181"
           d="m 608.3,119.5 c -0.3,-1.2 -0.7,-2.8 -1.1,-4.7 -0.5,-1.9 -0.9,-3.8 -1.3,-5.8 -0.4,-2 -0.6,-3.9 -0.6,-5.7 0,-1.8 0.3,-3.3 0.9,-4.3 0.6,-1.1 1.6,-1.7 3,-1.9 1.4,-0.2 3.4,0.5 6,1.9 0.2,1 0.5,2.5 0.8,4.8 0.3,2.2 0.7,4.6 1.1,7.1 0.4,2.5 0.7,4.9 1,7.1 0.3,2.2 0.4,3.8 0.4,4.8 1.7,-3.8 3.9,-7.4 6.6,-10.8 2.7,-3.4 5.8,-6.4 9.3,-9 3.5,-2.6 7.4,-4.6 11.5,-6.1 4.2,-1.5 8.6,-2.3 13.4,-2.3 l -1.4,8.1 c -6.1,1 -11.8,3.6 -17,7.7 -5.3,4.1 -9.7,9.4 -13.2,15.8 -3.5,6.5 -5.9,14 -7.1,22.7 -1.2,8.7 -0.7,18.1 1.4,28.2 l -9,1.9 c -0.1,-0.1 -0.2,-1.3 -0.4,-3.5 -0.2,-2.2 -0.4,-5.1 -0.7,-8.6 -0.3,-3.5 -0.6,-7.5 -0.9,-11.8 -0.3,-4.4 -0.6,-8.7 -0.9,-13.1 -0.3,-4.4 -0.6,-8.5 -0.9,-12.5 -0.4,-4.1 -0.7,-7.4 -0.9,-10 z"
           inkscape:connector-curvature="0"
           style="fill:#ffffff" />
        <path
           id="path3183"
           d="m 665.6,54 8,-1.1 c 0.4,5 0.7,11 1.1,17.8 0.3,6.8 0.6,14.1 0.9,21.7 0.2,7.6 0.5,15.3 0.6,23.2 0.2,7.8 0.4,15.3 0.5,22.3 0.1,7 0.3,13.4 0.5,19 0.2,5.7 0.4,10.1 0.7,13.3 0,1.3 -0.2,2.6 -0.7,3.8 -0.5,1.2 -1,2 -1.7,2.6 -0.7,0.5 -1.4,0.6 -2.3,0.2 -0.9,-0.4 -1.6,-1.4 -2.3,-3.1 L 665.6,54 z"
           inkscape:connector-curvature="0"
           style="fill:#ffffff" />
        <path
           id="path3185"
           d="m 684.6,150 c 0.8,-1.6 1.7,-2.6 2.7,-3.1 1,-0.4 2.4,-0.5 4.1,-0.4 3.4,3.1 6.9,6.1 10.5,8.8 3.6,2.8 7.3,5.1 11.2,7.1 3.9,2 8,3.6 12.3,4.8 4.3,1.2 8.8,1.8 13.7,1.8 0.9,0 2,0 3.3,0 1.2,0 2.4,-0.2 3.4,-0.5 1,-0.3 1.9,-0.9 2.6,-1.6 0.7,-0.8 1.1,-1.9 1.1,-3.3 -0.4,-2.9 -1.9,-5.3 -4.5,-7.5 -2.6,-2.1 -5.8,-4.2 -9.5,-6.1 -3.7,-1.9 -7.7,-3.9 -11.8,-6 -4.2,-2 -8,-4.4 -11.4,-7 -3.4,-2.6 -6.2,-5.6 -8.3,-9 -2.1,-3.4 -2.9,-7.4 -2.4,-12.2 0,-2.7 0.9,-5 2.6,-7.1 1.7,-2.1 3.8,-3.9 6.3,-5.3 2.5,-1.5 5.1,-2.6 7.8,-3.4 2.7,-0.8 5.1,-1.2 7.2,-1.2 4.1,0 8.2,0.6 12.5,1.8 4.2,1.2 8,2.9 11.3,5.2 l -3.8,5.4 c -1.7,-1.4 -3.8,-2.5 -6.3,-3.2 -2.5,-0.7 -5.1,-1.1 -7.8,-1.1 -2.7,0 -5.3,0.2 -7.8,0.6 -2.6,0.5 -4.8,1.2 -6.8,2.2 -1.9,1 -3.4,2.2 -4.4,3.6 -1,1.4 -1.3,2.9 -0.8,4.5 0,4.5 1.2,8.1 3.6,10.9 2.4,2.8 5.4,5.2 9,7.3 3.6,2 7.5,3.9 11.7,5.5 4.2,1.6 8.1,3.4 11.7,5.5 3.6,2 6.6,4.5 9,7.3 2.4,2.8 3.6,6.4 3.6,10.8 0,2.8 -0.5,4.9 -1.4,6.6 -0.9,1.6 -2.1,2.9 -3.6,3.7 -1.5,0.9 -3.2,1.4 -5.3,1.7 -2,0.3 -4.2,0.4 -6.5,0.4 -5.1,0 -10.5,-0.7 -16,-2 -5.5,-1.3 -10.9,-3.2 -16.1,-5.6 -5.2,-2.4 -10.1,-5.3 -14.7,-8.6 -4.9,-3.5 -8.8,-7.2 -12,-11.3 z"
           inkscape:connector-curvature="0"
           style="fill:#ffffff" />
      </g>
    </g>
    <text
       xml:space="preserve"
       style="font-size:14px;font-style:normal;font-variant:normal;font-weight:normal;font-stretch:normal;text-align:center;line-height:125%;letter-spacing:0px;word-spacing:0px;writing-mode:lr-tb;text-anchor:middle;fill:#ffffff;fill-opacity:1;stroke:none;font-family:Lato;-inkscape-font-specification:Lato"
       x="261.93527"
       y="874.74292"
       id="text3258"
       sodipodi:linespacing="125%"><tspan
         sodipodi:role="line"
         id="tspan3260"
         x="261.93527"
         y="874.74292">Então, nós organizamos oficinas gratuitas de Python e Django, criamos</tspan><tspan
         sodipodi:role="line"
         x="261.93527"
         y="892.24292"
         id="tspan3262">tutoriais online de código aberto e nos preocupamos para que sua</tspan><tspan
         sodipodi:role="line"
         x="261.93527"
         y="909.74292"
         id="tspan3272">primeira experiência seja incrível.</tspan></text>
  </g>
</svg>
