<?xml version="1.0" encoding="UTF-8" standalone="no"?>
<!-- Created with Inkscape (http://www.inkscape.org/) -->

<svg
   xmlns:dc="http://purl.org/dc/elements/1.1/"
   xmlns:cc="http://creativecommons.org/ns#"
   xmlns:rdf="http://www.w3.org/1999/02/22-rdf-syntax-ns#"
   xmlns:svg="http://www.w3.org/2000/svg"
   xmlns="http://www.w3.org/2000/svg"
   xmlns:sodipodi="http://sodipodi.sourceforge.net/DTD/sodipodi-0.dtd"
   xmlns:inkscape="http://www.inkscape.org/namespaces/inkscape"
   id="svg2"
   version="1.1"
   inkscape:version="0.48.1 r9760"
   width="390.59958"
   height="56.184479"
   sodipodi:docname="cheatsheet_heading.png">
  <metadata
     id="metadata8">
    <rdf:RDF>
      <cc:Work
         rdf:about="">
        <dc:format>image/svg+xml</dc:format>
        <dc:type
           rdf:resource="http://purl.org/dc/dcmitype/StillImage" />
        <dc:title></dc:title>
      </cc:Work>
    </rdf:RDF>
  </metadata>
  <defs
     id="defs6" />
  <sodipodi:namedview
     pagecolor="#ffffff"
     bordercolor="#666666"
     borderopacity="1"
     objecttolerance="10"
     gridtolerance="10"
     guidetolerance="10"
     inkscape:pageopacity="0"
     inkscape:pageshadow="2"
     inkscape:window-width="1055"
     inkscape:window-height="673"
     id="namedview4"
     showgrid="false"
     inkscape:zoom="0.49403194"
     inkscape:cx="64.461787"
     inkscape:cy="-219.74241"
     inkscape:window-x="0"
     inkscape:window-y="0"
     inkscape:window-maximized="0"
     inkscape:current-layer="g3008"
     fit-margin-top="0"
     fit-margin-left="0"
     fit-margin-right="0"
     fit-margin-bottom="0" />
  <g
     id="g3008"
     transform="matrix(0.63327837,0,0,0.63327837,-153.70846,-39.164765)">
    <g
       id="g3141"
       transform="matrix(0.80368016,0,0,0.80368016,108.19451,20.850048)">
      <g
         id="g3012"
         transform="matrix(0.37128347,0,0,0.37128347,138.20165,18.674123)">
        <g
           transform="matrix(1.3525119,0,0,1.3525119,-4.5778311,-38.197696)"
           id="g3280"
           style="fill:#5380ed;fill-opacity:1">
          <g
             id="g3282"
             style="fill:#5380ed;fill-opacity:1">
            <path
               style="fill:#5380ed;fill-opacity:1"
               inkscape:connector-curvature="0"
               d="m 112.9,125.5 h 23.9 V 236 c -12.2,2.3 -21.2,3.3 -31,3.3 -29.1,0 -44.3,-13.2 -44.3,-38.4 0,-24.3 16.1,-40.1 41.1,-40.1 3.9,0 6.8,0.3 10.4,1.2 l -0.1,-36.5 0,0 z m 0,55.6 c -2.8,-0.9 -5.1,-1.2 -8.1,-1.2 -12.1,0 -19.1,7.4 -19.1,20.5 0,12.7 6.7,19.7 18.9,19.7 2.6,0 4.8,-0.2 8.2,-0.6 l 0.1,-38.4 z"
               id="path3284" />
            <path
               style="fill:#5380ed;fill-opacity:1"
               inkscape:connector-curvature="0"
               d="m 174.8,162.4 v 55.3 c 0,19.1 -1.4,28.2 -5.6,36.1 -3.9,7.6 -9,12.4 -19.5,17.7 L 127.5,261 c 10.5,-5 15.7,-9.3 18.9,-16 3.4,-6.8 4.5,-14.7 4.5,-35.5 v -47.1 h 23.9 z m -23.9,-36.8 h 23.9 v 24.5 h -23.9 v -24.5 z"
               id="path3286" />
            <path
               style="fill:#5380ed;fill-opacity:1"
               inkscape:connector-curvature="0"
               d="m 189.2,167.8 c 10.5,-5 20.6,-7.1 31.6,-7.1 12.2,0 20.3,3.3 23.9,9.6 2,3.6 2.6,8.2 2.6,18.1 v 48.5 c -10.7,1.6 -24.2,2.6 -34.1,2.6 -20,0 -29,-7 -29,-22.5 0,-16.7 11.9,-24.5 41.2,-27 v -5.3 c 0,-4.3 -2.2,-5.9 -8.2,-5.9 -8.8,0 -18.8,2.5 -28.1,7.3 l 0.1,-18.3 0,0 z m 37.3,38 c -15.8,1.6 -20.9,4 -20.9,10.2 0,4.6 2.9,6.8 9.5,6.8 3.6,0 6.8,-0.3 11.5,-1.1 l -0.1,-15.9 0,0 z"
               id="path3288" />
            <path
               style="fill:#5380ed;fill-opacity:1"
               inkscape:connector-curvature="0"
               d="m 258.9,166.1 c 14.1,-3.7 25.7,-5.4 37.5,-5.4 12.2,0 21.1,2.8 26.4,8.2 5,5.1 6.5,10.7 6.5,22.6 v 46.8 h -23.9 v -45.9 c 0,-9.1 -3.1,-12.6 -11.6,-12.6 -3.3,0 -6.2,0.3 -11,1.7 v 56.7 h -23.9 l 0,-72.1 0,0 z"
               id="path3290" />
            <path
               style="fill:#5380ed;fill-opacity:1"
               inkscape:connector-curvature="0"
               d="m 338.6,251.3 c 8.4,4.3 16.7,6.4 25.6,6.4 15.7,0 22.3,-6.4 22.3,-21.5 0,-0.2 0,-0.3 0,-0.5 -4.6,2.3 -9.3,3.3 -15.5,3.3 -20.9,0 -34.3,-13.8 -34.3,-35.7 0,-27.1 19.7,-42.5 54.6,-42.5 10.2,0 19.7,1.1 31.2,3.4 l -8.2,17.2 c -6.4,-1.2 -0.5,-0.2 -5.3,-0.6 v 2.5 l 0.3,10.1 0.2,13 c 0.2,3.3 0.2,6.5 0.3,9.8 0,2.9 0,4.3 0,6.5 0,20.5 -1.7,30.1 -6.8,38 -7.4,11.6 -20.3,17.4 -38.6,17.4 -9.3,0 -17.4,-1.4 -25.7,-4.7 l -0.1,-22.1 0,0 z M 386,180 c -0.3,0 -0.6,0 -0.8,0 h -1.7 c -4.6,-0.2 -10.1,1.1 -13.8,3.4 -5.7,3.3 -8.7,9.1 -8.7,17.5 0,11.9 5.9,18.8 16.4,18.8 3.3,0 5.9,-0.6 9,-1.6 v -1.7 -6.4 c 0,-2.8 -0.2,-5.9 -0.2,-9.1 l -0.2,-11 -0.2,-7.9 0.2,-2 0,0 z"
               id="path3292" />
            <path
               style="fill:#5380ed;fill-opacity:1"
               inkscape:connector-curvature="0"
               d="m 459.5,160.3 c 23.9,0 38.4,15 38.4,39.4 0,25 -15.2,40.6 -39.4,40.6 -23.9,0 -38.6,-15 -38.6,-39.2 0.1,-25.1 15.3,-40.8 39.6,-40.8 z m -0.5,60.8 c 9.1,0 14.6,-7.6 14.6,-20.8 0,-13 -5.3,-20.8 -14.4,-20.8 -9.5,0 -14.9,7.6 -14.9,20.8 0,13.2 5.4,20.8 14.7,20.8 z"
               id="path3294" />
          </g>
        </g>
        <g
           transform="matrix(1.3525119,0,0,1.3525119,481.22072,-262.80704)"
           id="g3296"
           style="fill:#5380ed;fill-opacity:1">
          <path
             style="fill:#5380ed;fill-opacity:1"
             inkscape:connector-curvature="0"
             d="m 174.1,478.4 c -3,0.3 -6,0.1 -9,-0.7 -3,-0.8 -5.6,-1.9 -8,-3.4 -2.4,-1.5 -4.2,-3.3 -5.5,-5.5 -1.3,-2.2 -1.8,-4.5 -1.3,-6.9 2.2,0 4.2,0.4 5.9,1.3 1.7,0.9 3.4,1.9 5.1,3 1.7,1.1 3.5,2.1 5.4,3 1.9,0.9 4.2,1.3 6.8,1.3 6.4,0 11.8,-1.4 16.2,-4.2 4.4,-2.8 7.9,-6.4 10.5,-11 2.7,-4.5 4.6,-9.7 5.7,-15.4 1.2,-5.7 1.7,-11.5 1.7,-17.5 0,-1.6 -0.1,-4 -0.2,-7.3 -0.1,-3.3 -0.4,-7.1 -0.6,-11.2 -0.2,-4.2 -0.5,-8.5 -0.7,-13.1 -0.3,-4.6 -0.6,-9 -0.8,-13.1 -0.3,-4.2 -0.6,-7.9 -0.8,-11.2 -0.3,-3.3 -0.5,-5.8 -0.7,-7.3 -0.9,2.2 -2,4.9 -3.3,8.1 -1.3,3.2 -2.9,6.6 -4.6,10.1 -1.7,3.5 -3.7,7.1 -5.8,10.5 -2.1,3.4 -4.6,6.6 -7.2,9.4 -2.7,2.8 -5.6,5 -8.7,6.7 -3.1,1.7 -6.5,2.6 -10,2.6 -1.9,0 -3.3,-0.9 -4.4,-2.8 -1.1,-1.9 -1.9,-4 -2.4,-6.5 -0.6,-2.4 -0.9,-4.8 -1.1,-7.2 -0.2,-2.4 -0.2,-4.1 -0.2,-5.1 -0.6,-7.1 -0.6,-14.1 0,-21 0.6,-6.9 1.7,-13.4 3.4,-19.4 1.7,-6 4,-11.4 6.8,-16.2 2.8,-4.8 6.3,-8.5 10.4,-11.2 4.1,-2.7 8.8,-4.3 14,-4.6 5.3,-0.4 11.1,0.8 17.7,3.6 1.8,-0.2 3,0.8 3.6,3 0.6,2.2 0.9,4.9 0.8,8.1 -0.1,3.2 -0.2,6.6 -0.6,10.1 -0.3,3.5 -0.6,6.5 -0.7,9 0,5.8 0.2,11.5 0.7,17.3 0.4,5.8 1,11.5 1.6,17.2 0.6,5.7 1.1,11.4 1.6,17.1 0.4,5.7 0.7,11.4 0.7,17.2 0,6.6 -0.7,13.6 -2,21 -1.3,7.4 -3.6,14.2 -6.9,20.4 -3.3,6.3 -7.6,11.4 -12.9,15.5 -5.6,4.3 -12.3,6.3 -20.2,6.3 z M 164,381.3 c 0,1.1 0,2.5 0.1,4.1 0.1,1.6 0.3,3.2 0.7,4.6 0.4,1.5 1,2.8 1.8,3.8 0.8,1.1 2,1.6 3.6,1.6 3.1,0 6,-1.4 8.6,-4.2 2.6,-2.8 5.1,-6.4 7.4,-10.8 2.3,-4.4 4.3,-9.2 6.1,-14.5 1.8,-5.3 3.4,-10.5 4.6,-15.6 1.3,-5.1 2.2,-9.7 2.9,-13.9 0.7,-4.2 1,-7.2 1,-9.2 -6.8,-2.4 -12.5,-2.4 -17.3,0.2 -4.8,2.5 -8.6,6.6 -11.5,12 -2.9,5.5 -5.1,12 -6.4,19.4 -1.3,7.4 -1.9,15 -1.6,22.5 z"
             id="path3298" />
          <path
             style="fill:#5380ed;fill-opacity:1"
             inkscape:connector-curvature="0"
             d="m 230,297.3 c -0.8,0 -1.7,-0.3 -2.7,-0.8 -1,-0.6 -1.9,-1.2 -2.6,-2.1 -0.7,-0.8 -1.2,-1.7 -1.5,-2.7 -0.3,-0.9 -0.1,-1.7 0.6,-2.4 0.4,-1.3 1.3,-2.5 2.7,-3.7 1.3,-1.1 2.7,-1.9 4.2,-2.2 1.4,-0.4 2.7,-0.3 3.7,0.2 1.1,0.5 1.6,1.7 1.6,3.7 0,1 -0.1,2.1 -0.2,3.2 -0.1,1.1 -0.5,2.2 -1,3.2 -0.5,1 -1.1,1.8 -1.9,2.5 -0.8,0.8 -1.8,1.1 -2.9,1.1 z m 7,106.9 c -0.6,0 -1.3,-0.1 -2.2,-0.3 -0.9,-0.2 -1.8,-0.6 -2.7,-1 -0.9,-0.4 -1.6,-1 -2.2,-1.6 -0.6,-0.6 -0.9,-1.3 -0.9,-2.1 l -0.2,-79.9 c 0,-0.8 0.3,-1.5 0.9,-2.1 0.6,-0.6 1.4,-1.1 2.2,-1.6 0.9,-0.4 1.8,-0.8 2.7,-1 0.9,-0.2 1.6,-0.3 2.2,-0.3 l 0.2,89.9 z"
             id="path3300" />
          <path
             style="fill:#5380ed;fill-opacity:1"
             inkscape:connector-curvature="0"
             d="m 248.8,336.2 c -0.3,-1.4 -0.8,-3.3 -1.3,-5.5 -0.6,-2.2 -1.1,-4.5 -1.5,-6.8 -0.4,-2.3 -0.7,-4.5 -0.7,-6.6 0,-2.1 0.3,-3.8 1,-5.1 0.7,-1.3 1.8,-2 3.5,-2.2 1.7,-0.2 4,0.6 7,2.2 0.2,1.1 0.5,3 0.9,5.6 0.4,2.6 0.8,5.4 1.2,8.3 0.4,2.9 0.8,5.7 1.2,8.3 0.3,2.6 0.5,4.5 0.5,5.6 2,-4.4 4.5,-8.6 7.6,-12.6 3.1,-4 6.7,-7.5 10.8,-10.5 4.1,-3 8.6,-5.4 13.4,-7.1 4.9,-1.8 10.1,-2.7 15.6,-2.7 l -1.7,9.5 c -7.1,1.2 -13.7,4.2 -19.8,9 -6.1,4.8 -11.3,10.9 -15.4,18.4 -4.1,7.5 -6.8,16.3 -8.2,26.4 -1.4,10.1 -0.9,21 1.6,32.9 l -10.5,2.2 c -0.1,-0.1 -0.3,-1.5 -0.5,-4.1 -0.2,-2.6 -0.5,-5.9 -0.8,-10 -0.3,-4.1 -0.7,-8.7 -1,-13.8 -0.3,-5.1 -0.7,-10.2 -1,-15.3 -0.3,-5.1 -0.7,-9.9 -1.1,-14.5 -0.3,-4.7 -0.6,-8.5 -0.8,-11.6 z"
             id="path3302" />
          <path
             style="fill:#5380ed;fill-opacity:1"
             inkscape:connector-curvature="0"
             d="m 315.5,260 9.3,-1.3 c 0.4,5.9 0.9,12.8 1.2,20.8 0.4,8 0.7,16.4 1,25.2 0.3,8.9 0.5,17.8 0.7,27 0.2,9.1 0.4,17.8 0.6,26 0.2,8.2 0.4,15.6 0.6,22.2 0.2,6.6 0.5,11.8 0.8,15.5 0,1.6 -0.3,3 -0.8,4.4 -0.6,1.4 -1.2,2.4 -2,3 -0.8,0.6 -1.7,0.7 -2.7,0.2 -1,-0.5 -1.9,-1.7 -2.7,-3.7 l -6,-139.3 z"
             id="path3304" />
          <path
             style="fill:#5380ed;fill-opacity:1"
             inkscape:connector-curvature="0"
             d="m 337.6,371.7 c 0.9,-1.9 1.9,-3.1 3.2,-3.6 1.2,-0.5 2.8,-0.6 4.8,-0.4 4,3.7 8.1,7.1 12.2,10.3 4.2,3.2 8.5,6 13,8.3 4.5,2.3 9.3,4.2 14.3,5.6 5,1.4 10.3,2.1 15.9,2.1 1.1,0 2.4,0 3.8,0 1.4,0 2.7,-0.2 3.9,-0.6 1.2,-0.4 2.2,-1 3,-1.9 0.8,-0.9 1.2,-2.2 1.2,-3.8 -0.4,-3.3 -2.2,-6.2 -5.2,-8.7 -3,-2.5 -6.7,-4.9 -11,-7.1 -4.3,-2.3 -8.9,-4.6 -13.8,-7 -4.9,-2.4 -9.3,-5.1 -13.3,-8.1 -4,-3 -7.2,-6.5 -9.6,-10.5 -2.4,-3.9 -3.4,-8.7 -2.8,-14.2 0,-3.1 1,-5.9 3,-8.3 2,-2.4 4.4,-4.5 7.3,-6.2 2.9,-1.7 5.9,-3 9,-4 3.2,-0.9 5.9,-1.4 8.4,-1.4 4.8,0 9.6,0.7 14.5,2.1 4.9,1.4 9.3,3.4 13.2,6.1 l -4.5,6.3 c -2,-1.7 -4.5,-2.9 -7.4,-3.7 -2.9,-0.8 -6,-1.3 -9,-1.3 -3.1,-0.1 -6.1,0.2 -9.1,0.7 -3,0.6 -5.6,1.4 -7.9,2.6 -2.3,1.2 -4,2.5 -5.1,4.2 -1.2,1.6 -1.5,3.3 -0.9,5.2 0,5.2 1.4,9.4 4.2,12.7 2.8,3.3 6.3,6.1 10.5,8.5 4.2,2.4 8.7,4.5 13.6,6.4 4.9,1.9 9.4,4 13.6,6.4 4.2,2.4 7.7,5.2 10.5,8.5 2.8,3.3 4.2,7.4 4.2,12.5 0,3.2 -0.5,5.8 -1.6,7.6 -1.1,1.9 -2.4,3.3 -4.2,4.3 -1.7,1 -3.8,1.7 -6.1,2 -2.4,0.3 -4.9,0.5 -7.6,0.5 -6,0 -12.2,-0.8 -18.6,-2.3 -6.4,-1.5 -12.7,-3.7 -18.8,-6.5 -6.1,-2.8 -11.8,-6.1 -17.1,-10 -5.4,-4.2 -9.9,-8.6 -13.7,-13.3 z"
             id="path3306" />
        </g>
      </g>
      <text
         xml:space="preserve"
         style="font-size:24px;font-style:normal;font-variant:normal;font-weight:normal;font-stretch:normal;line-height:125%;letter-spacing:0px;word-spacing:0px;fill:#000000;fill-opacity:1;stroke:none;font-family:Arial;-inkscape-font-specification:Arial"
         x="551.67773"
         y="124.53436"
         id="text3004"
         sodipodi:linespacing="125%"><tspan
           sodipodi:role="line"
           id="tspan3006"
           x="551.67773"
           y="124.53436"
           style="font-size:68px;font-weight:bold;-inkscape-font-specification:Arial Bold">Cheatsheet!</tspan></text>
    </g>
  </g>
</svg>
