<?xml version="1.0" encoding="UTF-8" standalone="no"?>
<svg
   viewBox="0 0 352.60251 302.37225"
   width="352.60251"
   height="302.37225"
   version="1.1"
   id="svg2320"
   sodipodi:docname="django-heart-white.svg"
   xml:space="preserve"
   inkscape:version="1.2.1 (9c6d41e410, 2022-07-14)"
   xmlns:inkscape="http://www.inkscape.org/namespaces/inkscape"
   xmlns:sodipodi="http://sodipodi.sourceforge.net/DTD/sodipodi-0.dtd"
   xmlns="http://www.w3.org/2000/svg"
   xmlns:svg="http://www.w3.org/2000/svg"
   xmlns:rdf="http://www.w3.org/1999/02/22-rdf-syntax-ns#"
   xmlns:cc="http://creativecommons.org/ns#"><defs
     id="defs2324"><linearGradient
       id="linearGradient3192"
       inkscape:swatch="solid"><stop
         style="stop-color:#000000;stop-opacity:1;"
         offset="0"
         id="stop3190" /></linearGradient></defs><sodipodi:namedview
     id="namedview2322"
     pagecolor="#ffffff"
     bordercolor="#111111"
     borderopacity="0"
     inkscape:showpageshadow="0"
     inkscape:pageopacity="0"
     inkscape:pagecheckerboard="1"
     inkscape:deskcolor="#d1d1d1"
     showgrid="false"
     inkscape:zoom="1.9610428"
     inkscape:cx="193.00956"
     inkscape:cy="118.55937"
     inkscape:window-width="1920"
     inkscape:window-height="1011"
     inkscape:window-x="0"
     inkscape:window-y="32"
     inkscape:window-maximized="1"
     inkscape:current-layer="svg2320" /><g
     id="g3682"
     inkscape:label="heart"><g
       inkscape:groupmode="layer"
       id="layer1"
       inkscape:label="heart-stroke"
       transform="translate(1.4074237,1.1977089)"><path
         style="fill:#ffffff;fill-opacity:1;stroke:#ffffff;stroke-width:2.3;stroke-linecap:butt;stroke-linejoin:miter;stroke-dasharray:none;stroke-opacity:1"
         d="m -0.02097746,50.063088 -0.2337555,99.860642 50.35405596,0.0815 -0.05699,49.85457 49.870634,0.10094 0.214213,50.02874 49.6585,0.049 0.14451,49.9817 50.11582,-0.18981 -0.1377,-49.78178 50.21102,-0.10864 -0.17955,-49.82677 50.23556,-0.0754 -0.29079,-49.9481 50.07173,-0.17853 0.0878,-99.838687 -50.00303,-0.0443 0.032,-49.87200364 -100.1189,-0.12014096 -0.0489,49.9246356 -50.2524,0.137181 L 149.76573,0.14193975 49.942096,-0.04555079 49.853429,50.1365 Z"
         id="path3298" /></g><g
       id="g2511"
       inkscape:label="heart-squares"
       style="display:inline"
       transform="translate(1.3012573,1.18612)"><rect
         x="50"
         width="50"
         height="50"
         fill="#ad1d45"
         stroke="none"
         id="rect2266"
         y="0" /><rect
         x="100"
         width="50"
         height="50"
         fill="#d9195c"
         stroke="none"
         id="rect2268"
         y="0" /><rect
         x="200"
         width="50"
         height="50"
         fill="#d9195c"
         stroke="none"
         id="rect2270"
         y="0" /><rect
         x="250"
         width="50"
         height="50"
         fill="#d62d75"
         stroke="none"
         id="rect2272"
         y="0" /><rect
         y="50"
         width="50"
         height="50"
         fill="#d9195c"
         stroke="none"
         id="rect2274"
         x="0" /><rect
         x="50"
         y="50"
         width="50"
         height="50"
         fill="#ee2178"
         stroke="none"
         id="rect2276" /><rect
         x="100"
         y="50"
         width="50"
         height="50"
         fill="#ee2178"
         stroke="none"
         id="rect2278" /><rect
         x="150"
         y="50"
         width="50"
         height="50"
         fill="#d9195c"
         stroke="none"
         id="rect2280" /><rect
         x="200"
         y="50"
         width="50"
         height="50"
         fill="#ee2178"
         stroke="none"
         id="rect2282" /><rect
         x="250"
         y="50"
         width="50"
         height="50"
         fill="#f7b0cf"
         stroke="none"
         id="rect2284" /><rect
         x="300"
         y="50"
         width="50"
         height="50"
         fill="#ad1d45"
         stroke="none"
         id="rect2286" /><rect
         y="100"
         width="50"
         height="50"
         fill="#d62d75"
         stroke="none"
         id="rect2288"
         x="0" /><rect
         x="50"
         y="100"
         width="50"
         height="50"
         fill="#d9195c"
         stroke="none"
         id="rect2290" /><rect
         x="100"
         y="100"
         width="50"
         height="50"
         fill="#d9195c"
         stroke="none"
         id="rect2292" /><rect
         x="150"
         y="100"
         width="50"
         height="50"
         fill="#ad1d45"
         stroke="none"
         id="rect2294" /><rect
         x="200"
         y="100"
         width="50"
         height="50"
         fill="#d9195c"
         stroke="none"
         id="rect2296" /><rect
         x="250"
         y="100"
         width="50"
         height="50"
         fill="#d62d75"
         stroke="none"
         id="rect2298" /><rect
         x="300"
         y="100"
         width="50"
         height="50"
         fill="#ad1d45"
         stroke="none"
         id="rect2300" /><rect
         x="50"
         y="150"
         width="50"
         height="50"
         fill="#ad1d45"
         stroke="none"
         id="rect2302" /><rect
         x="100"
         y="150"
         width="50"
         height="50"
         fill="#ee2178"
         stroke="none"
         id="rect2304" /><rect
         x="150"
         y="150"
         width="50"
         height="50"
         fill="#d9195c"
         stroke="none"
         id="rect2306" /><rect
         x="200"
         y="150"
         width="50"
         height="50"
         fill="#ee2178"
         stroke="none"
         id="rect2308" /><rect
         x="250"
         y="150"
         width="50"
         height="50"
         fill="#d9195c"
         stroke="none"
         id="rect2310" /><rect
         x="100"
         y="200"
         width="50"
         height="50"
         fill="#d9195c"
         stroke="none"
         id="rect2312" /><rect
         x="150"
         y="200"
         width="50"
         height="50"
         fill="#d62d75"
         stroke="none"
         id="rect2314" /><rect
         x="200"
         y="200"
         width="50"
         height="50"
         fill="#d9195c"
         stroke="none"
         id="rect2316" /><rect
         x="150"
         y="250"
         width="50"
         height="50"
         fill="#ee2178"
         stroke="none"
         id="rect2318"
         style="stroke:none;stroke-opacity:1" /></g></g><g
     id="g3557"
     style="display:inline;fill:#ffffff;fill-opacity:1"
     transform="translate(91.251257,77.816505)"
     inkscape:label="text">
			<g
   id="g3543"
   style="fill:#ffffff;fill-opacity:1">
				<g
   id="g3541"
   style="fill:#ffffff;fill-opacity:1">
					<path
   fill="#c9325e"
   d="m 27.1,12.1 h 8.3 V 50.5 C 31.1,51.3 28,51.6 24.6,51.6 14.5,51.6 9.2,47 9.2,38.2 c 0,-8.5 5.6,-13.9 14.3,-13.9 1.3,0 2.4,0.1 3.6,0.4 z m 0,19.3 c -1,-0.3 -1.8,-0.4 -2.8,-0.4 -4.2,0 -6.6,2.6 -6.6,7.1 0,4.4 2.3,6.8 6.6,6.8 0.9,0 1.7,-0.1 2.9,-0.2 z"
   id="path3529"
   style="fill:#ffffff;fill-opacity:1" />
					<path
   fill="#c9325e"
   d="m 48.6,24.9 v 19.2 c 0,6.6 -0.5,9.8 -1.9,12.5 -1.3,2.6 -3.1,4.3 -6.8,6.1 L 32.2,59 c 3.7,-1.7 5.4,-3.2 6.6,-5.5 1.2,-2.4 1.6,-5.1 1.6,-12.3 V 24.9 Z M 40.3,12.1 h 8.3 v 8.5 h -8.3 z"
   id="path3531"
   style="fill:#ffffff;fill-opacity:1" />
					<path
   fill="#c9325e"
   d="m 53.6,26.7 c 3.7,-1.7 7.2,-2.5 11,-2.5 4.3,0 7.1,1.1 8.3,3.3 0.7,1.2 0.9,2.9 0.9,6.3 v 16.9 c -3.7,0.5 -8.4,0.9 -11.8,0.9 -6.9,0 -10.1,-2.4 -10.1,-7.8 0,-5.8 4.1,-8.5 14.3,-9.4 v -1.8 c 0,-1.5 -0.8,-2 -2.9,-2 -3.1,0 -6.5,0.9 -9.7,2.5 z m 13,13.2 c -5.5,0.5 -7.3,1.4 -7.3,3.6 0,1.6 1,2.4 3.3,2.4 1.2,0 2.4,-0.1 4,-0.4 z"
   id="path3533"
   style="fill:#ffffff;fill-opacity:1" />
					<path
   fill="#c9325e"
   d="m 77.8,26.2 c 4.9,-1.3 8.9,-1.9 13,-1.9 4.3,0 7.3,1 9.2,2.9 1.7,1.8 2.3,3.7 2.3,7.9 V 51.4 H 94 V 35.3 c 0,-3.2 -1.1,-4.4 -4,-4.4 -1.1,0 -2.2,0.1 -3.8,0.6 v 19.7 h -8.3 z"
   id="path3535"
   style="fill:#ffffff;fill-opacity:1" />
					<path
   fill="#c9325e"
   d="m 105.5,55.8 c 2.9,1.5 5.8,2.2 8.9,2.2 5.4,0 7.8,-2.2 7.8,-7.5 0,-0.1 0,-0.1 0,-0.2 -1.6,0.8 -3.2,1.1 -5.4,1.1 -7.3,0 -11.9,-4.8 -11.9,-12.4 0,-9.4 6.8,-14.8 19,-14.8 3.6,0 6.8,0.4 10.8,1.2 l -2.8,6 c -2.2,-0.4 -0.2,-0.1 -1.8,-0.2 v 0.9 l 0.1,3.5 0.1,4.5 c 0.1,1.1 0.1,2.3 0.1,3.4 0,1 0,1.5 0,2.3 0,7.1 -0.6,10.4 -2.4,13.2 -2.6,4 -7.1,6 -13.4,6 -3.2,0 -6,-0.5 -8.9,-1.6 z M 122,31 c -0.1,0 -0.2,0 -0.3,0 h -0.6 c -1.6,-0.1 -3.5,0.4 -4.8,1.2 -2,1.1 -3,3.2 -3,6.1 0,4.1 2,6.5 5.7,6.5 1.1,0 2,-0.2 3.1,-0.5 v -0.6 -2.3 c 0,-1 -0.1,-2 -0.1,-3.2 l -0.1,-3.8 -0.1,-2.7 z"
   id="path3537"
   style="fill:#ffffff;fill-opacity:1" />
					<path
   fill="#c9325e"
   d="m 147.5,24.2 c 8.3,0 13.4,5.2 13.4,13.7 0,8.7 -5.3,14.1 -13.7,14.1 -8.3,0 -13.4,-5.2 -13.4,-13.6 0,-8.8 5.2,-14.2 13.7,-14.2 z m -0.2,21.1 c 3.2,0 5.1,-2.6 5.1,-7.2 0,-4.5 -1.8,-7.2 -5,-7.2 -3.3,0 -5.2,2.6 -5.2,7.2 0,4.5 1.9,7.2 5.1,7.2 z"
   id="path3539"
   style="fill:#ffffff;fill-opacity:1" />
				</g>
			</g>
			<g
   id="g3555"
   style="fill:#ffffff;fill-opacity:1">
				<path
   fill="#c9325e"
   d="m 48.4,134.6 c -1,0.1 -2.1,0 -3.1,-0.2 -1,-0.3 -2,-0.7 -2.8,-1.2 -0.8,-0.5 -1.4,-1.2 -1.9,-1.9 -0.5,-0.7 -0.6,-1.5 -0.5,-2.4 0.8,0 1.5,0.2 2,0.5 0.6,0.3 1.2,0.7 1.8,1 0.6,0.4 1.2,0.7 1.9,1 0.7,0.3 1.4,0.5 2.4,0.5 2.2,0 4.1,-0.5 5.6,-1.4 1.5,-1 2.7,-2.2 3.7,-3.8 0.9,-1.6 1.6,-3.4 2,-5.3 0.4,-2 0.6,-4 0.6,-6.1 0,-0.5 0,-1.4 -0.1,-2.5 -0.1,-1.1 -0.1,-2.5 -0.2,-3.9 -0.1,-1.4 -0.2,-3 -0.3,-4.6 -0.1,-1.6 -0.2,-3.1 -0.3,-4.6 -0.1,-1.4 -0.2,-2.7 -0.3,-3.9 -0.1,-1.2 -0.2,-2 -0.3,-2.5 -0.3,0.8 -0.7,1.7 -1.2,2.8 -0.5,1.1 -1,2.3 -1.6,3.5 -0.6,1.2 -1.3,2.5 -2,3.7 -0.7,1.2 -1.6,2.3 -2.5,3.3 -0.9,1 -1.9,1.7 -3,2.3 -1.1,0.6 -2.3,0.9 -3.5,0.9 -0.7,0 -1.2,-0.3 -1.5,-1 -0.4,-0.7 -0.6,-1.4 -0.8,-2.2 -0.2,-0.8 -0.3,-1.7 -0.4,-2.5 -0.1,-0.8 -0.1,-1.4 -0.1,-1.8 -0.2,-2.5 -0.2,-4.9 0,-7.3 0.2,-2.4 0.6,-4.7 1.2,-6.7 0.6,-2.1 1.4,-4 2.4,-5.6 1,-1.7 2.2,-2.9 3.6,-3.9 1.4,-0.9 3,-1.5 4.9,-1.6 1.8,-0.1 3.9,0.3 6.1,1.2 0.6,-0.1 1,0.3 1.2,1 0.2,0.8 0.3,1.7 0.3,2.8 0,1.1 -0.1,2.3 -0.2,3.5 -0.1,1.2 -0.2,2.3 -0.2,3.1 0,2 0.1,4 0.2,6 0.2,2 0.3,4 0.5,6 0.2,2 0.4,4 0.5,5.9 0.2,2 0.2,4 0.2,6 0,2.3 -0.2,4.7 -0.7,7.3 -0.5,2.6 -1.3,4.9 -2.4,7.1 -1.1,2.2 -2.6,4 -4.5,5.4 -1.7,1.4 -4,2.1 -6.7,2.1 z m -3.6,-33.7 c 0,0.4 0,0.9 0,1.4 0,0.6 0.1,1.1 0.2,1.6 0.1,0.5 0.3,1 0.6,1.3 0.3,0.4 0.7,0.5 1.2,0.5 1.1,0 2.1,-0.5 3,-1.5 0.9,-1 1.8,-2.2 2.6,-3.7 0.8,-1.5 1.5,-3.2 2.1,-5 0.6,-1.8 1.2,-3.7 1.6,-5.4 0.4,-1.8 0.8,-3.4 1,-4.8 0.2,-1.4 0.3,-2.5 0.3,-3.2 -2.3,-0.8 -4.3,-0.8 -6,0.1 -1.7,0.9 -3,2.3 -4,4.2 -1,1.9 -1.8,4.2 -2.2,6.7 -0.3,2.6 -0.4,5.2 -0.4,7.8 z"
   id="path3545"
   style="fill:#ffffff;fill-opacity:1" />
				<path
   fill="#c9325e"
   d="m 67.8,71.7 c -0.3,0 -0.6,-0.1 -0.9,-0.3 -0.3,-0.2 -0.6,-0.4 -0.9,-0.7 -0.3,-0.3 -0.4,-0.6 -0.5,-0.9 -0.1,-0.3 0,-0.6 0.2,-0.8 0.2,-0.5 0.5,-0.9 0.9,-1.3 0.5,-0.4 0.9,-0.6 1.4,-0.8 0.5,-0.1 0.9,-0.1 1.3,0.1 0.4,0.2 0.5,0.6 0.5,1.3 0,0.3 0,0.7 -0.1,1.1 -0.1,0.4 -0.2,0.8 -0.3,1.1 -0.2,0.3 -0.4,0.6 -0.7,0.9 -0.2,0.2 -0.5,0.3 -0.9,0.3 z m 2.4,37.2 c -0.2,0 -0.4,0 -0.7,-0.1 -0.3,-0.1 -0.6,-0.2 -0.9,-0.3 -0.3,-0.2 -0.6,-0.3 -0.8,-0.5 -0.2,-0.2 -0.3,-0.5 -0.3,-0.7 L 67.4,79.6 c 0,-0.3 0.1,-0.5 0.3,-0.7 0.2,-0.2 0.5,-0.4 0.8,-0.5 0.3,-0.2 0.6,-0.3 0.9,-0.3 C 69.7,78 70,78 70.1,78 Z"
   id="path3547"
   style="fill:#ffffff;fill-opacity:1" />
				<path
   fill="#c9325e"
   d="m 74.3,85.2 c -0.1,-0.5 -0.3,-1.1 -0.5,-1.9 -0.2,-0.8 -0.4,-1.6 -0.5,-2.4 -0.2,-0.8 -0.2,-1.6 -0.2,-2.3 0,-0.7 0.1,-1.3 0.3,-1.8 0.2,-0.4 0.6,-0.7 1.2,-0.7 0.6,0 1.4,0.2 2.4,0.8 0.1,0.4 0.2,1 0.3,1.9 0.1,0.9 0.3,1.9 0.4,2.9 0.2,1 0.3,2 0.4,2.9 0.1,0.9 0.2,1.5 0.2,1.9 0.7,-1.5 1.6,-3 2.7,-4.4 1.1,-1.4 2.3,-2.6 3.7,-3.6 1.4,-1 3,-1.9 4.7,-2.5 1.7,-0.6 3.5,-0.9 5.4,-0.9 l -0.6,3.3 c -2.5,0.4 -4.8,1.5 -6.9,3.1 -2.1,1.7 -3.9,3.8 -5.3,6.4 -1.4,2.6 -2.4,5.7 -2.9,9.2 -0.5,3.5 -0.3,7.3 0.5,11.4 l -3.6,0.7 c 0,0 -0.1,-0.5 -0.2,-1.4 -0.1,-0.9 -0.2,-2.1 -0.3,-3.5 -0.1,-1.4 -0.2,-3 -0.3,-4.8 -0.1,-1.8 -0.2,-3.5 -0.3,-5.3 -0.1,-1.8 -0.2,-3.5 -0.4,-5 0,-1.6 -0.1,-2.9 -0.2,-4 z"
   id="path3549"
   style="fill:#ffffff;fill-opacity:1" />
				<path
   fill="#c9325e"
   d="m 97.5,58.8 3.2,-0.5 c 0.2,2 0.3,4.4 0.4,7.2 0.1,2.8 0.2,5.7 0.3,8.8 0.1,3.1 0.2,6.2 0.3,9.4 0.1,3.2 0.1,6.2 0.2,9 0.1,2.8 0.1,5.4 0.2,7.7 0.1,2.3 0.2,4.1 0.3,5.4 0,0.5 -0.1,1 -0.3,1.5 -0.2,0.5 -0.4,0.8 -0.7,1 -0.3,0.2 -0.6,0.2 -0.9,0.1 -0.3,-0.2 -0.7,-0.6 -0.9,-1.3 z"
   id="path3551"
   style="fill:#ffffff;fill-opacity:1" />
				<path
   fill="#c9325e"
   d="m 105.2,97.6 c 0.3,-0.7 0.7,-1.1 1.1,-1.2 0.4,-0.2 1,-0.2 1.7,-0.1 1.4,1.3 2.8,2.5 4.2,3.6 1.4,1.1 3,2.1 4.5,2.9 1.6,0.8 3.2,1.5 5,1.9 1.7,0.5 3.6,0.7 5.5,0.7 0.4,0 0.8,0 1.3,0 0.5,0 1,-0.1 1.4,-0.2 0.4,-0.1 0.7,-0.4 1,-0.7 0.3,-0.3 0.4,-0.7 0.4,-1.3 -0.2,-1.2 -0.8,-2.2 -1.8,-3 -1.1,-0.9 -2.3,-1.7 -3.8,-2.5 -1.5,-0.8 -3.1,-1.6 -4.8,-2.4 -1.7,-0.8 -3.2,-1.8 -4.6,-2.8 -1.4,-1.1 -2.5,-2.3 -3.3,-3.6 -0.8,-1.4 -1.2,-3 -1,-4.9 0,-1.1 0.3,-2 1,-2.9 0.7,-0.8 1.5,-1.6 2.5,-2.2 1,-0.6 2,-1.1 3.1,-1.4 1.1,-0.3 2.1,-0.5 2.9,-0.5 1.7,0 3.3,0.2 5,0.7 1.7,0.5 3.2,1.2 4.6,2.1 l -1.6,2.2 c -0.7,-0.6 -1.5,-1 -2.6,-1.3 -1,-0.3 -2.1,-0.4 -3.1,-0.5 -1.1,0 -2.1,0.1 -3.2,0.3 -1,0.2 -2,0.5 -2.7,0.9 -0.8,0.4 -1.4,0.9 -1.8,1.4 -0.4,0.6 -0.5,1.2 -0.3,1.8 0,1.8 0.5,3.3 1.4,4.4 1,1.1 2.2,2.1 3.6,2.9 1.5,0.8 3,1.6 4.7,2.2 1.7,0.7 3.3,1.4 4.7,2.2 1.5,0.8 2.7,1.8 3.6,2.9 1,1.1 1.4,2.6 1.4,4.4 0,1.1 -0.2,2 -0.5,2.7 -0.4,0.7 -0.8,1.2 -1.4,1.5 -0.6,0.3 -1.3,0.6 -2.1,0.7 -0.8,0.1 -1.7,0.2 -2.6,0.2 -2.1,0 -4.2,-0.3 -6.5,-0.8 -2.2,-0.5 -4.4,-1.3 -6.5,-2.2 -2.1,-1 -4.1,-2.1 -5.9,-3.5 -1.7,-1.5 -3.2,-3 -4.5,-4.6 z"
   id="path3553"
   style="fill:#ffffff;fill-opacity:1" />
			</g>
		</g><metadata
     id="metadata3510"><rdf:RDF><cc:Work
         rdf:about=""><cc:license
           rdf:resource="http://creativecommons.org/publicdomain/zero/1.0/" /></cc:Work><cc:License
         rdf:about="http://creativecommons.org/publicdomain/zero/1.0/"><cc:permits
           rdf:resource="http://creativecommons.org/ns#Reproduction" /><cc:permits
           rdf:resource="http://creativecommons.org/ns#Distribution" /><cc:permits
           rdf:resource="http://creativecommons.org/ns#DerivativeWorks" /></cc:License></rdf:RDF></metadata></svg>
