<?xml version="1.0" encoding="utf-8"?>
<!-- Generator: Adobe Illustrator 17.1.0, SVG Export Plug-In . SVG Version: 6.00 Build 0)  -->
<!DOCTYPE svg PUBLIC "-//W3C//DTD SVG 1.1//EN" "http://www.w3.org/Graphics/SVG/1.1/DTD/svg11.dtd">
<svg version="1.1" id="Réteg_1" xmlns="http://www.w3.org/2000/svg" xmlns:xlink="http://www.w3.org/1999/xlink" x="0px" y="0px"
	 viewBox="0 0 170.1 155.9" enable-background="new 0 0 170.1 155.9" xml:space="preserve">
<rect x="0.3" y="0" fill="#CA325F" width="169.8" height="155.9"/>
<g id="Réteg_2" display="none">
</g>
<g>
	<g>
		<path fill="#FFFFFF" d="M28.5,12.4l-7.1,33.4c1.1,0.8,2.3,1.2,3.4,1.2c7.1,0,11.4-14.2,11.4-26.2c0-8.1-3.5-11.2-8.7-11.2
			c-8.9,0-15.6,5.4-15.6,14.5c0,3,0.8,3.5,0.8,4c-3.9,0-6.4-1.5-6.4-5.5c0-8.2,10.1-15.7,22.1-15.7c11.5,0,15.9,8,15.9,17.1
			c0,13.7-7.7,28.3-16.5,28.3c-2.3,0-4.7-1-7.3-3.2l-0.5,2.4h-8.6l8.1-37.9L28.5,12.4z"/>
		<path fill="#FFFFFF" d="M58.1,21.6l-0.8,3.7c2.1-1.8,4.3-3.7,7.2-3.7c2.7,0,4.1,2.2,4.1,4.5c0,2.1-1.4,4.3-4.3,4.3
			c-3.3,0-1.7-3.9-3.5-3.9c-1.8,0-2.9,0.9-4.3,2.3l-4.8,22.6h-8.6l6.3-29.8H58.1z"/>
		<path fill="#FFFFFF" d="M80.2,46.8c4.7,0,7.6-2.6,10.5-6h2c-3.4,5.5-8.5,11-16.4,11c-5.6,0-9.3-2.7-9.3-9.5
			c0-6.8,3.9-21.2,16.1-21.2c5.3,0,6.5,2.7,6.5,5.7c0,6.8-6.5,12.1-13.7,12.6c-0.1,0.8-0.1,1.7-0.1,2.4
			C75.9,45.8,77.3,46.8,80.2,46.8z M83.6,24.3c-3,0-6,6.4-7.1,12.3c4.6-0.3,8.6-4.9,8.6-9.8C85.1,25.2,84.7,24.3,83.6,24.3z"/>
		<path fill="#FFFFFF" d="M119.3,21.6L115,41.9c-0.2,0.8-0.2,1.4-0.2,1.9c0,1.7,0.8,2.6,2.4,2.6c2.3,0,3.9-2.6,4.8-5.6h2.5
			c-3.4,9.7-8.7,11-12,11c-3.3,0-5.5-1.9-5.8-5.5c-1.8,2.7-4.6,5.5-8.9,5.5c-4,0-7.9-2.5-7.9-9.6c0-8,4.9-20.8,15.3-20.8
			c3.4,0,4.8,1.3,4.8,3v0.4l0.7-3.2H119.3z M98.7,41.3c0,4.6,1.9,4.6,3,4.6c1.7,0,4.2-1.8,4.9-5.2l2.9-13.5c0-0.7-0.5-2.3-2.4-2.3
			C102,25,98.7,35.8,98.7,41.3z"/>
		<path fill="#FFFFFF" d="M151.7,26.8c-2.1,0-3.7,2.5-4.6,5.5l-4,19.1h-8.6l4.3-20.5c0.1-0.5,0.2-1,0.2-1.5c0-1.3-0.5-2.6-1.8-2.6
			c-2.3,0-3.9,2.6-4.8,5.5l-4,19.1h-8.6l6.3-29.8h8.6l-0.7,3.1c2.5-2.9,5.2-3.4,7.3-3.4c3.2,0,5.5,1.4,6.1,5.1
			c2.9-4.4,6.1-5.1,8.3-5.1c3.8,0,6.6,2,6.6,6.7c0,4.8-2.9,12-2.9,15.4c0,1.5,0.6,2.5,2.4,2.5c1,0,1.6-0.1,2-0.4
			c-0.5,4.3-3.4,6.1-6.5,6.1c-4.6,0-6-3.3-6-6.7c0-4,2.7-11.4,2.7-15.2C153.8,27.9,153.1,26.8,151.7,26.8z"/>
	</g>
	<g>
		<path fill="#FFFFFF" d="M61.2,90.7c-3.2,8-11.5,11.1-17,11.1c-8.8,0-13-3.9-13-14.6c0-10.8,5.2-30.9,20.8-30.9
			c5.6,0,9.9,2.2,9.9,8c0,3.2-1.1,5.5-4.2,5.5c-1,0-2.3-0.2-3.4-1.5c1.4-0.7,2.7-3.2,2.7-5.5c0-1.9-1-3.6-3.6-3.6
			c-6.5,0-12.4,15.7-12.4,27.8c0,5.5,1.4,9.3,7.1,9.3c4.6,0,8.9-2.3,11.6-6L61.2,90.7z"/>
		<path fill="#FFFFFF" d="M82.8,80c0.2,0.1,0.5,0.1,0.7,0.1c2.7,0,6.6-1.8,9.2-3.6l0.5,1.6c-2.3,2.4-6.2,4.2-10.5,4.9
			c-1,11-6.9,17.9-14.2,17.9c-5.5,0-9.5-2.6-9.5-9.4c0-6.8,4-21.1,16.3-21.1C80.3,70.5,82.8,73.8,82.8,80z M77.7,83.3
			c-1.2-0.3-1.6-1.3-1.6-2.5c0-1.7,0.8-2.7,1.8-3.2c-0.1-2.5-0.7-3.5-2.3-3.5c-4.2,0-7.9,10.9-7.9,16.7c0,3.9,0.8,4.8,3,4.8
			C73.7,95.7,76.7,90.3,77.7,83.3z"/>
		<path fill="#FFFFFF" d="M116.9,59.1L110,91.3c-0.2,0.8-0.2,1.4-0.2,1.9c0,1.7,0.8,2.2,2.4,2.2c2.3,0,3.9-2.3,4.8-5.2h2.5
			c-3.4,9.7-8.7,10.7-12,10.7s-5.4-1.8-5.8-5.1c-1.8,2.7-4.6,5.5-8.8,5.5c-4,0-7.9-2.5-7.9-9.6c0-8,4.9-20.8,15.3-20.8
			c3.4,0,4.8,1.3,4.8,3V74l2.9-13.7L116.9,59.1z M101.7,90.1l2.9-13.6c-0.1-0.7-0.7-2.1-2.4-2.1c-5.1,0-8.3,10.7-8.3,16.3
			c0,4.6,1.9,4.6,3,4.6c1.7,0,4.1-1.7,4.9-4.9V90.1z"/>
		<path fill="#FFFFFF" d="M128.7,95.5c2.3,0,5.1-1.5,7-3.2c-1.2,6.8-5.5,8.8-10.3,8.8c-5.5,0-9.2-2.7-9.2-9.5
			c0-6.8,3.9-21.2,16.1-21.2c5.3,0,6.5,2.7,6.5,5.7c0,6.9-6.5,12.1-13.7,12.6c-0.1,0.6-0.1,1.2-0.1,1.8
			C125,94.3,126.6,95.5,128.7,95.5z M132.8,73.6c-3,0-6,6.6-7.2,12.3c4.6-0.2,8.7-4.8,8.7-9.8C134.3,74.6,133.9,73.6,132.8,73.6z"/>
	</g>
	<g>
		<path fill="#FFFFFF" d="M43.7,139c-3.2,8-11.5,11.1-17,11.1c-8.8,0-13-3.9-13-14.6c0-10.8,5.2-30.9,20.8-30.9c5.6,0,9.9,2.2,9.9,8
			c0,3.2-1.1,5.5-4.2,5.5c-1,0-2.3-0.2-3.4-1.5c1.4-0.7,2.7-3.2,2.7-5.5c0-1.9-1-3.6-3.6-3.6c-6.5,0-12.4,15.7-12.4,27.8
			c0,5.5,1.4,9.3,7.1,9.3c4.6,0,8.9-2.3,11.6-6L43.7,139z"/>
		<path fill="#FFFFFF" d="M54.8,119.3L54,123c2.1-1.8,4.3-3.7,7.2-3.7c2.7,0,4.1,2.2,4.1,4.5c0,2.1-1.4,4.3-4.3,4.3
			c-3.3,0-1.7-3.9-3.5-3.9c-1.8,0-2.9,0.9-4.3,2.3l-4.8,22.6h-8.6l6.3-29.8H54.8z"/>
		<path fill="#FFFFFF" d="M76.9,144.5c4.7,0,7.6-2.6,10.5-6h2c-3.4,5.5-8.5,11-16.4,11c-5.6,0-9.3-2.7-9.3-9.5
			c0-6.8,3.9-21.2,16.1-21.2c5.3,0,6.5,2.7,6.5,5.7c0,6.8-6.5,12.1-13.7,12.6c-0.1,0.8-0.1,1.7-0.1,2.4
			C72.6,143.5,74,144.5,76.9,144.5z M80.3,122c-3,0-6,6.4-7.1,12.3c4.6-0.3,8.6-4.9,8.6-9.8C81.8,122.9,81.4,122,80.3,122z"/>
		<path fill="#FFFFFF" d="M116,119.3l-4.3,20.2c-0.2,0.8-0.2,1.4-0.2,1.9c0,1.7,0.8,2.6,2.4,2.6c2.3,0,3.9-2.6,4.8-5.6h2.5
			c-3.4,9.7-8.7,11-12,11c-3.3,0-5.5-1.9-5.8-5.5c-1.8,2.7-4.6,5.5-8.9,5.5c-4,0-7.9-2.5-7.9-9.6c0-8,4.9-20.8,15.3-20.8
			c3.4,0,4.8,1.3,4.8,3v0.4l0.7-3.2H116z M95.4,139c0,4.6,1.9,4.6,3,4.6c1.7,0,4.2-1.8,4.9-5.2l2.9-13.5c0-0.7-0.5-2.3-2.4-2.3
			C98.7,122.7,95.4,133.4,95.4,139z"/>
		<path fill="#FFFFFF" d="M133.3,109.9l-2,9.4h3.6l-0.5,2.4h-3.6l-3.8,17.9c-0.2,0.8-0.2,1.4-0.2,1.9c0,1.7,0.8,2.2,2.4,2.2
			c2.3,0,4.5-2.3,5.4-5.2h2.5c-3.4,9.7-9.3,11-12.5,11c-3.6,0-6.4-2.1-6.4-7.1c0-1.1,0.2-2.4,0.5-3.9l3.6-16.7h-2l0.5-2.4h2l1.8-8.2
			L133.3,109.9z"/>
		<path fill="#FFFFFF" d="M146.2,143.8c2.3,0,5.1-1.5,7-3.2c-1.2,6.8-5.5,8.8-10.3,8.8c-5.5,0-9.2-2.7-9.2-9.5
			c0-6.8,3.9-21.2,16.1-21.2c5.3,0,6.5,2.7,6.5,5.7c0,6.9-6.5,12.1-13.7,12.6c-0.1,0.6-0.1,1.2-0.1,1.8
			C142.6,142.6,144.2,143.8,146.2,143.8z M150.3,122c-3,0-6,6.6-7.2,12.3c4.6-0.2,8.7-4.8,8.7-9.8C151.8,122.9,151.4,122,150.3,122z
			"/>
	</g>
</g>
</svg>
