<?xml version="1.0" encoding="utf-8"?>
<!-- Generator: Adobe Illustrator 17.1.0, SVG Export Plug-In . SVG Version: 6.00 Build 0)  -->
<!DOCTYPE svg PUBLIC "-//W3C//DTD SVG 1.1//EN" "http://www.w3.org/Graphics/SVG/1.1/DTD/svg11.dtd">
<svg version="1.1" xmlns="http://www.w3.org/2000/svg" xmlns:xlink="http://www.w3.org/1999/xlink" x="0px" y="0px"
	 viewBox="0 0 99.2 99.2" enable-background="new 0 0 99.2 99.2" xml:space="preserve">
<g id="Réteg_2">
	<circle fill="#FFFFFF" stroke="#000000" stroke-width="0.4" stroke-miterlimit="10" cx="49.7" cy="49.3" r="46.5"/>
</g>
<g id="Layer_1">
	<g>
		<rect x="12.2" y="34.2" fill="#DA1C5C" width="10.7" height="21.5"/>
		<rect x="22.9" y="23.4" fill="#DA1C5C" width="21.5" height="12.7"/>
		<rect x="22.9" y="53.3" fill="#AD1D45" width="22.2" height="13.1"/>
		<rect x="33.6" y="65.2" fill="#DA1C5C" width="16.1" height="12"/>
		<rect x="44.4" y="65.2" fill="#EE2C78" width="10.7" height="22.7"/>
		<rect x="40.6" y="34.2" fill="#DA1C5C" width="19.9" height="13.7"/>
		<rect x="55.1" y="23.4" fill="#DA1C5C" width="21.5" height="12.1"/>
		<rect x="76.6" y="34.2" fill="#DA1C5C" width="10.7" height="21.5"/>
		<rect x="52.4" y="65.2" fill="#DA1C5C" width="13.4" height="12"/>
		<rect x="63.3" y="53.3" fill="#DA1C5C" width="13.2" height="13.1"/>
		<rect x="44.4" y="66.4" fill="#D63075" width="10.7" height="10.7"/>
		<rect x="44.4" y="53.5" fill="#DA1C5C" width="16.1" height="12.8"/>
		<rect x="55.1" y="55.2" fill="#EE2C78" width="10.7" height="11.1"/>
		<rect x="33.6" y="53.3" fill="#EE2C78" width="10.7" height="13.1"/>
		<rect x="33.1" y="44.9" fill="#AD1D45" width="24.3" height="10.7"/>
		<rect x="74.7" y="34.2" fill="#AD1D45" width="12.6" height="21.5"/>
		<rect x="55.1" y="34.2" fill="#EE2C78" width="10.7" height="11.7"/>
		<rect x="63.3" y="44.9" fill="#D63075" width="13.2" height="10.7"/>
		<rect x="55.1" y="44.9" fill="#DA1C5C" width="10.7" height="10.7"/>
		<rect x="65.8" y="34.2" fill="#F6B0CF" width="10.7" height="10.7"/>
		<rect x="22.9" y="44.5" fill="#DA1C5C" width="21.5" height="11.1"/>
		<rect x="22.9" y="34.2" fill="#D63075" width="10.7" height="10.7"/>
		<rect x="22.9" y="34.2" fill="#EE2C78" width="21.5" height="10.7"/>
		<rect x="65.8" y="23.4" fill="#D63075" width="10.7" height="10.7"/>
		<rect x="12.2" y="44.9" fill="#D63075" width="10.7" height="10.7"/>
		<rect x="22.9" y="23.4" fill="#AD1D45" width="10.7" height="10.7"/>
	</g>
</g>
</svg>
