<?xml version="1.0" encoding="utf-8"?>
<!-- Generator: Adobe Illustrator 17.1.0, SVG Export Plug-In . SVG Version: 6.00 Build 0)  -->
<!DOCTYPE svg PUBLIC "-//W3C//DTD SVG 1.1//EN" "http://www.w3.org/Graphics/SVG/1.1/DTD/svg11.dtd">
<svg version="1.1" xmlns="http://www.w3.org/2000/svg" xmlns:xlink="http://www.w3.org/1999/xlink" x="0px" y="0px"
	 viewBox="0 0 198.4 153" enable-background="new 0 0 198.4 153" xml:space="preserve">
<g id="Réteg_1">
	<g>
		<g>
			<path fill="#4C2566" d="M68.8,40.6c-0.2,0-0.4,0-0.4-0.1c-0.1-0.2,0-0.4,0.2-0.5c0.2-0.1,0.4-0.1,0.6-0.1c0,0,0,0.1-0.1,0.1
				l1.4,0.2c0-0.1,0-0.2,0-0.3c0.4-0.1,0.3-0.6,0.4-0.7c0.2-0.2,0.4-0.5,0.4-0.9c0.2-0.3,0.3-0.7,0.1-1.1c-0.3-0.8-1.6-1.8-2.3-1.8
				c0.1,0.1,0.2,0.2,0.2,0.3c-0.7-0.3-1.6-0.3-2.5-0.1c-0.3-0.5-0.9-0.5-1.2-0.5c-0.3,0-0.2-0.5,0-0.5l1.5,0c0,0-0.1,0.1-0.1,0.1
				l2.2,0.2c1.2-2.7,3.2-5.5,5-7.8c0,0-0.1,0-0.1,0c0.3-0.4,0.7-0.8,1.1-1.2c-0.6,0.9-1.1,1.9-1.5,2.5c-1.1,1.8-3.6,3.9-4,6l0.1,0.1
				c0,0,0,0.1-0.1,0.1c0.1,0.1,0.3,0.1,0.4,0.2l0.1,0.1c0.6,0.6,1.3,1.2,1.6,2.1c0.3-0.1,0.5-0.2,0.7-0.3c-0.9,1-1.5,2-1.5,3
				c0,0,0,0,0,0c0,0,0,0,0,0c0,0.1,0,0.2,0,0.3l0.1,0.2c0.5,0.1,0.9,0.3,1.3,0.5c0.1,0.2,0.2,0.3,0.3,0.5
				C71.7,40.9,70.2,40.6,68.8,40.6z M149.5,46.3L149.5,46.3L149.5,46.3L149.5,46.3z M149.5,46.3L149.5,46.3L149.5,46.3z M149.5,46.3
				L149.5,46.3L149.5,46.3z M149.5,46.3L149.5,46.3L149.5,46.3z M80.7,44.2c0.8-0.9,1.2-2.9,0.6-4.2c-0.1,0-0.2-0.3-0.5-0.3
				c-0.8,0-1.5,0.2-2.1,0.4c0.3-0.4,0.5-0.7,0.8-1.1c-0.3,0-0.7,0.2-1,0.3l1-1.6c0.5-0.7,1.1-2.1,0.6-3.1c-0.2-0.4-0.6-0.9-1.3-0.7
				c-0.1,0-0.2,0-0.2,0.1c0.1-0.1,0.2-0.2,0.2-0.3c-1.6,0.2-3.8,1.3-5.4,2.7c0.1-0.2,0.3-0.5,0.3-0.7c0.9-0.6,1.8-1.2,2.8-1.6
				c1-0.4,2.1-0.9,2.4-2c1.2-2.2,2.8-4,2.9-7.2c0-0.6-0.2-1.2-0.5-1.6c-0.1-0.2-0.3-0.3-0.5-0.3c-1.7,0.8-3,1.9-4.3,3.1
				c0.3-0.6,0.6-1.3,0.9-1.9c-0.2,0-0.4,0.1-0.6,0.3c1.1-2.2,2.1-4.6,3.1-7c0.5-1.2,0.8-3.1,0.1-4.2c-0.4-0.7-1.8-0.8-2.5-0.4
				c-4.5,2.6-8,6.5-10.7,11.1c0.5-1.5,1.2-3,2.1-4.1c-1.6,1.5-2.5,3.8-3.7,5.6c-0.7,1.1-1.4,2.2-1.9,3.4c0.5-1,1-2,1.5-3
				c0,0,0,0,0,0c2.9-5.7,6.8-10.4,12-13.6c1.2-0.8,3.2-0.3,3.9,0.8l0,0l0,0c0.8,1.3,0.4,3.4-0.2,4.9c0,0,0,0,0,0l0,0
				c-0.7,1.9-1.7,3.5-2.4,5.5c0,0,0,0,0,0.1c0,0.1,0.1,0.2,0.2,0.2c0,0,0.1,0,0.1,0l0,0c0.7-0.6,1.5-1.2,2.6-1.3
				c1,0.2,1.7,1.3,1.6,2.7h0h0c-0.2,2.6-1.5,4.4-2.5,6.3c0,0,0,0,0,0c-0.3,0.7-0.7,1.3-1.1,1.8c0,0,0,0.1,0,0.1c0,0.1,0,0.1,0.1,0.2
				c0.3,0.2,0.6,0.1,0.8,0.2v0v0c0.7,0.4,1.1,1.3,1.2,2.4c0.1,1-0.2,2.1-0.8,2.7l0,0l0,0c-0.1,0.1-0.1,0.1-0.2,0.2
				c0,0.1,0,0.2,0.1,0.3c0.2,0.1,0.3,0.1,0.4,0.1c0.8-0.1,1.5,0.4,1.7,1.1l0,0l0,0c0.7,1.8-0.3,3.9-1.3,4.9l0,0c0,0-0.1,0.1-0.1,0.1
				c0,0,0,0.1,0,0.1c-0.7,0.3-1.4,0.7-1.9,1.1L80.7,44.2z M55,42.4c-0.1,0.2-0.1,0.4-0.2,0.6c-0.3,0.9-0.5,1.9-0.7,2.7
				c-0.3,1.2-0.5,2.6-0.7,4.2C53.6,47.1,54.2,44.5,55,42.4z M61.5,58.2L60.7,58c0.1-0.1,0.1-0.2,0.2-0.4c0.7,0.2,1.3,0.4,1.9,0.6
				C62.3,58.2,61.9,58.2,61.5,58.2z M58.9,55.9c0.3-1,0.5-2.1,0.7-3.2c0.3-1.2,0.5-2.3,0.6-3.4c0,0.4,0,0.8-0.1,1.2
				c-0.1,1.3-0.3,2.6-0.6,3.9c-0.2,0.6-0.7,2.6-0.6,3.3l-0.1,0c-0.1,0.3-0.2,0.5-0.4,0.8C58.6,57.7,58.7,56.8,58.9,55.9z M54.3,59.2
				c-0.3-0.9-0.5-1.8-0.7-2.8c0.2,0.6,0.4,1.2,0.7,1.7l0.1-0.1c0,0,0,0,0,0c0,0,0,0,0,0l0.1,0c0-0.7,0.1-1.3,0.2-1.9
				c0.2-0.5,0.4-0.9,0.7-1.3c0,0,0,0,0,0c0.3,0.6,0.4,1.4,0.4,2.1c0,0,0,0,0,0c0,0.1,0,0.1,0,0c0,0,0,0,0,0c0.3-0.4,0.6-0.7,0.9-0.9
				c0.1,0,0.1-0.1,0.2-0.1c0,0,0.1,0,0.1,0c0.2,0.2,0.2,0.8,0.2,1.4c-0.1,0.4-0.1,0.8-0.2,1.3c0,0.1-0.2,0.5-0.2,0.3
				c-0.1-0.6,0-1.2,0.1-1.8c0-0.2,0.4-0.8,0-0.7c-0.5,0.1-0.6,0.6-0.7,1c-0.1,0.2-0.5,0.4-0.6,0.3c-0.1-0.5,0-1.2-0.2-1.8
				c0-0.1-0.1-0.5-0.2-0.1c-0.2,0.9-0.5,2-0.4,3.1c0,0.3,0.5,0.5,0,0.7c0,0-0.1,0-0.1,0C54.5,59.6,54.3,59.4,54.3,59.2z M49.4,60.4
				c-0.5,0.7-1,1.3-1.5,1.9C48.4,61.7,48.9,61,49.4,60.4z M82.2,63.9c0.1,0,0.2,0,0.4,0l0,0.2c-0.1,0-0.1,0-0.2,0c0,0,0,0,0,0
				C82.3,64.1,82.2,64,82.2,63.9z M35,68.2c-0.8-0.2-1.8-0.3-2.8-0.3c4.2-0.1,8.2-1.4,11-3.1c1.8-1.1,3.5-2.2,5-3.6
				c-0.2,0.5-0.4,1-0.6,1.5c-0.1,0.1-0.2,0.2-0.3,0.3c-1.7,1.6-4.4,2.7-6.6,3.6c0.9-0.3,1.7-0.5,2.6-0.8c-1.8,1-3.8,1.7-6.1,2.1
				c-0.7,0.2-1.5,0.4-2.4,0.5C34.9,68.2,35,68.2,35,68.2z M168.3,70.6c-0.4-0.2-0.8-0.1-1.1,0.1c-3.1,1.3-5.5,3.3-8,5.3
				c0.6-0.8,1.2-1.5,1.9-2.2c-0.4,0.3-0.7,0.5-1.1,0.8c2.3-1.9,4.8-3.5,7.7-4.6v0c0,0,0,0,0,0c0.2-0.1,0.5,0,0.7,0.1
				c0.2,0.1,0.3,0.3,0.3,0.5h0h0c-0.2,2.4-1.1,4.2-1.9,6.2c-0.3,0.2-0.6,0.4-0.9,0.7C167,75.5,168,73.4,168.3,70.6z M85.2,80.9
				c-2.3-2.1-3.9-4.8-5.1-7.9c0.1,0.2,0.2,0.4,0.4,0.5c1.5,3.4,4.1,6.2,6.7,8.7C86.5,81.8,85.9,81.3,85.2,80.9z M78.4,78.2
				c-0.6-0.7-1.2-1.4-1.8-2.2c-1.8-2.7-3.2-5.7-4.6-8.6c-1-2-3.8-5.7-6.7-7.8c1.9,1.2,3.6,2.8,5,4.4c2,2.7,3.6,5.8,5.3,8.7
				c1.5,2.5,3.4,4.7,5.5,6.7c2.9,2.8,6.7,5.1,12.1,5.2c0.2,0,0.5,0,0.7,0c-0.2,0-0.5,0-0.7,0c-2.6-0.1-4.5-1.1-6.1-2.3
				c-0.6-0.7-1.1-1.5-1.5-2.2c0.3,0.3,0.6,0.5,0.9,0.8c1.4,1,2.8,2,4.5,2.8c1.4,0.3,3.2,0.3,4.5,0.4c0,0.3,0.4,0.1,0.7,0
				c2.7-1,5.3-2.3,7.1-4.4c1.8-2.2,2.1-5.9,3.1-9c0.8-2.4,1-5.3,2.2-7.2c0.5-0.9,1.3-1.6,2.1-2.2c-2.3,0.6-3.7,2.3-4.8,4.4
				c-1.5,2.8-2.2,6.4-3.3,9.8c-1.5,4.4-6.1,7.8-11.8,6c-2.8-0.9-5.1-2.4-6.7-4.4c-0.3-0.7-0.5-1.5-0.7-2.3c0.7,1,1.5,1.9,2.4,2.7
				c2.2,2.1,4.8,3.9,9,3.8c3.8-0.5,5.7-3,7.1-6c0.7-1.6,0.9-3.8,1.6-5.3c0.5-1.1,0.7-2.3,1.3-3.4c1-1.9,2-3.5,3.4-4.8
				c-0.6,0.1-1.1,0.5-1.8,0.7c-1.5,1.3-3.2,3-4.4,4.9c-1.6,3.7-4.3,6.5-9.6,6c-1.1-0.1-2-0.5-2.8-0.9c-2.7-1.2-5-2.9-7-4.8
				c0-0.2,0-0.4,0-0.5L78.4,61c0,0.1-0.1,0.2-0.1,0.3L78,60.9c0.1,0.3,0.1,0.6,0.2,0.9c-0.2,1,0,2.1,0.2,3.3c0,0.9,0.1,1.8,0.1,2.7
				c-0.1-0.5-0.2-1.1-0.3-1.7c-0.9-4.9-1.8-9.7-4.1-13.3c-2.9-4.5-6.6-8.3-12.9-9.4c-0.3-0.1-0.3,0.2-0.3,0.4c0,0.5,0.1,1,0.1,1.5
				c-0.2-0.7-0.4-1.4-0.7-1.9c0,1,0,2.1-0.1,3.1c0-0.5-0.1-1-0.1-1.5c0-0.8-0.1-1.6-0.3-2.3c0.1,0.1,0.2,0.2,0.2,0.3
				c-0.1-1.9-1-3.9-2.9-3.2c0,0-0.1,0-0.1,0c-0.9,0.3-1.5,1-1.9,1.9c0.3-1.4,1.3-2.3,2.8-2.4c-0.5-0.3-0.9-0.4-1.4-0.2
				c-1,0.4-1.7,1.4-2.3,2c-1.2,2.4-2.1,5-2.5,8c-0.5,4.1-0.4,8.5,1.4,10.9c-0.1,0.2-0.4,0.3-0.6,0.3l-1.1-2.1
				c-0.2,0.1-0.3,0.2-0.5,0.3c0.1-0.1,0.2-0.2,0.3-0.4l0-0.3c0.1-1.3-0.4-2.5-0.6-3.8c0-0.1,0-0.2,0-0.3c0-0.1,0-0.1,0-0.1
				c-0.1-1.4-0.1-2.6,0.1-4c0-0.1,0-0.1,0-0.2c0.1-0.5,0.2-0.9,0.3-1.4h0c0.2-0.9,0.4-1.8,0.7-2.6c0.4-1.2,1.5-2.9,1.5-4
				c-0.2,0.2-0.4,0.4-0.6,0.6c-2.1,0.4-4.5,0.6-6.7,0.9c-3.3,1-6.1,2.6-8.6,4.5c-2.5,1.8-3.9,5-5.7,7.7c-1.1,1.7-2.5,3.4-4.6,3.8
				c-0.2,0-0.2,0.1,0,0.2c0.1,0,0.2,0.3,0.3,0.4l1.8,1c0.9,0,1.8-0.2,2.8-0.3c3.4-1.5,5.8-4.2,8.4-6.7c2.3-2.3,4.8-4.4,8.1-5.5
				c-0.1,0.1-0.2,0.2-0.3,0.4c0.4-0.2,0.9-0.3,1.3-0.3c0,0.1,0,0.2-0.1,0.3c-3.7,1.1-6.3,3.5-8.8,5.9c-1.9,1.9-3.7,4-6,5.5
				c-1,0.7-2.2,1.4-3.8,1.5c0.4,0.1,0.7,0.1,0.9,0.2c3.4,0.7,6.3-0.2,8.5-1.2c2.7-1.3,5-3.2,7.2-5.1c0,0.1,0,0.2,0,0.3
				c0.6,0,0.8-0.8,1.3-1.1c0.1,0.1,0.2,0.3,0.3,0.4c-2.3,2-4.6,4.1-7.3,5.6c-5.1,3.9-15.1,2.1-17.6-3.2c-0.9-1.8-2.2-3.4-4.7-3.7
				c0,0.2,0.2,0.1,0.2,0.1c0.1,0,0.1,0.1,0.1,0.1c1.9,0.8,2.8,2.6,2.6,5.1c0,0.3-0.1,0.6-0.1,0.9c0,0.2-0.1,0.4-0.1,0.6
				c-0.2,0.9-0.5,1.7-0.2,2.7c0.3,1.2,1.2,1.9,2.1,2.6c0.7,0.6,1.5,1.2,2.3,1.6c1.3,0.3,2.6,0.5,3.9,0.6c-0.6,0-1.3,0-1.9,0.1
				l-2,0.1c-0.9,1.2-1.3,3.2-1.8,4.7c-0.2,0.6-0.6,1.2-0.9,1.8c0.7-1.7,1.3-3.6,1.9-5.4c0,0,0,0,0,0c0.1-0.2,0.2-0.5,0.4-0.6
				c0.1,0,0.1-0.1,0.1-0.2c0-0.1,0-0.1-0.1-0.2c-2.2-1.1-4-2.7-5-5.1c-0.1-1.5,0.2-2.9,0.3-4.3c0,0,0,0,0,0c0.2-1.9-0.4-3.7-1.6-4.5
				c-0.8-0.5-1.9-0.5-2.7-0.9l0,0l0,0c0,0,0,0,0-0.1c0.1-0.1,0.2-0.2,0.3-0.3c1.7-0.8,3.8,0.2,5.1,1.1c0,0,0,0,0,0
				c1.4,1,1.9,2.8,3.2,4h0c0,0,0.1,0,0.1,0c1.5,0.1,2.5-0.4,3.2-1.1c0,0,0.1-0.1,0.1-0.1c0,0,0,0,0.1,0c0,0,0,0,0,0
				c0.1,0,0.1,0,0.1-0.1l0,0v0c0,0,0-0.1,0-0.1c0-0.1,0-0.1-0.1-0.1l0,0c-1.9-1.4-3-3.6-3.8-6.2c0,0,0,0,0,0
				c-0.2-0.7-0.3-1.5-0.5-2.3c0-1.3,0-2.9,0.7-3.4c0,0,0,0,0,0c0.3-0.3,0.6-0.6,0.9-0.5l0,0l0,0c2.1,0.1,3.4,1.1,4.5,2.3
				c-0.1-0.1-0.2-0.1-0.3-0.2c0,0.4,0,0.7,0,1.1c-0.6-0.6-1.2-1.2-1.8-1.7c-0.8-0.6-1.9-1.2-2.9-0.7c-0.5,1-0.7,2.1-0.6,3.3
				c0,0.1,0.1,0.6,0.1,0.7c0.6,3.1,1.9,5.5,4.1,7.4c0,0,0,0,0,0c0,0,0,0,0,0l0.3-0.3c0,0,0,0,0,0c0.1-0.1,0.3-0.3,0.4-0.5
				c1.2-1.3,3.5-3.4,3.6-5c0-0.2-0.1-0.5-0.2-0.8l0.1,0.1c0,0,0.1,0.1,0.1,0.1c0.1,0,0.1,0,0.1-0.1c3.4-3.9,7.6-7,13.6-7.9
				c1.8-0.3,3.4-0.6,5.4-0.7v0c0.1,0,0.1-0.1,0.2-0.1c0.1-0.3,0.3-0.5,0.7-0.6l0,0c0.1,0,0.1-0.1,0.1-0.2c0,0,0-0.1,0-0.1v0
				c0,0,0,0,0,0c0,0,0,0,0,0c-0.1-0.1-0.1-0.1-0.2-0.1c0.6-0.7,1.1-1.4,1.8-1.6c0,0,0,0,0,0c1.3-0.5,2.9,0.1,3.5,1.2
				c0,0.1,0.1,0.1,0.2,0.1c0.1,0,0.2-0.1,0.2-0.2c0-0.1,0-0.1,0-0.2c-0.1,1.4,0.1,2.5,0.8,2.8c0,0,0,0.1,0,0.1c0.1,0,0.1,0,0.2,0
				l1.8,0.8c0.6,0.2,1.3,0.4,1.9,0.6c-0.2-0.2-0.3-0.5-0.4-0.7c7.3,2.8,11.7,8.5,13.7,16.2c1.8,3.7,4.2,6.9,7.3,9.3
				c0.4,0.3,0.8,0.7,1.2,1c0,0.1-0.1,0.3-0.1,0.4c0.3,0.2,0.9,0.4,1.3,0.4c0.7,0.4,1.5,0.7,2.6,0.6c1.2-1.2,2.5-2.1,3.5-3.4
				c0.5-0.7,0.9-1.6,1.2-2.5c-0.3-0.7-1.1-1-2-1.1c-0.5,0-1.1,0-1.6,0c0.1-0.1,0.1-0.2,0.2-0.3c-1.3-0.4-4.1,1.1-4.9,1.8l0.3,1
				c0,0.8-0.1,1.6-0.3,2.3c-0.1,0.1-0.5,0.2-0.4-0.1c0.2-0.7,0.7-1.5,0.4-2.6c-0.1-0.2-0.1-0.4-0.3-0.6c0,0,0.1,0,0.1,0
				c-0.4-1.1-2.2-2.1-3.4-2.1c0.9-1,1-4.2,0.5-4.8L82.1,58c0,0.2,0.1,0.3,0.1,0.4c-0.8-0.4-1.7-0.7-2.7-0.8c-0.2,0-0.3-0.1-0.4-0.3
				c1.2,0.4,1.6-2.8,1.4-4.4l0.5,0.1c0,0.1,0,0.3,0,0.4c0,0.2,0,0.4,0,0.6c-0.2,1.1-0.8,1.9-0.9,3.1c0.5,0,1.2,0.1,1.8,0.3
				c0,0,0,0,0,0c0.7,0.3,1.4,0.8,1.9,1.3c0.2,0.2,0.3-0.1,0.4-0.2c0.9-0.9,1.7-1.8,2.3-3.1c0.4-0.7,0.7-1.4,0.9-2.4
				c0.2-0.9-0.1-1.6-0.7-1.9c-0.4,0-0.7,0-1,0.1c0.1-0.1,0.3-0.2,0.5-0.3c-1.8,0.2-4.4,0.9-5.6,1.9c0-0.3-0.1-0.5-0.2-0.7L80.3,52
				c0-0.1-0.1-0.3-0.1-0.4l0.1,0.4c0,0.3,0,0.7-0.1,1c-0.1-0.3-0.2-0.6-0.4-0.9c-0.7-0.8-1.9-1-3.1-1.4c-0.1,0-0.2-0.2-0.3-0.3
				c0.5,0.1,1,0.1,1.5,0.1c0-0.2,0-0.3,0-0.5c0,0,0,0,0.1,0c0-0.2,0-0.5-0.1-0.7c0-1.1-0.1-2.1-1.2-2.6l-0.3-0.2
				c0.1,0.2,0.1,0.4,0.2,0.5c-1.1-1-2.7-1.5-4.6-1.5c-0.4,0,0-0.4-0.2-0.6c0.2,0,0.4,0,0.6,0c-0.1,0.1-0.1,0.2-0.2,0.3
				c0.7,0.1,1.4,0,2.2,0c0.2-1,0.2-1.8-0.2-2.8c-0.2-0.4-0.5-1.1-1-1.5c0.1-0.1,0.1-0.2,0.2-0.3c0.5,0.3,0.9,0.8,1.1,1.3
				c0.9-0.8,1.8-1.6,2.9-2.1c-1.2,0.8-2.3,1.9-3.2,2.6l0.3,0.3c0.2,0.7,0.3,1.4,0.3,2.1c-0.1,0.1-0.2,0.2-0.3,0.3
				c0.1,0,0.2,0.1,0.2,0.1c0,0.1,0,0.2,0,0.3c0.6,0.2,1.2,0.6,1.8,1.1c0-0.1,0-0.3-0.1-0.4c0.4,0.4,0.8,0.8,1.2,1.2
				c0.1-0.1,0.3-0.2,0.4-0.3c-0.2,0.2-0.3,0.4-0.2,0.5l-0.1,0.4c0.2,0.9,0.4,1.6,0.2,2.5c0.2,0.1,0.6,0.2,0.8,0.2
				c0-0.1,0.1-0.2,0.1-0.3c0.9,0.4,1.7,1.1,2,2c2.1-1.9,3.9-4.1,4.8-7.2c0.1-0.5-0.5-0.8-0.9-0.8c-1,0.1-1.9,0.5-2.7,1
				c-0.2,0.1-0.4,0.2-0.6,0.3c0.6-0.7,1.3-1.3,2-1.4c-0.1,0-0.2,0-0.3,0c0.6-0.2,1.2-0.4,1.8-0.4l0,0l0,0c0.3,0,0.6,0.2,0.9,0.4
				c0.2,0.3,0.3,0.6,0.3,1h0h0c-0.2,2.5-1.4,3.9-2.8,5.6l0,0c0,0,0,0.1,0,0.1c0,0.1,0.1,0.2,0.2,0.2c0,0,0.1,0,0.1,0
				c1.1-0.5,2.7-0.9,3.8-0.4c0.5,0.6,0.7,1.6,0.5,2.5c-0.1,0.9-0.5,1.8-0.9,2.2l0,0c0,0,0,0,0,0.1h0c-0.5,1.2-1.1,2.1-2,2.9l0,0
				c0,0-0.1,0.1-0.1,0.1c0,0.1,0.1,0.2,0.2,0.2c0,0,0,0,0,0c-0.3,0.2-0.5,0.3-0.7,0.5l-0.2,0.1c-0.1,1.2-0.4,2.4-0.6,3.6
				c0,0,0.1,0,0.1,0.1c0,0,0,0.1-0.1,0.1c0.1,0,0.4,0,0.5,0.1c0.1,0,0.3,0.1,0.4,0.1c0.9,0.2,1.7,0.6,2.1,1.3c0,0.1,0.1,0.6,0.3,0.2
				c0.2-0.3,0.7-0.3,0.9-0.6c1.2-1.3,2.8-2.6,3.5-4.5c0.3-0.8-0.5-1.5-1.2-1.5c-0.4,0-0.8,0-1.2,0c0.2-0.1,0.5-0.2,0.7-0.4
				C89.1,58,88,58,86.9,58.3c1.1-0.3,2.3-0.5,3.7-0.3c1,0.5,1.6,1.5,1.2,2.7l0,0l0,0c-0.5,1.3-1.4,2.3-2.4,3.2c0,0-0.1,0.1-0.1,0.1
				c0,0.1,0.1,0.2,0.2,0.2c0,0,0,0,0.1,0c1.4-0.6,3.8-0.9,5.1,0.1c0,0,0,0,0,0c0.3,0.2,0.5,0.7,0.6,1.1c0.1,0.5,0,0.9-0.2,1.1l0,0
				c0,0,0,0,0,0.1c-0.6,1.6-1.6,2.7-2.7,3.6c-0.1,0-0.1,0.1-0.1,0.2c0,0.1,0,0.1,0.1,0.1c-0.6,0.4-1.2,0.9-1.8,1.2
				c-0.2,0-0.3,0.1-0.5,0.1l0,0c-0.1,0-0.3,0-0.5,0l0.4,0.1l-0.1,0.4c1.8,0.5,5.1,1.7,6.7,0.4c0.1-0.1,0.2-0.2,0.4-0.4
				c2.3-0.9,3.6-3,4.8-5.1c0.9-1.6,2.3-2.8,3.1-4.5c0-1.4,0.5-2.4,1.1-3.2c-2.7,1.2-4.3,3.3-5.8,5.4c-0.4,0.6-0.9,1.2-1.4,1.8
				c0-0.2,0.1-0.4,0.2-0.6c-0.4,0.2-0.8,0.5-1.3,0.8c0.7-0.8,1.3-1.8,1.9-2.7c0,0,0,0,0,0c0.6-0.9,1.2-1.7,1.9-2.4c0,0,0,0,0,0
				c1.8-2,4.1-3.5,7.2-4.1c0.1,0,0.2,0,0.2,0c0,0,0,0,0,0c0,0,0,0,0,0c0,0,0,0,0,0c0,0.1,0,0.2-0.1,0.2c0,0,0,0,0,0h0l0,0h0l0,0l0,0
				c0,0,0,0-0.1,0c-0.1,0-0.1,0-0.2,0c-0.1,0-0.3,0.2-0.4,0.4c-0.8,0.4-1.5,1-2,1.8l0,0l0,0c-0.3,0.5-0.2,1-0.5,1.4c0,0,0,0.1,0,0.1
				c0,0.1,0.1,0.2,0.2,0.2c0,0,0.1,0,0.1,0v0c1.9-1.1,4.7-1.5,7.3-1.5l0,0l0,0c0.2,0,0.4-0.1,0.6-0.2c0.1,0.1,0.1,0.1,0.1,0.2
				c0,0.1,0,0.1,0,0.1c0,0,0,0-0.1,0.1c0,0,0,0,0,0c-2.5,0.8-3.8,3-4.9,5.2c0,0,0,0,0,0.1l0,0c-0.6,2.3-1.2,4.8-1.6,7.3c0,0,0,0,0,0
				c0,0.2,0,0.4,0.1,0.6c0.1,0.2,0.3,0.3,0.5,0.3c0.3,0,0.5,0,0.8,0c-0.6,0-1.2,0.2-1.7,0.3c-1.3,0.3-1.1,1.8-1.5,3.1
				c-0.6,1.5-1.3,2.6-2.5,3.6c-2.2,1.9-5,2.5-7.6,3.7l0.9,0.1c0.5-0.1,1-0.1,1.5-0.2c-0.9,0.3-1.8,0.6-2.8,0.9c-0.5,0-0.9,0-1.3,0
				C86.6,85.5,81.9,82,78.4,78.2z M163,85.7c-0.5-0.4,0-1.1-0.4-1.7c-0.5-0.6-2-0.8-3.1-0.6c-0.7,0.1-1.3,0.3-1.8,0.6
				c0.2-0.2,0.5-0.3,0.7-0.5c-0.7-0.3-1.3-0.2-2,0.1c1.2-0.7,2.5-1.1,4.3-1.1c0.6-0.6,1.3-1.2,2-1.8c-0.5,0.6-0.9,1.1-1.4,1.7
				c0,0.3,0.2,0.1,0.3,0.3l0.6,0.9c0.6,0.2,0.9,0.9,0.9,1.5c0.1-0.1,0.1-0.1,0.2-0.2c0,0.2,0,0.4,0,0.5c0,0.2-0.1,0.3-0.2,0.3
				C163.1,85.8,163,85.8,163,85.7z M114.7,85.2c1.2-0.5,2-1.3,3.3-1.5c0-0.1,0-0.2,0-0.3c0.5-0.1,1.1-0.1,1.8-0.1
				c0.8-1.1,1.8-2.5,2.7-3.7l0.9-6c-0.2,0-0.5,0.1-0.7,0.2c-0.6,0.5-1.3,1-1.8,1.6c0.1-0.2,0.3-0.4,0.4-0.7
				c-1.3,1.4-2.7,2.9-3.9,4.4c-0.3,0.3-0.5,0.7-0.7,1.1c-1,1.3-1.9,2.7-2.8,4.2c0,0,0,0,0,0c-0.1,0.1-0.1,0.1-0.2,0.2l0.6,0.4
				c0,0.1,0.1,0.1,0.1,0.1L114.7,85.2z M120.3,84l0.1,0.8c0.5,0.7,0.8,1.5,0.5,2.3c0.5-0.3,1.5-1,1.9-1.6c0.1-0.2,0.2-0.4,0.3-0.5
				c1.1-0.7,2.5-1.2,4.4-0.8c1.6-2.5,3.3-5.6,3.1-9.7c0-0.3-0.3-0.4-0.6-0.3c-1.1,0.4-2,1.1-2.9,1.8c-0.7,0.6-1.4,1.2-2,1.9
				c0.2-0.3,0.3-0.7,0.5-1C124.5,78.2,119.8,82.8,120.3,84z M119.6,88.9c0.4-1.2,0.9-2.2,0.8-3.6c-0.4-0.6-1.1-0.9-1.8-0.9
				c0.3-0.1,0.7-0.3,1-0.4c-2.7-1-4.5,1.4-6.4,3l0.3,0.2c-0.1,0.1-0.2,0.2-0.3,0.3c-0.1,0.1-0.4,0-0.4-0.3c0.2-0.6,0.5-1.1,0.8-1.5
				c-0.5-0.7-1.4-1.1-2.5-1.2c-0.8-0.1-1.5,0.3-2.3,0.2c0-0.2,0-0.5,0.1-0.6c1.2-0.3,2.9-0.7,4.2-0.1c1-2,2.4-3.7,3.7-5.4
				c-1.8-1.5-4-2.9-6.9-3.4c0.4-0.2,0.8-0.3,1.2-0.2c-0.2-0.2-0.4-0.4-0.6-0.5c0.2,0,0.5,0.1,0.7,0.1v0c0,0,0,0,0,0
				c0,0.2,0.1,0.4,0.1,0.6l0.4-0.1c1.7,0.5,3.1,1.9,4.7,2.2c0.3,0.1,0.5,0.1,0.8,0c0.1,0.1,0.3,0.5,0.5,0.2c0.2-0.3,0.4-0.5,0.6-0.8
				c0.6-0.5,1-1.2,1.7-1.8c0,0,0,0,0,0c0.8-0.8,1.7-1.5,2.8-2c0,0,0.1,0,0.1,0c0.2,0,0.5,0.1,0.7,0.3c0.8,0.9,0,3.2,0.3,4.4
				c0,0.1,0,0.2-0.1,0.3c0,0,0.1-0.1,0.1-0.1c0,0,0,0,0,0c1.1-0.7,2.1-1.6,3.1-2.4c1-0.8,2.3-1.2,3.3-1.9c-0.1-0.1-0.3-0.2-0.4-0.3
				c0.2,0,0.4-0.1,0.5-0.1c1.1-0.8,2.3-1.8,3.7-2.4c4.6-1.8,7.8-5.3,9.3-10.6c-0.7,1.5-1.9,2.7-3.1,3.7c-2.3,2.1-5.6,3.1-8.4,4.7
				c-1.2,0.7-2.3,1.6-3.1,2.7c-0.1-0.3-0.1-0.7,0-1c1.1-1.2,2.4-2.2,3.9-2.9c3.7-1.8,7.6-3.3,9.6-6.8c0.4-0.7,0.9-1.3,1.2-2
				c0.5-1.2,0.4-3,0.8-4.5c-0.1-2.1,0.2-4.9,1.5-6.2c-2.4,1.1-3.9,2.8-5.3,4.7c-1.6,2.1-2.9,4.5-5.1,6.1c-1.2,0.9-2.5,1.8-4.1,2.2
				c-3.5,0.8-6.5,2.3-8.8,4.5c-1.1,0.7-2.3,1.6-3.1,2.7c-0.9,1.2-1.4,3.4-2.4,4.4c-0.2,0.2-0.3,0.3-0.5,0.4c1-2.3,2.3-4.2,3.7-6.1
				c2.4-3.2,5.9-5.3,10.1-6.5c-4,0-7.5,0.6-10.1,2.2c-1.9,1.1-3.4,2.6-4.7,4.4c0.3-0.8,0.5-1.6,0.7-2.4c-0.6,0.5-1.5,1.6-2.3,3
				c1.3-2.3,3-4.1,5.2-5.4c0,0,0,0,0,0c2.7-1.7,6-2.6,10.2-2.6l0,0l0,0c4.7,0,7.4-2.5,9.3-5.5c2-3.2,4.4-6,8.3-7
				c0.8-0.2,1.5-0.3,2.5-0.3l0,0l0,0l0,0c0,0,0,0,0,0c0,0,0,0.1,0,0.1l0,0l0,0c-3,1.1-5.1,4.5-4.3,8.7c0.3,4.5-1.3,7.7-3.3,10.1
				c0,0,0,0,0,0.1c-1.8,3-4.5,5-7.7,6.5h0c0,0,0,0,0,0c-0.9,0.7-1.9,1.3-2.8,2.1v0c0,0-0.1,0.1-0.1,0.1c0,0,0,0,0,0h0
				c0.3,1,0,1.8-0.1,2.9h0h0c-0.1,0.7-0.4,1.3-0.5,2.3c0,0,0,0,0,0c0,0.1,0,0.1,0.1,0.1c-1.3,1.6-2.4,3.4-3.3,5l0.1,0.8
				c0,0.1,0.1,0.2,0.1,0.2c-0.2-0.3-0.4-0.5-0.6-0.5c-0.6-0.2-1.1-0.1-1.6,0c0.3-0.1,0.6-0.2,0.8-0.4c-0.9,0.3-1.7,0.4-2.5,1
				c-1.2,0.8-2.2,1.9-3.3,2.9l0.2,0.1c-0.2,0.2-0.4,0.5-0.5,0.7c0,0,0,0,0,0C119.8,89.3,119.6,89,119.6,88.9z M127.9,89.6
				c0-0.4,0-1.7-0.1-1.5c-0.2-0.1-0.3-0.2-0.4-0.3c0,0,0-0.1,0-0.1c0.1,0,0-0.4,0.3-0.1c0.1-0.2,0.1-0.4,0.1-0.6
				c0.1,0.4,0.2,0.9,0.4,1.3c0.5-0.2,1-0.5,1.5-0.9c-0.8,0.7-1.4,1.5-1.3,2l0.1,0c-0.1,0.1-0.1,0.2-0.2,0.2
				c-0.1,0.1-0.2,0.2-0.3,0.2C128,89.7,127.9,89.7,127.9,89.6z M150.9,90c0.6-0.9,1.3-2.2,0.8-3.7c-0.2-0.7-0.9-1.4-1.9-1.1
				c0,0,0,0,0,0c0.1-0.1,0.2-0.1,0.2-0.2c-1.2-0.4-2.3,0-3.4,0.7c0,0,0,0,0-0.1c1.2-1.1,2.5-1.8,4.4-1.9c-0.1,0.2-0.1,0.3-0.1,0.5
				l0.6,0.4c0.6,0.7,0.9,1.5,1.1,2.3c0.2-0.2,0.4-0.3,0.7-0.5c-0.9,1.2-1.6,2.5-2,3.2c0,0.4,0.1,0,0.3,0.1l0.1,0
				c-0.2,0.2-0.3,0.4-0.5,0.7C151.2,90.1,150.7,90.3,150.9,90z M142.1,91.1c0.8-1.1,1.4-2.5,2.1-3.7c-0.3-1.1-1.3-1.9-2.5-1.6
				c-0.3,0.1-0.6,0.2-0.9,0.3c0.5-0.3,1-0.6,1.5-0.8c-1.6,0.1-7.4,2.8-6.7,4.7c-0.2,0.2-0.5,0.3-0.7,0.5c-0.1,0.1-0.6,0.2-0.5,0
				c0.5-0.9,1.2-2,1.7-3.3c0-0.1,0.1-0.4,0-0.7c-0.1-0.2-0.2-0.4-0.4-0.5c-0.6-1-2.1-0.9-3.5-0.3c0-0.1,0-0.3,0-0.4
				c0.8-0.4,1.6-0.7,2.5-0.8c1.8-2.6,3.5-5.4,4.3-8.9c0.2-0.8,0.2-1.8-0.1-2.4c-0.9,0.3-1.6,0.8-2.2,1.3c-0.6,0.5-1.2,0.9-1.7,1.4
				c0.1-0.3,0.3-0.6,0.4-1c-0.4,0.3-0.8,0.5-1.1,0.8c0.9-0.9,1.8-1.7,2.9-2.3c0.6-0.1,1.3-0.5,1.8-0.9c0,0,0,0,0,0h0c0,0,0,0,0.1,0
				c0.1,0,0.1,0.1,0.2,0.1c0.2,0.1,0.3,0.3,0.4,0.5h0h0c0.1,0.4,0.2,0.9,0.1,1.2l0,0l0,0c-0.3,1.6-0.5,3.2-1,4.4c0,0,0,0.1,0,0.1
				c0,0.1,0.1,0.2,0.2,0.2c0,0,0.1,0,0.1,0c-0.2,0.3-0.4,0.5-0.5,0.8c-0.7,1-3.1,3.7-3,4.9c0,0.1-0.1,0.1,0,0.2l0.3,1.2
				c0.6,0.7,0.5,1.6,0.4,2.4c1-0.6,1.5-1.1,1.8-1.7c1.1-0.8,2.3-1.5,3.7-1.9l1-1.7c2-2.4,3.8-5.3,4-9.6c-0.2,0.1-1,0.2-1.2,0.4
				c-1.6,1-2.9,2.1-4.2,3.4c0.3-0.5,0.5-1,0.8-1.5c1-0.9,2-1.7,3.2-2.4c0.3-0.2,0.7-0.3,1-0.4c0.3,0,0.6,0,0.8,0.3l0,0l0,0
				c0.3,0.5,0.4,1.5,0,2.1h0c0,0,0,0,0,0.1l0,0c-0.1,0.9-0.4,1.6-0.7,2.5c0,0,0,0,0,0.1c0,0.1,0.1,0.2,0.2,0.2c0,0,0.1,0,0.1-0.1
				c2.6-2.6,5.4-4.9,8.5-6.8c0,0,0,0,0,0c0.2-0.1,0.5-0.2,0.7-0.2c0,0,0,0,0,0c0.4,0.1,0.9,0.6,0.9,1.1h0c0,0,0,0,0,0c0,0,0,0,0,0.1
				c0.2,0.7,0,1.8-0.3,2.5l0,0l0,0c-0.5,1.4-1,2.9-1.6,4.2h0c0,0,0,0,0,0.1c0,0,0,0,0,0.1c-0.6,0.6-1.4,1.4-2.1,2.1
				c0.4-0.8,0.8-1.7,1.2-2.6c0.9-2.1,2.2-3.8,2.2-6.6c0-0.3-0.5-0.2-0.7-0.1c-2.3,1.2-4.4,2.8-6.2,4.6c0.3-0.5,0.5-1.1,0.7-1.6
				c-1,1.7-2.8,3-4.1,4.5c-1,1.2-3.8,4.1-3.8,5.5l0.7,0.6c0.9,0.3,1.7,0.9,2,1.8c-1,1.2-1.8,2.7-2.1,3.8l-0.5,0.5
				c0,0-0.1,0.1-0.1,0.1C142.1,91.6,142.1,91.2,142.1,91.1z M72.1,88.8c0,0,0.1-0.1,0.3-0.1c-0.6,1.7-1,3.4-1.7,4.9
				c-0.2,0.4-0.4,0.8-0.6,1.2C70.9,93.1,71.6,91.1,72.1,88.8z M122.7,100.2c-2.6-0.8-5.3-1.6-8.1-2.2c-3.4-0.8-6.6-2-9.8-3.4
				l-3.1-2.2c0,0.5,0.3,1.1,0.8,1.8c-1.1-0.7-2.1-1.5-3-2.4c-0.3-0.3-0.6-0.8-0.5-1.5c0-0.1,0.3-0.2,0.5,0c0.5,0.7,1.1,1.3,1.9,1.8
				c5.6,3.8,12.6,6.3,21.1,7.2c3.2,0.3,6.2,0.1,9.1-0.1c8.1-0.7,15.8-1.9,22.3-4.4c6.9-2.7,13.3-5.8,18.8-10
				c4.7-3.6,9.3-7.3,12.6-12.5c0.1-0.2,0.4-0.6-0.1-0.6c-3.1-0.2-5.8,0.5-8.2,1.4c-2.3,0.8-4.4,1.8-6.4,2.9c0.8-0.7,1.6-1.4,2.4-2.1
				c-0.5,0.3-1,0.6-1.6,0.8c2.7-1.5,5.6-2.7,8.9-3.4c1.7-0.4,3.6-0.9,5.4-0.4c0.2,0,0.3,0.2,0.4,0.3c0.1,0.2,0.1,0.4,0,0.6l0,0
				c-1.4,3.4-4,5.5-6.3,8c-9.1,8.5-20.3,14.7-33.9,18.2c0,0,0,0,0,0c-6.9,1.3-14,2.3-22.3,2.3C123.4,100.2,123,100.2,122.7,100.2z
				 M79.9,102.6C79.9,102.6,79.9,102.6,79.9,102.6c-2.5-0.9-4.8-2.1-7.7-2.5c-0.2,0-0.3,0-0.5-0.1c0.1-0.3,0.3-0.7,0.4-1.1
				c1.2,0,2.4,0.1,3.3,0.6c2.5,0.7,4.5,1.9,6.3,3.4c-0.1,0-0.3,0-0.4,0c-0.1,0-0.1-0.1-0.2-0.1l-0.1,0.1c-0.2,0-0.4,0-0.6,0.1
				C80.3,102.8,80.1,102.7,79.9,102.6z M80.5,103l0.2,0.1l0,0c0,0,0,0-0.1,0C80.6,103.2,80.5,103.1,80.5,103z M134.1,104.4
				c-1.4-0.5-2.7-1-4.1-1.6c-0.4-0.2-0.9-0.3-1.3-0.5c2.7,0.7,5.2,1.5,7.6,2.5l0,0l0,0l0,0c0.2,0.1,0.4,0.2,0.6,0.3
				C136,104.8,134.8,104.7,134.1,104.4z M127.6,114.1c0.2,0,0.4-0.1,0.6-0.2c2-1.6,3.5-4,4.3-7c0.2,0,0.4,0.1,0.5,0.2
				c-0.8,3.4-2.5,5.7-4.7,7.5C128.1,114.5,127.8,114.3,127.6,114.1z M29.3,115.2C29.3,115.2,29.3,115.2,29.3,115.2
				c-0.3-0.1-0.7-0.3-1.1-0.3c0,0,0,0,0,0c0-0.1-0.1-0.1-0.1-0.2c-0.1-0.1-0.2-0.1-0.3-0.2c0,0,0,0,0,0c-4.4-1.5-7.5-4.3-9.7-7.8
				c-1.6-3.4-2.9-7-3.4-11.4c-0.5-4.1,0.3-7.9,2.2-10.1c0,0,0,0,0,0c1.8-2.8,4.1-5,5.7-8c0,0,0,0,0,0c0-0.1,0.1-0.1,0.1-0.2
				c0,0.1-0.1,0.3-0.1,0.4c0.9-0.8,1.7-1.7,2.5-2.6c-0.9,2.1-2,4.1-3.1,6c-2.1,2.7-4.5,5.1-5.6,8.8c-1.4,8.9,1.8,15.9,6,20.4
				c4.5,4.1,14.4,6.3,21.4,3.6c3.8-1.1,6.2-5.3,5.2-10.5c-0.1-0.4-0.4-0.9,0-1.3c0.2,0.3,0.2,0.6,0.3,0.8c1.2,2.8,0.6,7.4-1.2,9.1
				c1.8-0.7,3.9-1.3,5.4-2.4l0-0.1l0.2-0.1l0.1-0.1l0,0.1c0,0,0.2,0,0.1,0c3.7-2.2,7-4.6,10.2-7.2c1.5-1.2,2.9-2.6,4.1-4.2
				c-0.3,0.5-0.5,0.9-0.6,1.2l0.5,0.7c0.8,0.2,1.5,0.1,2.3,0.2c-1.1,0-2.1,0.1-3,0.3c0,0-0.1,0-0.1,0l0,0
				c-5.2,5.1-11.1,9.4-18.2,12.2c-2,0.5-3.6,1.4-5.2,2.3c0,0,0,0,0,0c-1.9,1-4.6,1.5-7.4,1.5C33.9,116.4,31.4,116,29.3,115.2z
				 M83.2,137.5c0.7,0.9,1.2,2.3,1.8,3.4l2.3-6.9c0.1-0.4,0.2-0.7,0-1.1c0,0,0-0.2-0.1-0.3c-1.6-2.5-4.1-4.3-7.2-5.4
				c-2.3-0.8-5.8-1.7-8.1-0.7c-1.7,2-3,4.1-4.5,6.1c1.3-0.4,2.6-0.6,3.8-0.6C76.2,131.9,80.7,134.6,83.2,137.5z M82.2,143.6
				C82.2,143.6,82.2,143.6,82.2,143.6C82.2,143.6,82.2,143.6,82.2,143.6c-5.5-0.4-9.3-2.6-12.9-4.9c0,0,0,0,0,0
				c-1.5-1-2.9-2.1-3.7-3.8l-0.3-1.8c0-0.1,0-0.1-0.1-0.1v0c-2.8-1.2-4.5-3.3-5.4-6.1c-0.4-1.3-0.6-3.1-0.1-4.5
				c2.9-2.9,6.5-5,9.6-7.6c0,0,0,0,0,0c3.8-3.1,7.4-6.5,10.6-10.3c-0.3,0.6-0.6,1.3-0.8,2.1c-1.6,1.8-3.3,3.6-5.1,5.2
				c-2.4,2-4.8,4.1-7.6,6c-0.2,0.1-0.3,0.5-0.1,0.8c0.1,0.1,0,0.3,0.1,0.3c1.1,2.4,2.5,4.6,4.5,6.3c-0.1,0.2-0.2,0.3-0.3,0.5
				c-2.1-1.9-3.7-4.3-4.8-7.1c-1.2,0.7-2.4,1.7-3.5,2.6c-1,0.8-2.3,1.8-1.9,3.8c0,0.2,0,0.6,0,0.8c0.6,3.4,2.4,5.7,5.5,6.8l4.3-5.6
				c1.9-1.9,3.6-4.2,5.3-6.3c1.7-2.1,3.3-4.2,5-6.3c2.1-2.5,4.4-5.5,4-8l0.9,0.8c0.1-0.7,0.4-1.6,0.9-2.5c0.2-0.4,0.4-0.8,0.6-1.1
				c0.1-0.3,0.7,0.1,0.5,0.4c-0.4,0.9-1,2-1.6,3c-3.9,6.7-8.6,12.5-13.1,18.6c2.2-0.4,4.6,0,6.6,0.7c3.8,1.2,6.9,3.1,8.7,6.2
				c1.6-5.7,3.7-11,5.8-16.2c1.8-4.4,3.9-8.5,6.3-12.3c-0.1,0.3-0.3,0.5-0.4,0.8c-1,1.8-2.6,3.7-3,5.8l1-0.3
				c0.9-0.2,3.3-0.2,4.1-0.8c0.3-0.3,0.4-0.5,0.5-0.8c4-0.8,7.7-1.9,11.2-3.1c0.2-0.1,0.5-0.3,0.6,0c-0.2,0.2-0.1,0.5-0.6,0.7
				c1,0.2,1.9,0.5,2.5,0.8c0.3,0.2,0.7,0.4,1,0.6c-2.8-1.4-6-2.1-8.1,0.2l3.1,1.3c3.1,1.9,6.2,3.9,8.7,6.4c0.1,0.1,0.3,0.6,0.7,0.4
				c0.9-0.5,1.7-1.2,2.3-1.9l0.5,0.2c-0.7,0.9-1.5,1.6-2.5,2.1c-0.2-0.2-0.1,0.1-0.1,0.2c1.1,1.2,2.3,2.5,3.5,3.5
				c2.4-0.2,4.1-1.2,5.1-2.9c-0.8-0.4-1.6-0.9-2.3-1.4l3.7,1.5c-0.8-0.7-1.6-1.4-2.5-2l3.5,2c0.2,0.1,0.5,0.2,0.7,0.1
				c1.7-0.7,2.9-2,3.9-3.5c0.3-0.4,0.5-0.8,0.7-1.3c0,0.2,0.1,0.4,0.1,0.6c1.1-1.7,1.8-5.8,0.1-7.5c0.3,0.2,0.6,0.4,0.8,0.6
				c1.3,2,0.5,5.7-0.9,7.4h0c0,0,0,0,0,0c-1.2,2.2-2.9,4-5.3,4.7l-1.7-1.1c0,0-0.1,0-0.1,0c-0.1,0-0.1,0-0.1,0.1l0,0
				c-1.2,1.9-3.1,3.4-5.9,3.2c-0.3,0-0.6-0.3-0.9-0.5c-4.4-4.8-9.2-9.1-15.6-12l0,0c0,0,0,0-0.1,0c0,0,0,0,0,0l0,0
				c-3.2,1-6.5,1.8-10.3,2.2v0v0c-0.1,0-0.2,0-0.4,0c-0.1,0-0.2,0-0.2,0c-0.1,0-0.1,0-0.2,0.1c0,0,0,0-0.1,0.1
				c-4.5,9.4-7.8,20.1-11.2,30.7c0,0,0,0,0,0c-0.5,1.5-1.5,2.6-3.3,2.6C82.4,143.6,82.3,143.6,82.2,143.6z"/>
			<path fill="#4C2566" d="M149.5,46.3L149.5,46.3L149.5,46.3z M149.5,46.3L149.5,46.3L149.5,46.3z M149.5,46.3L149.5,46.3
				L149.5,46.3z M149.5,46.3L149.5,46.3L149.5,46.3z M149.5,46.3L149.5,46.3L149.5,46.3L149.5,46.3z M149.5,46.3L149.5,46.3
				L149.5,46.3L149.5,46.3L149.5,46.3L149.5,46.3L149.5,46.3L149.5,46.3L149.5,46.3L149.5,46.3z M167.6,69.7L167.6,69.7L167.6,69.7z
				 M130.6,79.4C130.6,79.4,130.6,79.4,130.6,79.4c0.1-1,0.4-1.6,0.5-2.3h0h0c0.2-1.1,0.4-1.9,0.1-2.9h0c0,0,0,0,0,0
				c0-0.1,0-0.1,0.1-0.1v0c0.9-0.8,1.9-1.4,2.8-2.1c0,0,0,0,0,0h0c3.2-1.5,5.9-3.5,7.7-6.5c0,0,0,0,0-0.1c1.9-2.4,3.6-5.6,3.3-10.1
				c-0.8-4.2,1.3-7.6,4.3-8.7l0,0l0,0c0,0,0-0.1,0-0.1c0,0,0,0,0,0l0,0l0,0l0,0c-0.9-0.1-1.7,0.1-2.5,0.3c-3.9,1-6.3,3.8-8.3,7
				c-1.9,3.1-4.6,5.6-9.3,5.5l0,0l0,0c-4.2,0-7.5,0.9-10.2,2.6c0,0,0,0,0,0c-2.1,1.3-3.8,3.1-5.2,5.4c-1.5,2.4-2.8,5.6-2.7,7.4
				c0,0,0,0,0,0v0c-0.2,0-0.5-0.1-0.7-0.1c-0.6-0.3-1.4-0.4-2.1-0.3c-0.3,0-0.5,0-0.8,0c-0.2,0-0.4-0.1-0.5-0.3
				c-0.1-0.2-0.2-0.4-0.1-0.6c0,0,0,0,0,0c0.4-2.5,1-5,1.6-7.3l0,0c0,0,0,0,0-0.1c1.1-2.2,2.4-4.5,4.9-5.2c0,0,0,0,0,0
				c0.1,0,0.1,0,0.1-0.1c0,0,0-0.1,0-0.1c0-0.1-0.1-0.2-0.1-0.2c-0.1,0.1-0.3,0.2-0.6,0.2l0,0l0,0c-2.6,0-5.4,0.4-7.3,1.5v0
				c0,0-0.1,0-0.1,0c-0.1,0-0.2-0.1-0.2-0.2c0,0,0-0.1,0-0.1c0.2-0.4,0.2-0.9,0.5-1.4l0,0l0,0c0.5-0.8,1.2-1.4,2-1.8
				c0-0.2,0.2-0.4,0.4-0.4c0.1,0,0.2,0,0.2,0c0,0,0.1,0,0.1,0l0,0l0,0h0l0,0h0c0,0,0,0,0,0c0.1-0.1,0.1-0.2,0.1-0.2c0,0,0,0,0,0
				c0,0,0,0,0,0c0,0,0,0,0,0c0,0-0.1,0-0.2,0c-3.1,0.6-5.4,2.1-7.2,4.1c0,0,0,0,0,0c-0.7,0.8-1.4,1.5-1.9,2.4c0,0,0,0,0,0
				c-0.6,0.9-1.2,1.9-1.9,2.7c-0.5,0.4-1.1,0.8-1.6,1.2c1.3-1.1,2.3-2.6,3.2-4.1c0,0,0,0,0,0c0.6-0.9,1.3-1.7,2-2.5
				c1.9-2.1,4.2-3.6,7.4-4.2c0,0,0,0,0,0c0.1,0,0.2,0,0.3,0c0.1,0,0.3,0.1,0.3,0.3c0,0,0,0,0,0c0.1,0.3-0.1,0.5-0.3,0.6
				c-0.2,0.1-0.3,0.1-0.4,0.1c0,0-0.1,0-0.1,0c0,0,0,0,0,0.1l0,0c0,0,0,0,0,0c0,0.1,0,0.1-0.1,0.2c-0.8,0.4-1.5,0.9-2,1.7h0h0
				c-0.1,0.2-0.2,0.6-0.3,0.9c2-1,4.6-1.4,7-1.3l0,0c0,0,0,0,0,0l0,0c0.3,0,0.4-0.1,0.4-0.1h0c0,0,0.1-0.1,0.1-0.1c0,0,0.1,0,0.1,0
				l0,0c0,0,0,0,0,0c0,0,0,0,0,0c0.2,0.1,0.3,0.3,0.4,0.5c0,0.1,0,0.2,0,0.3c0,0.1-0.2,0.2-0.3,0.2c0,0,0,0,0,0
				c-2.4,0.7-3.6,2.8-4.7,5.1c-0.6,2.3-1.2,4.8-1.6,7.3h0h0c0,0.1,0,0.2,0.1,0.3c0.1,0.1,0.1,0.1,0.2,0.1c1.2,0,2.5,0.3,3.5,0.5
				c1-5.8,3.7-10.2,7.8-12.7c2.7-1.7,6.2-2.7,10.4-2.7v0v0c4.6,0,7.1-2.4,9-5.4c0,0,0,0,0,0c2-3.2,4.4-6.1,8.4-7.1c0,0,0,0,0,0
				c0.8-0.2,1.6-0.3,2.6-0.3l0,0l0,0c0.1,0,0.2,0.1,0.3,0.2c0.1,0.1,0,0.2,0,0.3c0,0.2-0.1,0.3-0.3,0.4c0,0,0,0,0,0c0,0,0,0,0,0l0,0
				l0,0c-2.8,1-4.9,4.3-4.1,8.3c0,0,0,0,0,0h0c0.3,4.6-1.4,7.9-3.3,10.4c0,0,0,0,0,0c-1.8,3-4.6,5.1-7.8,6.6c-0.9,0.7-1.9,1.3-2.7,2
				c0.3,1.1,0,1.9-0.1,3l0,0l0,0c-0.1,0.6-0.3,1.1-0.4,1.7c1.8-2.1,3.6-4.2,6-5.7v0c0,0,0,0,0.1,0l0,0c0.6-0.1,1.2-0.5,1.7-0.9
				c0,0,0,0,0,0c0,0,0,0,0.1,0c0.2-0.1,0.4,0,0.6,0.2c0.2,0.2,0.4,0.4,0.5,0.7c0,0,0,0,0,0c0.1,0.4,0.2,0.9,0.1,1.3h0h0
				c-0.2,1.3-0.4,2.5-0.7,3.6c1.7-1.9,3.5-3.8,5.8-5.1c0,0,0,0,0,0c0.3-0.2,0.7-0.4,1.1-0.4c0.4,0,0.9,0.1,1.1,0.5v0v0
				c0.4,0.7,0.4,1.7,0,2.4c-0.1,0.7-0.3,1.3-0.5,1.9c2.5-2.4,5.1-4.6,8.1-6.4c0,0,0,0,0,0c0.3-0.1,0.6-0.3,1-0.3v0v0
				c0.6,0.1,1.2,0.7,1.2,1.4c0.3,0.9,0,1.9-0.3,2.7c0,0,0,0,0,0c-0.4,1.1-0.8,2.3-1.2,3.3c3.4-3.5,7.2-6.6,11.9-8.5
				c0.3-0.1,0.7-0.1,1,0.1c0.3,0.2,0.5,0.5,0.5,0.9l0,0c-0.2,2.3-1,4.1-1.7,5.9c-0.2,0.1-0.3,0.2-0.5,0.3c0,0,0,0,0,0
				c0.8-2,1.7-3.8,1.9-6.2h0h0c0-0.2-0.1-0.4-0.3-0.5c-0.2-0.1-0.5-0.2-0.7-0.1c0,0,0,0,0,0v0c-2.9,1.1-5.4,2.7-7.7,4.6
				c-1.5,1.1-3,2.3-4.4,3.7c-0.2,0.2-0.4,0.4-0.6,0.7c0,0,0,0,0-0.1c0,0,0,0,0-0.1h0c0.6-1.3,1.1-2.7,1.6-4.2l0,0l0,0
				c0.3-0.8,0.5-1.8,0.3-2.5c0,0,0,0,0-0.1c0,0,0,0,0,0h0c0-0.5-0.4-1-0.9-1.1c0,0,0,0,0,0c-0.2,0-0.5,0.1-0.7,0.2c0,0,0,0,0,0
				c-3.2,1.8-5.9,4.2-8.5,6.8c0,0-0.1,0.1-0.1,0.1c-0.1,0-0.2-0.1-0.2-0.2c0,0,0,0,0-0.1c0.3-0.9,0.6-1.6,0.7-2.5l0,0c0,0,0,0,0-0.1
				h0c0.4-0.6,0.3-1.5,0-2.1l0,0l0,0c-0.2-0.3-0.5-0.4-0.8-0.3c-0.3,0-0.7,0.2-1,0.4c-1.2,0.7-2.2,1.5-3.2,2.4
				c0.1-0.1,0.1-0.2,0.2-0.3c-1.3,1-2.4,2.3-3.3,3.6c0,0,0,0-0.1,0c-0.1,0-0.2-0.1-0.2-0.2c0,0,0-0.1,0-0.1c0.6-1.2,0.7-2.8,1-4.4
				l0,0l0,0c0.1-0.2,0-0.7-0.1-1.2h0h0c0-0.2-0.2-0.4-0.4-0.5c-0.1-0.1-0.2-0.1-0.2-0.1c0,0-0.1,0-0.1,0h0c0,0,0,0,0,0
				c-0.5,0.4-1.1,0.8-1.8,0.9c-1,0.7-2,1.5-2.9,2.3c-1.3,1-2.5,2.4-3.6,3.8C130.6,79.5,130.6,79.5,130.6,79.4z M122.7,100.2
				c8.7,0.1,16.1-0.9,23.3-2.3c0,0,0,0,0,0c13.6-3.5,24.8-9.7,33.9-18.2c2.3-2.5,4.9-4.6,6.3-8l0,0c0.1-0.2,0.1-0.4,0-0.6
				c-0.1-0.2-0.2-0.3-0.4-0.3c-1.8-0.5-3.8,0-5.4,0.4c-3.3,0.7-6.2,1.9-8.9,3.4c-0.8,0.4-1.7,0.7-2.5,1.1c3.4-2.1,7-4,11.3-4.9
				c1.7-0.3,3.7-0.9,5.6-0.4v0c0.3,0.1,0.5,0.3,0.6,0.5c0.1,0.3,0.1,0.6,0,0.9c0,0,0,0,0,0c-1.4,3.4-4.1,5.6-6.4,8.1h0c0,0,0,0,0,0
				l0,0c-9.1,8.5-20.4,14.8-34,18.3c0,0,0,0,0,0l0,0c-6.9,1.3-14,2.3-22.3,2.3C123.4,100.5,123,100.3,122.7,100.2z M80.4,39L80.4,39
				L80.4,39z M27.8,115L27.8,115L27.8,115z M27.8,115L27.8,115L27.8,115z M82.2,144C82.2,144,82.2,144,82.2,144
				C82.2,144,82.2,144,82.2,144c-5.6-0.4-9.4-2.7-13.1-5c0,0,0,0,0,0c-1.5-1-3-2.1-3.9-3.9c0,0,0,0,0-0.1l-0.3-1.7
				c-2.8-1.2-4.6-3.4-5.5-6.2c0,0,0,0,0,0c-0.4-1.4-0.6-3.2-0.1-4.7h0c0,0,0-0.1,0-0.1l0,0c2.9-2.9,6.5-5.1,9.6-7.7c0,0,0,0,0,0
				c4.1-3.4,7.9-7,11.3-11.2l0,0c0,0,0-0.1-0.1-0.1c-0.1-0.1-0.3-0.2-0.4-0.3c0,0,0,0,0,0c-2.5-0.9-4.7-2.1-7.7-2.5
				c-1.7-0.3-3.4-0.2-4.6,0.1c-5.2,5.1-11.1,9.5-18.3,12.3c0,0,0,0-0.1,0c-1.9,0.5-3.5,1.4-5.1,2.3l0,0l0,0
				c-3.7,2-10.3,2.1-14.9,0.4c0,0,0,0,0,0c-0.4-0.1-0.8-0.3-1.2-0.3v0c0,0,0,0,0,0c-0.1,0-0.2-0.1-0.2-0.2c0,0,0-0.1,0-0.1v0l0,0
				c0,0,0,0,0,0c0,0-0.1-0.1-0.2-0.1c0,0,0,0,0,0c-4.5-1.6-7.7-4.4-9.9-8l0,0c0,0,0,0,0,0l0,0c-1.6-3.4-2.9-7.1-3.4-11.5
				c0,0,0,0,0,0c-0.5-4.2,0.3-8,2.3-10.3c1.8-2.8,4.1-5,5.7-8c0,0,0,0,0,0c1.3-2.4,2.2-5.2,3.2-8.1c0,0,0,0,0,0
				c0.1-0.2,0.2-0.4,0.3-0.6c-2.1-1.2-3.9-2.7-4.9-5.2l0,0c0,0,0,0,0,0h0c-0.1-1.6,0.2-3,0.3-4.4c0,0,0,0,0,0
				c0.2-1.9-0.4-3.4-1.4-4.2c-0.6-0.4-1.8-0.5-2.6-0.8c-0.1,0-0.2-0.2-0.2-0.3c0-0.1,0-0.2,0.1-0.3c0.1-0.2,0.3-0.3,0.4-0.4
				c0,0,0,0,0,0c0,0,0,0,0,0c1.9-0.9,4.1,0.2,5.4,1.1l0,0l0,0c1.5,1.1,2,2.9,3.2,4c1.4,0.1,2.2-0.4,2.9-1c0,0,0,0,0.1-0.1
				c-1.9-1.5-2.9-3.7-3.7-6.1c0,0,0,0,0,0c-0.2-0.8-0.3-1.6-0.5-2.3c0,0,0,0,0-0.1h0c0-1.3-0.1-3,0.9-3.7c0,0,0,0,0,0
				c0.3-0.2,0.6-0.6,1.1-0.6v0v0c3,0.1,4.5,2,5.9,3.7c0,0,0,0,0,0h0l1.6,2c3.4-3.9,7.7-7,13.7-7.8c1.8-0.3,3.4-0.6,5.3-0.7
				c0.1-0.2,0.3-0.5,0.6-0.6l0,0l0,0c-0.1,0-0.1-0.1-0.1-0.2c0,0,0-0.1,0-0.1v0l0,0c0,0,0,0,0,0l0,0c0.7-0.7,1.2-1.6,2.1-1.9
				c1.3-0.5,2.9,0,3.7,1c0.9-5.5,3-9.6,5-13.7c0,0,0,0,0,0c2.9-5.8,6.9-10.5,12.2-13.8c1.4-0.8,3.5-0.3,4.3,0.9l0,0l0,0
				c0.9,1.5,0.4,3.7-0.1,5.2h0c0,0,0,0,0,0c-0.7,1.7-1.5,3.2-2.2,4.9c0.6-0.4,1.3-0.9,2.2-1v0c0,0,0,0,0,0c0,0,0,0,0,0
				c1.2,0.3,2,1.5,1.9,3.1h0h0c-0.2,2.7-1.6,4.6-2.6,6.5l0,0l0,0c-0.3,0.6-0.7,1.2-1,1.7c0.2,0,0.4,0,0.6,0.2c0,0,0,0,0,0
				c0.8,0.5,1.3,1.5,1.3,2.6c0.1,1.1-0.2,2.3-0.9,2.9c0,0,0,0,0,0c0,0,0,0,0.1,0c1-0.1,1.8,0.5,2.1,1.3c0,0,0,0,0,0
				c0.6,1.7,0,3.5-0.8,4.6c0.9-0.5,2-1,3.2-1l0,0l0,0c0.4,0,0.8,0.2,1.1,0.6c0.3,0.3,0.4,0.7,0.4,1.2c0,0,0,0,0,0c0,0,0,0,0,0
				c-0.2,2.3-1.3,3.8-2.5,5.2c1.1-0.4,2.4-0.6,3.5-0.2v0c0,0,0,0,0.1,0l0,0c0.6,0.7,0.8,1.8,0.6,2.8c-0.1,1-0.5,1.9-1,2.4
				c-0.4,0.9-0.9,1.7-1.5,2.4c1.5-0.6,3.1-0.9,4.9-0.7c0,0,0,0,0.1,0l0,0c1.1,0.5,1.9,1.7,1.4,3.1h0h0c-0.4,1.1-1.1,2-1.9,2.8
				c1.5-0.4,3.5-0.5,4.7,0.4v0v0c0.4,0.3,0.6,0.8,0.7,1.3c0.1,0.5,0,1-0.3,1.4c-0.5,1.3-1.2,2.3-2.1,3.1c0.5-0.2,1-0.5,1.5-0.8
				c-0.3,0.2-0.6,0.5-0.9,0.7c-0.5,0.1-1,0.4-1.5,0.7c0,0-0.1-0.1-0.1-0.1c0-0.1,0-0.1,0.1-0.2c1.2-0.8,2.2-2,2.7-3.6
				c0,0,0-0.1,0-0.1l0,0c0.2-0.2,0.3-0.7,0.2-1.1c-0.1-0.4-0.3-0.9-0.6-1.1c0,0,0,0,0,0c-1.3-1-3.7-0.7-5.1-0.1c0,0,0,0-0.1,0
				c-0.1,0-0.2-0.1-0.2-0.2c0-0.1,0-0.1,0.1-0.1c0.9-0.9,1.9-1.9,2.4-3.2l0,0l0,0c0.4-1.2-0.2-2.2-1.2-2.7c-1.3-0.2-2.5,0-3.7,0.3
				c-0.7,0.1-1.4,0.4-1.9,0.7c0,0,0,0,0,0c-0.1,0-0.2-0.1-0.2-0.2c0-0.1,0-0.1,0.1-0.1l0,0c0.8-0.8,1.5-1.7,2-2.9h0c0,0,0,0,0-0.1
				l0,0c0.4-0.4,0.8-1.3,0.9-2.2c0.1-0.9,0-1.9-0.5-2.5c-1.2-0.4-2.7,0-3.8,0.4c0,0-0.1,0-0.1,0c-0.1,0-0.2-0.1-0.2-0.2
				c0,0,0-0.1,0-0.1l0,0c1.4-1.7,2.6-3.1,2.8-5.6h0h0c0-0.3-0.1-0.7-0.3-1c-0.2-0.3-0.5-0.4-0.9-0.4l0,0l0,0c-0.6,0-1.2,0.2-1.8,0.4
				c-0.5,0.1-1.4,0.4-2.2,0.9c0,0,0-0.1,0-0.1c0,0,0-0.1,0.1-0.1l0,0c1-1,2-3.1,1.3-4.9l0,0l0,0c-0.2-0.6-0.9-1.2-1.7-1.1
				c-0.1,0-0.3,0-0.4-0.1C80,39.1,80,39,80,38.9c0-0.1,0.1-0.2,0.2-0.2l0,0l0,0c0.6-0.6,0.9-1.6,0.8-2.7c-0.1-1-0.5-2-1.2-2.4v0v0
				c-0.2-0.1-0.5,0-0.8-0.2c-0.1,0-0.1-0.1-0.1-0.2c0,0,0-0.1,0-0.1c0.4-0.6,0.8-1.2,1.1-1.8c0,0,0,0,0,0c1-1.9,2.3-3.8,2.5-6.3h0h0
				c0.1-1.4-0.7-2.5-1.6-2.7c-1,0.2-1.9,0.8-2.6,1.3l0,0c0,0-0.1,0-0.1,0c-0.1,0-0.2-0.1-0.2-0.2c0,0,0,0,0-0.1
				c0.8-2,1.7-3.7,2.4-5.5l0,0c0,0,0,0,0,0c0.6-1.4,1-3.6,0.2-4.9l0,0l0,0c-0.6-1-2.7-1.5-3.9-0.8c-5.2,3.2-9.1,7.9-12,13.6
				c0,0,0,0,0,0c-0.5,1-1,2-1.5,3c-0.4,0.8-0.8,1.6-1.2,2.4c-0.5,1.1-2.1,5.4-2.3,8.3c0,0.1,0,0.1,0,0.2c0,0.1-0.1,0.2-0.2,0.2
				c-0.1,0-0.1,0-0.2-0.1c-0.7-1.1-2.2-1.7-3.5-1.2c0,0,0,0,0,0c-0.7,0.3-1.2,0.9-1.8,1.6c0.1,0,0.1,0.1,0.2,0.1c0,0,0,0,0,0
				c0,0,0,0,0,0v0c0,0,0,0.1,0,0.1c0,0.1,0,0.1-0.1,0.2l0,0c-0.4,0.1-0.6,0.4-0.7,0.6c0,0.1-0.1,0.1-0.2,0.1v0
				c-2,0.1-3.6,0.4-5.4,0.7C42.1,43,37.8,46,34.4,50c0,0-0.1,0.1-0.1,0.1c-0.1,0-0.1,0-0.1-0.1l0,0l-0.1-0.1
				c-0.5-1.2-1.9-2.8-2.7-3.4c-1.1-1.2-2.4-2.2-4.5-2.3l0,0l0,0c-0.3,0-0.6,0.3-0.9,0.5c0,0,0,0,0,0c-0.8,0.5-0.8,2.1-0.7,3.4
				c0.2,0.8,0.3,1.6,0.5,2.3c0,0,0,0,0,0c0.8,2.6,1.9,4.8,3.8,6.2l0,0c0,0,0.1,0.1,0.1,0.1c0,0,0,0.1,0,0.1l0,0l0,0
				c0,0-0.1,0.1-0.1,0.1c0,0,0,0,0,0c0,0,0,0-0.1,0c0,0-0.1,0-0.1,0.1c-0.7,0.7-1.7,1.2-3.2,1.1c0,0-0.1,0-0.1,0h0
				c-1.3-1.2-1.8-3-3.2-4c0,0,0,0,0,0c-1.2-0.9-3.4-1.9-5.1-1.1c-0.1,0-0.2,0.1-0.3,0.3c0,0,0,0,0,0.1l0,0l0,0
				c0.7,0.3,1.9,0.3,2.7,0.9c1.2,0.8,1.8,2.6,1.6,4.5c0,0,0,0,0,0c-0.2,1.4-0.5,2.8-0.3,4.3c1,2.4,2.8,4,5,5.1
				c0.1,0,0.1,0.1,0.1,0.2c0,0.1,0,0.1-0.1,0.2c-0.2,0.1-0.3,0.3-0.4,0.6c0,0,0,0,0,0c-0.6,1.8-1.2,3.7-1.9,5.4
				c-0.5,0.8-1,1.7-1.2,2.5c0,0.1-0.1,0.1-0.1,0.2c0,0,0,0,0,0c-1.6,3-4,5.2-5.7,8c0,0,0,0,0,0c-1.9,2.2-2.7,5.9-2.2,10.1
				c0.5,4.4,1.8,8,3.4,11.4c2.2,3.5,5.4,6.3,9.7,7.8c0,0,0,0,0,0c0.1,0,0.2,0.1,0.3,0.2c0,0,0.1,0.1,0.1,0.2c0,0,0,0,0,0
				c0.4,0,0.8,0.2,1.1,0.3c0,0,0,0,0,0c4.5,1.6,11,1.6,14.6-0.4c0,0,0,0,0,0c1.6-0.9,3.2-1.8,5.2-2.3c7.1-2.8,13-7.1,18.2-12.2l0,0
				c0,0,0.1,0,0.1,0c0.9-0.2,1.9-0.3,3-0.3c0.4,0,0.8,0.1,1.3,0.3c0-0.1,0-0.1,0.1-0.2c0.2,0,0.3,0,0.5,0.1c3,0.4,5.2,1.6,7.7,2.5
				c0,0,0,0,0,0c0.2,0.1,0.3,0.2,0.5,0.3c0,0,0,0,0,0l0.1,0.1c0,0.1,0.1,0.1,0.1,0.2c-0.2,0.1-0.5,0.6-0.8,1.3
				c-3.2,3.8-6.8,7.2-10.6,10.3c0,0,0,0,0,0c-3.1,2.6-6.7,4.7-9.6,7.6c-0.4,1.4-0.3,3.2,0.1,4.5c0.9,2.8,2.6,4.9,5.4,6.1v0
				c0.1,0,0.1,0.1,0.1,0.1h0l0.3,1.8c0.8,1.7,2.2,2.8,3.7,3.8c0,0,0,0,0,0c3.7,2.3,7.4,4.5,12.9,4.9c0,0,0,0,0,0c0,0,0,0,0,0
				c1.9,0.1,3-1,3.5-2.6c0,0,0,0,0,0c3.5-10.6,6.8-21.3,11.2-30.7c0,0,0-0.1,0.1-0.1c0.1-0.1,0.1-0.1,0.2-0.1c0.1,0,0.2,0,0.2,0
				c0.2,0,0.4,0,0.4,0v0v0c3.8-0.4,7.1-1.2,10.3-2.2l0,0c0,0,0,0,0,0c0,0,0,0,0.1,0l0,0c6.4,3,11.2,7.3,15.6,12
				c0.3,0.3,0.6,0.5,0.9,0.5c2.9,0.3,4.7-1.3,5.9-3.2l0,0c0,0,0.1-0.1,0.1-0.1c0,0,0.1,0,0.1,0l0,0l1.7,1.1c2.4-0.7,4.1-2.5,5.3-4.7
				c0,0,0,0,0,0h0c1.3-1.7,2.2-5.4,0.9-7.4c-0.3-0.2-0.6-0.4-0.8-0.6c0,0-0.1-0.1-0.1-0.1c-0.2-0.2-0.6-0.3-1-0.5
				c-0.2-0.1-0.4-0.2-0.6-0.3l0,0l0,0l0,0c-2.3-1-4.9-1.7-7.6-2.5c-1.6-0.6-3.3-1.2-4.9-1.7c4.3,1.3,8.8,2.3,12.6,3.9v0
				c0.9,0.4,1.8,0.8,2.7,1.4l0,0c0,0,0,0,0,0l0,0c1.5,2.2,0.5,6-0.9,7.8c-1.2,2.3-3,4.2-5.5,4.9c0,0,0,0-0.1,0c0,0-0.1,0-0.1,0
				l-1.6-1c-1.3,1.9-3.2,3.5-6.1,3.2c0,0,0,0,0,0c-0.4-0.1-0.8-0.3-1.1-0.6c-4.3-4.7-9.2-9-15.4-11.9c-3.2,1-6.5,1.8-10.3,2.2
				c0,0,0,0,0,0c-0.1,0-0.3,0-0.4,0c-0.1,0-0.2,0-0.2,0c0,0,0,0,0,0c-4.5,9.3-7.8,20-11.2,30.6c0,0,0,0,0,0
				c-0.5,1.6-1.6,2.8-3.5,2.8C82.4,144,82.3,144,82.2,144z"/>
			<path fill="#FFFFFF" d="M59.9,43.8c-0.1-0.4-0.2-0.9-0.3-1.5c0.1,0.1,0.2,0.2,0.2,0.3c0.1,0.7,0.2,1.5,0.3,2.3
				C60.1,44.6,60,44.2,59.9,43.8z M55.4,54.8C55.4,54.8,55.4,54.8,55.4,54.8C55.4,54.8,55.4,54.8,55.4,54.8
				C55.4,54.8,55.4,54.8,55.4,54.8z M59.2,53.9c0.1-0.4,0.2-0.8,0.3-1.2c-0.2,1.1-0.4,2.2-0.7,3.2C59,55.1,59.1,54.3,59.2,53.9z
				 M56.9,55.8C56.9,55.8,56.9,55.9,56.9,55.8C56.9,55.9,56.9,55.9,56.9,55.8c-0.1,0.1-0.1,0.1-0.2,0.1
				C56.8,55.9,56.8,55.9,56.9,55.8z M54.3,58.1L54.3,58.1C54.3,58.1,54.3,58.1,54.3,58.1C54.3,58.1,54.3,58.1,54.3,58.1z
				 M79.1,126.1c-2-0.6-4.4-1.1-6.6-0.7c4.5-6.1,9.2-11.9,13.1-18.6c0.6-1,1.1-2.1,1.6-3c0.1-0.3-0.4-0.7-0.5-0.4
				c-0.2,0.4-0.4,0.7-0.6,1.1c0.9-1.8,2.2-3.7,3-4.9c-1.3,1.2-2.7,2.6-4.4,3.1c-1,0.3-2,0.2-2.9,0.2c-1.8-1.5-3.8-2.7-6.3-3.4
				c-0.9-0.5-2.1-0.6-3.3-0.6c1-3.3,0.8-7.9,0.5-11c-0.1,0.2-0.2,0.5-0.2,0.7c-0.2-0.1-0.3,0-0.3,0.1c-0.4,2.3-1.1,4.3-2,6.1
				c-0.6,1-1.3,2.1-1.9,3c-1.2,1.6-2.6,3-4.1,4.2c-3.2,2.6-6.5,5.1-10.2,7.2c0,0-0.1,0-0.1,0l0-0.1l-0.1,0.1l-0.2,0.1l0,0.1
				c-1.5,1.1-3.6,1.7-5.4,2.4c1.8-1.7,2.4-6.3,1.2-9.1c-0.1-0.2-0.1-0.5-0.3-0.8c-0.4,0.4-0.1,0.9,0,1.3c1,5.2-1.4,9.4-5.2,10.5
				c-6.9,2.8-16.9,0.6-21.4-3.6c-4.3-4.5-7.5-11.5-6-20.4c1.2-3.7,3.5-6.1,5.6-8.8c1.2-1.8,2.2-3.9,3.1-6c1.1-1.2,2.1-2.3,3.6-3.2
				c1.8-1.1,4.7-1.7,6.1-3.4c0.9-0.1,1.7-0.3,2.4-0.5c2.3-0.4,4.3-1.1,6.1-2.1c3.6-1.1,7.1-2.3,9.5-5.4l0-0.1c0.2,0,0.4-0.1,0.6-0.3
				c-1.8-2.4-2-6.8-1.4-10.9c0.4-3,1.3-5.5,2.5-8c0.5-0.6,1.3-1.6,2.3-2c0.4-0.2,0.9-0.1,1.4,0.2c-1.5,0.1-2.5,1-2.8,2.4
				c-0.1,0.2-0.2,0.5-0.3,0.7c-0.8,2.1-1.4,4.7-1.6,7.4c-0.3,2.2-0.3,4.6,0.2,6.6c0.2,1,0.4,2,0.7,2.8c0.1,0.2,0.2,0.5,0.5,0.4
				c0.5-0.2,0-0.4,0-0.7c-0.1-1.1,0.2-2.2,0.4-3.1c0.1-0.3,0.2,0.1,0.2,0.1c0.1,0.6,0,1.3,0.2,1.8c0,0.2,0.5-0.1,0.6-0.3
				c0.1-0.4,0.3-0.9,0.7-1c0.3-0.1,0,0.4,0,0.7c-0.1,0.6-0.1,1.2-0.1,1.8c0,0.2,0.2-0.2,0.2-0.3c0-0.4,0.1-0.9,0.2-1.3
				c0,1.2-0.2,2.7,0.5,2.1c-0.3,0.5-0.6,1-0.8,1.6c1.1,0.5,2,0.3,3.1,0.9c1.2,0.6,2.3,1.3,3.4,2.1c2.4,1.6,4.7,3.5,6.7,5.6
				c2.1,2.1,3.2,4.8,5.2,6.9c1.4,1.6,3.3,2.9,5,3.9c-1.4-1.3-2.6-2.7-3.6-4.3c0.5,0.8,1.1,1.5,1.8,2.2c3.6,4.1,8.7,7.7,16.5,7.3
				c1-0.2,1.9-0.5,2.8-0.9c2.4-0.4,4.6-1.2,6.4-2.9c1.4-1.3,2.7-2.7,3.9-4.2c0.5-0.6,1.2-1.8,2.1-2.3c2.8,0.5,5.1,1.9,6.9,3.4
				c-1.3,1.7-2.7,3.4-3.7,5.4c-1.3-0.5-3.1-0.2-4.2,0.1c-0.2,0.1-0.1,0.4-0.1,0.6c0.8,0.1,1.5-0.3,2.3-0.2c1.1,0.1,2,0.5,2.5,1.2
				c-0.4,0.4-0.7,0.9-0.8,1.5c-0.1,0.2,0.3,0.3,0.4,0.3c0.1-0.1,0.2-0.2,0.3-0.3l1.5,1.2c0.5-0.8,0.9-1.7,1.5-2.4
				c0.6-0.7,1.3-1.2,2.1-1.5c0.7,0,1.4,0.3,1.8,0.9c0,1.4-0.4,2.5-0.8,3.6c-0.1,0.2,0.2,0.5,0.2,0.4c0.2-0.2,0.4-0.5,0.5-0.7l2,1.3
				c0.1-0.9,0.4-1.7,0.9-2.5c0.4-0.7,0.9-1.6,1.5-2.1c0.1-0.1,0.3-0.2,0.5-0.3c0.5-0.1,1-0.1,1.6,0c0.3,0.1,0.5,0.3,0.6,0.5
				c0.1,0.4,0.2,0.8,0.3,1.3c0,0.2,0,0.4-0.1,0.6c-0.3-0.3-0.2,0.2-0.3,0.1c0,0,0,0.1,0,0.1c0.1,0.1,0.2,0.2,0.4,0.3
				c0.1-0.2,0.1,1.2,0.1,1.5c0,0.2,0.4,0.1,0.5,0c0.1-0.1,0.1-0.2,0.2-0.2l2.2,0.5c1.5-1.9,2.4-3,4.9-3.7c0,0,0,0,0-0.1
				c0.2,0.1,0.3,0.3,0.4,0.5c0.1,0.3,0.1,0.6,0,0.7c-0.5,1.3-1.2,2.3-1.7,3.3c-0.1,0.2,0.4,0.1,0.5,0c0.2-0.1,0.5-0.3,0.7-0.5
				c0,0,0,0,0,0l1.6,0.6c0.6-1.7,1.9-3.5,3.6-4.6c0.3-0.1,0.6-0.2,0.9-0.3c1.2-0.4,2.2,0.5,2.5,1.6c-0.6,1.2-1.3,2.5-2.1,3.7
				c-0.1,0.1,0.1,0.7,0.3,0.5l0.5-0.5c0,0.1,0,0.2-0.1,0.2l2.6-0.5c0.8-2,2.5-4.4,4.4-5.7c0,0,0,0,0,0c1-0.3,1.7,0.4,1.9,1.1
				c0.4,1.5-0.3,2.8-0.8,3.7c-0.2,0.3,0.3,0.2,0.4,0.4c0.2-0.2,0.3-0.4,0.5-0.7l2.2-0.7c0.4-2.2,1.9-3.7,3.6-4.9
				c0.6-0.3,1.2-0.5,1.8-0.6c1.1-0.2,2.6-0.1,3.1,0.6c0.5,0.6,0,1.3,0.4,1.7c0.2,0.1,0.3,0,0.4-0.3c0-0.2,0-0.4,0-0.5
				c1.3-1.7,2.3-3.7,3.7-5.3c1.2-1.3,2.3-2.6,3.6-3.7c2-1.1,4.1-2.1,6.4-2.9c2.4-0.8,5.2-1.6,8.2-1.4c0.5,0,0.2,0.5,0.1,0.6
				c-3.2,5.2-7.9,8.9-12.6,12.5c-5.5,4.2-11.9,7.4-18.8,10c-6.5,2.5-14.2,3.7-22.3,4.4c-2.9,0.3-5.9,0.5-9.1,0.1
				c-8.5-0.9-15.5-3.4-21.1-7.2c-0.7-0.5-1.3-1.1-1.9-1.8c-0.2-0.2-0.5,0-0.5,0c-0.1,0.7,0.2,1.1,0.5,1.5c0.9,0.9,1.9,1.7,3,2.4
				c1.4,1.8,4.2,3.8,5.3,4.5c3.5,2.2,7.5,3.8,11.5,4.9c3.1,0.9,6.2,2,9.4,2.5c1.3,0.2,2.5,0.4,3.8,0.7c-0.8,3-2.2,5.3-4.3,7
				c-0.2,0.1-0.4,0.2-0.6,0.2c-2.2-1.5-4.6-2.8-6.7-4.3c-1-0.7-2.5-1.7-4-2.4c-0.3-0.2-0.7-0.4-1-0.6c-0.7-0.4-1.5-0.6-2.5-0.8
				c0.4-0.1,0.3-0.4,0.6-0.7c-0.1-0.3-0.4-0.1-0.6,0c-3.5,1.2-7.2,2.3-11.2,3.1c0-0.3-0.1-0.7-0.2-1.2c-0.3-2.5,0.1-4.9,0.4-7.4
				c-0.9,1.2-1.6,2.6-2.3,4c-2.4,3.8-4.5,7.8-6.3,12.3c-2.1,5.2-4.2,10.5-5.8,16.2C86.1,129.2,82.9,127.3,79.1,126.1z"/>
			<path fill="#FFFFFF" d="M71.5,38.4c0,0.3-0.2,0.6-0.4,0.9c-0.2,0.2,0,0.7-0.4,0.7C70.7,39.5,71.2,39,71.5,38.4z M60.8,42.5
				C60.8,42.4,60.7,42.4,60.8,42.5C60.7,42.4,60.7,42.4,60.8,42.5l0.2,0C60.9,42.5,60.8,42.5,60.8,42.5z M78,49.4
				c0,0.2,0.1,0.5,0.1,0.7c0,0,0,0-0.1,0C78,49.9,78,49.7,78,49.4z M85.3,68.7c-3.1-2.4-5.5-5.6-7.3-9.3c-2-7.7-6.4-13.4-13.7-16.2
				c-1.9-3.3-1.4-6.7-0.4-10.4c0.6-2,1.2-3.9,1.9-5.8c0.4-0.9,0.7-2,1.1-3.1c2.7-4.6,6.2-8.5,10.7-11.1c0.7-0.4,2.1-0.4,2.5,0.4
				c0.7,1.2,0.3,3-0.1,4.2c-0.9,2.4-1.9,4.8-3.1,7c-0.6,0.4-1.1,1.1-1.6,1.9c-0.4,0.4-0.7,0.8-1.1,1.2c-1.2,0.4-2.8,2.3-3.7,3.2
				c-1.4,1.3-2.2,2.9-3.4,4.2l-1.5,0c-0.2,0-0.2,0.4,0,0.5c0.4,0,0.9,0,1.2,0.5c0.9-0.2,1.8-0.2,2.5,0.1c0.9,1.2,0.2,2.9-0.3,4.1
				c-0.2,0-0.4,0-0.6,0.1c-0.2,0.1-0.3,0.3-0.2,0.5c0,0.1,0.2,0.1,0.4,0.1c1.4,0,2.8,0.3,4,0.9c0.6,1.2,0.3,2.5-0.4,3.6
				c-0.2,0-0.4,0-0.6,0c0.2,0.2-0.2,0.6,0.2,0.6c1.9,0,3.4,0.6,4.6,1.5c0.2,1.1-0.1,2.1-0.3,3.2c0.1,0,0.1,0.1,0.2,0.1
				c0.1,0.1,0.2,0.2,0.3,0.3c1.2,0.4,2.4,0.7,3.1,1.4c0.1,0.3,0.3,0.6,0.4,0.9c-0.3,1.4-1.3,2.9-1.5,4.1c0.1,0.1,0.3,0.2,0.4,0.2
				c0.1,0.1,0.2,0.3,0.4,0.3c1,0.1,1.9,0.4,2.7,0.8c0.3,0.8,0.6,1.4,0.4,2.4c-0.2,0.8-1.4,2.6-0.6,3c0.1,0,0.2,0.1,0.2,0.1
				c0,0.1,0.1,0.2,0.2,0.2c0.1,0,0.1,0,0.2,0l0.4,1.5c1.3-0.4,2-0.1,3.3,0.2c0.1,0.2,0.2,0.4,0.3,0.6c0.3,1-0.2,1.8-0.4,2.6
				c-0.1,0.3,0.3,0.3,0.4,0.1c0,0.2-0.1,0.4-0.2,0.6C86.1,69.3,85.7,69,85.3,68.7z M87.7,70.5c0,0,0.1,0,0.1,0
				c0.3-1.2,0.8-2.5,1.4-3.5c0.6-1.1,1.6-1.8,2.2-2.7c0.5-0.1,1.1-0.1,1.6,0c0.8,0.1,1.6,0.4,2,1.1c-0.3,0.9-0.6,1.8-1.2,2.5
				c-1,1.3-2.3,2.2-3.5,3.4c0,0-0.1,0-0.1,0C89.1,71.2,88.3,70.9,87.7,70.5z"/>
			<path fill="#D3507C" d="M73.7,60.5c-0.2-2.2,0.1-4.1-0.8-6.2c-0.4-0.9-0.8-1.7-1.2-2.5c-0.9-3.4-4.2-6.1-7.5-6.9
				c-0.6-0.3-1.2-0.6-1.8-0.7l-0.3,0.3c0.6,1.1,1,3.7,0.7,5C67.8,51.1,72.4,55.1,73.7,60.5z M81.2,79.4c-2.1-2-4-4.2-5.5-6.7
				c-1.8-2.9-3.4-6-5.3-8.7c-1.5-1.6-3.1-3.2-5-4.4c-0.9-0.6-1.8-1.1-2.6-1.3c-0.6-0.2-1.3-0.5-1.9-0.6c0.2-0.7,0.3-1.6,0.5-2.2
				c0.3-1.2,0.4-2.5,0.5-3.8c0-1.6-0.1-3.1-0.4-4.7c-0.1-0.5-0.2-1.2-0.3-1.8c0-0.5-0.1-1-0.1-1.5c0-0.2-0.1-0.5,0.3-0.4
				c6.4,1.1,10.1,5,12.9,9.4c2.3,3.6,3.2,8.4,4.1,13.3c0.1,0.6,0.2,1.1,0.3,1.7c0.2,1.9,0.5,3.7,1.5,5.3c1.2,3.1,2.8,5.8,5.1,7.9
				c0.6,0.5,1.3,0.9,1.9,1.4c0.1,0.1,0.1,0.1,0.2,0.2c0,0-0.1-0.1-0.1-0.1c1.6,1.2,3.5,2.1,6.1,2.3C87.9,84.5,84.1,82.3,81.2,79.4z
				 M93.3,84.6c0.2,0,0.5,0,0.7,0c-0.1,0-0.2,0-0.2,0C93.7,84.6,93.5,84.6,93.3,84.6z"/>
			<path fill="#DA87B7" d="M123.3,66.9l0.6-0.2c0-0.1,0-0.3,0.1-0.4c1.5-1.1,4-1.6,5.6-2.1c2.3-0.8,4.6-1.5,6.8-2.5
				c1.9-0.8,4.2-2.4,5.1-4.4c0.9-2,0.5-4.5,1.8-6.4c-2.8,3.4-4.7,6.9-8.7,9c-2.7,1.4-9.7,3.1-10.6,6.5
				C123.7,66.5,123.5,66.7,123.3,66.9z M122.9,70.4c-2.9-0.4-0.9-4.1,0.2-5.5c-0.2,0.1-0.4,0.2-0.6,0.3c2.3-2.2,5.3-3.7,8.8-4.5
				c1.6-0.4,2.9-1.3,4.1-2.2c2.1-1.6,3.5-4,5.1-6.1c1.4-1.8,3-3.5,5.3-4.7c-1.3,1.4-1.6,4.1-1.5,6.2c-0.3,1.5-0.2,3.3-0.8,4.5
				c-0.3,0.7-0.8,1.3-1.2,2c-2.1,3.5-6,5.1-9.6,6.8c-1.5,0.7-2.8,1.7-3.9,2.9c0-0.3,0.1-0.6,0.2-0.9c-1.4,0.3-4,1.1-5.7,1.1
				C123.2,70.4,123,70.4,122.9,70.4z M123,72.9C123,72.9,123,72.9,123,72.9c-1.1,0.5-2,1.2-2.8,2C120.8,74.3,122.1,72.9,123,72.9z
				 M117.3,77.3c0.4-0.1,0.8-0.3,1.1-0.5c-0.2,0.3-0.4,0.5-0.6,0.8c-0.1,0.1-0.1,0.1-0.2,0.1C117.5,77.6,117.4,77.4,117.3,77.3z
				 M123.9,77.7c0,0,0,0.1,0,0.1c0,0-0.1,0.1-0.1,0.1C123.9,77.8,123.9,77.7,123.9,77.7z"/>
			<path fill="#DA87B7" d="M86,77.4c-0.9-0.8-1.6-1.7-2.4-2.7c-0.6-2.3-0.8-4.7-0.7-7.1c2,1.9,4.3,3.6,7,4.8
				c0.8,0.4,1.7,0.8,2.8,0.9c5.3,0.5,8-2.3,9.6-6c1.2-2,2.9-3.7,4.4-4.9c0.7-0.2,1.2-0.6,1.8-0.7c-1.5,1.3-2.5,3-3.4,4.8
				c-0.5,1.1-0.8,2.2-1.3,3.4c-0.7,1.5-0.9,3.7-1.6,5.3c-1.4,3-3.3,5.6-7.1,6c-0.1,0-0.2,0-0.3,0C90.7,81.3,88.1,79.5,86,77.4z"/>
			<path fill="#CA325F" d="M50.9,54.1c0-0.1,0-0.3,0-0.4c0,0,0,0.1,0,0.1C50.9,53.9,50.9,54,50.9,54.1
				C50.9,54.1,50.9,54.1,50.9,54.1z M30.5,67.8c-1.3-0.1-2.6-0.2-3.9-0.6c-0.8-0.5-1.6-1-2.3-1.6c-0.9-0.7-1.7-1.5-2.1-2.6
				c-0.3-1,0-1.8,0.2-2.7c0,0.2,0,0.3,0,0.5c-0.1,1.1-0.1,2.2,0.4,3.1c1,1.9,5.1,2.6,7,2.6c-2.7-0.7-4.2-2.2-4.6-5
				c-0.2-1.7-0.4-3.7-1.6-5c-0.2-0.4-0.5-0.7-0.8-1.1l0.1,0.9c-0.2,0.4-0.1,1.7-0.2,2.3c0,0.1,0,0.1,0,0.2c0,0,0,0,0,0.1
				c0.1-2.5-0.8-4.4-2.6-5.1c0,0-0.1-0.1-0.1-0.1c0,0-0.2,0.1-0.2-0.1c2.5,0.3,3.8,1.9,4.7,3.7c2.5,5.3,12.5,7.1,17.6,3.2
				c2.7-1.5,5-3.7,7.3-5.6c1,1.8-0.1,4.3-1,6.3c-1.5,1.4-3.2,2.5-5,3.6c-2.8,1.7-6.8,3-11,3.1C31.6,67.8,31,67.8,30.5,67.8z"/>
			<path fill="#DA87B7" d="M38.1,47.8c-3,2.6-4.2,6.7-7.1,9.3l-2.4,1.6c4.4-1.2,7.9-4.8,11.1-7.9c2.8-2.8,6.2-6.1,9.9-7.5
				C45.7,43.3,41,45.2,38.1,47.8z M27.6,59.6c-0.2-0.1-0.3-0.4-0.3-0.4c-0.1,0-0.1-0.1,0-0.2c2.2-0.5,3.5-2.2,4.6-3.8
				c1.8-2.8,3.2-5.9,5.7-7.7c2.5-1.9,5.3-3.5,8.6-4.5c2.2-0.3,4.5-0.6,6.7-0.9c-0.8,0.9-1.6,1.9-2.4,2.8c-0.8,1-1.1,2.3-1.8,3.3
				c-3.4,1.1-5.8,3.3-8.1,5.5c-2.6,2.5-5,5.2-8.4,6.7c-1,0.1-1.8,0.3-2.8,0.3L27.6,59.6z"/>
			<path fill="#FFFFFF" d="M66.2,118.8c0,0,0-0.2-0.1-0.3c-0.1-0.2,0-0.6,0.1-0.8c2.7-1.9,5.2-4,7.6-6c1.8-1.6,3.5-3.3,5.1-5.2
				c-0.6,1.6-1.2,3.4-1.4,4c-0.9,2.2-2.3,4.3-3.3,6.4c-1.2,2.4-2.1,5.5-3.5,8.1C68.7,123.4,67.3,121.2,66.2,118.8z"/>
			<path fill="#DA87B7" d="M73,126.9c-1.6,0.7-1.8,2.1-2.8,3.3l2.3,0.1c1.6-1.7,3.6-2.9,5.6-3c-1-0.2-2.3-0.6-3.5-0.6
				C73.9,126.7,73.4,126.7,73,126.9z M83.2,137.5c-3.1-3.6-9.4-7-15.8-5.1c1.5-2,2.9-4.2,4.5-6.1c2.4-1,5.9-0.1,8.1,0.7
				c3.1,1.2,5.6,2.9,7.2,5.4c0.1,0.1,0.1,0.3,0.1,0.3c0.2,0.4,0.1,0.7,0,1.1l-2.3,6.9C84.4,139.8,84,138.3,83.2,137.5z"/>
			<path fill="#CA325F" d="M66.3,134.3c-0.2-0.3,0-0.5,0.2-0.7c0.5-0.6,1.3-0.6,2-0.8c3.7-1.1,8.1,0.4,10.7,2
				c2.5,1.4,4.4,3.2,5.2,6.1c0.2,0.6-0.1,1.1-0.3,1.4c-0.3,0.3-0.6,0.4-0.9,0.4c-5.9,0-10.2-2.6-14-5c-1.1-0.7-2.1-1.7-2.7-2.8
				C66.3,134.6,66.4,134.4,66.3,134.3z"/>
			<path fill="#FFFFFF" d="M156,81.4c0.8-1.8,1.9-3.7,3.2-5.4c2.5-2,4.9-4,8-5.3c0.3-0.1,0.7-0.3,1.1-0.1c-0.3,2.8-1.3,4.9-2.3,6.9
				c-1.2,0.9-2.3,2-3.3,3.2c-0.7,0.6-1.4,1.2-2,1.8c-1.8,0-3.1,0.4-4.3,1.1c-0.3,0.1-0.6,0.3-1,0.6C155.6,83.4,155.6,82.2,156,81.4z
				"/>
			<path fill="#DA87B7" d="M51.3,48.1L51.3,48.1c-0.1,0.5-0.2,0.9-0.3,1.4C51.1,49,51.2,48.6,51.3,48.1z M42.7,53.5
				c-1.1,0.8-2,1.7-3,2.7c-0.8,0.7-2.2,1.6-2.5,2.7l0.6-0.3c2.1-0.7,4.3-2,6-3.5c1.7-1.5,2.9-3.6,4.7-5
				C46.5,51.2,44.5,52.2,42.7,53.5z M31.9,61.5c-0.3-0.1-0.6,0-0.9-0.2c1.6-0.1,2.8-0.8,3.8-1.5c2.3-1.5,4.1-3.6,6-5.5
				c2.5-2.5,5.1-4.8,8.8-5.9c-0.6,2.3-1.7,4.4-2,6.8c-2.2,1.9-4.5,3.8-7.2,5.1c-1.7,0.8-3.7,1.5-6.1,1.5
				C33.5,61.8,32.7,61.7,31.9,61.5z"/>
			<path fill="#CD5E89" d="M63.7,130.1c0.1-1.8-0.3-3.6-0.1-5.4c0.2-1.9,1.1-3.6,1.6-5.3c-1.2,0.8-3.2,1.8-3.8,3.2l-0.1-0.4
				C60.9,124.9,61.1,128.4,63.7,130.1z M60.3,125.7c0-0.2,0-0.6,0-0.8c-0.4-2,0.9-3,1.9-3.8c1.1-0.9,2.2-1.9,3.5-2.6
				c1.2,2.8,2.8,5.2,4.8,7.1c-0.4,0.8-0.9,1.5-1.5,2.2c0.4-0.3,0.7-0.6,1.1-1l-4.3,5.6C62.7,131.3,60.9,129,60.3,125.7z"/>
			<path fill="#CA325F" d="M95.8,84.1c-1.4-0.1-3.1-0.2-4.5-0.4c-1.7-0.7-3.1-1.7-4.5-2.8c-0.3-0.2-0.6-0.5-0.9-0.8
				c-0.6-1-1.1-2.1-1.5-3.1c1.7,2,4,3.5,6.7,4.4c5.8,1.8,10.3-1.5,11.8-6c1.2-3.3,1.8-6.9,3.3-9.8c1.1-2,2.5-3.8,4.8-4.4
				c-0.8,0.6-1.6,1.3-2.1,2.2c-1.2,1.9-1.4,4.8-2.2,7.2c-1,3.1-1.3,6.8-3.1,9c-1.8,2.1-4.4,3.4-7.1,4.4c-0.2,0.1-0.4,0.1-0.5,0.1
				C95.9,84.3,95.8,84.3,95.8,84.1z"/>
			<path fill="#FFFFFF" d="M147.3,82.3c0.5-2.1,1.4-4,2.2-5.9c1.8-1.8,3.9-3.4,6.2-4.6c0.2-0.1,0.7-0.2,0.7,0.1
				c0,2.8-1.3,4.6-2.2,6.6c-0.4,0.9-0.8,1.7-1.2,2.6c-0.8,0.9-1.6,1.8-1.9,2.7c-1.9,0-3.2,0.8-4.4,1.9
				C147.1,84.7,147,83.6,147.3,82.3z"/>
			<path fill="#FFFFFF" d="M69.9,34.9c0,0,0-0.1,0.1-0.1l0.4,0.3C70.2,35.1,70,35,69.9,34.9z M74,31.6c0.4-2.2,1.7-3.9,2.6-5.6
				c1.2-1.2,2.6-2.3,4.3-3.1c0.2-0.1,0.4,0.1,0.5,0.3c0.3,0.4,0.5,0.9,0.5,1.6c-0.1,3.2-1.8,5-2.9,7.2c-0.3,1.2-1.4,1.6-2.4,2
				c-1,0.4-2,0.9-2.8,1.6C74.1,34.4,73.8,33,74,31.6z"/>
			<path fill="#CD5E89" d="M129.8,114.1l2.8,2.1c0.9-2.3,0.3-4.3,0.6-6.8c-0.9,1.7-2.1,3.5-3.7,4.7
				C129.5,114.4,129.6,114.1,129.8,114.1C129.8,114.1,129.8,114.1,129.8,114.1z M132.4,117.1l-3.5-2c-0.2-0.1-0.4-0.3-0.6-0.4
				c2.1-1.8,3.9-4.1,4.7-7.5c1.3,0.4,2.5,1.1,3.5,2.2c0.8,1,1.1,2.1,1.3,3.1c-0.2,0.5-0.5,1-0.7,1.3c-1,1.5-2.2,2.8-3.9,3.5
				c-0.1,0-0.1,0-0.2,0C132.8,117.3,132.6,117.2,132.4,117.1z"/>
			<path fill="#FFFFFF" d="M135,75.9c0.5-0.5,1.1-1,1.7-1.4c0.6-0.5,1.3-1,2.2-1.3c0.3,0.6,0.3,1.6,0.1,2.4
				c-0.8,3.5-2.5,6.3-4.3,8.9c-0.9,0.2-1.8,0.5-2.5,0.8C132.3,81.8,133.6,79.1,135,75.9z"/>
			<path fill="#CA325F" d="M114.9,70.4c0-1.3,0.3-2.5,0.7-3.7c1.2-1.8,2.8-3.3,4.7-4.4c2.6-1.5,6.1-2.1,10.1-2.2
				c-4.1,1.3-7.7,3.3-10.1,6.5c-1.4,1.9-2.7,3.8-3.7,6.1c-0.2,0.2-0.5,0.2-0.6,0.2C115.2,72.9,114.9,71.5,114.9,70.4z"/>
			<path fill="#FFFFFF" d="M135.4,84.6C135.4,84.6,135.4,84.6,135.4,84.6l0,0.2C135.3,84.7,135.4,84.7,135.4,84.6z M138.9,83
				c0.5-2.1,1.4-4,2.4-5.8c1.3-1.3,2.7-2.4,4.2-3.4c0.2-0.1,0.9-0.3,1.2-0.4c-0.2,4.4-2,7.2-4,9.6l-1,1.7c-1.4,0.4-2.6,1.1-3.7,1.9
				C138.5,85.7,138.5,84.6,138.9,83z"/>
			<path fill="#FFFFFF" d="M123.3,83.1c0.2-1.8,1-3.7,1.8-5.3c0.6-0.7,1.3-1.3,2-1.9c0.9-0.7,1.8-1.4,2.9-1.8c0.3-0.1,0.6,0,0.6,0.3
				c0.2,4.2-1.5,7.3-3.1,9.7c-1.8-0.4-3.2,0.1-4.4,0.8C123.3,84.4,123.2,84,123.3,83.1z"/>
			<path fill="#FFFFFF" d="M30.7,55.6c-0.1,0.2-0.3,0.3-0.4,0.5C30.4,56,30.6,55.8,30.7,55.6z M25.9,49.1c0-0.1-0.1-0.6-0.1-0.7
				c-0.1-1.1,0-2.3,0.6-3.3c1-0.4,2.2,0.2,2.9,0.7c0.7,0.5,1.3,1.1,1.8,1.7c0.1,1.2,0.3,2.5,0.2,3.8c-0.2,1.5-1.4,3.7-1.3,5.2
				c0,0,0,0,0,0C27.8,54.6,26.5,52.1,25.9,49.1z"/>
			<path fill="#EF7E8D" d="M98.6,66.6c0.5-0.6,0.9-1.2,1.4-1.8c1.5-2.1,3.2-4.3,5.8-5.4c-0.6,0.8-1.1,1.9-1.1,3.2
				c-0.8,1.7-2.2,2.8-3.1,4.5c-1.2,2.2-2.5,4.2-4.8,5.1C98,70.9,98.2,68.4,98.6,66.6z"/>
			<path fill="#CA325F" d="M128.9,71.2c0.9-1.1,1.9-2,3.1-2.7c2.8-1.6,6.1-2.6,8.4-4.7c1.1-1.1,2.4-2.3,3.1-3.7
				c-1.4,5.3-4.6,8.8-9.3,10.6c-1.5,0.6-2.7,1.6-3.7,2.4c-0.2,0-0.4,0.1-0.5,0.1C129.4,72.7,129,72,128.9,71.2z"/>
			<path fill="#FFFFFF" d="M120.5,115.3c-2.5-2.5-5.6-4.5-8.7-6.4l11.7,4.9c-0.6,0.8-1.4,1.5-2.3,1.9c-0.1,0-0.1,0-0.2,0
				C120.8,115.8,120.7,115.4,120.5,115.3z"/>
			<path fill="#FFFFFF" d="M120.9,75.5c0.6-0.6,1.2-1.1,1.8-1.6c0.2-0.1,0.5-0.2,0.7-0.2l-0.9,6c-1,1.2-2,2.5-2.7,3.7
				c-0.6,0-1.2,0-1.8,0.1C117.7,80.7,119.4,77.8,120.9,75.5z M113.8,84.4c0.9-1.4,1.8-2.8,2.8-4.2C115.7,81.7,114.9,83.5,113.8,84.4
				C113.8,84.4,113.8,84.4,113.8,84.4z M114.3,85l0.1,0.1c0,0,0,0,0,0C114.3,85.1,114.3,85,114.3,85z"/>
			<path fill="#FFFFFF" d="M71.1,40C71.1,40,71.1,40,71.1,40C71.1,40,71.1,40,71.1,40C71.1,40,71.1,40,71.1,40z M73.4,40.7
				c0.7-1.2,1.3-2.5,2.1-3.6c0.8-1.1,2.2-2.1,3-3.2c0.1,0,0.2,0,0.2-0.1c0.6-0.2,1.1,0.4,1.3,0.7c0.6,1-0.1,2.4-0.6,3.1l-1,1.6
				c-0.3,0.2-0.7,0.4-1,0.6c-1.1,0.6-2.1,1.3-2.9,2.1C74.3,41.5,73.9,41.1,73.4,40.7z"/>
			<path fill="#FFFFFF" d="M74.7,45.3c0.1-0.1,0.2-0.2,0.3-0.3c0,0.1,0,0.3,0,0.4C74.8,45.4,74.8,45.3,74.7,45.3z M76.6,46.3
				c-0.2-2.4,0.8-4.4,2.1-6.2c0.6-0.2,1.3-0.4,2.1-0.4c0.3,0,0.4,0.2,0.5,0.3c0.6,1.4,0.2,3.3-0.6,4.2L79,46.5
				c-0.3,0.2-0.6,0.5-0.8,0.7c-0.2,0.1-0.3,0.2-0.4,0.3C77.4,47.1,77,46.7,76.6,46.3z"/>
			<path fill="#FFFFFF" d="M81.1,53.5c0,0.2,0,0.4,0,0.6C81.1,53.9,81.1,53.7,81.1,53.5z M83.8,58.8c-0.5-0.6-1.1-1-1.9-1.3
				c0.9-2.8,1.5-4.4,3.8-6.1c0.3,0,0.7-0.1,1-0.1c0.6,0.3,0.9,1,0.7,1.9c-0.2,0.9-0.5,1.7-0.9,2.4c-0.7,1.2-1.4,2.2-2.3,3.1
				c-0.1,0.1-0.2,0.3-0.3,0.3C83.9,58.9,83.9,58.8,83.8,58.8z"/>
			<path fill="#FFFFFF" d="M86.6,64.9c-0.4-0.7-1.2-1.1-2.1-1.3c-0.1,0-0.3-0.1-0.4-0.1c-0.1,0-0.3-0.1-0.5-0.1c0,0,0-0.1,0.1-0.1
				c0.4,0.2,0.9,0.3,1.3,0.3c0.9-0.9,1-2.2,1.8-3.2c0.6-0.8,1.4-1.4,2.3-1.8c0.4,0,0.8,0,1.2,0c0.7,0,1.5,0.7,1.2,1.5
				c-0.7,1.9-2.3,3.2-3.5,4.5c-0.3,0.3-0.8,0.3-0.9,0.6c-0.1,0.1-0.1,0.1-0.1,0.1C86.7,65.2,86.7,64.9,86.6,64.9z"/>
			<path fill="#FFFFFF" d="M79,50.6c0.5-1.4,1.4-3.4,2.5-4.7c0.2-0.1,0.4-0.2,0.6-0.3c0.9-0.4,1.7-0.8,2.7-1c0.5-0.1,1,0.3,0.9,0.8
				c-0.9,3.1-2.6,5.4-4.8,7.2C80.7,51.8,79.9,51,79,50.6z"/>
			<path fill="#CD5E89" d="M124.9,119.3c0.8,0.2,2.7-1.4,3.1-2c-1-0.6-1.9-0.7-3.1-0.8l-2.2-0.3
				C123.1,116.7,124.3,119.1,124.9,119.3z M121.5,116.3c-0.1-0.1-0.2-0.4,0.1-0.2c0.9-0.5,1.7-1.3,2.5-2.1l3.7,1.6
				c0.8,0.5,1.5,1,2.3,1.4c-1,1.7-2.7,2.7-5.1,2.9C123.9,118.8,122.7,117.6,121.5,116.3z"/>
			<path fill="#4C2566" d="M47.4,77.9c-0.1-1-0.1-2.5,0.3-3.3c0.2-0.4,0.7-0.9,1.4-0.7c1.4-0.3,2.8-1,4.1-1.6
				c-0.8,0.9-2.1,1.6-3.3,2.1c1.4,0.1,2.9,0.1,4.1-0.2c-0.2,0.3-0.7,0.4-1.1,0.4l-2.5,0.4c-0.2,0,0.1,0.4,0.3,0.5
				c0.7,0.2,1.4,0.1,2.2,0.2c-0.6,0.3-1.6,0.3-2.3,0.3c0.4,1.7-0.2,3.6-1.4,4.1c-0.3,0.1-0.8-0.1-1.1-0.4
				C47.7,79.3,47.5,78.7,47.4,77.9z"/>
			<path fill="#4C2566" d="M184.6,76.2c0-0.1-0.1-0.5,0.1-0.5C184.7,75.9,184.8,76.1,184.6,76.2z"/>
			<path fill="#4C2566" d="M71.4,67.2c-2.7-4.4-6.4-8-12.8-9c-0.1,0.5-0.6,1.3-1,1.4c0-0.1,0.1-0.2,0.1-0.2c0.1,0,0.1-0.1,0.2-0.2
				c0.2-0.2,0.3-0.5,0.4-0.8c0.1-0.3,0.3-0.5,0.4-0.8l0.1,0c0,0.1,0.1,0.2,0.1,0.2l1.6,0.4c0-0.1,0.1-0.1,0.1-0.2l0.8,0.2
				c0.4-0.1,0.8,0,1.2,0.1c0.9,0.4,1.8,0.8,2.6,1.3c2.8,2,5.7,5.8,6.7,7.8c1.4,2.9,2.9,5.9,4.6,8.6C74.7,73.2,73.2,70.1,71.4,67.2z"
				/>
			<path fill="#DAC8DE" d="M75.3,76.4c-1.9-2.1-3.1-4.8-5.2-6.9c-2.1-2-4.3-4-6.7-5.6c-1.1-0.8-2.2-1.5-3.4-2.1
				c-1.1-0.5-2-0.4-3.1-0.9c0.1-0.6,0.4-1.1,0.8-1.6c0,0,0,0,0,0c0,0.1-0.1,0.2-0.1,0.2c0.5-0.2,0.9-0.9,1-1.4
				c6.3,1,10.1,4.6,12.8,9c1.8,2.9,3.3,6,5.3,8.7c1,1.6,2.2,3,3.6,4.3C78.6,79.3,76.7,78,75.3,76.4z"/>
			<path fill="#D997B4" d="M62.8,58.3c0.8,0.2,1.7,0.7,2.6,1.3C64.6,59.1,63.7,58.7,62.8,58.3z"/>
			<path fill="#4C2566" d="M47.9,62.3c0.5-0.6,1-1.2,1.5-1.9c0.6-0.6,1.1-1.3,1.7-1.9c0.2-0.1,0.3-0.2,0.5-0.3l1.1,2.1
				c-0.2,0-0.3,0-0.4-0.1c-0.4-0.4-0.5-1.1-0.8-1.6c-0.7,1-1.6,1.9-2.4,2.7c-0.5,0.5-1,0.9-1.5,1.4C47.7,62.6,47.8,62.5,47.9,62.3z
				 M47.3,62.9c0.1-0.1,0.2-0.2,0.3-0.3c0,0,0,0.1,0,0.1c-1.3,1.1-2.7,2.2-4.3,3c-0.9,0.3-1.7,0.5-2.6,0.8
				C42.9,65.6,45.6,64.5,47.3,62.9z"/>
			<path fill="#DAC8DE" d="M47.6,62.7C47.6,62.7,47.6,62.8,47.6,62.7C47.6,62.8,47.6,62.7,47.6,62.7c0.6-0.5,1.1-0.9,1.6-1.4
				c0.9-0.8,1.7-1.7,2.4-2.7c0.3,0.5,0.4,1.2,0.8,1.6c0.1,0.1,0.2,0.1,0.4,0.1l0,0.1c-2.4,3.1-5.9,4.3-9.5,5.4
				C44.9,64.9,46.3,63.9,47.6,62.7z"/>
			<path fill="#4C2566" d="M69.8,34.7c0.4-2.2,2.8-4.3,4-6c0.4-0.6,0.9-1.6,1.5-2.5c0.4-0.4,0.8-0.8,1.3-1.2
				c0.1-0.2,0.2-0.4,0.3-0.6c0.2-0.1,0.4-0.2,0.6-0.3c-0.2,0.7-0.5,1.3-0.9,1.9c-0.4,0.4-0.9,0.9-1.3,1.3c-2.1,2.2-3.9,4.8-5.5,7.5
				L69.8,34.7z M70.4,35.3L70.4,35.3c0.6,0.4,1.2,1.1,1.5,1.8c0.6-0.6,1.2-1.1,1.8-1.5c-0.1,0.2-0.2,0.5-0.3,0.7
				c-0.3,0.2-0.5,0.5-0.8,0.7c-0.2,0.1-0.4,0.2-0.7,0.3C71.6,36.5,71,35.9,70.4,35.3z"/>
			<path fill="#DAC8DE" d="M76.9,24.3c-0.1,0.2-0.2,0.4-0.3,0.6c-0.4,0.4-0.9,0.8-1.3,1.2C75.8,25.4,76.3,24.7,76.9,24.3z"/>
			<path fill="#DAC8DE" d="M70.3,35.2l-0.4-0.3c1.6-2.7,3.4-5.3,5.5-7.5c0.4-0.4,0.8-0.9,1.3-1.3c-1,1.8-2.3,3.5-2.6,5.6
				c-0.2,1.4,0,2.8-0.3,3.9c-0.6,0.5-1.2,1-1.8,1.5C71.6,36.3,71,35.6,70.3,35.2z"/>
			<path fill="#4C2566" d="M74.6,42.8l-0.3-0.3c0.9-0.7,2-1.8,3.2-2.6c0.3-0.1,0.6-0.3,0.9-0.4l0.1-0.2c0.3-0.2,0.7-0.3,1-0.3
				c-0.3,0.4-0.5,0.7-0.8,1.1c-1.6,0.6-2.8,1.6-4,2.5c0.4,0.6,0.5,1.7,0.2,2.3C74.9,44.2,74.8,43.5,74.6,42.8z M74.9,45.7
				c0-0.1,0-0.2,0-0.3c0.1,0,0.1,0,0.1,0.1c0.6,0.2,1.1,0.5,1.6,0.9c0,0.1,0,0.3,0.1,0.4C76.1,46.3,75.5,45.9,74.9,45.7z"/>
			<path fill="#DAC8DE" d="M78.5,39.3l-0.1,0.2c-0.3,0.1-0.6,0.2-0.9,0.4C77.8,39.7,78.2,39.5,78.5,39.3z"/>
			<path fill="#DAC8DE" d="M75,45.4c0,0-0.1,0-0.1-0.1c0-0.2,0-0.3,0-0.4c0.3-0.6,0.2-1.7-0.2-2.3c1.2-0.9,2.4-2,4-2.5
				c-1.3,1.9-2.4,3.8-2.1,6.2C76.1,46,75.6,45.7,75,45.4z"/>
			<path fill="#4C2566" d="M81.1,53.1L80.6,53c0,0,0,0,0,0c1.2-1,3.8-1.8,5.6-1.9c-0.2,0.1-0.3,0.2-0.5,0.3c-1.9,0.2-3.3,1-4.6,2
				c0,0.1,0,0.1,0,0.2C81.1,53.4,81.1,53.3,81.1,53.1z M80.1,57.2c0.1-1.1,0.8-2,0.9-3.1c-0.1,1.1-0.3,2-0.6,2.9
				c0.5,0.1,1,0.2,1.5,0.4c0,0,0,0,0,0C81.4,57.3,80.7,57.1,80.1,57.2z"/>
			<path fill="#DAC8DE" d="M80.5,57c0.3-1,0.5-1.8,0.6-2.9c0-0.2,0-0.4,0-0.6c0-0.1,0-0.1,0-0.2c1.3-1,2.7-1.7,4.6-2
				c-2.3,1.7-2.8,3.4-3.8,6.1C81.5,57.3,81,57.1,80.5,57z"/>
			<path fill="#4C2566" d="M83.6,63.2c0.3-1.2,0.6-2.4,0.6-3.6l0.2-0.1c0.2-0.2,0.4-0.4,0.7-0.5c0,0,0,0,0.1,0l0,0
				c0.6-0.3,1.2-0.5,1.8-0.7c1.1-0.2,2.2-0.3,2.9-0.1c-0.2,0.1-0.5,0.2-0.7,0.4c-1.9,0.2-3.5,0.7-4.9,1.5c0,1.2-0.2,2.3-0.5,3.2
				C83.6,63.2,83.6,63.2,83.6,63.2z"/>
			<path fill="#4C2566" d="M86.9,58.3c-0.6,0.2-1.2,0.4-1.8,0.7l0,0c0,0,0,0-0.1,0C85.5,58.6,86.2,58.4,86.9,58.3z"/>
			<path fill="#DAC8DE" d="M83.7,63.2c0.3-0.9,0.6-2,0.5-3.2c1.4-0.8,3-1.3,4.9-1.5c-0.9,0.5-1.7,1.1-2.3,1.8c-0.8,1-1,2.3-1.8,3.2
				C84.6,63.6,84,63.4,83.7,63.2z"/>
			<path fill="#4C2566" d="M117.4,79.2c1.2-1.5,2.6-3,3.9-4.4c-0.1,0.2-0.3,0.4-0.4,0.7c-1.5,1.4-2.9,3-4.2,4.8
				C116.9,79.9,117.1,79.5,117.4,79.2z M113.6,84.6c0.1-0.1,0.1-0.1,0.2-0.2c0.2,0.2,0.3,0.4,0.4,0.6L113.6,84.6z M114.4,85.1
				C114.4,85.1,114.4,85.1,114.4,85.1c1-0.7,2.1-1.4,3.6-1.6c0,0.1,0,0.2,0,0.3c-1.3,0.3-2.2,1-3.3,1.5L114.4,85.1z"/>
			<path fill="#DAC8DE" d="M114.3,85c-0.1-0.1-0.2-0.4-0.4-0.6c1.1-0.9,1.9-2.7,2.8-4.2c1.3-1.7,2.7-3.3,4.2-4.8
				c-1.5,2.3-3.2,5.2-2.9,8c-1.4,0.2-2.6,0.9-3.6,1.6c0,0,0,0,0,0L114.3,85z"/>
			<path fill="#4C2566" d="M127.8,86.9c0-0.5-0.1-0.9-0.3-1.3c0-0.1-0.1-0.2-0.1-0.2l-0.1-0.8c0.9-1.6,2.1-3.4,3.3-5
				c0,0,0.1,0,0.1,0c0.1,0,0.1,0,0.1-0.1c1.1-1.3,2.2-2.6,3.4-3.8c0.4-0.3,0.8-0.6,1.1-0.8c-0.1,0.3-0.3,0.6-0.4,1
				c-2.8,2.5-5.1,5.5-7.1,8.8c0.3,0.5,0.6,1,0.7,1.5c0.1,0.4-0.1,1,0.4,1.4c0.9-0.9,2-1.7,3.2-2.3c0,0.1,0,0.3,0,0.4
				c-0.9,0.4-1.8,0.9-2.4,1.5c-0.5,0.3-1,0.7-1.5,0.9C128.1,87.8,128,87.3,127.8,86.9z"/>
			<path fill="#4C2566" d="M130.7,79.6c1.1-1.4,2.3-2.7,3.6-3.8c-1.2,1.2-2.3,2.4-3.4,3.8c0,0-0.1,0.1-0.1,0.1
				C130.7,79.6,130.7,79.6,130.7,79.6z"/>
			<path fill="#DAC8DE" d="M127.5,85.6c0.2,0.3,0.3,0.8,0.3,1.3C127.7,86.5,127.7,86,127.5,85.6z"/>
			<path fill="#DAC8DE" d="M128.6,86.2c-0.1-0.5-0.3-1-0.7-1.5c2-3.3,4.3-6.3,7.1-8.8c-1.4,3.2-2.8,5.9-2.8,9.4
				c-1.2,0.6-2.2,1.4-3.2,2.3C128.5,87.2,128.7,86.6,128.6,86.2z"/>
			<path fill="#4C2566" d="M146.7,85.7C146.7,85.7,146.7,85.7,146.7,85.7c-0.1,0.1-0.2,0.2-0.2,0.2
				C146.6,85.8,146.6,85.7,146.7,85.7z M143.1,85.4l-0.7-0.6c0-1.5,2.8-4.4,3.8-5.5c1.3-1.5,3-2.8,4.1-4.5c-0.2,0.5-0.5,1.1-0.7,1.6
				c-1.5,1.5-2.8,3-4.1,4.7c-0.1,0.1-0.3,0.1-0.3,0.2c-0.9,0.9-1.8,2.3-2.5,3.3c0,0,0.2,0.1,0.2,0.1c1.4-0.3,2.4,1.1,2.3,2.6
				c0,0,0,0,0,0C144.8,86.4,144,85.7,143.1,85.4z"/>
			<path fill="#DAC8DE" d="M142.8,84.6c0,0-0.2-0.1-0.2-0.1c0.7-1,1.6-2.4,2.5-3.3c0,0,0.2,0,0.3-0.2c1.3-1.7,2.6-3.2,4.1-4.7
				c-0.9,1.9-1.8,3.9-2.2,5.9c-0.3,1.3-0.2,2.4-0.6,3.3c-0.1,0.1-0.2,0.1-0.2,0.2c-0.5,0.4-0.9,0.8-1.4,1.3
				C145.3,85.7,144.3,84.3,142.8,84.6z"/>
			<path fill="#4C2566" d="M120.4,84.8l-0.1-0.8c-0.5-1.2,4.2-5.8,5.3-7.2c-0.2,0.3-0.3,0.6-0.5,1c-1.7,1.8-3.1,4-4.7,5.9
				c0.3,0.2,0.6,0.5,0.7,0.8c0.2,0.6,0.3,1.3,0.1,2c0.6-0.6,1.2-1.1,1.9-1.6c-0.1,0.2-0.2,0.3-0.3,0.5c-0.4,0.6-1.4,1.3-1.9,1.6
				C121.2,86.2,120.9,85.4,120.4,84.8z"/>
			<path fill="#DAC8DE" d="M121.1,84.5c-0.1-0.3-0.3-0.5-0.7-0.8c1.6-2,3-4.1,4.7-5.9c-0.8,1.6-1.5,3.5-1.8,5.3
				c-0.1,0.9,0,1.3-0.2,1.8c-0.7,0.5-1.3,1-1.9,1.6C121.3,85.8,121.3,85.1,121.1,84.5z"/>
			<path fill="#4C2566" d="M138.4,79.7c0.2-0.3,0.4-0.5,0.5-0.8c0,0,0,0,0,0v0c1-1.1,2-2.3,3.1-3.3c-0.3,0.5-0.5,1-0.8,1.5
				c-2.2,2.2-4,4.7-5.7,7.3c0,0-0.1,0.1-0.1,0.2C135.2,83.4,137.7,80.7,138.4,79.7z M135.7,86l-0.3-1.2c0,0,0.1,0,0.1,0
				c0.2,0,0.3,0.1,0.4,0.2c0.7,0.4,1.1,1.4,0.8,2.6c0.4-0.3,0.8-0.6,1.2-0.9c-0.3,0.6-0.9,1.1-1.8,1.7
				C136.3,87.6,136.3,86.6,135.7,86z"/>
			<path fill="#4C2566" d="M142.2,75.3c-0.1,0.1-0.1,0.2-0.2,0.3c-1.1,1-2.1,2.1-3.1,3.3v0c0,0,0,0,0,0
				C139.8,77.6,140.9,76.3,142.2,75.3z"/>
			<path fill="#DAC8DE" d="M136,85c-0.1-0.1-0.3-0.1-0.4-0.2c0,0-0.1,0-0.1,0l0-0.2c0,0,0,0,0,0c0-0.1,0.1-0.1,0.1-0.2
				c1.7-2.6,3.6-5.2,5.7-7.3c-1,1.8-1.9,3.7-2.4,5.8c-0.4,1.6-0.4,2.7-0.9,3.7c-0.4,0.3-0.8,0.6-1.2,0.9
				C137.1,86.4,136.7,85.4,136,85z"/>
			<path fill="#4C2566" d="M86.9,66.7l-0.3-1c0.8-0.7,3.6-2.2,4.9-1.8c-0.1,0.1-0.1,0.2-0.2,0.3c-1.6,0.2-3,0.8-4.2,1.4
				c0,0.3,0.2,0.8,0.2,1.2c0,0.8-0.5,1.5-0.7,2.1c0,0,0,0,0,0C86.8,68.3,87,67.5,86.9,66.7z M86.4,70.1c0-0.1,0.1-0.3,0.1-0.4
				c0.4,0.3,0.8,0.6,1.2,0.8C87.3,70.5,86.7,70.3,86.4,70.1z"/>
			<path fill="#DAC8DE" d="M87.7,70.5c-0.4-0.2-0.8-0.5-1.2-0.8c0.1-0.2,0.1-0.4,0.2-0.6c0,0,0,0,0,0c0.2-0.6,0.7-1.3,0.7-2.1
				c0-0.4-0.2-0.9-0.2-1.2c1.2-0.6,2.7-1.2,4.2-1.4c-0.6,0.9-1.7,1.6-2.2,2.7c-0.6,1.1-1.1,2.3-1.4,3.5
				C87.7,70.5,87.7,70.5,87.7,70.5z"/>
			<path fill="#4C2566" d="M116.5,77.3c-1.6-0.3-3-1.7-4.7-2.2l-0.4,0.1c-0.1-0.2-0.1-0.4-0.1-0.6c0,0,0,0,0,0
				c0.1,0,0.2-0.1,0.2-0.1l0,0c0.5-2.8,1.3-5.2,2.5-7.2c0.8-1.3,1.6-2.4,2.3-3c-0.2,0.8-0.4,1.6-0.7,2.4c-1.5,2.2-2.6,4.9-3.2,8
				c1.2,0.5,2.3,1,3.3,1.6c0.1-1.1,0.3-2.1,0.6-3c0.1-0.2,0.2-0.4,0.2-0.6c0.1-0.1,0.3-0.2,0.5-0.4c1-1,1.4-3.1,2.4-4.4
				c0.8-1.1,1.9-2,3.1-2.7c-1,1-2,2.1-2.7,3.4c-1.4,2.3-3.1,4.5-3.3,8c0,0.1,0.7,0.5,0.8,0.7c0,0,0,0,0,0c-0.1,0-0.2,0-0.3,0
				C116.9,77.3,116.7,77.3,116.5,77.3z M123.7,73.2c-0.2-0.2-0.4-0.3-0.7-0.3c0.9-0.1,1.2,0.8,1.5,1.4c0,1.1-0.2,2.3-0.5,3.4
				C123.7,76.5,124.5,74.2,123.7,73.2z M124,77.8c0.8-1,1.7-1.7,2.2-2.7c0.6-2,1.5-3.6,2.7-4.9c0,0.4,0,0.7,0,1
				c-0.9,1.1-1.6,2.4-2.1,3.8c0.2-0.2,0.3-0.3,0.5-0.4c0.7-0.6,1.5-1.2,2.7-1.5c0.1,0.1,0.3,0.2,0.4,0.3c-1,0.7-2.2,1.1-3.3,1.9
				C126.1,76.2,125.1,77.1,124,77.8C124,77.8,124,77.8,124,77.8z"/>
			<path fill="#4C2566" d="M111.4,74.5c-0.1-1.8,1.2-4.9,2.7-7.4c-1.2,2-2,4.5-2.5,7.2l0,0C111.5,74.5,111.5,74.5,111.4,74.5
				C111.4,74.5,111.4,74.5,111.4,74.5z"/>
			<path fill="#4C2566" d="M120.2,74.9C120.1,74.9,120.1,74.9,120.2,74.9c-0.7,0.7-1.2,1.4-1.7,1.9C119,76.1,119.5,75.5,120.2,74.9z
				"/>
			<path fill="#D997B4" d="M123.9,77.7c0.3-1.1,0.5-2.2,0.5-3.4c-0.2-0.6-0.5-1.5-1.5-1.4c-0.9,0-2.2,1.3-2.8,2
				c-0.6,0.6-1.2,1.2-1.7,1.9c-0.3,0.3-0.7,0.5-1.1,0.5c0,0,0,0,0,0c-0.2-0.1-0.8-0.5-0.8-0.7c0.3-3.5,1.9-5.7,3.3-8
				c0.8-1.3,1.7-2.4,2.7-3.4c0.2-0.1,0.4-0.2,0.6-0.3c-1.1,1.5-3.1,5.1-0.2,5.5c1.6,0.2,4.7-0.7,6.2-1.1c-0.1,0.3-0.2,0.6-0.2,0.9
				c-1.2,1.3-2.1,3-2.7,4.9c-0.5,1-1.5,1.7-2.2,2.7C124,77.7,124,77.7,123.9,77.7z"/>
			<path fill="#CA325F" d="M112.4,74.6c0.7-3.1,1.7-5.8,3.2-8c-0.4,1.2-0.7,2.4-0.7,3.7c0,1.4,0.4,3.2,1.7,2.3
				c-0.1,0.2-0.2,0.4-0.2,0.6c-0.3,0.9-0.5,1.9-0.6,3C114.7,75.6,113.6,75,112.4,74.6z"/>
			<path fill="#D96586" d="M128.9,71.2c0.1,0.7,0.5,1.4,1.1,2c-1.2,0.3-2,0.9-2.7,1.5c-0.2,0.1-0.3,0.2-0.5,0.4
				C127.3,73.6,128,72.3,128.9,71.2z"/>
			<path fill="#FFFFFF" d="M48.6,74.4c-1.1,0.4-0.5,2.5-0.3,3.3c-0.1-0.5,0.1-1.4,0.3-1.9c0.1-0.3,0.4-0.4,0.4-0.8
				C49.1,74.8,48.8,74.6,48.6,74.4L48.6,74.4z"/>
			<path fill="#4C2566" d="M48.6,48.1c0.8-0.3,1.8-0.5,2.7-0.7c0.5-1.9,1.1-3.6,1.7-5.4c-0.1,0-0.1,0-0.2,0c0.2-0.2,0.4-0.4,0.6-0.6
				c0,1.2-1.1,2.8-1.5,4c-0.3,0.8-0.5,1.7-0.7,2.6c-0.4,0.1-0.7,0.1-1.1,0.2c-0.2,0-0.4,0.1-0.6,0.2c0-0.1,0.1-0.2,0.1-0.3
				c-0.4,0.1-0.9,0.2-1.3,0.3C48.5,48.4,48.5,48.2,48.6,48.1z M47.6,55.2c1.1-0.9,2.1-1.9,3.2-2.8c0-1,0.1-2,0.2-3
				c0,0.1,0,0.1,0,0.2c-0.2,1.4-0.2,2.6-0.1,4c-0.1-0.1-0.2,0-0.3,0.1c-0.5,0.4-0.9,0.7-1.3,1.1c-0.1-0.1-0.2-0.3-0.3-0.4
				c-0.5,0.2-0.8,1-1.3,1.1C47.5,55.4,47.6,55.3,47.6,55.2z M48.2,61.2c1.2-1,2.2-2.2,3.2-3.6c-0.3-0.9-0.4-2.2-0.5-3.5
				c0.1,1.3,0.6,2.5,0.6,3.8l0,0.3c-0.1,0.1-0.2,0.2-0.3,0.4c-0.6,0.4-1.1,1.1-1.7,1.9c-0.5,0.6-1,1.2-1.5,1.9
				c-0.1,0.1-0.2,0.2-0.3,0.3C47.8,62.2,48,61.7,48.2,61.2z"/>
			<path fill="#CD5E89" d="M49.2,54.9c0.4-0.4,0.9-0.7,1.3-1.1c0.1-0.1,0.3-0.2,0.3-0.1c0,0.1,0,0.3,0,0.4c0,0,0,0,0,0.1
				c0.1,1.3,0.2,2.5,0.5,3.5c-0.9,1.3-2,2.5-3.2,3.6C49.1,59.1,50.2,56.6,49.2,54.9z"/>
			<path fill="#D997B4" d="M50.4,44.8c0.8-0.9,1.6-1.9,2.4-2.8c0.1,0,0.1,0,0.2,0c-0.6,1.8-1.2,3.5-1.7,5.4c-1,0.1-1.9,0.4-2.7,0.7
				C49.3,47.1,49.6,45.8,50.4,44.8z"/>
			<path fill="#DA87B7" d="M49.6,48.4c0.2-0.1,0.4-0.1,0.6-0.2c0.3-0.1,0.7-0.1,1.1-0.2c-0.1,0.5-0.2,0.9-0.3,1.4
				c-0.1,1-0.2,1.9-0.2,3c-1.1,0.9-2.2,1.8-3.2,2.8C47.9,52.9,49,50.7,49.6,48.4z"/>
			<path fill="#4C2566" d="M47.6,62.6c0.1-0.1,0.2-0.2,0.3-0.3C47.8,62.5,47.7,62.6,47.6,62.6c0,0.1,0,0.1,0,0.1
				C47.6,62.7,47.6,62.7,47.6,62.6z"/>
			<path fill="#BB9DC5" d="M47.6,62.7C47.6,62.7,47.6,62.7,47.6,62.7C47.6,62.7,47.6,62.8,47.6,62.7C47.6,62.8,47.6,62.7,47.6,62.7z
				"/>
			<path fill="#4C2566" d="M51.2,58.5c-0.6,0.6-1.2,1.3-1.7,1.9C50,59.7,50.6,59,51.2,58.5z"/>
			<path fill="#4C2566" d="M58.9,57.6c-0.1-0.7,0.4-2.8,0.6-3.3c0.4-1.3,0.5-2.5,0.6-3.9c0-0.4,0.1-0.8,0.1-1.2
				c0.1-0.9,0.1-1.9,0.1-2.8c0-1,0-2.1,0.1-3.1c0.4,0.5,0.6,1.2,0.7,1.9c0.2,4.3-0.7,8.5-1.9,12.3c0,0.1,0.3-0.1,0.4,0
				c0.4,0.1,0.8,0.2,1.2,0.3c0,0.1-0.1,0.3-0.2,0.4L58.9,57.6z"/>
			<path fill="#D997B4" d="M59.6,57.4c-0.1,0-0.5,0.1-0.4,0c1.1-3.7,2-8,1.9-12.3c0.1,0.6,0.2,1.3,0.3,1.8c0.3,1.6,0.4,3.1,0.4,4.7
				c0,1.3-0.1,2.5-0.5,3.8c-0.2,0.6-0.3,1.5-0.5,2.2C60.4,57.6,60,57.5,59.6,57.4z"/>
			<path fill="#4C2566" d="M59,57.9c-0.1,0-0.1-0.1-0.1-0.2l1.8,0.4c0,0.1-0.1,0.1-0.1,0.2L59,57.9z"/>
			<path fill="#4C2566" d="M71.2,37.3c-0.3-0.7-0.9-1.3-1.7-1.6c-0.1-0.1-0.1-0.2-0.2-0.3c0.7,0,2.1,1,2.3,1.8
				c0.1,0.4,0,0.8-0.1,1.1C71.5,38,71.4,37.6,71.2,37.3z M69.1,40c0,0,0-0.1,0.1-0.1c0.4,0,0.8,0.1,1.2,0.1c0.1,0,0.1,0,0.2,0
				c0,0.1,0,0.2,0,0.3L69.1,40z"/>
			<path fill="#DAC8DE" d="M70.4,40c-0.4,0-0.8-0.1-1.2-0.1c0.6-1.2,1.2-3,0.3-4.1c0.8,0.3,1.4,0.8,1.7,1.6c0.2,0.3,0.3,0.7,0.3,1.1
				c-0.3,0.6-0.8,1.1-0.9,1.6C70.5,40,70.5,40,70.4,40C70.5,40,70.4,40,70.4,40z"/>
			<path fill="#4C2566" d="M72.2,45.4c0.1-0.1,0.1-0.2,0.2-0.3c0.7,0.1,1.5,0.1,1.9-0.1c0.2-1.7-0.5-3-1.5-3.5c0,0,0,0-0.1,0
				c-0.1-0.2-0.2-0.3-0.3-0.5c0.2,0.1,0.4,0.1,0.6,0.2c0,0,0-0.1,0.1-0.1c0.5,0.4,0.8,1.1,1,1.5c0.4,1,0.3,1.8,0.2,2.8
				c-0.4,0-0.9,0.1-1.3,0.1C72.8,45.5,72.5,45.5,72.2,45.4z"/>
			<path fill="#DAC8DE" d="M72.4,45.1c0.7-1.1,1-2.4,0.4-3.6c0,0,0,0,0.1,0c1,0.5,1.7,1.8,1.5,3.5c-0.2,0.1-0.5,0.1-0.9,0.1
				C73.2,45.1,72.8,45.1,72.4,45.1z"/>
			<path fill="#4C2566" d="M77.7,48.7c-0.3-0.6-0.7-1-1.1-1.5c0-0.2-0.1-0.4-0.2-0.5l0.3,0.2c1.1,0.5,1.2,1.5,1.2,2.6
				C77.9,49.1,77.8,48.9,77.7,48.7z M76.5,50.5c-0.1-0.1-0.1-0.3,0-0.3c0.5-0.1,1,0.2,1.4,0c0,0.2,0,0.3,0,0.5
				C77.5,50.6,77,50.6,76.5,50.5z"/>
			<path fill="#DAC8DE" d="M76.3,50.4c0.2-1.1,0.5-2.1,0.3-3.2c0.5,0.4,0.9,0.9,1.1,1.5c0.1,0.2,0.2,0.5,0.2,0.8c0,0.2,0,0.5,0,0.7
				c-0.4,0.2-1-0.1-1.4,0c-0.1,0-0.1,0.2,0,0.3C76.4,50.4,76.4,50.4,76.3,50.4z"/>
			<path fill="#4C2566" d="M79.1,57.4c0-0.1,0-0.2,0-0.3c0.1-0.3,0.4,0,0.5-0.1c0.4-0.8,0.7-1.6,0.8-2.7c0-0.4,0-0.8-0.2-1.2
				c0.1-0.3,0.1-0.7,0.1-1l0.1,0.3c0.1,0.1,0.1,0.4,0.2,0.7c0,0,0,0,0,0l0,0c0.2,1.5-0.2,4.4-1.3,4.4C79.3,57.4,79.2,57.4,79.1,57.4
				z"/>
			<path fill="#DAC8DE" d="M78.7,57.1c0.2-1.2,1.2-2.7,1.5-4.1c0.1,0.4,0.2,0.7,0.2,1.2c-0.1,1-0.4,1.9-0.8,2.7
				c0,0.1-0.4-0.1-0.5,0.1c0,0.1,0,0.2,0,0.3C79,57.3,78.9,57.2,78.7,57.1z"/>
			<polygon fill="#4C2566" points="80.6,53 80.6,53 80.6,53 			"/>
			<path fill="#4C2566" d="M80.2,51.6c0,0.1,0.1,0.3,0.1,0.4L80.2,51.6z"/>
			<path fill="#4C2566" d="M82.2,63.9c0-0.2,0-0.4,0.1-0.5c0.2,0,0.5,0.1,0.6-0.1c0.6-1,0.8-3,0.3-4.2c-0.3-0.3-0.7-0.5-1-0.7
				c0-0.1-0.1-0.3-0.1-0.4l1.4,0.9c0.5,0.6,0.4,3.8-0.5,4.8c-0.2,0-0.4,0-0.5,0.1l0.1,0.2c0,0-0.1,0-0.2,0
				C82.3,64,82.3,64,82.2,63.9z"/>
			<path fill="#DAC8DE" d="M82,63.8c-0.7-0.4,0.5-2.1,0.6-3c0.2-1-0.2-1.6-0.4-2.4c0.4,0.2,0.7,0.4,1,0.7c0.5,1.2,0.3,3.1-0.3,4.2
				c-0.1,0.2-0.4,0.1-0.6,0.1c0,0.2-0.1,0.4-0.1,0.5C82.1,63.9,82,63.9,82,63.8z"/>
			<path fill="#4C2566" d="M95.3,84.7c2.5-1.2,5.4-1.8,7.6-3.7c1.2-1,1.9-2.1,2.5-3.6c0.5-1.2,0.2-2.7,1.5-3.1
				c0.5-0.1,1.1-0.2,1.7-0.3c0.7,0.1,1.4,0.2,2.1,0.3c0.2,0.1,0.5,0.3,0.6,0.5c-0.4-0.1-0.8,0-1.2,0.2c-1.1-0.2-2.2-0.3-3.5-0.2
				c-0.3,2-1.1,3.5-2,4.8c-1.7,2.3-4.1,3.8-6.9,4.9c-0.5,0.1-1,0.2-1.5,0.2L95.3,84.7z"/>
			<path fill="#4C2566" d="M108.5,74c0.7-0.1,1.5,0,2.1,0.3C110,74.2,109.3,74.1,108.5,74z"/>
			<path fill="#DAC8DE" d="M104.6,79.7c1-1.3,1.7-2.8,2-4.8c1.2-0.1,2.4,0,3.5,0.2c-0.9,0.5-1.6,1.7-2.1,2.3
				c-1.2,1.5-2.5,2.9-3.9,4.2c-1.8,1.7-4,2.5-6.4,2.9C100.5,83.5,102.9,81.9,104.6,79.7z"/>
			<path fill="#4C2566" d="M113.2,86.9c1.9-1.5,3.8-4,6.4-3c-0.3,0.1-0.7,0.3-1,0.4c-0.4,0-0.8,0.1-1.3,0.3
				c-1.5,0.6-2.7,1.4-3.9,2.5L113.2,86.9z"/>
			<path fill="#DAC8DE" d="M113.5,87.1c1.2-1.1,2.4-1.9,3.9-2.5c0.4-0.2,0.9-0.3,1.3-0.3c-0.8,0.3-1.5,0.8-2.1,1.5
				c-0.6,0.8-1,1.7-1.5,2.4L113.5,87.1z"/>
			<path fill="#4C2566" d="M120.3,88.5c1.1-1,2.1-2.1,3.3-2.9c0.8-0.6,1.6-0.7,2.5-1c-0.2,0.2-0.5,0.3-0.8,0.4c-0.8,0.2-1.4,0.6-2,1
				c-1.1,0.8-2,1.5-2.9,2.6L120.3,88.5z"/>
			<path fill="#DAC8DE" d="M120.4,88.6c0.9-1,1.8-1.8,2.9-2.6c0.6-0.4,1.2-0.8,2-1c-0.2,0.1-0.3,0.2-0.5,0.3
				c-0.6,0.5-1.1,1.4-1.5,2.1c-0.5,0.8-0.8,1.6-0.9,2.5L120.4,88.6z"/>
			<path fill="#4C2566" d="M78.1,50.7c0.2-0.9,0-1.7-0.2-2.5l0.1-0.4c-0.1-0.1,0-0.3,0.2-0.5c0.3-0.2,0.5-0.3,0.8-0.6l0.1-0.1
				c0.5-0.4,1.2-0.8,1.9-1.1c0,0,0.1,0.1,0.1,0.1c0,0,0,0,0.1,0v0c0.6-0.3,1.3-0.7,2-1c0.1,0,0.2,0,0.3,0c-0.7,0.2-1.4,0.7-2,1.4
				c-1.2,0.6-2.4,1.2-3.4,2c0.4,0.8,0.7,1.6,0.4,2.5c0.2,0,0.3,0.1,0.5,0.2c0,0.1-0.1,0.2-0.1,0.3C78.7,50.9,78.3,50.8,78.1,50.7z"
				/>
			<path fill="#4C2566" d="M80.9,45.4c0.9-0.4,1.7-0.8,2.2-0.9c-0.7,0.3-1.4,0.7-2,1v0c0,0,0,0-0.1,0C81,45.5,81,45.5,80.9,45.4z"/>
			<path fill="#DAC8DE" d="M79,46.5L79,46.6c-0.2,0.3-0.5,0.4-0.8,0.6C78.4,47,78.7,46.8,79,46.5z"/>
			<path fill="#DAC8DE" d="M78.5,50.5c0.3-0.9,0-1.7-0.4-2.5c0.9-0.8,2.2-1.4,3.4-2c-1.1,1.3-2,3.3-2.5,4.7
				C78.8,50.6,78.7,50.5,78.5,50.5z"/>
			<path fill="#4C2566" d="M72.6,37c0.3-0.2,0.6-0.5,0.8-0.7c1.6-1.4,3.8-2.5,5.4-2.7c-0.1,0.1-0.1,0.2-0.2,0.3
				c-2.6,0.7-4.7,2.1-6.4,3.8c0.1,1-0.4,1.9-1,2.3C71.1,39,71.7,37.9,72.6,37z M72.4,40.8l0.1,0.1c0,0,0,0.1,0.1,0.1
				c-0.4-0.2-0.8-0.4-1.3-0.5l-0.1-0.2c0-0.1,0-0.2,0-0.3c0.1,0.1,0.3,0.1,0.4,0.1c0.1,0,0.3,0.1,0.4,0.1c0.5,0.1,1,0.2,1.4,0.5
				c-0.1,0.1-0.1,0.2-0.2,0.3C73,40.9,72.7,40.8,72.4,40.8z"/>
			<path fill="#DAC8DE" d="M72,40.2c-0.1,0-0.3-0.1-0.4-0.1c-0.1,0-0.3,0-0.4-0.1c0,0,0,0,0,0c0.6-0.4,1.1-1.3,1-2.3
				c1.7-1.7,3.8-3.1,6.4-3.8c-0.8,1.1-2.2,2.1-3,3.2c-0.9,1.2-1.4,2.4-2.1,3.6C73,40.5,72.5,40.3,72,40.2z"/>
			<path fill="#4C2566" d="M73.4,36.2c-0.2,0.3-0.4,0.5-0.8,0.7C72.9,36.7,73.1,36.5,73.4,36.2z"/>
			<path fill="#4C2566" d="M72.6,41C72.5,41,72.5,40.9,72.6,41l-0.1-0.2c0.3,0,0.5,0.1,0.8,0.3c0,0,0,0.1-0.1,0.1
				C72.9,41.1,72.7,41.1,72.6,41z"/>
			<path fill="#4C2566" d="M59.9,39.5c0.6-4.2,2-7.6,3.5-10.7c0.6-1.2,1.2-2.3,1.9-3.4c1.2-1.8,2.1-4.1,3.7-5.6
				c-0.9,1-1.6,2.5-2.1,4.1c-0.2,0.4-0.5,0.8-0.7,1.2c-2.6,4.7-4.9,9.7-5.8,16.1c-0.1,0.4,0.1,0.9,0.3,1.2
				C60,42.1,59.8,41,59.9,39.5z M62.8,43.3L61,42.5c0.9,0.1,1.8,0.1,2.5,0.4c0.3,0.1,0.5,0.2,0.7,0.3c0.1,0.2,0.3,0.5,0.4,0.7
				C64,43.6,63.4,43.5,62.8,43.3z"/>
			<path fill="#4C2566" d="M62.2,31.2c0.4-0.8,0.8-1.6,1.2-2.4c-1.5,3.1-2.8,6.5-3.5,10.7C60.1,36.6,61.7,32.3,62.2,31.2z"/>
			<path fill="#DAC8DE" d="M63.5,42.9c-0.7-0.3-1.6-0.3-2.5-0.4l-0.2-0.1c0,0,0,0,0,0c-0.1-0.3-0.3-0.8-0.3-1.2
				c0.8-6.4,3.2-11.4,5.8-16.1c0.2-0.4,0.5-0.8,0.7-1.2c-0.4,1.1-0.7,2.2-1.1,3.1c-0.7,1.9-1.4,3.8-1.9,5.8c-1,3.6-1.5,7.1,0.4,10.4
				C64,43.1,63.7,43,63.5,42.9z"/>
			<path fill="#4C2566" d="M86.3,65.8c-0.3-0.5-0.6-0.9-1.1-1.1c-0.8-0.4-1.7-0.6-2.7-0.6l0-0.2c0.2,0,0.3-0.1,0.5-0.3
				c1.2,0,3,1,3.4,2.1C86.4,65.8,86.4,65.8,86.3,65.8z"/>
			<path fill="#DAC8DE" d="M83,65.6l-0.4-1.5c1,0,1.9,0.2,2.7,0.6c0.5,0.2,0.8,0.6,1.1,1.1C85,65.5,84.3,65.2,83,65.6z"/>
			<path fill="#4C2566" d="M82.5,63.7c0.2-0.1,0.3-0.1,0.5-0.1c-0.1,0.2-0.3,0.3-0.5,0.3L82.5,63.7z"/>
			<path fill="#4C2566" d="M60.1,45.9c0-0.3,0-0.6,0-0.9c0.1,0.5,0.1,1,0.1,1.5c0,0.9,0,1.9-0.1,2.8c-0.1,1.1-0.3,2.3-0.6,3.4
				C59.9,50.6,60.1,48.3,60.1,45.9z M54.7,55.8c0.1-0.3,0.2-0.5,0.3-0.8c0.1-0.1,0.2-0.2,0.3-0.3c-0.3,0.4-0.5,0.8-0.7,1.3
				C54.7,56,54.7,55.9,54.7,55.8z M55.4,54.8c0.1,0,0.2,0,0.3,0c0.1,0.5,0.2,1.4,0.2,1.9c0.2-0.3,0.5-0.6,0.8-0.7
				c-0.3,0.2-0.6,0.5-0.9,0.9C55.8,56.2,55.7,55.4,55.4,54.8z M56.9,55.9c0.3,0,0.5,0.2,0.5,0.5c-0.1,0.3-0.2,0.6-0.3,1
				C57.2,56.6,57.2,56.1,56.9,55.9z M58.9,55.9c-0.1,0.9-0.3,1.8-0.5,2.5c-0.2,0.3-0.4,0.6-0.6,1C58.2,58.3,58.5,57.1,58.9,55.9z"/>
			<path fill="#DAC8DE" d="M57.1,57.3c0.1-0.4,0.2-0.7,0.3-1c0.1-0.2-0.2-0.5-0.5-0.5c0,0,0,0-0.1,0c-0.1,0-0.1,0.1-0.2,0.1
				c-0.3,0.2-0.6,0.5-0.8,0.7c0-0.5-0.1-1.4-0.2-1.9c-0.1,0-0.2,0-0.3,0c0,0,0,0,0,0c0,0,0,0,0,0c-0.1,0-0.3,0.1-0.3,0.3
				c-0.1,0.2-0.2,0.5-0.3,0.8c0.2-1,0.3-1.9,0.3-2.9c0.1-1.6-0.1-3.2,0.1-4.8c0.1-1.8,2.2-8.3,4.5-5.8c0.1,0.5,0.2,1.1,0.3,1.5
				c0.1,0.4,0.1,0.7,0.2,1.1c0,0.3,0,0.6,0,0.9c-0.1,2.4-0.2,4.7-0.6,6.8c-0.1,0.4-0.2,0.8-0.3,1.2c-0.1,0.5-0.2,1.2-0.4,2
				c-0.3,1.2-0.7,2.4-1.1,3.5c0,0,0,0,0,0.1c-0.1,0.1-0.2,0.1-0.3,0.1C57,59.5,57.1,58.3,57.1,57.3z"/>
			<path fill="#4C2566" d="M57.7,59.3c0.2-0.3,0.4-0.6,0.6-1c-0.1,0.3-0.3,0.6-0.4,0.8C57.8,59.3,57.8,59.3,57.7,59.3
				C57.7,59.4,57.7,59.4,57.7,59.3z"/>
			<path fill="#BB9DC5" d="M57.7,59.3C57.7,59.4,57.7,59.4,57.7,59.3C57.7,59.4,57.7,59.4,57.7,59.3C57.7,59.4,57.7,59.4,57.7,59.3z
				"/>
			<path fill="#4C2566" d="M60.3,46.4c0,1,0,1.9-0.1,2.8C60.2,48.3,60.2,47.4,60.3,46.4z"/>
			<path fill="#4C2566" d="M55,42.4c0.1-0.2,0.2-0.4,0.3-0.6c0,0,0-0.1,0-0.1c0.4-0.9,1-1.6,1.9-1.9c0,0,0.1,0,0.1,0
				c-0.1,0.1-0.3,0.1-0.4,0.2c-1,0.6-1.5,1.8-2,3C54.9,42.8,54.9,42.6,55,42.4z M55.8,56.9C55.8,56.9,55.8,56.9,55.8,56.9
				C55.8,56.9,55.8,56.9,55.8,56.9C55.8,57,55.8,57,55.8,56.9C55.8,57,55.8,56.9,55.8,56.9z"/>
			<path fill="#DAC8DE" d="M55.3,41.7c0,0,0,0.1,0,0.1c-0.1,0.2-0.2,0.4-0.3,0.6C55.1,42.2,55.1,41.9,55.3,41.7z"/>
			<path fill="#4C2566" d="M54.5,56.6c0-0.2,0.1-0.4,0.2-0.5c-0.1,0.6-0.2,1.3-0.2,1.9l-0.1,0C54.4,57.6,54.4,57.1,54.5,56.6z
				 M53.6,56.4c-0.3-2.1-0.4-4.4-0.2-6.6c0.2-1.5,0.5-3,0.7-4.2c0.2-0.8,0.4-1.8,0.7-2.7c-0.3,1-0.4,2-0.6,2.7
				c-0.5,2.5-0.9,4.5-0.8,6.9c0,1,0,2,0.2,3c0.1,0.4,0.4,0.9,0.5,1.4c0,0.2,0.1,0.5,0.1,0.7l0,0.4c0-0.1,0-0.2,0-0.3
				c0,0.1,0,0.1,0,0.2l-0.1,0.1C54,57.6,53.8,57,53.6,56.4z"/>
			<path fill="#DAC8DE" d="M53.4,49.8c-0.2,2.2-0.1,4.5,0.2,6.6C53.1,54.5,53.1,52.1,53.4,49.8z M54.1,57c0.1,0.2,0.1,0.3,0.1,0.5
				l0,0.2C54.2,57.5,54.2,57.3,54.1,57z M54.3,57.9c0-0.1,0-0.2,0-0.4l0,0c0.1-0.3,0.2-0.6,0.2-0.9c-0.1,0.5-0.1,0.9-0.2,1.5l0,0
				C54.3,58,54.3,57.9,54.3,57.9z"/>
			<path fill="#4C2566" d="M59.9,42.6c-0.2-1-0.5-1.8-0.9-2.6c-0.1,0-0.3,0-0.4,0c-0.3-0.3-0.8-0.4-1.3-0.2c1.9-0.8,2.8,1.3,2.9,3.2
				C60,42.8,59.9,42.7,59.9,42.6z"/>
			<path fill="#DAC8DE" d="M59.6,42.4c-0.2-0.9-0.5-1.9-1.1-2.3c0.1,0,0.3,0,0.4,0c0.4,0.7,0.7,1.6,0.9,2.6
				C59.8,42.5,59.7,42.4,59.6,42.4z"/>
			<path fill="#4C2566" d="M54.3,57.7c0,0.1,0,0.1,0,0.2c0,0.1,0,0.2,0,0.3L54.3,57.7z"/>
			<path fill="#BB9DC5" d="M54.3,57.7l0-0.2c0,0.1,0,0.2,0,0.4C54.3,57.8,54.3,57.8,54.3,57.7z"/>
			<path fill="#4C2566" d="M54.7,55.8c0,0.1,0,0.2,0,0.3c-0.1,0.2-0.1,0.4-0.2,0.5C54.6,56.3,54.6,56.1,54.7,55.8z M53.6,55.6
				c-0.2-1-0.2-2-0.2-3c-0.1-2.4,0.3-4.4,0.8-6.9c0.2-0.8,0.3-1.8,0.6-2.7c0.4-1.2,1-2.4,2-3c0.2-0.1,0.3-0.2,0.4-0.2
				c0.6-0.2,1-0.1,1.3,0.2c-1.2-0.1-2.1,0.4-2.6,1.3c-2,3.8-2.8,10.7-1.8,15.7C53.9,56.5,53.7,56,53.6,55.6z"/>
			<path fill="#BB9DC5" d="M54.1,57c-0.9-5.1-0.2-11.9,1.8-15.7c0.4-0.8,1.4-1.3,2.6-1.3c0.6,0.5,0.9,1.4,1.1,2.3
				c-2.4-2.5-4.4,4-4.5,5.8c-0.1,1.6,0,3.3-0.1,4.8c0,1-0.2,1.9-0.3,2.9c-0.1,0.3-0.1,0.5-0.2,0.8c-0.1,0.3-0.2,0.6-0.2,0.9l0,0
				C54.2,57.4,54.2,57.2,54.1,57z"/>
			<path fill="#4C2566" d="M80.5,64.9c0.1-0.2,0.1-0.4,0.2-0.7l-2.4-3c0-0.1,0.1-0.2,0.1-0.3l4.5,6.1c0,0.2,0,0.4,0,0.5
				C82,66.8,81.2,65.9,80.5,64.9z M87.1,82.3c-2.6-2.5-5.1-5.3-6.7-8.7c0,0,0,0,0.1,0.1c-0.5-1.3-0.7-3.1-0.6-4.9
				c0,0.2,0.1,0.3,0.1,0.5c1.1,1.9,2.3,3.8,3.6,5.5c0.2,0.8,0.4,1.5,0.7,2.3c-0.3-0.3-0.5-0.6-0.7-1c-0.9-1.4-2-2.7-2.7-4.2
				c1.2,3.2,2.6,6.2,4.9,8.4c0.4,0.8,0.9,1.5,1.5,2.2C87.2,82.3,87.2,82.3,87.1,82.3z"/>
			<path fill="#D997B4" d="M87.1,82.3c0,0,0.1,0.1,0.1,0.1c0,0,0.1,0.1,0.1,0.1C87.3,82.4,87.2,82.4,87.1,82.3z"/>
			<path fill="#D997B4" d="M80,69.2c0-0.2-0.1-0.3-0.1-0.5c0-1.4,0.2-2.7,0.6-3.8c0.8,1,1.6,1.9,2.4,2.7c-0.1,2.4,0.2,4.8,0.7,7.1
				C82.3,73,81.1,71.1,80,69.2z"/>
			<path fill="#CD5E89" d="M80.8,71.8c0.8,1.5,1.8,2.9,2.7,4.2c0.2,0.3,0.5,0.7,0.7,1c0.4,1.1,0.9,2.1,1.5,3.1
				C83.4,78,82,75,80.8,71.8z"/>
			<path fill="#4C2566" d="M78.2,61.8c0.2,1,0.2,2.2,0.2,3.3C78.2,63.9,78,62.8,78.2,61.8z"/>
			<path fill="#4C2566" d="M89.8,72.2l0.1-0.4l0.4,0.1c0,0,0.1,0.1,0.3,0.1c0.1,0,0.4,0.1,0.5,0.2c0.5,0.2,1,0.3,1.6,0.4l0.6,0.2
				c0,0,0-0.1,0.1-0.1c1.1,0.1,2.3,0,3.1-0.3c0.1,0,0.2-0.1,0.3-0.1c-0.1,0.1-0.2,0.3-0.4,0.4c-0.5,0.4-1.2,0.6-2,0.6
				C92.9,73.2,91,72.6,89.8,72.2z"/>
			<path fill="#DAC8DE" d="M95.9,68.1c-0.4,0.3-0.8,0.6-1.2,0.9C95.1,68.7,95.5,68.4,95.9,68.1z"/>
			<path fill="#4C2566" d="M94.1,69.7c1.4-0.7,2.5-1.7,3.4-2.9c0.4-0.3,0.9-0.6,1.3-0.8c-0.1,0.2-0.1,0.4-0.2,0.6
				c-1.3,1.6-2.7,3.1-4.6,4.1C94.1,70.4,94.1,70.1,94.1,69.7z"/>
			<path fill="#4C2566" d="M94.1,69.6c-0.1,0-0.2,0-0.3,0c0.3-0.2,0.6-0.5,0.9-0.7c0.4-0.3,0.8-0.6,1.2-0.9c0.5-0.4,1.1-0.8,1.6-1.2
				c-1,1.2-2,2.2-3.4,2.9C94.1,69.7,94.1,69.7,94.1,69.6z"/>
			<path fill="#D96586" d="M91.1,72.2c-0.1,0-0.4-0.2-0.5-0.2c-0.2,0-0.3-0.1-0.3-0.1l2.3,0.7C92.1,72.5,91.6,72.4,91.1,72.2z
				 M93.4,72.7c0.4-0.6,0.6-1.2,0.7-1.9c1.9-1,3.3-2.5,4.6-4.1c-0.4,1.8-0.6,4.3-1.8,5.6c-0.1,0-0.2,0.1-0.3,0.1
				c-0.6,0.2-1.4,0.3-2.3,0.3C93.9,72.7,93.6,72.7,93.4,72.7z"/>
			<path fill="#4C2566" d="M90,71.6c0.2,0,0.3-0.1,0.5-0.1C90.3,71.6,90.1,71.6,90,71.6L90,71.6z"/>
			<path fill="#4C2566" d="M80.1,73c-0.6-1.7-1.1-3.4-1.5-5.3c-0.1-0.9-0.1-1.8-0.1-2.7c0.2,0.9,0.4,1.7,0.6,2.4
				c0.4,2,0.6,4.1,1.4,6c0,0,0,0.1,0,0.1C80.3,73.4,80.2,73.2,80.1,73z"/>
			<path fill="#D3507C" d="M78.5,67.8c0.4,1.9,0.9,3.6,1.5,5.3C79.1,71.5,78.7,69.6,78.5,67.8z"/>
			<path fill="#4C2566" d="M78,60.9l0.3,0.4c-0.1,0.2-0.1,0.3-0.1,0.5C78.1,61.5,78.1,61.2,78,60.9z"/>
			<path fill="#4C2566" d="M80.5,73.6C80.4,73.5,80.4,73.5,80.5,73.6c-0.9-2-1-4.1-1.5-6.1c-0.2-0.7-0.4-1.6-0.6-2.4
				c0-1.1-0.1-2.2-0.2-3.3c0-0.2,0.1-0.4,0.1-0.5l2.4,3c-0.1,0.2-0.1,0.4-0.2,0.7c-0.6-0.8-1.3-1.7-1.8-2.5c0,0.2,0.1,0.5,0.2,0.6
				c0.4,1.9,0.6,3.9,1.1,5.7C79.8,70.5,80,72.3,80.5,73.6C80.5,73.6,80.5,73.6,80.5,73.6z"/>
			<path fill="#BB77A4" d="M78.8,63c0-0.1-0.1-0.4-0.2-0.6c0.6,0.9,1.2,1.7,1.8,2.5c-0.3,1.1-0.5,2.4-0.6,3.8
				C79.4,66.9,79.2,64.9,78.8,63z"/>
			<path fill="#4C2566" d="M92.3,70.4C92.3,70.4,92.4,70.4,92.3,70.4c0.1,0,0.1,0,0.1,0c0.2-0.1,0.4-0.1,0.6-0.2
				c-0.9,0.6-1.8,1.1-2.6,1.3C91.1,71.3,91.7,70.8,92.3,70.4z M89.5,71.7c0.2,0,0.3,0,0.5,0l0,0.1L89.5,71.7z"/>
			<path fill="#4C2566" d="M92.3,70.4c0.5-0.3,1-0.6,1.5-0.7c-0.3,0.2-0.5,0.4-0.8,0.5c-0.2,0.1-0.4,0.1-0.6,0.2
				C92.4,70.4,92.4,70.4,92.3,70.4C92.4,70.4,92.3,70.4,92.3,70.4z"/>
			<path fill="#4C2566" d="M89.9,71.8l0-0.1c0.2,0,0.3-0.1,0.5-0.1c0.8-0.2,1.7-0.7,2.6-1.3c0.4-0.1,0.7-0.3,1-0.5
				c0,0.3-0.1,0.7-0.1,1c-0.9,0.5-2,0.9-3.2,1.1c0,0-0.5,0-0.5,0.1L89.9,71.8z M92.7,72.6c0.2,0,0.5,0.1,0.7,0.1c0,0,0,0.1-0.1,0.1
				L92.7,72.6z"/>
			<path fill="#4C2566" d="M93.8,69.7c0.1,0,0.2,0,0.3,0c0,0,0,0.1,0,0.1c-0.3,0.2-0.7,0.3-1,0.5C93.3,70,93.6,69.8,93.8,69.7z"/>
			<path fill="#BC5181" d="M92.7,72.6l-2.3-0.7c0-0.1,0.5-0.1,0.5-0.1c1.2-0.2,2.2-0.6,3.2-1.1c-0.1,0.7-0.2,1.3-0.7,1.9
				C93.1,72.6,92.9,72.6,92.7,72.6z"/>
			<path fill="#4C2566" d="M67.1,34.9c0,0,0.1-0.1,0.1-0.1l1.7,0c0.3,0,0.5-0.2,0.6-0.4c1.4-2.5,2.9-4.9,4.7-7c0,0,0.1,0,0.1,0
				c-1.9,2.2-3.8,5.1-5,7.8L67.1,34.9z"/>
			<path fill="#DAC8DE" d="M68.9,34.8l-1.7,0c1.1-1.4,2-2.9,3.4-4.2c0.9-0.8,2.5-2.8,3.7-3.2c-1.8,2.1-3.3,4.5-4.7,7
				C69.4,34.6,69.2,34.8,68.9,34.8C68.9,34.8,68.9,34.8,68.9,34.8z"/>
			<path fill="#4C2566" d="M22.7,77c0.4-0.8,0.8-1.6,1.2-2.5c0.4-0.6,0.7-1.2,0.9-1.8c0.6-1.4,0.9-3.5,1.8-4.7l2-0.1
				c0.6,0,1.2,0,1.9-0.1c0.6,0,1.2,0,1.7,0c1,0,2,0.1,2.8,0.3c0,0-0.1,0.1-0.1,0.1c-2.1,0.3-4.5,0.4-6.9,0c-0.1,0-0.3,0.4-0.4,0.7
				c-0.7,2-1.5,4-2.4,5.9c-0.8,0.9-1.6,1.8-2.5,2.6C22.6,77.3,22.7,77.2,22.7,77z"/>
			<path fill="#4C2566" d="M23.9,74.5c-0.4,0.9-0.7,1.7-1.2,2.5C22.9,76.2,23.4,75.3,23.9,74.5z"/>
			<path fill="#DAC8DE" d="M27.5,68.9c0.1-0.3,0.3-0.7,0.4-0.7c2.4,0.4,4.8,0.4,6.9,0c-1.4,1.7-4.3,2.3-6.1,3.4
				c-1.5,0.9-2.5,2-3.6,3.2C26,72.9,26.8,70.9,27.5,68.9z"/>
			<path fill="#D96586" d="M30.5,67.8c0.6,0,1.2,0,1.7,0c-0.2,0-0.4,0-0.6,0C31.2,67.9,30.8,67.8,30.5,67.8z"/>
			<path fill="#4C2566" d="M70.7,125.8c-0.1-0.1-0.2-0.2-0.3-0.3c0.1-0.2,0.2-0.3,0.3-0.5c0.1,0.1,0.2,0.2,0.3,0.3l5.1-6.8
				c2.9-3.7,5.8-7.5,8.2-11.7c-1.1-0.9-2-2-3.2-3c-0.7,0.9-1.4,1.8-2.2,2.7c0.3-0.8,0.6-1.5,0.8-2.1c0.3-0.3,0.5-0.6,0.8-0.9
				c0.1-0.1,0.1-0.3,0-0.3c0,0,0,0,0,0c0,0,0,0,0.1,0l0,0l3.6,3.1c0.3,2.5-2,5.4-4,8c-1.7,2-3.3,4.2-5,6.3c-1.6,2-3.4,4.4-5.3,6.3
				L70.7,125.8z"/>
			<path fill="#4C2566" d="M80.6,103.2C80.6,103.2,80.6,103.2,80.6,103.2c0,0.1,0.1,0.2,0,0.4c-0.3,0.3-0.5,0.6-0.8,0.9
				C80.1,103.8,80.4,103.3,80.6,103.2z"/>
			<path fill="#4C2566" d="M81.1,102.8c0.1,0,0.1,0.1,0.2,0.1c-0.1,0-0.2,0-0.3,0L81.1,102.8z"/>
			<path fill="#DAC8DE" d="M70.7,125.1c1.3-2.6,2.2-5.6,3.5-8.1c1.1-2.1,2.4-4.2,3.3-6.4c0.3-0.6,0.8-2.3,1.4-4
				c0.8-0.9,1.5-1.8,2.2-2.7c1.1,1,2.1,2,3.2,3c-2.4,4.3-5.3,8.1-8.2,11.7l-5.1,6.8C70.9,125.3,70.8,125.2,70.7,125.1z"/>
			<path fill="#D96586" d="M70.4,125.6c0.1,0.1,0.2,0.2,0.3,0.3l-0.7,1c-0.3,0.3-0.7,0.7-1.1,1C69.5,127.1,70,126.4,70.4,125.6z"/>
			<path fill="#4C2566" d="M70.4,99.9c-0.8-0.1-1.5,0-2.3-0.2L67.6,99c0.1-0.3,0.3-0.7,0.6-1.2c0.7-0.9,1.3-1.9,1.9-3
				c0.2-0.4,0.5-0.8,0.6-1.2c0.7-1.6,1.2-3.3,1.7-4.9c0,0,0,0,0.1,0c-0.1,1.2-0.4,2.4-0.6,3.6c-0.5,0.1,0.1,0.2,0.1,0.4
				c-0.8,2.5-2,4.5-3.4,6.2c0.8,0,1.8,0,2.7,0c0.3,0,0.6,0,0.9,0c-0.1,0.4-0.2,0.8-0.4,1.1C71.2,100,70.8,99.9,70.4,99.9z"/>
			<path fill="#4C2566" d="M70.4,99.9c0.4,0,0.9,0,1.3,0.1c0,0.1,0,0.1-0.1,0.2C71.2,100,70.8,100,70.4,99.9z"/>
			<path fill="#DAC8DE" d="M70,94.8c-0.6,1.1-1.2,2.1-1.9,3C68.7,96.9,69.4,95.9,70,94.8z M68.5,98.9c1.4-1.7,2.6-3.8,3.4-6.2
				c0.1-0.2-0.6-0.2-0.1-0.4c0.2-1.2,0.5-2.4,0.6-3.6c0,0,0,0-0.1,0c0.1-0.2,0.2-0.5,0.2-0.7c0.3,3,0.4,7.7-0.5,11
				c-0.3,0-0.6,0-0.9,0c-0.1,0-0.2,0-0.3,0C70.1,98.9,69.2,98.9,68.5,98.9z"/>
			<path fill="#4C2566" d="M99.6,104.6c0.1-0.3,0.3-0.5,0.4-0.8c0.1-0.1,0.2-0.2,0.2-0.4c0.1-0.1,0.4-0.1,0.3,0.1
				c-0.9,1.9-1.7,3.9-2.8,5.6c1.5-0.2,2.9-0.4,4.3-0.7c0,0.3-0.1,0.5-0.5,0.8c-0.7,0.7-3.2,0.7-4.1,0.8l-1,0.3
				C97,108.3,98.6,106.4,99.6,104.6z"/>
			<path fill="#DAC8DE" d="M100.5,103.6c0.1-0.3-0.2-0.3-0.3-0.1c-0.1,0.1-0.2,0.2-0.2,0.4c0.7-1.4,1.4-2.8,2.3-4
				c-0.4,2.5-0.7,4.9-0.4,7.4c0.1,0.5,0.2,0.9,0.2,1.2c-1.4,0.3-2.8,0.5-4.3,0.7C98.8,107.5,99.6,105.5,100.5,103.6z"/>
			<path fill="#4C2566" d="M80.5,103C80.5,103,80.5,103,80.5,103c-0.1-0.1-0.1-0.1-0.1-0.1c0.2,0,0.4,0,0.6-0.1l-0.3,0.3L80.5,103z
				 M81.3,102.9c0.1,0,0.3,0,0.4,0c0.3,0.2,0.5,0.5,0.8,0.7C82.1,103.3,81.7,103.1,81.3,102.9z M84.3,106.3
				c-0.1-0.5-0.3-1.1-0.6-1.6c0.5,0.5,0.9,0.9,1.3,1.4c0.4-0.5,0.7-1,1.1-1.6c-0.5,0.9-0.8,1.8-0.9,2.5L84.3,106.3z"/>
			<path fill="#4C2566" d="M80.4,102.9C80.4,102.9,80.4,102.9,80.4,102.9C80.4,102.9,80.4,103,80.4,102.9c0.1,0,0.1,0.1,0.1,0.1
				L80.4,102.9z"/>
			<path fill="#DAC8DE" d="M83.7,104.7c-0.3-0.4-0.7-0.8-1.2-1.1c-0.3-0.2-0.5-0.5-0.8-0.7c1,0,1.9,0.1,2.9-0.2
				c1.8-0.5,3.1-1.9,4.4-3.1c-0.8,1.2-2.1,3.2-3,4.9c-0.3,0.6-0.7,1.1-1.1,1.6C84.6,105.6,84.1,105.2,83.7,104.7z"/>
			<path fill="#4C2566" d="M80.7,103.2l0.3-0.3c0.1,0,0.2,0,0.3,0c0.5,0.2,0.9,0.5,1.2,0.7c0.4,0.4,0.8,0.7,1.2,1.1
				c0.4,0.5,0.6,1,0.6,1.6L80.7,103.2z"/>
			<path fill="#BB9DC5" d="M82.5,103.6c0.5,0.4,0.9,0.7,1.2,1.1C83.3,104.3,82.9,103.9,82.5,103.6z"/>
			<path fill="#4C2566" d="M33.7,50.8c-0.8-1.1-1.6-2.3-2.6-3.3c0-0.4,0-0.7,0-1.1c0.1,0,0.2,0.1,0.3,0.2c0.4,0.4,0.8,0.9,1.1,1.3
				l0,0l1.6,2.1c0.1,0.3,0.2,0.5,0.2,0.8c-0.1,1.6-2.3,3.7-3.6,5C31.9,54.2,32.8,52.4,33.7,50.8z M30,56.4c0.1-0.1,0.2-0.2,0.3-0.3
				c0,0,0,0,0,0L30,56.4C30,56.4,30,56.4,30,56.4z"/>
			<path fill="#4C2566" d="M32.5,47.8L32.5,47.8c-0.4-0.4-0.7-0.9-1.1-1.3c0.9,0.6,2.3,2.2,2.7,3.4L32.5,47.8z"/>
			<path fill="#DAC8DE" d="M31.3,51.2c0.2-1.3-0.1-2.5-0.2-3.8c0.9,1,1.8,2.2,2.6,3.3c-0.9,1.7-1.8,3.5-3,4.9
				c-0.1,0.2-0.3,0.3-0.4,0.5c-0.1,0.1-0.2,0.2-0.3,0.3C29.9,54.9,31.1,52.7,31.3,51.2z"/>
			<path fill="#DAC8DE" d="M123.8,100.6C123.8,100.6,123.8,100.6,123.8,100.6C123.8,100.6,123.8,100.6,123.8,100.6
				C123.8,100.6,123.8,100.6,123.8,100.6z"/>
			<path fill="#4C2566" d="M137.8,112.4c0.8-1.7,1.3-4,0.3-5.7c-1.4-0.9-3.1-1.6-4.6-2.2c-0.1,0.9-0.2,1.8-0.4,2.6
				c-0.2-0.1-0.4-0.1-0.5-0.2c0.1-0.2,0.1-0.4,0.1-0.6c0.2-0.7,0.3-1.3,0.1-2c-1.8-0.7-3.7-1.2-5.7-1.7c-2.2-0.6-4.3-1.2-6-2.3
				c-3.2-0.4-6.1-1.1-8.8-2c-3.5-1.1-6.9-2.3-9.7-4.1c-0.5-0.7-0.8-1.3-0.8-1.8l3.1,2.2c3.1,1.4,6.4,2.6,9.8,3.4
				c2.8,0.7,5.4,1.4,8.1,2.2c0,0-0.1,0-0.1,0l0,0h0c-0.1,0-0.2,0.1-0.2,0.2c0,0.1,0.1,0.1,0.1,0.2c2,0.6,4.1,1.2,6.1,1.8
				c0.4,0.2,0.9,0.3,1.3,0.5c1.4,0.5,2.7,1,4.1,1.6c0.7,0.3,1.9,0.4,2.8,0.7c0.4,0.2,0.7,0.3,1.1,0.5c1.7,1.7,1,5.7-0.1,7.5
				C137.8,112.9,137.8,112.6,137.8,112.4z"/>
			<path fill="#4C2566" d="M122.6,100.6c-0.1,0-0.1-0.1-0.1-0.2c0-0.1,0.1-0.2,0.2-0.2h0l0,0c0,0,0.1,0,0.1,0
				c0.4,0.1,0.7,0.2,1.1,0.4c0,0,0,0,0,0c0,0,0,0,0,0c1.6,0.5,3.2,1.1,4.9,1.7C126.7,101.8,124.6,101.2,122.6,100.6z M136.9,105.1
				c0.4,0.1,0.8,0.3,1,0.5c0,0,0.1,0.1,0.1,0.1C137.6,105.4,137.2,105.2,136.9,105.1z"/>
			<path fill="#DAC8DE" d="M128.7,106.2c-3.1-0.6-6.3-1.6-9.4-2.5c-4-1.2-8-2.7-11.5-4.9c-1.1-0.7-3.9-2.8-5.3-4.5
				c2.8,1.8,6.2,3,9.7,4.1c2.7,0.9,5.6,1.6,8.8,2c1.6,1.1,3.8,1.7,6,2.3c2,0.5,3.8,1.1,5.7,1.7c0.2,0.7,0.1,1.4-0.1,2
				c0,0.2-0.1,0.4-0.1,0.6C131.2,106.6,129.9,106.5,128.7,106.2z"/>
			<path fill="#CD5E89" d="M136.4,109.4c-0.9-1.2-2.1-1.8-3.5-2.2c0.2-0.8,0.3-1.6,0.4-2.6c1.6,0.6,3.2,1.3,4.6,2.2
				c1,1.6,0.5,3.9-0.3,5.7C137.6,111.4,137.2,110.3,136.4,109.4z"/>
			<path fill="#4C2566" d="M151.6,84.7l-0.6-0.4c0-0.2,0.1-0.3,0.1-0.5c0.1,0,0.1,0,0.2,0c0.6-0.8,1.2-1.7,1.7-2.7
				c0.7-0.8,1.4-1.5,2.1-2.1c0,0.1,0.1,0.1,0.2,0.1c0.1,0,0.1,0,0.1-0.1c1.5-1.6,3-3.1,4.7-4.5c0.4-0.3,0.7-0.5,1.1-0.8
				c-0.7,0.7-1.3,1.4-1.9,2.2c-0.4,0.3-0.8,0.7-1.2,1c-2.2,2.3-4.4,4.5-6.3,7.2c0.7,0.4,1.1,1,1.1,1.9c0,0.2,0.1,0.7,0.4,0.4
				c-0.2,0,0.1-0.3,0.1-0.1c0,0,0.1-0.1,0.1-0.1c0.3-0.4,0.7-0.7,1-1.1c-0.3,0.4-0.7,0.8-1,1.2c-0.3,0.2-0.5,0.4-0.7,0.5
				C152.5,86.1,152.2,85.3,151.6,84.7z"/>
			<path fill="#4C2566" d="M155,79c0.2-0.2,0.4-0.5,0.6-0.7c1.3-1.5,2.8-2.6,4.4-3.7c-1.7,1.4-3.2,2.9-4.7,4.5c0,0-0.1,0.1-0.1,0.1
				C155.1,79.1,155.1,79.1,155,79z"/>
			<path fill="#DAC8DE" d="M152.8,86.1c-0.1-0.9-0.4-1.5-1.1-1.9c1.8-2.7,4.1-4.9,6.3-7.2c0.4-0.3,0.8-0.7,1.2-1
				c-1.3,1.7-2.4,3.6-3.2,5.4c-0.3,0.8-0.4,1.9-0.5,2.8c-0.4,0.3-0.7,0.6-1.1,1c-0.4,0.3-0.7,0.7-1,1.1c0,0-0.1,0.1-0.1,0.1
				c0-0.2-0.3,0.1-0.1,0.1c-0.1,0.1-0.1,0.1-0.2,0.1C152.8,86.6,152.8,86.2,152.8,86.1z"/>
			<path fill="#DAC8DE" d="M153,81.1c-0.5,0.9-1.1,1.9-1.7,2.7c-0.1,0-0.1,0-0.2,0C151.4,83,152.2,82,153,81.1z"/>
			<path fill="#DAC8DE" d="M167.3,76.5c0.5-0.3,1-0.6,1.5-0.8c-0.6,0.4-1.1,0.7-1.6,1.1C167.3,76.7,167.3,76.6,167.3,76.5z"/>
			<path fill="#4C2566" d="M162.2,83.6l-0.6-0.9c-0.1-0.2-0.3,0.1-0.3-0.3c0.4-0.6,0.9-1.2,1.4-1.7c0.9-0.8,1.9-1.5,2.8-2.3
				c0.2-0.3,0.3-0.6,0.5-0.9c0.3-0.2,0.6-0.4,0.9-0.7c0,0.1-0.1,0.2-0.1,0.3v0c0,0,0,0,0,0.1c0,0.1,0.1,0.2,0.2,0.2c0,0,0.1,0,0.1,0
				h0c1.4-1,2.9-1.9,4.5-2.8c0.5-0.2,1.1-0.5,1.6-0.8c-0.8,0.7-1.6,1.3-2.4,2.1c-3.2,1.9-6.1,4.1-8.8,6.7c0.5,0.2,1.2,0.4,1.3,0.9
				c0.1,0.4,0.2,0.9,0.2,1.5c-0.1,0.1-0.1,0.1-0.2,0.2C163.1,84.6,162.8,83.9,162.2,83.6z"/>
			<path fill="#4C2566" d="M166.7,77.3C166.7,77.3,166.7,77.2,166.7,77.3L166.7,77.3c0.1-0.2,0.1-0.3,0.1-0.4c0,0,0,0,0,0
				c0.1-0.1,0.3-0.2,0.5-0.3c0,0.1-0.1,0.2-0.1,0.3c0.5-0.4,1.1-0.7,1.6-1.1c0.8-0.4,1.7-0.7,2.5-1.1c-1.5,0.9-3,1.8-4.5,2.8h0
				c0,0-0.1,0-0.1,0C166.8,77.4,166.7,77.4,166.7,77.3z"/>
			<path fill="#DAC8DE" d="M163.1,83.5c-0.1-0.5-0.8-0.7-1.3-0.9c2.7-2.5,5.6-4.8,8.8-6.7c-1.2,1.1-2.4,2.4-3.6,3.7
				c-1.4,1.6-2.4,3.7-3.7,5.3C163.3,84.4,163.2,83.8,163.1,83.5z"/>
			<path fill="#DAC8DE" d="M166,77.5c-0.2,0.3-0.3,0.6-0.5,0.9c-0.9,0.8-1.9,1.5-2.8,2.3C163.7,79.6,164.8,78.5,166,77.5z"/>
			<path fill="#4C2566" d="M128.5,89.3c-0.1-0.5,0.4-1.3,1.3-2c0.8-0.6,1.5-1.2,2.4-1.3c0-0.1,0-0.2,0-0.3c1.4-0.6,2.8-0.7,3.5,0.3
				c-0.6-0.5-1.8-0.4-2.4-0.1c-0.3,0.2-0.3,0.4-0.4,0.4c-1.6,0.7-3.1,1.6-4.2,2.9L128.5,89.3z"/>
			<path fill="#DAC8DE" d="M128.6,89.3c1.1-1.3,2.6-2.2,4.2-2.9c0.1,0,0.1-0.2,0.4-0.4c0.6-0.4,1.8-0.4,2.4,0.1c0,0,0,0,0,0.1
				c-2.4,0.7-3.4,1.8-4.9,3.7L128.6,89.3z"/>
			<path fill="#4C2566" d="M132.2,85.7c0,0.1,0,0.2,0,0.3c-0.9,0.1-1.7,0.7-2.4,1.3C130.4,86.7,131.3,86.1,132.2,85.7z"/>
			<path fill="#4C2566" d="M142.3,85.4c-0.5,0.2-1.1,0.4-1.5,0.8c-1.2,0.5-2.3,1.3-3.2,2.2c-0.2,0.2-0.3,0.5-0.5,0.6
				c-0.5,0.3-0.9,0.7-1.4,1.1C134.9,88.2,140.8,85.4,142.3,85.4z"/>
			<path fill="#DAC8DE" d="M135.6,90.1C135.6,90.1,135.6,90.1,135.6,90.1c0.5-0.4,0.9-0.7,1.4-1.1c0.2-0.2,0.4-0.5,0.5-0.6
				c0.9-0.9,2-1.7,3.2-2.2c-1.7,1.1-3,2.9-3.6,4.6L135.6,90.1z"/>
			<path fill="#4C2566" d="M145.1,87.3c0,0.1,0.1,0.2,0.1,0.2c0.9-0.5,1.3-1.1,1.5-1.8c1-0.8,2.2-1.1,3.4-0.7
				c-0.1,0.1-0.2,0.1-0.2,0.2c-1.3,0.4-2.1,1.3-3,2l-3.9,3.9C143.3,89.9,144.1,88.5,145.1,87.3z"/>
			<path fill="#DAC8DE" d="M142.9,91.1l3.9-3.9c1-0.7,1.8-1.6,3-2c-1.9,1.3-3.5,3.6-4.4,5.7l-2.6,0.5
				C142.9,91.2,142.9,91.1,142.9,91.1z"/>
			<path fill="#4C2566" d="M145.1,87.3C145.1,87.2,145.1,87.2,145.1,87.3C145.1,87.2,145.1,87.2,145.1,87.3c0.5-0.5,0.9-0.9,1.4-1.4
				c0.1-0.1,0.1-0.1,0.2-0.2c-0.2,0.7-0.7,1.2-1.5,1.8C145.1,87.4,145.1,87.3,145.1,87.3z"/>
			<path fill="#BB9DC5" d="M145.1,87.2c0.4-0.5,0.9-0.9,1.4-1.3C146,86.3,145.6,86.8,145.1,87.2C145.1,87.2,145.1,87.2,145.1,87.2z"
				/>
			<path fill="#4C2566" d="M151.4,89.7c0.4-0.7,1.1-2,2-3.2c0.7-0.5,1.5-0.9,1.8-1.5c0.1-0.2,0.2-0.4,0.2-0.6c0.3-0.2,0.6-0.5,1-0.7
				c0.6-0.3,1.3-0.3,2-0.1c-0.2,0.2-0.5,0.3-0.7,0.5c-0.5,0.2-0.9,0.5-1.3,0.8c-1.8,1.2-3.1,3-4.4,4.8l-0.1,0
				c-0.1,0-0.2,0.1-0.3,0.1C151.4,89.8,151.4,89.8,151.4,89.7z"/>
			<path fill="#DAC8DE" d="M156.3,84.9c0.4-0.3,0.9-0.6,1.3-0.8c-1.7,1.2-3.1,2.7-3.6,4.9l-2.2,0.7
				C153.2,87.9,154.5,86.1,156.3,84.9z"/>
			<path fill="#DAC8DE" d="M155.4,84.3c0.3-0.2,0.6-0.4,1-0.6C156,83.9,155.7,84.1,155.4,84.3C155.4,84.3,155.4,84.3,155.4,84.3z"/>
			<path fill="#4C2566" d="M154.4,85.3c0.3-0.3,0.7-0.6,1-0.9c-0.1,0.2-0.1,0.5-0.2,0.6c-0.3,0.5-1.1,1-1.8,1.5
				C153.7,86,154,85.6,154.4,85.3z"/>
			<path fill="#BB9DC5" d="M155.4,84.3C155.4,84.3,155.4,84.3,155.4,84.3c-0.4,0.4-0.7,0.7-1.1,1C154.7,84.9,155.1,84.5,155.4,84.3z
				"/>
			<path fill="#4C2566" d="M127.8,115.6c-1.1-0.7-2.2-1.4-3.3-2.1c-0.1,0.2-0.3,0.3-0.4,0.5l-0.5-0.2c0.2-0.2,0.3-0.4,0.5-0.6
				c-3.7-2.3-6.7-5.1-11.2-6.4c-1.1,0-2,0.5-2.9,0.8c-0.1,0-0.3,0.2-0.2,0.2c0.2,0,0.5,0.2,0.6,0.2c0.5,0.3,1,0.6,1.5,0.9l-3.1-1.3
				c2.1-2.3,5.3-1.6,8.1-0.2c3.5,2,6.7,4.4,10.2,6.5c0.2,0.1,0.4,0.2,0.6,0.2c0.2,0.2,0.5,0.3,0.7,0.5c0,0,0,0-0.1,0l0.7,0.4
				c0.9,0.6,1.7,1.3,2.5,2L127.8,115.6z"/>
			<path fill="#DAC8DE" d="M127,114c-3.4-2.1-6.7-4.5-10.2-6.5c1.5,0.8,3,1.7,4,2.4c2.1,1.5,4.5,2.8,6.7,4.3
				C127.4,114.1,127.2,114.1,127,114z"/>
			<path fill="#D997B4" d="M128.3,114.7C128.3,114.7,128.3,114.6,128.3,114.7c0.3,0.1,0.5,0.2,0.7,0.4L128.3,114.7z"/>
			<path fill="#DAC8DE" d="M111.8,108.9c-0.5-0.3-1-0.6-1.5-0.9c-0.1-0.1-0.4-0.2-0.6-0.2c-0.2,0,0-0.2,0.2-0.2
				c0.9-0.3,1.8-0.8,2.9-0.8c4.6,1.3,7.6,4.1,11.2,6.4c-0.2,0.2-0.3,0.4-0.5,0.6L111.8,108.9z"/>
			<path fill="#D96586" d="M124.1,114c0.1-0.2,0.3-0.3,0.4-0.5c1.1,0.6,2.2,1.4,3.3,2.1L124.1,114z"/>
			<path fill="#EEB7C3" d="M70.9,129.9l1.6-0.1c0.8-1.4,2.3-1.8,3.6-2.5c-0.9-0.3-1.7-0.5-2.2-0.5C72.5,126.8,71.9,127.8,70.9,129.9
				z M70.2,130.2c1.1-1.1,1.3-2.6,2.8-3.3c1.5-0.6,3.6,0,5,0.3c-2,0.1-4,1.4-5.6,3L70.2,130.2z"/>
			<path fill="#F9CDD5" d="M134.6,59.8c4-2,5.9-5.6,8.7-9c-1.2,1.9-0.8,4.5-1.8,6.4c-1,2-3.2,3.6-5.1,4.4c-2.2,1-4.5,1.7-6.8,2.5
				c-1.5,0.5-4.1,1.1-5.6,2.1C124.9,62.9,131.9,61.2,134.6,59.8z M124,66.3c0,0.1-0.1,0.3-0.1,0.4l-0.6,0.2
				C123.5,66.7,123.7,66.5,124,66.3z"/>
			<path fill="#DA87B7" d="M130.2,114.1l1.7,1.4c0.1-1.3,0.3-2.7,0.5-4C131.9,112.3,131,113.4,130.2,114.1z M129.8,114.1
				c-0.2,0-0.3,0.2-0.3,0c1.7-1.1,2.8-3,3.7-4.7c-0.3,2.5,0.3,4.5-0.6,6.8L129.8,114.1z"/>
			<path fill="#F29AA6" d="M124.9,119.3c-0.6-0.2-1.8-2.6-2.2-3.1l2.2,0.3c1.2,0,2.1,0.2,3.1,0.8c-0.4,0.6-2.1,2.1-3,2.1
				C125,119.3,125,119.3,124.9,119.3z"/>
			<path fill="#EEB7C3" d="M130.2,114.1c0.8-0.6,1.6-1.8,2.3-2.6c-0.2,1.3-0.4,2.6-0.5,4L130.2,114.1z"/>
			<path fill="#EEB7C3" d="M76.2,127.3c-1.3,0.7-2.9,1.1-3.6,2.5l-1.6,0.1C72.3,127,72.9,126.1,76.2,127.3z"/>
			<path fill="#F29AA6" d="M63.2,129.2l-0.2-2.9c-0.3-2,0.2-4.6,1.7-6.1c-1.7,0.8-3.4,1.8-3.5,3.7C61.1,125.5,62,128.1,63.2,129.2z
				 M61.3,122.2l0.1,0.4c0.7-1.3,2.6-2.4,3.8-3.2c-0.5,1.7-1.4,3.4-1.6,5.3c-0.2,1.8,0.2,3.6,0.1,5.4
				C61.1,128.4,60.9,124.9,61.3,122.2z"/>
			<path fill="#F5B0BA" d="M62.4,121.7c0.7-0.6,1.5-1,2.3-1.5c-1.6,1.5-2,4.1-1.7,6.1l0.2,2.9c-1.2-1.2-2.1-3.7-2-5.3
				C61.2,123,61.7,122.3,62.4,121.7"/>
			<path fill="#DA87B7" d="M38.1,48.4c-1.1,1-1.8,2.3-2.6,3.5c-0.5,0.8-1.1,1.5-1.7,2.3c-0.3,0.4-1,1.1-0.8,1.1l12.8-10.8
				C43.1,45.5,40.3,46.4,38.1,48.4z M31,57.1c2.8-2.6,4.1-6.7,7.1-9.3c3-2.6,7.6-4.5,11.5-4.5c-3.7,1.4-7.1,4.7-9.9,7.5
				c-3.2,3.2-6.7,6.7-11.1,7.9L31,57.1z"/>
			<path fill="#EEB7C3" d="M42.1,54.3c-0.9,0.7-2.7,2.1-2.9,3.2l7-5.5C44.7,52.6,43.5,53.3,42.1,54.3z M39.7,56.2
				c1-0.9,1.9-1.8,3-2.7c1.8-1.4,3.8-2.4,5.7-3.4c-1.7,1.4-2.9,3.5-4.7,5c-1.7,1.5-3.9,2.8-6,3.5l-0.6,0.3
				C37.4,57.9,38.9,56.9,39.7,56.2z"/>
			<path fill="#CD5E89" d="M22.7,63.8c-0.4-0.9-0.5-1.9-0.4-3.1c0,0.2,0,0.4,0,0.5c0.1,1.8,0.9,3,2.5,3.7c-1.2-1.6-0.4-3.6-0.5-5.4
				c-0.1-1.2-0.3-2.2-0.9-3.1c1.2,1.3,1.4,3.4,1.6,5c0.4,2.7,1.9,4.3,4.6,5C27.8,66.4,23.6,65.7,22.7,63.8z"/>
			<path fill="#793C8D" d="M22.6,58.9C22.6,58.9,22.6,58.9,22.6,58.9c0,0.3-0.1,0.6-0.1,0.9C22.5,59.4,22.5,59.2,22.6,58.9z"/>
			<path fill="#F29AA6" d="M22.6,58.9C22.6,58.9,22.6,58.8,22.6,58.9C22.6,58.8,22.6,58.9,22.6,58.9C22.6,58.9,22.6,58.9,22.6,58.9z
				"/>
			<path fill="#DA87B7" d="M62.8,49.4c0.2-1.2-0.2-3.9-0.7-5l0.3-0.3c0.6,0.1,1.2,0.4,1.8,0.7c-0.2-0.1-0.5-0.1-0.7-0.2L63.3,45
				c0.1-0.1-0.1,2.4,0.2,2.7c0.4,0.4,2.6,0.6,3.3,0.9c1.8,1,3.9,2.2,5.1,3.9c0-0.2-0.1-0.5-0.1-0.7c0.5,0.8,0.9,1.6,1.2,2.5
				c0.8,2.1,0.5,4.1,0.8,6.2C72.4,55.1,67.8,51.1,62.8,49.4z"/>
			<path fill="#EEB7C3" d="M33.8,54.2c0.6-0.8,1.1-1.5,1.7-2.3c0.8-1.2,1.5-2.5,2.6-3.5c2.2-2,5-3,7.8-3.9L33,55.3
				C32.8,55.3,33.5,54.6,33.8,54.2z"/>
			<path fill="#EEB7C3" d="M42.1,54.3c1.4-1,2.5-1.7,4.1-2.3l-7,5.5C39.5,56.4,41.2,54.9,42.1,54.3z"/>
			<path fill="#793C8D" d="M22.4,59.7c0,0.2,0,0.3-0.1,0.5c0,0,0,0,0,0C22.4,60.1,22.4,59.9,22.4,59.7z"/>
			<path fill="#F29AA6" d="M22.6,58.6c0.1-0.7,0-1.9,0.2-2.3l-0.1-0.9c0.3,0.4,0.6,0.7,0.8,1.1c-0.2-0.2-0.4-0.4-0.6-0.5l0,0.6
				c0,0.7-0.1,1.5-0.3,2.3C22.6,58.8,22.6,58.7,22.6,58.6z M22.4,60.3C22.4,60.3,22.4,60.3,22.4,60.3c0,0.1,0,0.3,0,0.5
				C22.3,60.6,22.3,60.5,22.4,60.3z"/>
			<path fill="#9768A6" d="M22.4,59.7c0-0.3,0.1-0.6,0.1-0.9c0,0.2,0,0.4,0,0.5c0,0.3-0.1,0.6-0.2,0.8
				C22.4,60.1,22.4,59.9,22.4,59.7z"/>
			<path fill="#F5B0BA" d="M22.9,56c0.2,0.2,0.4,0.3,0.6,0.5c0.6,0.9,0.8,1.9,0.9,3.1c0.1,1.8-0.7,3.8,0.5,5.4
				c-1.6-0.7-2.4-1.9-2.5-3.7c0-0.2,0-0.4,0-0.5c0-0.2,0-0.3,0.1-0.5c0.1-0.3,0.1-0.6,0.2-0.8c0-0.2,0-0.4,0-0.5c0,0,0,0,0-0.1
				c0.1-0.8,0.2-1.6,0.3-2.3L22.9,56"/>
			<path fill="#F9CDD5" d="M70.3,49.5c-1.1-1.6-2.4-2.4-4-3.4c-0.6-0.4-1.3-0.9-2-1.3c3.3,0.9,6.6,3.6,7.5,6.9
				C71.3,51,70.8,50.3,70.3,49.5z"/>
			<path fill="#EEB7C3" d="M66.8,48.6c-0.7-0.3-2.9-0.5-3.3-0.9c-0.3-0.3,0-2.8-0.2-2.7l0.2-0.3c0.2,0,0.5,0.1,0.7,0.2
				c0.7,0.4,1.4,0.9,2,1.3c1.6,1,2.9,1.8,4,3.4c0.5,0.8,1,1.5,1.5,2.3c0.1,0.2,0.1,0.5,0.1,0.7C70.7,50.8,68.6,49.6,66.8,48.6z"/>
		</g>
	</g>
</g>
<g id="Réteg_2">
	<path fill="none" stroke="#0A110C" stroke-width="0.6" stroke-miterlimit="10" d="M198.4,84.3"/>
	<path fill="none" stroke="#0A110C" stroke-width="0.6" stroke-miterlimit="10" d="M125.8,131.1"/>
	<path fill="none" stroke="#0A110C" stroke-width="0.3" stroke-miterlimit="10" d="M90,11.8c0,19.8,7.7,35.4,15.9,37.7"/>
	<path fill="none" stroke="#0A110C" stroke-width="0.3" stroke-miterlimit="10" d="M105.8,49.4C105.8,49.6,105.3,49.3,105.8,49.4
		c2.4,0.6,10.2,1,18.2,1"/>
	<path fill="none" stroke="#0A110C" stroke-width="0.3" stroke-miterlimit="10" d="M124,50.5c0-7.7,14.9-14.2,32.4-14.2"/>
	<path fill="none" stroke="#0A110C" stroke-width="0.3" stroke-miterlimit="10" d="M156.4,36.2c0,17.4-1.7,27.4-5.5,30.6"/>
	<path fill="none" stroke="#0A110C" stroke-width="0.3" stroke-miterlimit="10" d="M151,66.9c2.4-4.1,16-7.5,35.2-7.5l1.9-0.1
		c-1.1,0.1,1.1,0,3.6,0.1c2,0.1,3.9,0.6,6.3,2.5"/>
	<path fill="none" stroke="#0A110C" stroke-width="0.3" stroke-miterlimit="10" d="M198.1,61.9c0,9.9-1.4,17.4-6.5,21.8
		c-0.7,0.6-1.2,1.3-1.9,1.8c-0.4,0.3,0.4-0.4,0,0"/>
	<path fill="none" stroke="#0A110C" stroke-width="0.3" stroke-miterlimit="10" d="M52,31.5C51.2,15.4,63.4,1.8,79.1,1l0,0
		C85.3,1,90,8.5,90,11.8"/>
	<path fill="none" stroke="#0A110C" stroke-width="0.3" stroke-miterlimit="10" d="M13,50.6c-1.3,4,4.8,16,1.2,20.8
		c-5.5,7.3-13.3,13-13.3,23c0,23,14.3,34.9,36.4,34.9c8.3,0,5.8,0,13.9-2.5"/>
	<path fill="none" stroke="#0A110C" stroke-width="0.3" stroke-miterlimit="10" d="M51.1,126.8c0.7,23.3,29.3,28.8,41,23.3"/>
	<path fill="none" stroke="#0A110C" stroke-width="0.3" stroke-miterlimit="10" d="M76.1-105.1c0,0,0,0,0-0.5"/>
	<path fill="none" stroke="#0A110C" stroke-width="0.3" stroke-miterlimit="10" d="M13,50.6"/>
	<path fill="none" stroke="#0A110C" stroke-width="0.3" stroke-miterlimit="10" d="M13,50.6c0,0,0-0.8,0.7-2.7c1.2-3,5.7-8.8,7.3-10
		c6.1-4.4,12-3.7,14.2-4.4c2.2-0.7,7-0.7,16.7-2"/>
	<path fill="none" stroke="#0A110C" stroke-width="0.3" stroke-miterlimit="10" d="M14.1,71.4"/>
	<line fill="none" stroke="#0A110C" stroke-width="0.3" stroke-miterlimit="10" x1="11.5" y1="53" x2="11.5" y2="53"/>
	<path fill="none" stroke="#0A110C" stroke-width="0.3" stroke-miterlimit="10" d="M92,150.1l8.6-25.3l10.4-4.5l14.8,10.8
		c12.6-2.5,23.8-9.5,33.5-17.5c10.9-8.9,23.4-21.9,30.5-28.2c1.1-1-0.5,0.4,0,0c0.7-0.6-0.6,0.4,0,0"/>
	<path fill="none" stroke="#0A110C" stroke-miterlimit="10" d="M149.5,138.4"/>
	<path fill="none" stroke="#0A110C" stroke-width="0.3" stroke-miterlimit="10" d="M-27.3-16.1"/>
	<path fill="none" stroke="#0A110C" stroke-width="0.3" stroke-miterlimit="10" d="M189.8,85.4"/>
</g>
</svg>
