<?xml version="1.0" encoding="utf-8"?>
<!-- Generator: Adobe Illustrator 17.1.0, SVG Export Plug-In . SVG Version: 6.00 Build 0)  -->
<!DOCTYPE svg PUBLIC "-//W3C//DTD SVG 1.1//EN" "http://www.w3.org/Graphics/SVG/1.1/DTD/svg11.dtd">
<svg version="1.1" id="Layer_1" xmlns="http://www.w3.org/2000/svg" xmlns:xlink="http://www.w3.org/1999/xlink" x="0px" y="0px"
	 viewBox="0 0 425.2 566.9" enable-background="new 0 0 425.2 566.9" xml:space="preserve">
<g>
	<g>
		<path fill="#C9325E" d="M67.5,251.9h20.7v95.9c-10.6,2-18.4,2.8-26.9,2.8c-25.3,0-38.5-11.4-38.5-33.4c0-21.1,14-34.9,35.7-34.9
			c3.4,0,5.9,0.3,9,1.1L67.5,251.9L67.5,251.9z M67.5,300.1c-2.4-0.8-4.4-1.1-7-1.1c-10.5,0-16.6,6.5-16.6,17.8
			c0,11,5.8,17.1,16.4,17.1c2.3,0,4.2-0.1,7.1-0.5V300.1z"/>
		<path fill="#C9325E" d="M121.2,283.9v48.1c0,16.6-1.2,24.5-4.8,31.4c-3.4,6.6-7.8,10.8-17,15.3l-19.2-9.2
			c9.2-4.3,13.6-8.1,16.4-13.9c3-5.9,3.9-12.8,3.9-30.8v-40.9H121.2z M100.5,252h20.7v21.3h-20.7V252z"/>
		<path fill="#C9325E" d="M133.7,288.6c9.2-4.3,17.9-6.2,27.5-6.2c10.6,0,17.6,2.8,20.7,8.3c1.7,3.1,2.3,7.1,2.3,15.7v42.1
			c-9.3,1.3-21,2.3-29.6,2.3c-17.4,0-25.2-6.1-25.2-19.5c0-14.5,10.4-21.3,35.8-23.4v-4.6c0-3.8-1.9-5.1-7.1-5.1
			c-7.7,0-16.3,2.2-24.4,6.3L133.7,288.6L133.7,288.6z M166.2,321.5c-13.7,1.3-18.2,3.5-18.2,8.9c0,4,2.6,5.9,8.2,5.9
			c3.1,0,5.9-0.3,10-0.9L166.2,321.5L166.2,321.5z"/>
		<path fill="#C9325E" d="M194.3,287.1c12.2-3.2,22.3-4.7,32.6-4.7c10.6,0,18.3,2.4,22.9,7.1c4.3,4.4,5.7,9.3,5.7,19.7v40.6h-20.7
			V310c0-7.9-2.7-10.9-10.1-10.9c-2.8,0-5.4,0.3-9.6,1.5v49.3h-20.7L194.3,287.1L194.3,287.1z"/>
		<path fill="#C9325E" d="M263.5,361.1c7.3,3.8,14.5,5.5,22.2,5.5c13.6,0,19.4-5.5,19.4-18.7c0-0.1,0-0.3,0-0.4
			c-4,2-8.1,2.8-13.5,2.8c-18.2,0-29.7-12-29.7-31c0-23.6,17.1-36.9,47.4-36.9c8.9,0,17.1,0.9,27.1,3l-7.1,15
			c-5.5-1.1-0.4-0.1-4.6-0.5v2.2l0.3,8.7l0.1,11.3c0.1,2.8,0.1,5.7,0.3,8.5c0,2.6,0,3.8,0,5.7c0,17.8-1.5,26.1-5.9,33
			c-6.5,10.1-17.6,15.1-33.5,15.1c-8.1,0-15.1-1.2-22.3-4L263.5,361.1L263.5,361.1z M304.7,299.2c-0.3,0-0.5,0-0.7,0h-1.5
			c-4-0.1-8.7,0.9-12,3c-5,2.8-7.5,7.9-7.5,15.2c0,10.4,5.1,16.3,14.3,16.3c2.8,0,5.1-0.5,7.8-1.3v-1.5v-5.7c0-2.4-0.1-5.1-0.1-7.9
			l-0.1-9.6l-0.1-6.9L304.7,299.2L304.7,299.2z"/>
		<path fill="#C9325E" d="M368.5,282.1c20.7,0,33.4,13.1,33.4,34.2c0,21.7-13.2,35.3-34.2,35.3c-20.7,0-33.5-13.1-33.5-34.1
			C334.1,295.7,347.3,282.1,368.5,282.1z M368.1,334.9c7.9,0,12.7-6.6,12.7-18c0-11.3-4.6-18-12.5-18c-8.2,0-12.9,6.6-12.9,18
			C355.3,328.3,360,334.9,368.1,334.9z"/>
	</g>
</g>
<g id="Your_Icon">
	<path fill="#C9325E" d="M332.3,38.3H308V11.2h-84v27.1h-27.1V11.2h-84v27.1H88.5v81.3h24.4v29.8H140v24.4h27.1v29.8h27.1V228h32.5
		v-24.4h27.1v-29.8h27.1v-24.4H308v-29.8h24.4V38.3z M251.1,146.7v27.1h-29.8v27.1h-21.7v-27.1h-29.8v-27.1h-24.4v-29.8h-29.8V41
		h78.6v24.4h32.5V41h78.6v75.9h-29.8v29.8H251.1z"/>
</g>
<g>
	<g display="none">
		<path display="inline" fill="#C9325E" d="M274.4,563v-11.1h3.5c0.7,0,1.3,0.1,1.8,0.2c0.5,0.1,0.9,0.3,1.2,0.6s0.6,0.6,0.7,0.9
			c0.2,0.4,0.2,0.8,0.2,1.2c0,0.3,0,0.5-0.1,0.8c-0.1,0.3-0.2,0.5-0.4,0.7c-0.2,0.2-0.4,0.4-0.7,0.6c-0.3,0.2-0.6,0.3-0.9,0.4
			c0.8,0.2,1.4,0.5,1.8,0.9c0.4,0.4,0.6,1,0.6,1.7c0,0.5-0.1,0.9-0.3,1.3c-0.2,0.4-0.4,0.7-0.8,1c-0.3,0.3-0.7,0.5-1.2,0.6
			s-1,0.2-1.7,0.2H274.4z M275.9,556.9h2c0.4,0,0.8,0,1.1-0.1c0.3-0.1,0.6-0.2,0.8-0.4c0.2-0.2,0.4-0.4,0.5-0.6
			c0.1-0.2,0.1-0.5,0.1-0.8c0-0.7-0.2-1.1-0.6-1.4c-0.4-0.3-1-0.5-1.8-0.5h-2V556.9z M275.9,557.9v3.9h2.4c0.4,0,0.8,0,1.1-0.1
			s0.6-0.2,0.8-0.4c0.2-0.2,0.3-0.4,0.4-0.6c0.1-0.2,0.1-0.5,0.1-0.8c0-0.6-0.2-1-0.6-1.4c-0.4-0.3-1-0.5-1.8-0.5H275.9z"/>
		<path display="inline" fill="#C9325E" d="M287.4,555c0.5,0,0.9,0.1,1.3,0.2c0.4,0.2,0.7,0.4,1,0.7c0.3,0.3,0.5,0.7,0.7,1.1
			c0.2,0.4,0.2,0.9,0.2,1.5c0,0.2,0,0.4-0.1,0.4c0,0.1-0.1,0.1-0.3,0.1h-5.2c0,0.5,0.1,0.9,0.2,1.3s0.3,0.7,0.5,0.9
			c0.2,0.2,0.5,0.4,0.8,0.6c0.3,0.1,0.6,0.2,1,0.2c0.3,0,0.6,0,0.9-0.1c0.3-0.1,0.5-0.2,0.6-0.3s0.3-0.2,0.5-0.3
			c0.1-0.1,0.2-0.1,0.3-0.1c0.1,0,0.2,0,0.3,0.1l0.4,0.5c-0.2,0.2-0.4,0.4-0.6,0.5c-0.2,0.2-0.5,0.3-0.8,0.4
			c-0.3,0.1-0.6,0.2-0.8,0.2c-0.3,0-0.6,0.1-0.9,0.1c-0.5,0-1-0.1-1.5-0.3c-0.5-0.2-0.9-0.5-1.2-0.8c-0.3-0.4-0.6-0.8-0.8-1.3
			c-0.2-0.5-0.3-1.1-0.3-1.8c0-0.5,0.1-1.1,0.3-1.5c0.2-0.5,0.4-0.9,0.7-1.2c0.3-0.3,0.7-0.6,1.2-0.8S286.8,555,287.4,555z
			 M287.4,556c-0.7,0-1.2,0.2-1.6,0.6c-0.4,0.4-0.6,0.9-0.7,1.6h4.3c0-0.3,0-0.6-0.1-0.9s-0.2-0.5-0.4-0.7c-0.2-0.2-0.4-0.3-0.6-0.5
			C288,556.1,287.7,556,287.4,556z"/>
		<path display="inline" fill="#C9325E" d="M292.4,563v-7.9h0.8c0.1,0,0.3,0,0.3,0.1c0.1,0.1,0.1,0.2,0.1,0.3l0.1,1.2
			c0.3-0.5,0.6-1,1-1.3s0.9-0.5,1.4-0.5c0.2,0,0.4,0,0.6,0.1c0.2,0,0.3,0.1,0.5,0.2l-0.2,1c0,0.1-0.1,0.2-0.2,0.2
			c-0.1,0-0.2,0-0.3-0.1c-0.2,0-0.4-0.1-0.6-0.1c-0.5,0-0.9,0.1-1.2,0.4c-0.3,0.3-0.6,0.7-0.8,1.2v5H292.4z"/>
		<path display="inline" fill="#C9325E" d="M300.2,551.6V563h-1.4v-11.4H300.2z"/>
		<path display="inline" fill="#C9325E" d="M304.5,552.7c0,0.1,0,0.3-0.1,0.4c-0.1,0.1-0.1,0.2-0.2,0.3c-0.1,0.1-0.2,0.2-0.3,0.2
			c-0.1,0.1-0.2,0.1-0.4,0.1c-0.1,0-0.3,0-0.4-0.1c-0.1-0.1-0.2-0.1-0.3-0.2c-0.1-0.1-0.2-0.2-0.2-0.3s-0.1-0.2-0.1-0.4
			s0-0.3,0.1-0.4s0.1-0.2,0.2-0.3c0.1-0.1,0.2-0.2,0.3-0.2s0.2-0.1,0.4-0.1c0.1,0,0.3,0,0.4,0.1c0.1,0.1,0.2,0.1,0.3,0.2
			c0.1,0.1,0.2,0.2,0.2,0.3C304.4,552.4,304.5,552.5,304.5,552.7z M304.1,555.1v7.9h-1.4v-7.9H304.1z"/>
		<path display="inline" fill="#C9325E" d="M306.6,563v-7.9h0.8c0.2,0,0.3,0.1,0.4,0.3l0.1,0.9c0.3-0.4,0.7-0.7,1.1-0.9
			c0.4-0.2,0.9-0.3,1.5-0.3c0.4,0,0.8,0.1,1.1,0.2c0.3,0.1,0.6,0.3,0.8,0.6c0.2,0.3,0.4,0.6,0.5,0.9c0.1,0.4,0.2,0.8,0.2,1.2v5h-1.4
			v-5c0-0.6-0.1-1.1-0.4-1.4s-0.7-0.5-1.2-0.5c-0.4,0-0.8,0.1-1.1,0.3c-0.4,0.2-0.7,0.5-1,0.8v5.8H306.6z"/>
		<path display="inline" fill="#C9325E" d="M314.8,562c0-0.1,0-0.2,0.1-0.3c0-0.1,0.1-0.2,0.2-0.3s0.2-0.1,0.3-0.2
			c0.1,0,0.2-0.1,0.4-0.1c0.2,0,0.3,0,0.4,0.1c0.1,0.1,0.2,0.1,0.3,0.2c0.1,0.1,0.1,0.2,0.2,0.3c0,0.1,0.1,0.3,0.1,0.4
			c0,0.2,0,0.5-0.1,0.7c-0.1,0.3-0.2,0.5-0.3,0.7c-0.1,0.2-0.3,0.5-0.5,0.7c-0.2,0.2-0.4,0.4-0.6,0.6l-0.2-0.2
			c-0.1-0.1-0.1-0.1-0.1-0.2c0-0.1,0-0.1,0.1-0.2c0.1-0.1,0.1-0.1,0.2-0.2s0.2-0.2,0.2-0.3c0.1-0.1,0.2-0.3,0.2-0.4
			c0.1-0.1,0.1-0.3,0.2-0.5h-0.1c-0.1,0-0.3,0-0.4-0.1c-0.1,0-0.2-0.1-0.3-0.2s-0.1-0.2-0.2-0.3S314.8,562.2,314.8,562z"/>
		<path display="inline" fill="#C9325E" d="M325,551.8c0.5,0,0.9,0.1,1.3,0.2s0.8,0.3,1.1,0.6c0.3,0.3,0.5,0.6,0.7,1
			s0.3,0.8,0.3,1.3c0,0.4-0.1,0.8-0.2,1.1c-0.1,0.4-0.3,0.7-0.5,1s-0.5,0.6-0.7,0.9c-0.3,0.3-0.6,0.6-0.9,0.9l-2.9,3
			c0.2-0.1,0.4-0.1,0.6-0.1c0.2,0,0.4,0,0.6,0h3.7c0.2,0,0.3,0,0.4,0.1s0.1,0.2,0.1,0.3v0.8h-7.4v-0.5c0-0.1,0-0.2,0.1-0.3
			c0-0.1,0.1-0.2,0.2-0.3l3.6-3.6c0.3-0.3,0.6-0.6,0.8-0.9c0.2-0.3,0.5-0.6,0.6-0.8c0.2-0.3,0.3-0.6,0.4-0.8
			c0.1-0.3,0.1-0.6,0.1-0.9c0-0.3-0.1-0.6-0.2-0.9c-0.1-0.2-0.2-0.4-0.4-0.6c-0.2-0.2-0.4-0.3-0.6-0.4s-0.5-0.1-0.8-0.1
			s-0.5,0-0.8,0.1c-0.2,0.1-0.4,0.2-0.6,0.3c-0.2,0.1-0.3,0.3-0.5,0.5c-0.1,0.2-0.2,0.4-0.3,0.7c0,0.1-0.1,0.3-0.2,0.3
			c-0.1,0.1-0.2,0.1-0.3,0.1c0,0-0.1,0-0.1,0c0,0-0.1,0-0.1,0l-0.7-0.1c0.1-0.5,0.2-1,0.4-1.3s0.5-0.7,0.8-1
			c0.3-0.3,0.7-0.5,1.1-0.6C324.1,551.8,324.5,551.8,325,551.8z"/>
		<path display="inline" fill="#C9325E" d="M331.6,561.9h2.4v-7.6c0-0.2,0-0.5,0-0.7l-2,1.7c-0.1,0-0.1,0.1-0.2,0.1
			c-0.1,0-0.1,0-0.1,0c-0.1,0-0.1,0-0.2,0c-0.1,0-0.1-0.1-0.1-0.1l-0.4-0.6l3.3-2.9h1.1v10.1h2.2v1.1h-6V561.9z"/>
		<path display="inline" fill="#C9325E" d="M344,556.4c-0.1,0.1-0.2,0.2-0.3,0.2c-0.1,0-0.2,0-0.3-0.1c-0.1-0.1-0.2-0.1-0.4-0.2
			c-0.1-0.1-0.3-0.1-0.5-0.2c-0.2-0.1-0.4-0.1-0.7-0.1c-0.2,0-0.4,0-0.6,0.1c-0.2,0.1-0.3,0.1-0.5,0.2s-0.2,0.2-0.3,0.4
			c-0.1,0.1-0.1,0.3-0.1,0.4c0,0.2,0.1,0.4,0.2,0.5s0.3,0.3,0.5,0.3c0.2,0.1,0.4,0.2,0.7,0.3c0.2,0.1,0.5,0.2,0.7,0.2
			c0.3,0.1,0.5,0.2,0.7,0.3s0.5,0.2,0.7,0.4s0.3,0.3,0.5,0.6c0.1,0.2,0.2,0.5,0.2,0.8c0,0.4-0.1,0.7-0.2,1c-0.1,0.3-0.3,0.6-0.6,0.8
			c-0.3,0.2-0.6,0.4-0.9,0.5c-0.4,0.1-0.8,0.2-1.3,0.2c-0.5,0-1-0.1-1.5-0.3s-0.8-0.4-1.1-0.7l0.3-0.5c0-0.1,0.1-0.1,0.1-0.2
			s0.1-0.1,0.2-0.1c0.1,0,0.2,0,0.3,0.1s0.2,0.2,0.4,0.2s0.3,0.2,0.5,0.2c0.2,0.1,0.5,0.1,0.8,0.1c0.3,0,0.5,0,0.7-0.1
			c0.2-0.1,0.4-0.2,0.5-0.3c0.1-0.1,0.2-0.3,0.3-0.4c0.1-0.2,0.1-0.3,0.1-0.5c0-0.2-0.1-0.4-0.2-0.5s-0.3-0.3-0.5-0.4
			c-0.2-0.1-0.4-0.2-0.7-0.3c-0.2-0.1-0.5-0.2-0.8-0.2c-0.3-0.1-0.5-0.2-0.8-0.3c-0.2-0.1-0.5-0.2-0.7-0.4c-0.2-0.2-0.3-0.4-0.5-0.6
			c-0.1-0.2-0.2-0.5-0.2-0.9c0-0.3,0.1-0.6,0.2-0.9c0.1-0.3,0.3-0.5,0.5-0.7c0.2-0.2,0.5-0.4,0.9-0.5c0.3-0.1,0.7-0.2,1.2-0.2
			c0.5,0,1,0.1,1.4,0.2s0.8,0.4,1.1,0.7L344,556.4z"/>
		<path display="inline" fill="#C9325E" d="M348.6,563.1c-0.6,0-1.1-0.2-1.4-0.5c-0.3-0.3-0.5-0.8-0.5-1.5v-4.8h-0.9
			c-0.1,0-0.2,0-0.2-0.1s-0.1-0.1-0.1-0.2v-0.6l1.3-0.2l0.3-2.4c0-0.1,0-0.1,0.1-0.2c0.1,0,0.1-0.1,0.2-0.1h0.7v2.7h2.3v1H348v4.7
			c0,0.3,0.1,0.6,0.2,0.7s0.4,0.2,0.6,0.2c0.1,0,0.3,0,0.4-0.1s0.2-0.1,0.3-0.1c0.1,0,0.1-0.1,0.2-0.1c0.1,0,0.1-0.1,0.1-0.1
			c0.1,0,0.1,0,0.2,0.1l0.4,0.7c-0.2,0.2-0.5,0.4-0.9,0.5C349.3,563.1,349,563.1,348.6,563.1z"/>
		<path display="inline" fill="#C9325E" d="M359.4,559.2c0,0.6-0.1,1.2-0.2,1.7s-0.4,0.9-0.7,1.2c-0.3,0.3-0.7,0.6-1.1,0.8
			s-0.9,0.3-1.5,0.3c-0.5,0-1-0.1-1.6-0.2c0-0.2,0-0.3,0-0.4s0-0.3,0-0.4c0-0.1,0-0.2,0.1-0.2c0.1-0.1,0.1-0.1,0.2-0.1
			c0.1,0,0.2,0,0.4,0.1s0.4,0.1,0.6,0.1c0.3,0,0.6-0.1,0.9-0.2c0.3-0.1,0.5-0.3,0.7-0.5s0.3-0.5,0.4-0.8s0.1-0.7,0.1-1.2v-7.3h1.5
			V559.2z"/>
		<path display="inline" fill="#C9325E" d="M363.1,555.1v5c0,0.6,0.1,1.1,0.4,1.4c0.3,0.3,0.7,0.5,1.2,0.5c0.4,0,0.8-0.1,1.1-0.3
			c0.4-0.2,0.7-0.5,1-0.8v-5.8h1.4v7.9h-0.8c-0.2,0-0.3-0.1-0.4-0.3l-0.1-0.8c-0.3,0.4-0.7,0.7-1.1,0.9c-0.4,0.2-0.9,0.3-1.5,0.3
			c-0.4,0-0.8-0.1-1.1-0.2c-0.3-0.1-0.6-0.3-0.8-0.6s-0.4-0.6-0.5-0.9s-0.2-0.8-0.2-1.2v-5H363.1z"/>
		<path display="inline" fill="#C9325E" d="M372,551.6V563h-1.4v-11.4H372z"/>
		<path display="inline" fill="#C9325E" d="M376.8,565.3c0,0.1-0.1,0.2-0.2,0.2c-0.1,0.1-0.2,0.1-0.3,0.1h-1l1.4-3.1l-3.2-7.4h1.2
			c0.1,0,0.2,0,0.3,0.1s0.1,0.1,0.1,0.2l2.1,4.9c0,0.1,0.1,0.2,0.1,0.3c0,0.1,0.1,0.2,0.1,0.3c0-0.1,0.1-0.2,0.1-0.3
			c0-0.1,0.1-0.2,0.1-0.3l2-4.9c0-0.1,0.1-0.2,0.2-0.2c0.1-0.1,0.2-0.1,0.2-0.1h1.1L376.8,565.3z"/>
		<path display="inline" fill="#C9325E" d="M388.9,551.8c0.5,0,0.9,0.1,1.3,0.2s0.8,0.3,1.1,0.6c0.3,0.3,0.5,0.6,0.7,1
			s0.3,0.8,0.3,1.3c0,0.4-0.1,0.8-0.2,1.1c-0.1,0.4-0.3,0.7-0.5,1s-0.5,0.6-0.7,0.9c-0.3,0.3-0.6,0.6-0.9,0.9l-2.9,3
			c0.2-0.1,0.4-0.1,0.6-0.1c0.2,0,0.4,0,0.6,0h3.7c0.2,0,0.3,0,0.4,0.1s0.1,0.2,0.1,0.3v0.8h-7.4v-0.5c0-0.1,0-0.2,0.1-0.3
			c0-0.1,0.1-0.2,0.2-0.3l3.6-3.6c0.3-0.3,0.6-0.6,0.8-0.9c0.2-0.3,0.5-0.6,0.6-0.8c0.2-0.3,0.3-0.6,0.4-0.8
			c0.1-0.3,0.1-0.6,0.1-0.9c0-0.3-0.1-0.6-0.2-0.9c-0.1-0.2-0.2-0.4-0.4-0.6c-0.2-0.2-0.4-0.3-0.6-0.4s-0.5-0.1-0.8-0.1
			s-0.5,0-0.8,0.1c-0.2,0.1-0.4,0.2-0.6,0.3c-0.2,0.1-0.3,0.3-0.5,0.5c-0.1,0.2-0.2,0.4-0.3,0.7c0,0.1-0.1,0.3-0.2,0.3
			c-0.1,0.1-0.2,0.1-0.3,0.1c0,0-0.1,0-0.1,0c0,0-0.1,0-0.1,0l-0.7-0.1c0.1-0.5,0.2-1,0.4-1.3s0.5-0.7,0.8-1
			c0.3-0.3,0.7-0.5,1.1-0.6C388,551.8,388.5,551.8,388.9,551.8z"/>
		<path display="inline" fill="#C9325E" d="M401.8,557.4c0,1-0.1,1.8-0.3,2.5c-0.2,0.7-0.5,1.3-0.9,1.8c-0.4,0.5-0.8,0.8-1.3,1
			s-1,0.3-1.6,0.3c-0.6,0-1.1-0.1-1.6-0.3c-0.5-0.2-0.9-0.6-1.3-1c-0.4-0.5-0.6-1.1-0.9-1.8s-0.3-1.6-0.3-2.5s0.1-1.8,0.3-2.5
			c0.2-0.7,0.5-1.3,0.9-1.8c0.4-0.5,0.8-0.8,1.3-1c0.5-0.2,1-0.3,1.6-0.3c0.6,0,1.1,0.1,1.6,0.3s0.9,0.6,1.3,1
			c0.4,0.5,0.6,1.1,0.9,1.8C401.7,555.6,401.8,556.5,401.8,557.4z M400.4,557.4c0-0.8-0.1-1.6-0.2-2.1c-0.1-0.6-0.3-1-0.6-1.4
			c-0.2-0.4-0.5-0.6-0.8-0.8c-0.3-0.2-0.6-0.2-1-0.2c-0.3,0-0.7,0.1-1,0.2c-0.3,0.2-0.6,0.4-0.8,0.8c-0.2,0.4-0.4,0.8-0.6,1.4
			c-0.1,0.6-0.2,1.3-0.2,2.1s0.1,1.6,0.2,2.1c0.1,0.6,0.3,1,0.6,1.4c0.2,0.4,0.5,0.6,0.8,0.8c0.3,0.2,0.6,0.2,1,0.2
			c0.3,0,0.7-0.1,1-0.2c0.3-0.2,0.6-0.4,0.8-0.8c0.2-0.4,0.4-0.8,0.6-1.4C400.3,559,400.4,558.3,400.4,557.4z"/>
		<path display="inline" fill="#C9325E" d="M404.5,561.9h2.4v-7.6c0-0.2,0-0.5,0-0.7l-2,1.7c-0.1,0-0.1,0.1-0.2,0.1
			c-0.1,0-0.1,0-0.1,0c-0.1,0-0.1,0-0.2,0c-0.1,0-0.1-0.1-0.1-0.1l-0.4-0.6l3.3-2.9h1.1v10.1h2.2v1.1h-6V561.9z"/>
		<path display="inline" fill="#C9325E" d="M418.3,559h1.7v0.8c0,0.1,0,0.2-0.1,0.2c0,0.1-0.1,0.1-0.2,0.1h-1.4v2.9h-1.2v-2.9h-4.9
			c-0.1,0-0.2,0-0.3-0.1c-0.1-0.1-0.1-0.1-0.1-0.2l-0.1-0.7l5.4-7.2h1.3V559z M417.1,554.4c0-0.1,0-0.3,0-0.4c0-0.2,0-0.3,0.1-0.5
			l-4,5.5h4V554.4z"/>
	</g>
	<g>
		<g>
			<g>
				<path fill="#C9325E" d="M286.8,514.6h4.7v21.9c-2.4,0.5-4.2,0.6-6.1,0.6c-5.8,0-8.8-2.6-8.8-7.6c0-4.8,3.2-8,8.1-8
					c0.8,0,1.4,0.1,2.1,0.2L286.8,514.6L286.8,514.6z M286.8,525.7c-0.6-0.2-1-0.2-1.6-0.2c-2.4,0-3.8,1.5-3.8,4.1
					c0,2.5,1.3,3.9,3.7,3.9c0.5,0,1,0,1.6-0.1V525.7z"/>
				<path fill="#C9325E" d="M299.1,521.9v11c0,3.8-0.3,5.6-1.1,7.2c-0.8,1.5-1.8,2.5-3.9,3.5l-4.4-2.1c2.1-1,3.1-1.8,3.7-3.2
					c0.7-1.4,0.9-2.9,0.9-7v-9.3H299.1z M294.3,514.7h4.7v4.9h-4.7V514.7z"/>
				<path fill="#C9325E" d="M301.9,523c2.1-1,4.1-1.4,6.3-1.4c2.4,0,4,0.6,4.7,1.9c0.4,0.7,0.5,1.6,0.5,3.6v9.6
					c-2.1,0.3-4.8,0.5-6.8,0.5c-4,0-5.7-1.4-5.7-4.5c0-3.3,2.4-4.9,8.2-5.3v-1c0-0.9-0.4-1.2-1.6-1.2c-1.7,0-3.7,0.5-5.6,1.4
					L301.9,523L301.9,523z M309.3,530.5c-3.1,0.3-4.1,0.8-4.1,2c0,0.9,0.6,1.4,1.9,1.4c0.7,0,1.4-0.1,2.3-0.2V530.5L309.3,530.5z"/>
				<path fill="#C9325E" d="M315.7,522.7c2.8-0.7,5.1-1.1,7.4-1.1c2.4,0,4.2,0.6,5.2,1.6c1,1,1.3,2.1,1.3,4.5v9.3h-4.7v-9.1
					c0-1.8-0.6-2.5-2.3-2.5c-0.6,0-1.2,0.1-2.2,0.3V537h-4.7L315.7,522.7L315.7,522.7z"/>
				<path fill="#C9325E" d="M331.5,539.6c1.7,0.9,3.3,1.3,5.1,1.3c3.1,0,4.4-1.3,4.4-4.3c0,0,0-0.1,0-0.1c-0.9,0.5-1.8,0.6-3.1,0.6
					c-4.1,0-6.8-2.7-6.8-7.1c0-5.4,3.9-8.4,10.8-8.4c2,0,3.9,0.2,6.2,0.7l-1.6,3.4c-1.3-0.2-0.1,0-1.1-0.1v0.5l0.1,2l0,2.6
					c0,0.6,0,1.3,0.1,1.9c0,0.6,0,0.9,0,1.3c0,4.1-0.3,6-1.4,7.5c-1.5,2.3-4,3.4-7.6,3.4c-1.8,0-3.4-0.3-5.1-0.9L331.5,539.6
					L331.5,539.6z M340.9,525.4c-0.1,0-0.1,0-0.2,0h-0.3c-0.9,0-2,0.2-2.7,0.7c-1.1,0.6-1.7,1.8-1.7,3.5c0,2.4,1.2,3.7,3.3,3.7
					c0.6,0,1.2-0.1,1.8-0.3v-0.3v-1.3c0-0.6,0-1.2,0-1.8l0-2.2l0-1.6L340.9,525.4L340.9,525.4z"/>
				<path fill="#C9325E" d="M355.5,521.5c4.7,0,7.6,3,7.6,7.8c0,4.9-3,8-7.8,8c-4.7,0-7.6-3-7.6-7.8
					C347.6,524.6,350.6,521.5,355.5,521.5z M355.4,533.6c1.8,0,2.9-1.5,2.9-4.1c0-2.6-1-4.1-2.9-4.1c-1.9,0-2.9,1.5-2.9,4.1
					C352.5,532.1,353.5,533.6,355.4,533.6z"/>
			</g>
		</g>
		<g>
			<path fill="#C9325E" d="M373.1,549.5c-0.5,0.1-1,0-1.5-0.1c-0.5-0.1-1-0.3-1.4-0.6c-0.4-0.3-0.7-0.6-0.9-0.9
				c-0.2-0.4-0.3-0.8-0.2-1.2c0.4,0,0.7,0.1,1,0.2c0.3,0.2,0.6,0.3,0.9,0.5s0.6,0.4,0.9,0.5c0.3,0.2,0.7,0.2,1.2,0.2
				c1.1,0,2-0.2,2.8-0.7c0.7-0.5,1.3-1.1,1.8-1.9c0.5-0.8,0.8-1.6,1-2.6c0.2-1,0.3-2,0.3-3c0-0.3,0-0.7,0-1.2s-0.1-1.2-0.1-1.9
				c0-0.7-0.1-1.4-0.1-2.2c0-0.8-0.1-1.5-0.1-2.2s-0.1-1.3-0.1-1.9c0-0.6-0.1-1-0.1-1.2c-0.2,0.4-0.3,0.8-0.6,1.4s-0.5,1.1-0.8,1.7
				s-0.6,1.2-1,1.8s-0.8,1.1-1.2,1.6s-0.9,0.9-1.5,1.1c-0.5,0.3-1.1,0.4-1.7,0.4c-0.3,0-0.6-0.2-0.7-0.5c-0.2-0.3-0.3-0.7-0.4-1.1
				c-0.1-0.4-0.2-0.8-0.2-1.2c0-0.4,0-0.7,0-0.9c-0.1-1.2-0.1-2.4,0-3.6c0.1-1.2,0.3-2.3,0.6-3.3s0.7-1.9,1.2-2.8
				c0.5-0.8,1.1-1.4,1.8-1.9s1.5-0.7,2.4-0.8c0.9-0.1,1.9,0.1,3,0.6c0.3,0,0.5,0.1,0.6,0.5c0.1,0.4,0.2,0.8,0.1,1.4
				c0,0.5,0,1.1-0.1,1.7s-0.1,1.1-0.1,1.5c0,1,0,2,0.1,2.9s0.2,2,0.3,2.9s0.2,1.9,0.3,2.9c0.1,1,0.1,1.9,0.1,2.9
				c0,1.1-0.1,2.3-0.3,3.6c-0.2,1.3-0.6,2.4-1.2,3.5c-0.6,1.1-1.3,1.9-2.2,2.6S374.5,549.5,373.1,549.5z M371.4,533
				c0,0.2,0,0.4,0,0.7c0,0.3,0,0.5,0.1,0.8c0.1,0.3,0.2,0.5,0.3,0.6c0.1,0.2,0.3,0.3,0.6,0.3c0.5,0,1-0.2,1.5-0.7
				c0.5-0.5,0.9-1.1,1.3-1.8c0.4-0.7,0.7-1.6,1-2.5c0.3-0.9,0.6-1.8,0.8-2.7c0.2-0.9,0.4-1.7,0.5-2.4c0.1-0.7,0.2-1.2,0.2-1.6
				c-1.1-0.4-2.1-0.4-2.9,0c-0.8,0.4-1.5,1.1-2,2c-0.5,0.9-0.9,2-1.1,3.3C371.5,530.4,371.4,531.7,371.4,533z"/>
			<path fill="#C9325E" d="M382.7,518.7c-0.1,0-0.3,0-0.5-0.1c-0.2-0.1-0.3-0.2-0.4-0.4c-0.1-0.1-0.2-0.3-0.3-0.5s0-0.3,0.1-0.4
				c0.1-0.2,0.2-0.4,0.5-0.6c0.2-0.2,0.5-0.3,0.7-0.4c0.2-0.1,0.5-0.1,0.6,0c0.2,0.1,0.3,0.3,0.3,0.6c0,0.2,0,0.4,0,0.6
				c0,0.2-0.1,0.4-0.2,0.6c-0.1,0.2-0.2,0.3-0.3,0.4C383,518.6,382.8,518.7,382.7,518.7z M383.8,536.8c-0.1,0-0.2,0-0.4-0.1
				c-0.2,0-0.3-0.1-0.5-0.2s-0.3-0.2-0.4-0.3c-0.1-0.1-0.2-0.2-0.2-0.4l0-13.6c0-0.1,0.1-0.2,0.2-0.4s0.2-0.2,0.4-0.3
				c0.2-0.1,0.3-0.1,0.5-0.2c0.2,0,0.3-0.1,0.4-0.1L383.8,536.8z"/>
			<path fill="#C9325E" d="M385.8,525.3c-0.1-0.2-0.1-0.6-0.2-0.9c-0.1-0.4-0.2-0.8-0.3-1.2s-0.1-0.8-0.1-1.1c0-0.4,0.1-0.6,0.2-0.9
				c0.1-0.2,0.3-0.3,0.6-0.4c0.3,0,0.7,0.1,1.2,0.4c0,0.2,0.1,0.5,0.2,0.9c0.1,0.4,0.1,0.9,0.2,1.4c0.1,0.5,0.1,1,0.2,1.4
				s0.1,0.8,0.1,0.9c0.3-0.8,0.8-1.5,1.3-2.1s1.1-1.3,1.8-1.8c0.7-0.5,1.5-0.9,2.3-1.2c0.8-0.3,1.7-0.5,2.7-0.5l-0.3,1.6
				c-1.2,0.2-2.3,0.7-3.4,1.5c-1,0.8-1.9,1.9-2.6,3.1c-0.7,1.3-1.2,2.8-1.4,4.5s-0.1,3.6,0.3,5.6l-1.8,0.4c0,0,0-0.3-0.1-0.7
				c0-0.4-0.1-1-0.1-1.7s-0.1-1.5-0.2-2.3c-0.1-0.9-0.1-1.7-0.2-2.6s-0.1-1.7-0.2-2.5C385.9,526.5,385.9,525.8,385.8,525.3z"/>
			<path fill="#C9325E" d="M397.2,512.3l1.6-0.2c0.1,1,0.1,2.2,0.2,3.5c0.1,1.4,0.1,2.8,0.2,4.3s0.1,3,0.1,4.6c0,1.6,0.1,3,0.1,4.4
				c0,1.4,0.1,2.7,0.1,3.8c0,1.1,0.1,2,0.1,2.6c0,0.3,0,0.5-0.1,0.7c-0.1,0.2-0.2,0.4-0.3,0.5s-0.3,0.1-0.5,0
				c-0.2-0.1-0.3-0.3-0.5-0.6L397.2,512.3z"/>
			<path fill="#C9325E" d="M401,531.3c0.2-0.3,0.3-0.5,0.5-0.6s0.5-0.1,0.8-0.1c0.7,0.6,1.4,1.2,2.1,1.8s1.4,1,2.2,1.4
				c0.8,0.4,1.6,0.7,2.4,0.9c0.8,0.2,1.8,0.4,2.7,0.4c0.2,0,0.4,0,0.6,0c0.2,0,0.5,0,0.7-0.1c0.2-0.1,0.4-0.2,0.5-0.3
				c0.1-0.2,0.2-0.4,0.2-0.6c-0.1-0.6-0.4-1.1-0.9-1.5c-0.5-0.4-1.1-0.8-1.9-1.2c-0.7-0.4-1.5-0.8-2.3-1.2c-0.8-0.4-1.6-0.9-2.3-1.4
				s-1.2-1.1-1.6-1.8c-0.4-0.7-0.6-1.5-0.5-2.4c0-0.5,0.2-1,0.5-1.4s0.8-0.8,1.2-1.1c0.5-0.3,1-0.5,1.5-0.7c0.5-0.2,1-0.2,1.4-0.2
				c0.8,0,1.6,0.1,2.5,0.4c0.8,0.2,1.6,0.6,2.2,1l-0.8,1.1c-0.3-0.3-0.8-0.5-1.3-0.6c-0.5-0.1-1-0.2-1.5-0.2c-0.5,0-1,0-1.6,0.1
				c-0.5,0.1-1,0.2-1.3,0.4c-0.4,0.2-0.7,0.4-0.9,0.7c-0.2,0.3-0.2,0.6-0.2,0.9c0,0.9,0.2,1.6,0.7,2.2s1.1,1,1.8,1.4
				c0.7,0.4,1.5,0.8,2.3,1.1s1.6,0.7,2.3,1.1c0.7,0.4,1.3,0.9,1.8,1.4c0.5,0.6,0.7,1.3,0.7,2.1c0,0.5-0.1,1-0.3,1.3
				c-0.2,0.3-0.4,0.6-0.7,0.7c-0.3,0.2-0.6,0.3-1,0.3c-0.4,0.1-0.8,0.1-1.3,0.1c-1,0-2.1-0.1-3.2-0.4s-2.2-0.6-3.2-1.1
				c-1-0.5-2-1-2.9-1.7S401.6,532.1,401,531.3z"/>
		</g>
	</g>
	<text transform="matrix(1 0 0 1 233.9419 560.0576)" fill="#C9325E" font-family="'Lato-Bold'" font-size="15.8312">Budapest, 16th May 2015</text>
</g>
</svg>
