<?xml version="1.0" encoding="UTF-8"?>
<svg id="Layer_1" data-name="Layer 1" xmlns="http://www.w3.org/2000/svg" version="1.1" viewBox="0 0 600 490">
  <defs>
    <style>
      .cls-1 {
        fill: #ff8d02;
        stroke-width: 0px;
      }
    </style>
  </defs>
  <g>
    <path class="cls-1" d="M72.9,5.2h32.5v150.4c-16.7,3.2-28.9,4.4-42.2,4.4-39.7,0-60.4-17.9-60.4-52.3s22-54.7,55.9-54.7,9.3.4,14.1,1.7V5.2h0ZM72.9,81c-3.8-1.3-7-1.7-11-1.7-16.5,0-26,10.1-26,27.9s9.1,26.8,25.8,26.8,6.5-.2,11.2-.8v-52.1h0Z"/>
    <path class="cls-1" d="M157.1,55.4v75.4c0,26-1.9,38.4-7.6,49.2-5.3,10.3-12.2,16.9-26.6,24.1l-30.2-14.4c14.4-6.8,21.3-12.7,25.7-21.7,4.6-9.3,6.1-20.1,6.1-48.3V55.4h32.6ZM124.6,5.4h32.5v33.3h-32.5s0-33.3,0-33.3Z"/>
    <path class="cls-1" d="M176.7,62.8c14.4-6.8,28.1-9.7,43.1-9.7s27.6,4.4,32.5,13.1c2.7,4.9,3.6,11.2,3.6,24.7v66.1c-14.6,2.1-32.9,3.6-46.4,3.6-27.2,0-39.5-9.5-39.5-30.6s16.3-33.3,56.1-36.7v-7.2c0-5.9-3-8-11.2-8-12,0-25.5,3.4-38.2,9.9v-25.1h0ZM227.6,114.5c-21.5,2.1-28.5,5.5-28.5,13.9s4,9.3,12.9,9.3,9.3-.4,15.6-1.5v-21.7h0Z"/>
    <path class="cls-1" d="M271.7,60.5c19.2-5.1,35-7.4,51.1-7.4s28.7,3.8,35.9,11.2c6.8,7,8.9,14.6,8.9,30.8v63.7h-32.5v-62.5c0-12.5-4.2-17.1-15.8-17.1s-8.4.4-15,2.3v77.2h-32.5V60.5h-.1Z"/>
    <path class="cls-1" d="M380.2,176.6c11.4,5.9,22.8,8.7,34.8,8.7,21.3,0,30.4-8.7,30.4-29.3v-.6c-6.3,3.2-12.7,4.4-21.1,4.4-28.5,0-46.6-18.8-46.6-48.5s26.8-57.8,74.3-57.8,26.8,1.5,42.4,4.6l-11.1,23.4c-8.7-1.7-.7-.2-7.2-.9v3.4l.4,13.7.2,17.7c.2,4.4.2,8.9.4,13.3v8.9c0,27.9-2.3,40.9-9.3,51.7-10.1,15.8-27.6,23.6-52.6,23.6s-23.6-1.9-35-6.3v-30h0ZM444.8,79.5h-3.4c-6.3-.2-13.7,1.5-18.8,4.6-7.8,4.4-11.8,12.5-11.8,23.9,0,16.3,8,25.5,22.4,25.5s8-.8,12.2-2.1v-11.2c0-3.8-.2-8-.2-12.5l-.2-15-.2-10.8v-2.5h0Z"/>
    <path class="cls-1" d="M544.8,52.7c32.5,0,52.3,20.5,52.3,53.6s-20.7,55.3-53.6,55.3-52.6-20.5-52.6-53.4,20.7-55.5,53.8-55.5h0ZM544.2,135.4c12.5,0,19.8-10.3,19.8-28.3s-7.2-28.3-19.6-28.3-20.3,10.3-20.3,28.3,7.4,28.3,20.1,28.3Z"/>
  </g>
  <g>
    <path class="cls-1" d="M103.2,484.6c-4,.4-8.1.1-12.1-.9-4-1.1-7.6-2.6-10.8-4.6s-5.6-4.5-7.4-7.4-2.4-6-1.8-9.3c3,0,5.7.6,8,1.8,2.3,1.2,4.6,2.5,7,4,2.3,1.5,4.8,2.8,7.3,4s5.6,1.8,9.2,1.8c8.7,0,16-1.9,21.9-5.6s10.7-8.7,14.3-14.8c3.6-6.1,6.2-13.1,7.8-20.8,1.6-7.7,2.4-15.6,2.4-23.7s-.1-5.4-.3-9.9-.5-9.6-.8-15.2-.6-11.5-1-17.8c-.4-6.2-.8-12.1-1.1-17.8-.4-5.6-.8-10.7-1.1-15.2-.4-4.5-.7-7.8-1-9.9-1.2,3-2.7,6.7-4.5,11s-3.9,8.9-6.2,13.7c-2.3,4.8-4.9,9.6-7.9,14.3-2.9,4.7-6.2,9-9.8,12.7-3.6,3.7-7.5,6.8-11.8,9.1-4.3,2.3-8.8,3.5-13.6,3.5s-4.5-1.3-6-3.8c-1.4-2.5-2.5-5.5-3.3-8.8s-1.2-6.6-1.5-9.8c-.2-3.2-.3-5.5-.3-6.9-.8-9.6-.8-19.1,0-28.4.7-9.4,2.3-18.1,4.6-26.3,2.3-8.2,5.4-15.5,9.2-21.9,3.8-6.4,8.5-11.5,14-15.2s11.9-5.8,19-6.3,15.1,1.1,23.9,4.8c2.4-.3,4,1.1,4.8,4,.8,3,1.2,6.7,1.1,11,0,4.3-.3,8.9-.8,13.7-.4,4.8-.8,8.8-.9,12.1,0,7.8.3,15.6.9,23.4.6,7.8,1.3,15.5,2.1,23.3.8,7.7,1.5,15.4,2.1,23.2.6,7.7.9,15.5.9,23.3s-.9,18.5-2.7,28.4c-1.8,10-4.9,19.2-9.3,27.6-4.4,8.5-10.3,15.5-17.5,21-7.3,5.5-16.3,8.3-27.1,8.3v.3ZM89.5,353.1c0,1.5,0,3.3,0,5.5,0,2.2.4,4.3.9,6.3s1.3,3.7,2.5,5.2c1.1,1.4,2.7,2.1,4.8,2.1,4.2,0,8.1-1.9,11.7-5.7s6.9-8.7,10-14.6,5.8-12.5,8.3-19.7,4.6-14.2,6.3-21.1,3-13.2,3.9-18.8c.9-5.6,1.3-9.8,1.3-12.5-9.1-3.3-16.9-3.2-23.4.2-6.4,3.4-11.7,8.9-15.6,16.3-4,7.4-6.9,16.2-8.7,26.3s-2.5,20.3-2.2,30.5h0Z"/>
    <path class="cls-1" d="M179,239.3c-1.1,0-2.2-.4-3.6-1.1-1.3-.7-2.5-1.7-3.5-2.8s-1.7-2.3-2-3.6c-.4-1.3-.1-2.4.8-3.3.6-1.8,1.8-3.4,3.6-4.9s3.7-2.5,5.6-3c1.9-.5,3.6-.4,5.1.2,1.4.7,2.1,2.4,2.1,5.1s-.1,2.8-.3,4.4-.7,3-1.3,4.4c-.7,1.3-1.5,2.5-2.6,3.4s-2.3,1.3-3.8,1.3h-.1ZM188.4,384.1c-.8,0-1.7-.2-2.9-.4-1.2-.3-2.4-.8-3.6-1.3-1.2-.6-2.2-1.3-3-2.1-.8-.8-1.2-1.8-1.2-2.8l-.2-108.1c0-1,.4-2,1.2-2.8s1.8-1.5,3-2.1,2.4-1,3.6-1.3c1.2-.3,2.2-.4,2.9-.4l.2,121.6v-.3Z"/>
    <path class="cls-1" d="M204.4,291.9c-.4-1.9-1.1-4.4-1.8-7.4-.8-3-1.4-6.1-2-9.2s-.9-6.1-.9-9,.4-5.1,1.3-6.9c.9-1.7,2.5-2.7,4.7-2.9s5.4.8,9.4,3c.3,1.5.7,4,1.2,7.5s1.1,7.3,1.7,11.2c.6,4,1.1,7.7,1.6,11.2.4,3.5.7,6,.7,7.5,2.7-6,6.1-11.7,10.3-17.1s9.1-10.1,14.6-14.2c5.5-4,11.6-7.3,18.2-9.7,6.6-2.4,13.6-3.6,21.1-3.6l-2.2,12.8c-9.6,1.7-18.5,5.7-26.9,12.1-8.3,6.4-15.3,14.8-20.8,25s-9.3,22.1-11.1,35.7c-1.9,13.6-1.2,28.5,2.1,44.5l-14.2,2.9c-.2-.2-.4-2-.7-5.5s-.7-8.1-1.1-13.6c-.4-5.5-.9-11.8-1.3-18.7-.4-6.9-.9-13.8-1.3-20.7-.4-6.9-.9-13.4-1.5-19.7-.5-6.2-.9-11.4-1.2-15.6v.4Z"/>
    <path class="cls-1" d="M294.7,188.7l12.6-1.8c.6,7.9,1.2,17.3,1.7,28.1s1,22.2,1.3,34.2c.4,12,.7,24.2,1,36.5.3,12.4.6,24.1.8,35.2.2,11.1.5,21.1.8,30s.7,15.9,1.1,21c0,2.1-.4,4.1-1.1,6-.8,1.9-1.7,3.2-2.7,4-1.1.8-2.2.9-3.6.3-1.3-.6-2.5-2.2-3.6-4.9l-8.3-188.6h0Z"/>
    <path class="cls-1" d="M324.6,340c1.2-2.5,2.6-4.2,4.3-4.8,1.6-.7,3.8-.9,6.5-.6,5.4,4.9,10.9,9.6,16.5,13.9s11.5,8.1,17.6,11.2,12.6,5.7,19.3,7.5c6.7,1.9,13.9,2.8,21.6,2.8h5.2c1.9,0,3.7-.3,5.3-.8,1.6-.5,2.9-1.4,4-2.6s1.7-2.9,1.7-5.2c-.6-4.5-3-8.4-7.1-11.8s-9.1-6.6-14.9-9.7-12.1-6.2-18.7-9.4c-6.6-3.2-12.6-6.9-18-11s-9.7-8.8-13-14.2c-3.3-5.3-4.6-11.7-3.8-19.2,0-4.2,1.3-7.9,4-11.2,2.7-3.3,6-6.1,9.9-8.4s8-4.1,12.3-5.4,8.1-1.9,11.4-1.9c6.4,0,13,.9,19.7,2.8s12.6,4.6,17.9,8.2l-6.1,8.5c-2.7-2.2-6-3.9-10-5.1-4-1.1-8.1-1.7-12.3-1.8-4.2,0-8.3.3-12.4,1-4,.8-7.6,1.9-10.7,3.5s-5.4,3.4-7,5.6-2,4.5-1.2,7.1c0,7,1.9,12.8,5.6,17.2,3.7,4.4,8.5,8.2,14.2,11.5,5.7,3.2,11.8,6.1,18.4,8.7,6.6,2.5,12.7,5.4,18.4,8.7,5.7,3.2,10.4,7,14.2,11.5,3.7,4.4,5.6,10.1,5.6,17s-.7,7.8-2.1,10.3-3.3,4.5-5.6,5.8c-2.3,1.3-5.1,2.2-8.3,2.7-3.2.4-6.6.7-10.2.7-8.1,0-16.5-1-25.2-3.1s-17.2-5-25.4-8.8c-8.2-3.7-16-8.3-23.2-13.6-7.2-5.3-13.3-11.2-18.4-17.6h0Z"/>
  </g>
  <g>
    <path class="cls-1" d="M495.1,369.7c.2,0,.4-.2.6-.2-.2,0-.4.2-.6.2Z"/>
    <path class="cls-1" d="M497.5,368.2c.2-.2.3-.3.4-.5-.1.2-.3.3-.4.5Z"/>
    <path class="cls-1" d="M498.7,366.6c-.2.3-.4.6-.6.9.2-.3.4-.6.6-.9Z"/>
    <path class="cls-1" d="M498.1,367.6c.2-.3.4-.6.6-.9-.2.3-.4.6-.6.9ZM498,367.7c-.1.2-.3.3-.4.5.2-.2.3-.3.4-.5ZM495.7,369.5c-.2,0-.4.2-.6.2.2,0,.4-.2.6-.2Z"/>
  </g>
  <path class="cls-1" d="M499.5,321.9c8.2-.1,17.4-.2,27.9-.3,3.1,0,5.5-2.5,5.5-5.6s-2.5-5.5-5.5-5.5h0c-10.9,0-20.6.2-29.1.4h0v-.2c0-3.3-.8-13.8-2.2-23.1-.8-5.5-1.8-9.9-2.9-13-1.4-4.1-3-6.1-4.8-6.1h0c-.9,0-2,.4-2.6,2.4-.3,1.1-.4,2.4-.4,3.7-.1,2.9,0,5.8.2,8.6.4,9.3.9,18.7,1.3,28-22.3.6-33.3,1.3-33.5,1.3-3.1.2-5.4,2.6-5.2,5.7.2,2.9,2.6,4.9,5.5,4.9s.2,0,.3,0c.2,0,10.9,0,32.7-.4v1.4l-.2,22v15.4c-.2,1.6-.2,3.4.5,5,1,2.4,3.5,4.2,6.1,4.2h.1c2.6,0,5.1-1.6,6.2-4,.8-1.7.8-3.6.8-5.3l-.7-39.5ZM497.5,368.2c.2-.2.3-.3.4-.5-.1.2-.3.3-.4.5Z"/>
</svg>